G04 #@! TF.FileFunction,Copper,L4,Bot,Signal*
%FSLAX46Y46*%
G04 Gerber Fmt 4.6, Leading zero omitted, Abs format (unit mm)*
G04 Created by KiCad (PCBNEW 4.0.7) date 06/14/18 13:46:53*
%MOMM*%
%LPD*%
G01*
G04 APERTURE LIST*
%ADD10C,0.100000*%
%ADD11C,0.900000*%
%ADD12R,1.524000X2.286000*%
%ADD13O,1.524000X2.286000*%
%ADD14C,2.286000*%
%ADD15C,0.508000*%
%ADD16C,0.889000*%
%ADD17C,0.635000*%
%ADD18C,0.254000*%
%ADD19C,0.125000*%
%ADD20C,0.152400*%
G04 APERTURE END LIST*
D10*
D11*
X132902960Y-42164000D03*
X134172960Y-42164000D03*
X135442960Y-42164000D03*
X136712960Y-42164000D03*
X137982960Y-42164000D03*
X139252960Y-42164000D03*
X140522960Y-42164000D03*
X141792960Y-42164000D03*
X143062960Y-42164000D03*
X144332960Y-42164000D03*
X145602960Y-42164000D03*
X146872960Y-42164000D03*
X148142960Y-42164000D03*
X149412960Y-42164000D03*
X150682960Y-42164000D03*
X151952960Y-42164000D03*
X153222960Y-42164000D03*
X154492960Y-42164000D03*
X155762960Y-42164000D03*
X157032960Y-42164000D03*
X132902960Y-43434000D03*
X134172960Y-43434000D03*
X135442960Y-43434000D03*
X136712960Y-43434000D03*
X137982960Y-43434000D03*
X139252960Y-43434000D03*
X140522960Y-43434000D03*
X141792960Y-43434000D03*
X143062960Y-43434000D03*
X144332960Y-43434000D03*
X145602960Y-43434000D03*
X146872960Y-43434000D03*
X148142960Y-43434000D03*
X149412960Y-43434000D03*
X150682960Y-43434000D03*
X151952960Y-43434000D03*
X153222960Y-43434000D03*
X154492960Y-43434000D03*
X155762960Y-43434000D03*
X157032960Y-43434000D03*
X132902960Y-96520000D03*
X134172960Y-96520000D03*
X135442960Y-96520000D03*
X136712960Y-96520000D03*
X137982960Y-96520000D03*
X139252960Y-96520000D03*
X140522960Y-96520000D03*
X141792960Y-96520000D03*
X143062960Y-96520000D03*
X144332960Y-96520000D03*
X145602960Y-96520000D03*
X146872960Y-96520000D03*
X148142960Y-96520000D03*
X149412960Y-96520000D03*
X150682960Y-96520000D03*
X151952960Y-96520000D03*
X153222960Y-96520000D03*
X154492960Y-96520000D03*
X155762960Y-96520000D03*
X157032960Y-96520000D03*
X132902960Y-97790000D03*
X134172960Y-97790000D03*
X135442960Y-97790000D03*
X136712960Y-97790000D03*
X137982960Y-97790000D03*
X139252960Y-97790000D03*
X140522960Y-97790000D03*
X141792960Y-97790000D03*
X143062960Y-97790000D03*
X144332960Y-97790000D03*
X145602960Y-97790000D03*
X146872960Y-97790000D03*
X148142960Y-97790000D03*
X149412960Y-97790000D03*
X150682960Y-97790000D03*
X151952960Y-97790000D03*
X153222960Y-97790000D03*
X154492960Y-97790000D03*
X155762960Y-97790000D03*
X157032960Y-97790000D03*
D12*
X122428000Y-36068000D03*
D13*
X124968000Y-36068000D03*
X127508000Y-36068000D03*
X130048000Y-36068000D03*
X132588000Y-36068000D03*
X135128000Y-36068000D03*
X137668000Y-36068000D03*
X140208000Y-36068000D03*
X142748000Y-36068000D03*
X145288000Y-36068000D03*
X147828000Y-36068000D03*
X150368000Y-36068000D03*
X152908000Y-36068000D03*
X155448000Y-36068000D03*
X157988000Y-36068000D03*
X160528000Y-36068000D03*
X163068000Y-36068000D03*
X165608000Y-36068000D03*
X168148000Y-36068000D03*
X170688000Y-36068000D03*
X122428000Y-33020000D03*
X124968000Y-33020000D03*
X127508000Y-33020000D03*
X130048000Y-33020000D03*
X132588000Y-33020000D03*
X135128000Y-33020000D03*
X137668000Y-33020000D03*
X140208000Y-33020000D03*
X142748000Y-33020000D03*
X145288000Y-33020000D03*
X147828000Y-33020000D03*
X150368000Y-33020000D03*
X152908000Y-33020000D03*
X155448000Y-33020000D03*
X157988000Y-33020000D03*
X160528000Y-33020000D03*
X163068000Y-33020000D03*
X165608000Y-33020000D03*
X168148000Y-33020000D03*
X170688000Y-33020000D03*
D12*
X122428000Y-112014000D03*
D13*
X124968000Y-112014000D03*
X127508000Y-112014000D03*
X130048000Y-112014000D03*
X132588000Y-112014000D03*
X135128000Y-112014000D03*
X137668000Y-112014000D03*
X140208000Y-112014000D03*
X142748000Y-112014000D03*
X145288000Y-112014000D03*
X147828000Y-112014000D03*
X150368000Y-112014000D03*
X152908000Y-112014000D03*
X155448000Y-112014000D03*
X157988000Y-112014000D03*
X160528000Y-112014000D03*
X163068000Y-112014000D03*
X165608000Y-112014000D03*
X168148000Y-112014000D03*
X170688000Y-112014000D03*
X122428000Y-108966000D03*
X124968000Y-108966000D03*
X127508000Y-108966000D03*
X130048000Y-108966000D03*
X132588000Y-108966000D03*
X135128000Y-108966000D03*
X137668000Y-108966000D03*
X140208000Y-108966000D03*
X142748000Y-108966000D03*
X145288000Y-108966000D03*
X147828000Y-108966000D03*
X150368000Y-108966000D03*
X152908000Y-108966000D03*
X155448000Y-108966000D03*
X157988000Y-108966000D03*
X160528000Y-108966000D03*
X163068000Y-108966000D03*
X165608000Y-108966000D03*
X168148000Y-108966000D03*
X170688000Y-108966000D03*
D14*
X63408560Y-102362000D03*
X68488560Y-102362000D03*
X73568560Y-102362000D03*
X78648560Y-102362000D03*
D15*
X59065160Y-43266360D03*
X59827160Y-63027560D03*
X98308160Y-54602380D03*
X103121460Y-53299360D03*
X73314560Y-60495180D03*
X73312020Y-32555180D03*
X94404180Y-55229760D03*
X112664240Y-67861180D03*
X111005620Y-32801560D03*
X73058020Y-65730120D03*
X103886000Y-42031920D03*
X105239820Y-44058840D03*
X102532180Y-44061380D03*
X106824780Y-53842920D03*
X108775500Y-53840380D03*
X110075980Y-47939960D03*
X65519300Y-31628080D03*
X63309500Y-33545780D03*
X102532180Y-71991220D03*
X86042500Y-55143400D03*
X96253300Y-58148220D03*
X63309500Y-61485780D03*
X65519300Y-59585860D03*
X86042500Y-45953680D03*
X96253300Y-45961300D03*
X97675700Y-49171860D03*
X67594480Y-57701180D03*
X61701680Y-68854320D03*
X65336420Y-65659000D03*
X69227700Y-68704460D03*
X69232780Y-40769540D03*
X65331340Y-37716460D03*
X61704220Y-40911780D03*
X73060560Y-37795200D03*
X75725020Y-61625480D03*
D16*
X89910000Y-66040000D03*
D15*
X81180940Y-70665340D03*
X106118660Y-62133480D03*
X104968040Y-61338460D03*
X79910940Y-61422280D03*
X75727560Y-33685480D03*
X81180940Y-42705020D03*
X79916020Y-33421320D03*
D16*
X89910000Y-38100000D03*
D15*
X104965500Y-33403540D03*
X106118660Y-34196020D03*
X127828040Y-93444060D03*
X106680000Y-82359500D03*
X115824000Y-99695000D03*
D17*
X157010100Y-67409060D03*
X126552960Y-43042840D03*
X124825760Y-52044600D03*
D15*
X123169680Y-43464480D03*
X115310920Y-47177960D03*
X113908840Y-43459400D03*
X74490580Y-52362100D03*
X78473300Y-47561500D03*
X80726280Y-50855880D03*
X162514280Y-74975720D03*
X151513540Y-74975720D03*
X149811740Y-70904100D03*
X164675820Y-70906640D03*
X117525800Y-73858120D03*
X117972840Y-77058520D03*
X117525800Y-81500980D03*
X117972840Y-84660740D03*
X120365520Y-72892920D03*
X120362980Y-80515460D03*
X125503940Y-78201520D03*
X125503940Y-85826600D03*
X122562620Y-75664060D03*
X122562620Y-83284060D03*
X127622300Y-72892920D03*
X127622300Y-80515460D03*
X127596900Y-88130380D03*
X110220760Y-99598480D03*
X105448100Y-98465640D03*
D16*
X90931080Y-104743780D03*
D15*
X103121460Y-104744520D03*
X109702600Y-109667040D03*
X111800640Y-108140500D03*
X109705140Y-106481880D03*
X82443320Y-95544640D03*
X79664560Y-95547180D03*
X76573380Y-92400120D03*
X108887260Y-86982300D03*
X108173520Y-86969600D03*
X107386120Y-86967060D03*
X108887260Y-87762080D03*
X108173520Y-87762080D03*
X107383580Y-87762080D03*
X105717340Y-82356960D03*
X80992980Y-84183220D03*
X82288380Y-82847180D03*
X79598520Y-82847180D03*
X80995520Y-81473040D03*
X74058780Y-94122240D03*
X80096360Y-36431220D03*
X80096360Y-64569340D03*
X66380360Y-48600360D03*
X103121460Y-50091340D03*
X90464640Y-54173120D03*
D17*
X113573560Y-104607360D03*
X113573560Y-103591360D03*
X113573560Y-102575360D03*
X112303560Y-102552500D03*
X112303560Y-104607360D03*
X112303560Y-103591360D03*
D15*
X129374200Y-89629680D03*
X129399600Y-82014760D03*
X129401440Y-74392920D03*
X115493800Y-77886560D03*
X112478820Y-48409860D03*
X112151160Y-54594760D03*
X87409020Y-55067200D03*
X97678240Y-50670460D03*
X115824000Y-105664000D03*
D17*
X149811740Y-67510660D03*
X157012640Y-74909680D03*
X126552960Y-47551340D03*
D15*
X119710200Y-43467020D03*
X117368320Y-43461940D03*
X75138280Y-47558960D03*
X164668200Y-67447160D03*
X115491260Y-85689440D03*
X119334280Y-78064360D03*
X119331740Y-85704680D03*
X122549920Y-90906600D03*
X108455460Y-45940980D03*
X110662720Y-44686220D03*
X108458000Y-43431460D03*
X108455460Y-73868280D03*
X106253280Y-72613520D03*
X110662720Y-72613520D03*
X108460540Y-71358760D03*
X68727320Y-59588400D03*
X68729860Y-31628080D03*
X75890120Y-69692520D03*
X76702920Y-64957960D03*
X76713080Y-37033200D03*
X75892660Y-41752520D03*
X77972920Y-70665340D03*
X77970380Y-42707560D03*
X106870500Y-80708500D03*
X110614460Y-96225360D03*
X110030260Y-96225360D03*
X105453180Y-109682280D03*
X105453180Y-106646980D03*
X105717340Y-80594200D03*
X110614460Y-94818200D03*
X110027720Y-94810580D03*
X110614460Y-95539560D03*
X110030260Y-95539560D03*
X106118660Y-37089080D03*
X108132880Y-47853600D03*
X102760780Y-32405320D03*
X107482640Y-47858680D03*
X111836200Y-62534800D03*
X110723680Y-57863740D03*
X102758240Y-60302140D03*
X102760780Y-57711340D03*
X150708360Y-100606900D03*
X143690340Y-100606900D03*
X139331894Y-45544546D03*
X156723080Y-102781100D03*
X144973040Y-102776070D03*
X147500761Y-99301300D03*
X161792920Y-99311470D03*
X166936420Y-99743280D03*
X148770340Y-99743280D03*
X122428000Y-104937560D03*
X150045420Y-104935120D03*
X149922392Y-49480696D03*
X153428700Y-73088500D03*
X154002934Y-53116286D03*
X154165300Y-71945500D03*
X115702080Y-65062100D03*
X115702080Y-63566040D03*
X115702080Y-64338200D03*
X113771680Y-65001140D03*
X113771680Y-63611760D03*
X113771680Y-64338200D03*
X153850340Y-100175090D03*
X143062960Y-100175090D03*
X139798866Y-45077574D03*
X159258000Y-102344220D03*
X145602960Y-102344260D03*
X164343080Y-98861880D03*
X146872960Y-98861880D03*
X148142960Y-104071500D03*
X124968000Y-104503220D03*
X149412960Y-104503310D03*
X150389364Y-49947668D03*
X152768300Y-73088500D03*
X154469906Y-52649314D03*
X154825700Y-71945500D03*
X158277754Y-89568214D03*
X155125420Y-105798740D03*
X156247906Y-92984126D03*
X151323040Y-101912420D03*
X127508000Y-101912420D03*
X152742900Y-103639690D03*
X132588000Y-103639690D03*
X146601180Y-101038710D03*
X142420340Y-101038710D03*
X136403080Y-99311470D03*
X139880340Y-99311470D03*
X158744726Y-90035186D03*
X140208000Y-105366820D03*
X154492960Y-105366930D03*
X155780934Y-92517154D03*
X151952960Y-101480640D03*
X130048000Y-101480610D03*
X153222960Y-103207880D03*
X135128000Y-103207880D03*
X141790420Y-106230550D03*
X144335500Y-99743280D03*
X140522960Y-99743280D03*
X80670400Y-45953680D03*
X72638920Y-40030400D03*
X66024760Y-51394360D03*
X117736620Y-67256660D03*
X117736620Y-51366420D03*
X114833400Y-82105500D03*
X114752120Y-51366420D03*
X107475020Y-51366420D03*
X89771220Y-51366420D03*
X81978500Y-51366420D03*
X66685160Y-52461160D03*
X117223540Y-51879499D03*
X113057940Y-51879499D03*
X106832400Y-51879499D03*
X89301320Y-51879499D03*
X81155540Y-51879499D03*
X96161860Y-41498520D03*
X68958460Y-38943280D03*
X72369680Y-32557720D03*
X77556360Y-39303960D03*
X72367140Y-60497720D03*
X77558900Y-67284600D03*
X66606420Y-62791340D03*
D18*
X59065160Y-43266360D02*
X59115960Y-43266360D01*
X106128820Y-45692060D02*
X106128820Y-37078920D01*
X106128820Y-37078920D02*
X106118660Y-37089080D01*
X107965241Y-47528481D02*
X106128820Y-45692060D01*
X108132880Y-47853600D02*
X108132880Y-47696120D01*
X108132880Y-47696120D02*
X107965241Y-47528481D01*
X107482640Y-47858680D02*
X102760780Y-43136820D01*
X102760780Y-43136820D02*
X102760780Y-32405320D01*
X110723680Y-57863740D02*
X111836200Y-58976260D01*
X111836200Y-58976260D02*
X111836200Y-62534800D01*
X102760780Y-57711340D02*
X102760780Y-60299600D01*
X102760780Y-60299600D02*
X102758240Y-60302140D01*
D19*
X136035324Y-40310110D02*
X136712960Y-40987746D01*
X136712960Y-40987746D02*
X136712960Y-41859000D01*
X136712960Y-41859000D02*
X136712960Y-42164000D01*
X131806224Y-40310110D02*
X136035324Y-40310110D01*
X130048000Y-38551886D02*
X131806224Y-40310110D01*
X130048000Y-35814000D02*
X130048000Y-38551886D01*
X137264474Y-39497100D02*
X137982960Y-40215586D01*
X137982960Y-40215586D02*
X137982960Y-41859000D01*
X137982960Y-41859000D02*
X137982960Y-42164000D01*
X134112334Y-39497100D02*
X137264474Y-39497100D01*
X132588000Y-37972766D02*
X134112334Y-39497100D01*
X132588000Y-35814000D02*
X132588000Y-37972766D01*
D20*
X152908000Y-111760000D02*
X151627840Y-110479840D01*
X151627840Y-110479840D02*
X151627840Y-104165400D01*
X151627840Y-104165400D02*
X150708360Y-103245920D01*
X150708360Y-103245920D02*
X150708360Y-100606900D01*
X143690761Y-100174669D02*
X143690761Y-100606479D01*
X143690761Y-100606479D02*
X143690340Y-100606900D01*
X143690761Y-97147801D02*
X143690761Y-100174669D01*
X143690761Y-100174669D02*
X143690340Y-100175090D01*
X139252960Y-42164000D02*
X138948160Y-42468800D01*
X138625159Y-43132655D02*
X138625159Y-43735345D01*
X138948160Y-44058346D02*
X138948160Y-44909366D01*
X138948160Y-42468800D02*
X138948160Y-42809654D01*
X138948160Y-42809654D02*
X138625159Y-43132655D01*
X138625159Y-43735345D02*
X138948160Y-44058346D01*
X138948160Y-44909366D02*
X139331894Y-45293100D01*
X139331894Y-45293100D02*
X139331894Y-45544546D01*
D19*
X138163634Y-38603020D02*
X139252960Y-39692346D01*
X139252960Y-39692346D02*
X139252960Y-41859000D01*
X139252960Y-41859000D02*
X139252960Y-42164000D01*
X135656864Y-38603020D02*
X138163634Y-38603020D01*
X135128000Y-38074156D02*
X135656864Y-38603020D01*
X135128000Y-35814000D02*
X135128000Y-38074156D01*
D20*
X143062960Y-96520000D02*
X143690761Y-97147801D01*
X156723080Y-110495080D02*
X156723080Y-102781100D01*
X145602960Y-96520000D02*
X144973040Y-97149920D01*
X144973040Y-97149920D02*
X144973040Y-102776070D01*
D19*
X140208000Y-38315666D02*
X141792960Y-39900626D01*
X141792960Y-39900626D02*
X141792960Y-41859000D01*
X141792960Y-41859000D02*
X141792960Y-42164000D01*
X140208000Y-35814000D02*
X140208000Y-38315666D01*
D20*
X157988000Y-111760000D02*
X156723080Y-110495080D01*
X147500761Y-97147801D02*
X147500761Y-99301300D01*
X146872960Y-96520000D02*
X147500761Y-97147801D01*
D19*
X142748000Y-39458666D02*
X143062960Y-39773626D01*
X143062960Y-39773626D02*
X143062960Y-41859000D01*
X143062960Y-41859000D02*
X143062960Y-42164000D01*
X142748000Y-35814000D02*
X142748000Y-39458666D01*
D20*
X161792920Y-110484920D02*
X161792920Y-99311460D01*
X163068000Y-111760000D02*
X161792920Y-110484920D01*
X166936420Y-110548420D02*
X166936420Y-99743280D01*
X168148000Y-111760000D02*
X166936420Y-110548420D01*
X148770761Y-97147801D02*
X148770761Y-99742859D01*
X148770761Y-99742859D02*
X148770340Y-99743280D01*
X148142960Y-96520000D02*
X148770761Y-97147801D01*
D19*
X145288000Y-38392334D02*
X144332960Y-39347374D01*
X144332960Y-39347374D02*
X144332960Y-41859000D01*
X144332960Y-41859000D02*
X144332960Y-42164000D01*
X145288000Y-35814000D02*
X145288000Y-38392334D01*
D20*
X122428000Y-105148380D02*
X122428000Y-104937560D01*
X122428000Y-105148380D02*
X122428000Y-109220000D01*
X149412960Y-96520000D02*
X150045420Y-97152460D01*
X150045420Y-97152460D02*
X150045420Y-104935120D01*
D19*
X150368000Y-36995334D02*
X146872960Y-40490374D01*
X146872960Y-40490374D02*
X146872960Y-41859000D01*
X146872960Y-41859000D02*
X146872960Y-42164000D01*
X150368000Y-35814000D02*
X150368000Y-36995334D01*
D20*
X149922392Y-49480696D02*
X150173838Y-49480696D01*
X150173838Y-49480696D02*
X150457274Y-49197260D01*
X150457274Y-49197260D02*
X151581746Y-49197260D01*
X151581746Y-49197260D02*
X153250899Y-50866413D01*
X153250899Y-50866413D02*
X153250899Y-72910699D01*
X153250899Y-72910699D02*
X153428700Y-73088500D01*
D19*
X151384334Y-38900000D02*
X150682960Y-39601374D01*
X150682960Y-39601374D02*
X150682960Y-41859000D01*
X150682960Y-41859000D02*
X150682960Y-42164000D01*
X152654334Y-38900000D02*
X151384334Y-38900000D01*
X153543334Y-38011000D02*
X152654334Y-38900000D01*
X157607334Y-38011000D02*
X153543334Y-38011000D01*
X157988000Y-37630334D02*
X157607334Y-38011000D01*
X157988000Y-35814000D02*
X157988000Y-37630334D01*
D20*
X154343101Y-71767699D02*
X154343101Y-53205007D01*
X154343101Y-53205007D02*
X154254380Y-53116286D01*
X154254380Y-53116286D02*
X154002934Y-53116286D01*
X154165300Y-71945500D02*
X154343101Y-71767699D01*
D19*
X153619324Y-38824010D02*
X151952960Y-40490374D01*
X151952960Y-40490374D02*
X151952960Y-41859000D01*
X151952960Y-41859000D02*
X151952960Y-42164000D01*
X159715324Y-38824010D02*
X153619324Y-38824010D01*
X160528000Y-38011334D02*
X159715324Y-38824010D01*
X160528000Y-35814000D02*
X160528000Y-38011334D01*
X152908000Y-35814000D02*
X152908000Y-37630334D01*
X152908000Y-37630334D02*
X152527334Y-38011000D01*
X152527334Y-38011000D02*
X150749334Y-38011000D01*
X150749334Y-38011000D02*
X148142960Y-40617374D01*
X148142960Y-40617374D02*
X148142960Y-41859000D01*
X148142960Y-41859000D02*
X148142960Y-42164000D01*
X154076314Y-39637020D02*
X153222960Y-40490374D01*
X153222960Y-40490374D02*
X153222960Y-41859000D01*
X153222960Y-41859000D02*
X153222960Y-42164000D01*
X161696314Y-39637020D02*
X154076314Y-39637020D01*
X163068000Y-38265334D02*
X161696314Y-39637020D01*
X163068000Y-35814000D02*
X163068000Y-38265334D01*
D18*
X115702080Y-64338200D02*
X115702080Y-63566040D01*
X113771680Y-64338200D02*
X113771680Y-65001140D01*
X113771680Y-64338200D02*
X113771680Y-63611760D01*
D19*
X136161656Y-40005110D02*
X137017960Y-40861414D01*
X137017960Y-40861414D02*
X137017960Y-41560130D01*
X137017960Y-41560130D02*
X137327061Y-41869231D01*
X137327061Y-41869231D02*
X137327061Y-42458769D01*
X137327061Y-42458769D02*
X137017960Y-42767870D01*
X137017960Y-42767870D02*
X137017960Y-43129000D01*
X137017960Y-43129000D02*
X136712960Y-43434000D01*
X131932556Y-40005110D02*
X136161656Y-40005110D01*
X130353000Y-38425554D02*
X131932556Y-40005110D01*
X130048000Y-33274000D02*
X130353000Y-33579000D01*
X130353000Y-33579000D02*
X130353000Y-34682283D01*
X130353000Y-34682283D02*
X130974110Y-35303393D01*
X130974110Y-35303393D02*
X130974110Y-36832607D01*
X130974110Y-36832607D02*
X130353000Y-37453717D01*
X130353000Y-37453717D02*
X130353000Y-38425554D01*
X138287960Y-41560130D02*
X138597061Y-41869231D01*
X138287960Y-40089254D02*
X138287960Y-41560130D01*
X138287960Y-42767870D02*
X138287960Y-43129000D01*
X137390806Y-39192100D02*
X138287960Y-40089254D01*
X138597061Y-41869231D02*
X138597061Y-42458769D01*
X138597061Y-42458769D02*
X138287960Y-42767870D01*
X138287960Y-43129000D02*
X137982960Y-43434000D01*
X134238666Y-39192100D02*
X137390806Y-39192100D01*
X132893000Y-37846434D02*
X134238666Y-39192100D01*
X132588000Y-33274000D02*
X132893000Y-33579000D01*
X132893000Y-33579000D02*
X132893000Y-34682283D01*
X132893000Y-37453717D02*
X132893000Y-37846434D01*
X132893000Y-34682283D02*
X133514110Y-35303393D01*
X133514110Y-35303393D02*
X133514110Y-36832607D01*
X133514110Y-36832607D02*
X132893000Y-37453717D01*
D20*
X154223720Y-106827320D02*
X153850340Y-106453940D01*
X153850340Y-106453940D02*
X153850340Y-100175090D01*
X154223720Y-110535720D02*
X154223720Y-106827320D01*
X143062960Y-97790000D02*
X143062960Y-100175090D01*
X139252960Y-44783114D02*
X139531810Y-45061964D01*
X139252960Y-43434000D02*
X139252960Y-44783114D01*
X139563534Y-45061964D02*
X139579144Y-45077574D01*
X139531810Y-45061964D02*
X139563534Y-45061964D01*
X139579144Y-45077574D02*
X139798866Y-45077574D01*
D19*
X139557960Y-39566014D02*
X139557960Y-41560130D01*
X138289966Y-38298020D02*
X139557960Y-39566014D01*
X139557960Y-41560130D02*
X139867061Y-41869231D01*
X139867061Y-41869231D02*
X139867061Y-42458769D01*
X139867061Y-42458769D02*
X139557960Y-42767870D01*
X139557960Y-42767870D02*
X139557960Y-43129000D01*
X139557960Y-43129000D02*
X139252960Y-43434000D01*
X135783196Y-38298020D02*
X138289966Y-38298020D01*
X135433000Y-37947824D02*
X135783196Y-38298020D01*
X136054110Y-36832607D02*
X135433000Y-37453717D01*
X135128000Y-33274000D02*
X135433000Y-33579000D01*
X135433000Y-33579000D02*
X135433000Y-34682283D01*
X135433000Y-34682283D02*
X136054110Y-35303393D01*
X136054110Y-35303393D02*
X136054110Y-36832607D01*
X135433000Y-37453717D02*
X135433000Y-37947824D01*
D20*
X155448000Y-111760000D02*
X154223720Y-110535720D01*
X159258000Y-110490000D02*
X159258000Y-102344220D01*
X145602960Y-97790000D02*
X145602960Y-102344260D01*
D19*
X142407061Y-41869231D02*
X142407061Y-42458769D01*
X142097960Y-42767870D02*
X142097960Y-43129000D01*
X140513000Y-38189334D02*
X142097960Y-39774294D01*
X142097960Y-39774294D02*
X142097960Y-41560130D01*
X142097960Y-41560130D02*
X142407061Y-41869231D01*
X142407061Y-42458769D02*
X142097960Y-42767870D01*
X142097960Y-43129000D02*
X141792960Y-43434000D01*
X140208000Y-33274000D02*
X140513000Y-33579000D01*
X140513000Y-33579000D02*
X140513000Y-34682283D01*
X140513000Y-34682283D02*
X141134110Y-35303393D01*
X141134110Y-35303393D02*
X141134110Y-36832607D01*
X141134110Y-36832607D02*
X140513000Y-37453717D01*
X140513000Y-37453717D02*
X140513000Y-38189334D01*
D20*
X160528000Y-111760000D02*
X159258000Y-110490000D01*
X164343080Y-98861880D02*
X164343070Y-98861870D01*
X164343070Y-98861870D02*
X164343070Y-110495090D01*
X164343070Y-110495090D02*
X164343080Y-110495080D01*
X146872960Y-97790000D02*
X146872960Y-98861880D01*
D19*
X143053000Y-39332334D02*
X143367960Y-39647294D01*
X143367960Y-39647294D02*
X143367960Y-41560130D01*
X143367960Y-41560130D02*
X143677061Y-41869231D01*
X143677061Y-41869231D02*
X143677061Y-42458769D01*
X143677061Y-42458769D02*
X143367960Y-42767870D01*
X143367960Y-42767870D02*
X143367960Y-43129000D01*
X143367960Y-43129000D02*
X143062960Y-43434000D01*
X142748000Y-33274000D02*
X143053000Y-33579000D01*
X143053000Y-33579000D02*
X143053000Y-34682283D01*
X143053000Y-34682283D02*
X143674110Y-35303393D01*
X143674110Y-35303393D02*
X143674110Y-36832607D01*
X143674110Y-36832607D02*
X143053000Y-37453717D01*
X143053000Y-37453717D02*
X143053000Y-39332334D01*
D20*
X165608000Y-111760000D02*
X164343080Y-110495080D01*
X148142960Y-97790000D02*
X148142960Y-104071500D01*
D19*
X144637960Y-42767870D02*
X144637960Y-43129000D01*
X145593000Y-38518666D02*
X144637960Y-39473706D01*
X144637960Y-39473706D02*
X144637960Y-41560130D01*
X144637960Y-41560130D02*
X144947061Y-41869231D01*
X144947061Y-41869231D02*
X144947061Y-42458769D01*
X144947061Y-42458769D02*
X144637960Y-42767870D01*
X144637960Y-43129000D02*
X144332960Y-43434000D01*
X145288000Y-33274000D02*
X145593000Y-33579000D01*
X145593000Y-33579000D02*
X145593000Y-34682283D01*
X146214110Y-35303393D02*
X146214110Y-36832607D01*
X145593000Y-34682283D02*
X146214110Y-35303393D01*
X146214110Y-36832607D02*
X145593000Y-37453717D01*
X145593000Y-37453717D02*
X145593000Y-38518666D01*
D20*
X124968000Y-104714120D02*
X124968000Y-104503220D01*
X124968000Y-109220000D02*
X124968000Y-104714120D01*
X149412960Y-97790000D02*
X149412960Y-104503310D01*
D19*
X147177960Y-41560130D02*
X147487061Y-41869231D01*
X150419556Y-37375110D02*
X147177960Y-40616706D01*
X147177960Y-40616706D02*
X147177960Y-41560130D01*
X147487061Y-41869231D02*
X147487061Y-42458769D01*
X147487061Y-42458769D02*
X147177960Y-42767870D01*
X147177960Y-42767870D02*
X147177960Y-43129000D01*
X147177960Y-43129000D02*
X146872960Y-43434000D01*
X150368000Y-33274000D02*
X150673000Y-33579000D01*
X150673000Y-33579000D02*
X150673000Y-34682283D01*
X151294110Y-36832607D02*
X150751607Y-37375110D01*
X150751607Y-37375110D02*
X150419556Y-37375110D01*
X150673000Y-34682283D02*
X151294110Y-35303393D01*
X151294110Y-35303393D02*
X151294110Y-36832607D01*
D20*
X150583526Y-49502060D02*
X151455494Y-49502060D01*
X150389364Y-49696222D02*
X150583526Y-49502060D01*
X152946101Y-50992667D02*
X152946101Y-72910699D01*
X151455494Y-49502060D02*
X152946101Y-50992667D01*
X150389364Y-49947668D02*
X150389364Y-49696222D01*
X152946101Y-72910699D02*
X152768300Y-73088500D01*
D19*
X150987960Y-43129000D02*
X150682960Y-43434000D01*
X151510666Y-39205000D02*
X150987960Y-39727706D01*
X150987960Y-39727706D02*
X150987960Y-41560130D01*
X150987960Y-41560130D02*
X151297061Y-41869231D01*
X151297061Y-41869231D02*
X151297061Y-42458769D01*
X151297061Y-42458769D02*
X150987960Y-42767870D01*
X150987960Y-42767870D02*
X150987960Y-43129000D01*
X152780666Y-39205000D02*
X151510666Y-39205000D01*
X153669666Y-38316000D02*
X152780666Y-39205000D01*
X157733666Y-38316000D02*
X153669666Y-38316000D01*
X158293000Y-37756666D02*
X157733666Y-38316000D01*
X157988000Y-33274000D02*
X158293000Y-33579000D01*
X158293000Y-33579000D02*
X158293000Y-34682283D01*
X158293000Y-34682283D02*
X158914110Y-35303393D01*
X158914110Y-35303393D02*
X158914110Y-36832607D01*
X158914110Y-36832607D02*
X158293000Y-37453717D01*
X158293000Y-37453717D02*
X158293000Y-37756666D01*
D20*
X154647899Y-71767699D02*
X154647899Y-53078753D01*
X154647899Y-53078753D02*
X154469906Y-52900760D01*
X154469906Y-52900760D02*
X154469906Y-52649314D01*
X151952960Y-43738800D02*
X151952960Y-43434000D01*
X154825700Y-71945500D02*
X154647899Y-71767699D01*
D19*
X152257960Y-43129000D02*
X151952960Y-43434000D01*
X153745656Y-39129010D02*
X152257960Y-40616706D01*
X152257960Y-40616706D02*
X152257960Y-41560130D01*
X152257960Y-41560130D02*
X152567061Y-41869231D01*
X152567061Y-41869231D02*
X152567061Y-42458769D01*
X152567061Y-42458769D02*
X152257960Y-42767870D01*
X152257960Y-42767870D02*
X152257960Y-43129000D01*
X159841656Y-39129010D02*
X153745656Y-39129010D01*
X160833000Y-38137666D02*
X159841656Y-39129010D01*
X160528000Y-33274000D02*
X160833000Y-33579000D01*
X160833000Y-33579000D02*
X160833000Y-34682283D01*
X160833000Y-34682283D02*
X161454110Y-35303393D01*
X160833000Y-37453717D02*
X160833000Y-38137666D01*
X161454110Y-35303393D02*
X161454110Y-36832607D01*
X161454110Y-36832607D02*
X160833000Y-37453717D01*
X153213000Y-34682283D02*
X153834110Y-35303393D01*
X153213000Y-37453717D02*
X153213000Y-37756666D01*
X153834110Y-36832607D02*
X153213000Y-37453717D01*
X148447960Y-42767870D02*
X148447960Y-43129000D01*
X152908000Y-33274000D02*
X153213000Y-33579000D01*
X148447960Y-43129000D02*
X148142960Y-43434000D01*
X152653666Y-38316000D02*
X150875666Y-38316000D01*
X153213000Y-33579000D02*
X153213000Y-34682283D01*
X153834110Y-35303393D02*
X153834110Y-36832607D01*
X153213000Y-37756666D02*
X152653666Y-38316000D01*
X148447960Y-40743706D02*
X148447960Y-41560130D01*
X150875666Y-38316000D02*
X148447960Y-40743706D01*
X148447960Y-41560130D02*
X148757061Y-41869231D01*
X148757061Y-41869231D02*
X148757061Y-42458769D01*
X148757061Y-42458769D02*
X148447960Y-42767870D01*
X153222960Y-43739000D02*
X153222960Y-43434000D01*
X153837061Y-42458769D02*
X153527960Y-42767870D01*
X154202646Y-39942020D02*
X153527960Y-40616706D01*
X153527960Y-41560130D02*
X153837061Y-41869231D01*
X153527960Y-40616706D02*
X153527960Y-41560130D01*
X153837061Y-41869231D02*
X153837061Y-42458769D01*
X153527960Y-42767870D02*
X153527960Y-43129000D01*
X153527960Y-43129000D02*
X153222960Y-43434000D01*
X161822646Y-39942020D02*
X154202646Y-39942020D01*
X163373000Y-38391666D02*
X161822646Y-39942020D01*
X163373000Y-37453717D02*
X163373000Y-38391666D01*
X163068000Y-33274000D02*
X163373000Y-33579000D01*
X163373000Y-33579000D02*
X163373000Y-34682283D01*
X163373000Y-34682283D02*
X163994110Y-35303393D01*
X163994110Y-35303393D02*
X163994110Y-36832607D01*
X163994110Y-36832607D02*
X163373000Y-37453717D01*
D20*
X133868160Y-99151814D02*
X132951594Y-100068380D01*
X132951594Y-100068380D02*
X123809760Y-100068380D01*
X134172960Y-96520000D02*
X133868160Y-96824800D01*
X133545159Y-97488655D02*
X133545159Y-98091345D01*
X133868160Y-96824800D02*
X133868160Y-97165654D01*
X133868160Y-97165654D02*
X133545159Y-97488655D01*
X133545159Y-98091345D02*
X133868160Y-98414346D01*
X133868160Y-98414346D02*
X133868160Y-99151814D01*
X135745594Y-90777060D02*
X134172960Y-92349694D01*
X134172960Y-92349694D02*
X134172960Y-96215200D01*
X134172960Y-96215200D02*
X134172960Y-96520000D01*
X157320354Y-90777060D02*
X135745594Y-90777060D01*
X158277754Y-89568214D02*
X158277754Y-89819660D01*
X158277754Y-89819660D02*
X157320354Y-90777060D01*
X123809760Y-100068380D02*
X121488190Y-102389950D01*
X121488190Y-102389950D02*
X121488190Y-110820190D01*
X121488190Y-110820190D02*
X122428000Y-111760000D01*
X154492960Y-96520000D02*
X155125420Y-97152460D01*
X155125420Y-97152460D02*
X155125420Y-105798740D01*
X156247906Y-92984126D02*
X155996460Y-92984126D01*
X154492960Y-94487626D02*
X154492960Y-96215200D01*
X155996460Y-92984126D02*
X154492960Y-94487626D01*
X154492960Y-96215200D02*
X154492960Y-96520000D01*
X151323040Y-101267260D02*
X151323040Y-101912420D01*
X151648160Y-100942140D02*
X151323040Y-101267260D01*
X151648160Y-98414346D02*
X151648160Y-100942140D01*
X127508000Y-109220000D02*
X127508000Y-101912420D01*
X151952960Y-96520000D02*
X151648160Y-96824800D01*
X151648160Y-96824800D02*
X151648160Y-97165654D01*
X151648160Y-97165654D02*
X151325159Y-97488655D01*
X151325159Y-97488655D02*
X151325159Y-98091345D01*
X151325159Y-98091345D02*
X151648160Y-98414346D01*
X152742900Y-98239086D02*
X152742900Y-103639690D01*
X132588000Y-109220000D02*
X132588000Y-103639690D01*
X153222960Y-96520000D02*
X152918160Y-96824800D01*
X152918160Y-96824800D02*
X152918160Y-97165654D01*
X152918160Y-97165654D02*
X152595159Y-97488655D01*
X152595159Y-98091345D02*
X152742900Y-98239086D01*
X152595159Y-97488655D02*
X152595159Y-98091345D01*
X141480540Y-107033060D02*
X141480540Y-110492540D01*
X141480540Y-110492540D02*
X142748000Y-111760000D01*
X141150761Y-106703281D02*
X141480540Y-107033060D01*
X141150761Y-97147801D02*
X141150761Y-106703281D01*
X140522960Y-96520000D02*
X141150761Y-97147801D01*
X146601180Y-110533180D02*
X146601180Y-101038710D01*
X147828000Y-111760000D02*
X146601180Y-110533180D01*
X142420761Y-97147801D02*
X142420761Y-101038289D01*
X142420761Y-101038289D02*
X142420340Y-101038710D01*
X141792960Y-96520000D02*
X142420761Y-97147801D01*
X136403080Y-110495080D02*
X136403080Y-99311470D01*
X139880761Y-97147801D02*
X139880761Y-99311049D01*
X139880761Y-99311049D02*
X139880340Y-99311470D01*
X139252960Y-96520000D02*
X139880761Y-97147801D01*
X137668000Y-111760000D02*
X136403080Y-110495080D01*
X134172960Y-99290766D02*
X133088006Y-100375720D01*
X133088006Y-100375720D02*
X124805440Y-100375720D01*
X134172960Y-97790000D02*
X134172960Y-99290766D01*
X134477760Y-95895654D02*
X134800761Y-96218655D01*
X135871846Y-91081860D02*
X134477760Y-92475946D01*
X134477760Y-92475946D02*
X134477760Y-95895654D01*
X134800761Y-96218655D02*
X134800761Y-96821345D01*
X134800761Y-96821345D02*
X134477760Y-97144346D01*
X134477760Y-97485200D02*
X134172960Y-97790000D01*
X134477760Y-97144346D02*
X134477760Y-97485200D01*
X157446606Y-91081860D02*
X135871846Y-91081860D01*
X158744726Y-90035186D02*
X158493280Y-90035186D01*
X158493280Y-90035186D02*
X157446606Y-91081860D01*
X124028190Y-101152970D02*
X124805440Y-100375720D01*
X124968000Y-111760000D02*
X124968000Y-111753052D01*
X124968000Y-111753052D02*
X124028190Y-110813242D01*
X124028190Y-110813242D02*
X124028190Y-101152970D01*
X140208000Y-109220000D02*
X140208000Y-105366820D01*
X154492960Y-97790000D02*
X154492960Y-105366930D01*
X155780934Y-92517154D02*
X155780934Y-92768600D01*
X155780934Y-92768600D02*
X154188160Y-94361374D01*
X154188160Y-94361374D02*
X154188160Y-95895654D01*
X153865159Y-96821345D02*
X154188160Y-97144346D01*
X154188160Y-95895654D02*
X153865159Y-96218655D01*
X153865159Y-96218655D02*
X153865159Y-96821345D01*
X154188160Y-97144346D02*
X154188160Y-97485200D01*
X154188160Y-97485200D02*
X154492960Y-97790000D01*
X151952960Y-101101203D02*
X151952960Y-101480640D01*
X151952960Y-101101203D02*
X151952960Y-97790000D01*
X130048000Y-109220000D02*
X130048000Y-101480610D01*
X130048000Y-101480640D02*
X130048000Y-101480610D01*
X153222960Y-97790000D02*
X153222960Y-103207880D01*
X135128000Y-109220000D02*
X135128000Y-103207880D01*
X141792960Y-100617020D02*
X141792960Y-106228010D01*
X141792960Y-106228010D02*
X141790420Y-106230550D01*
X141792960Y-97790000D02*
X141792960Y-100617020D01*
X140208000Y-111760000D02*
X138610761Y-110162761D01*
X138610761Y-110162761D02*
X138610761Y-99521859D01*
X138610761Y-99521859D02*
X138998961Y-99133659D01*
X138998961Y-99133659D02*
X139252960Y-98879660D01*
X139252960Y-97790000D02*
X139252960Y-98879660D01*
X144012920Y-101826060D02*
X144335500Y-101503480D01*
X144335500Y-101503480D02*
X144335500Y-99743280D01*
X144012920Y-110484920D02*
X144012920Y-101826060D01*
X145288000Y-111760000D02*
X144012920Y-110484920D01*
X140522960Y-97790000D02*
X140522960Y-99743280D01*
D18*
X72638920Y-40030400D02*
X78562200Y-45953680D01*
X78562200Y-45953680D02*
X80670400Y-45953680D01*
X81978500Y-51366420D02*
X66052700Y-51366420D01*
X66052700Y-51366420D02*
X66024760Y-51394360D01*
X114833400Y-82105500D02*
X114833400Y-70159880D01*
X114833400Y-70159880D02*
X117736620Y-67256660D01*
X114752120Y-51366420D02*
X117736620Y-51366420D01*
X112209580Y-51366420D02*
X114752120Y-51366420D01*
X97845880Y-51366420D02*
X107475020Y-51366420D01*
X107475020Y-51366420D02*
X111498380Y-51366420D01*
X111498380Y-51366420D02*
X112209580Y-51366420D01*
X81978500Y-51366420D02*
X89771220Y-51366420D01*
X89771220Y-51366420D02*
X97845880Y-51366420D01*
X81155540Y-51879499D02*
X67266821Y-51879499D01*
X67266821Y-51879499D02*
X66685160Y-52461160D01*
X113057940Y-51879499D02*
X117223540Y-51879499D01*
X111551720Y-51879499D02*
X113057940Y-51879499D01*
X111257079Y-51879499D02*
X111551720Y-51879499D01*
X105935779Y-51879499D02*
X106832400Y-51879499D01*
X106832400Y-51879499D02*
X111257079Y-51879499D01*
X81155540Y-51879499D02*
X89301320Y-51879499D01*
X89301320Y-51879499D02*
X105935779Y-51879499D01*
X68958460Y-38943280D02*
X74458070Y-38943280D01*
X74458070Y-38943280D02*
X77013310Y-41498520D01*
X77013310Y-41498520D02*
X96161860Y-41498520D01*
X72369680Y-32557720D02*
X72367140Y-32560260D01*
X72367140Y-32560260D02*
X72367140Y-34114740D01*
X72367140Y-34114740D02*
X72834499Y-34582099D01*
X72834499Y-34582099D02*
X77556360Y-39303960D01*
X72367140Y-60497720D02*
X68900040Y-60497720D01*
X68900040Y-60497720D02*
X68722240Y-60675520D01*
X72367140Y-60497720D02*
X72367140Y-66918840D01*
X72367140Y-66918840D02*
X72732900Y-67284600D01*
X72732900Y-67284600D02*
X77558900Y-67284600D01*
X66606420Y-62791340D02*
X68722240Y-60675520D01*
G36*
X157734000Y-47942500D02*
X133540500Y-47942500D01*
X133491090Y-47952506D01*
X133449465Y-47980947D01*
X133422185Y-48023341D01*
X133413500Y-48069500D01*
X133413500Y-65278000D01*
X113538000Y-65278000D01*
X113538000Y-63309500D01*
X131635500Y-63309500D01*
X131684910Y-63299494D01*
X131726535Y-63271053D01*
X131753815Y-63228659D01*
X131762500Y-63182500D01*
X131762500Y-46291500D01*
X155130500Y-46291500D01*
X155179910Y-46281494D01*
X155221535Y-46253053D01*
X155248815Y-46210659D01*
X155257500Y-46164500D01*
X155257500Y-43892192D01*
X155374606Y-43610170D01*
X155374912Y-43259369D01*
X155257500Y-42975210D01*
X155257500Y-42622192D01*
X155374606Y-42340170D01*
X155374912Y-41989369D01*
X155257500Y-41705210D01*
X155257500Y-41465500D01*
X157734000Y-41465500D01*
X157734000Y-47942500D01*
X157734000Y-47942500D01*
G37*
X157734000Y-47942500D02*
X133540500Y-47942500D01*
X133491090Y-47952506D01*
X133449465Y-47980947D01*
X133422185Y-48023341D01*
X133413500Y-48069500D01*
X133413500Y-65278000D01*
X113538000Y-65278000D01*
X113538000Y-63309500D01*
X131635500Y-63309500D01*
X131684910Y-63299494D01*
X131726535Y-63271053D01*
X131753815Y-63228659D01*
X131762500Y-63182500D01*
X131762500Y-46291500D01*
X155130500Y-46291500D01*
X155179910Y-46281494D01*
X155221535Y-46253053D01*
X155248815Y-46210659D01*
X155257500Y-46164500D01*
X155257500Y-43892192D01*
X155374606Y-43610170D01*
X155374912Y-43259369D01*
X155257500Y-42975210D01*
X155257500Y-42622192D01*
X155374606Y-42340170D01*
X155374912Y-41989369D01*
X155257500Y-41705210D01*
X155257500Y-41465500D01*
X157734000Y-41465500D01*
X157734000Y-47942500D01*
M02*
