G04 #@! TF.FileFunction,Legend,Top*
%FSLAX46Y46*%
G04 Gerber Fmt 4.6, Leading zero omitted, Abs format (unit mm)*
G04 Created by KiCad (PCBNEW 4.0.4-stable) date 2016 October 17, Monday 14:53:17*
%MOMM*%
%LPD*%
G01*
G04 APERTURE LIST*
%ADD10C,0.100000*%
%ADD11C,0.127000*%
%ADD12C,0.150000*%
%ADD13C,0.350000*%
G04 APERTURE END LIST*
D10*
D11*
X142642167Y-95196781D02*
X142642167Y-94877467D01*
X143531167Y-95037124D02*
X142642167Y-95037124D01*
X143531167Y-94691200D02*
X142642167Y-94691200D01*
X142642167Y-94558153D01*
X142684500Y-94478324D01*
X142769167Y-94425105D01*
X142853833Y-94398496D01*
X143023167Y-94371886D01*
X143150167Y-94371886D01*
X143319500Y-94398496D01*
X143404167Y-94425105D01*
X143488833Y-94478324D01*
X143531167Y-94558153D01*
X143531167Y-94691200D01*
X142642167Y-94025962D02*
X142642167Y-93919524D01*
X142684500Y-93866305D01*
X142769167Y-93813086D01*
X142938500Y-93786477D01*
X143234833Y-93786477D01*
X143404167Y-93813086D01*
X143488833Y-93866305D01*
X143531167Y-93919524D01*
X143531167Y-94025962D01*
X143488833Y-94079181D01*
X143404167Y-94132400D01*
X143234833Y-94159010D01*
X142938500Y-94159010D01*
X142769167Y-94132400D01*
X142684500Y-94079181D01*
X142642167Y-94025962D01*
X133873240Y-48243066D02*
X133915573Y-48269676D01*
X133957907Y-48349504D01*
X133957907Y-48402723D01*
X133915573Y-48482552D01*
X133830907Y-48535771D01*
X133746240Y-48562380D01*
X133576907Y-48588990D01*
X133449907Y-48588990D01*
X133280573Y-48562380D01*
X133195907Y-48535771D01*
X133111240Y-48482552D01*
X133068907Y-48402723D01*
X133068907Y-48349504D01*
X133111240Y-48269676D01*
X133153573Y-48243066D01*
X133957907Y-48003580D02*
X133068907Y-48003580D01*
X133492240Y-48003580D02*
X133492240Y-47684266D01*
X133957907Y-47684266D02*
X133068907Y-47684266D01*
X133957907Y-47418170D02*
X133068907Y-47418170D01*
X133957907Y-47152075D02*
X133068907Y-47152075D01*
X133068907Y-46939199D01*
X133111240Y-46885980D01*
X133153573Y-46859371D01*
X133238240Y-46832761D01*
X133365240Y-46832761D01*
X133449907Y-46859371D01*
X133492240Y-46885980D01*
X133534573Y-46939199D01*
X133534573Y-47152075D01*
X134042573Y-46726323D02*
X134042573Y-46300571D01*
X133068907Y-46247352D02*
X133957907Y-46061085D01*
X133068907Y-45874819D01*
X133957907Y-45688552D02*
X133068907Y-45688552D01*
X133068907Y-45555505D01*
X133111240Y-45475676D01*
X133195907Y-45422457D01*
X133280573Y-45395848D01*
X133449907Y-45369238D01*
X133576907Y-45369238D01*
X133746240Y-45395848D01*
X133830907Y-45422457D01*
X133915573Y-45475676D01*
X133957907Y-45555505D01*
X133957907Y-45688552D01*
X133957907Y-45129752D02*
X133068907Y-45129752D01*
X133068907Y-44996705D01*
X133111240Y-44916876D01*
X133195907Y-44863657D01*
X133280573Y-44837048D01*
X133449907Y-44810438D01*
X133576907Y-44810438D01*
X133746240Y-44837048D01*
X133830907Y-44863657D01*
X133915573Y-44916876D01*
X133957907Y-44996705D01*
X133957907Y-45129752D01*
X156654500Y-94824248D02*
X156612167Y-94877467D01*
X156612167Y-94957295D01*
X156654500Y-95037124D01*
X156739167Y-95090343D01*
X156823833Y-95116952D01*
X156993167Y-95143562D01*
X157120167Y-95143562D01*
X157289500Y-95116952D01*
X157374167Y-95090343D01*
X157458833Y-95037124D01*
X157501167Y-94957295D01*
X157501167Y-94904076D01*
X157458833Y-94824248D01*
X157416500Y-94797638D01*
X157120167Y-94797638D01*
X157120167Y-94904076D01*
X157501167Y-94558152D02*
X156612167Y-94558152D01*
X157501167Y-94238838D01*
X156612167Y-94238838D01*
X157501167Y-93972742D02*
X156612167Y-93972742D01*
X156612167Y-93839695D01*
X156654500Y-93759866D01*
X156739167Y-93706647D01*
X156823833Y-93680038D01*
X156993167Y-93653428D01*
X157120167Y-93653428D01*
X157289500Y-93680038D01*
X157374167Y-93706647D01*
X157458833Y-93759866D01*
X157501167Y-93839695D01*
X157501167Y-93972742D01*
X154918833Y-95143562D02*
X154961167Y-95063733D01*
X154961167Y-94930686D01*
X154918833Y-94877467D01*
X154876500Y-94850857D01*
X154791833Y-94824248D01*
X154707167Y-94824248D01*
X154622500Y-94850857D01*
X154580167Y-94877467D01*
X154537833Y-94930686D01*
X154495500Y-95037124D01*
X154453167Y-95090343D01*
X154410833Y-95116952D01*
X154326167Y-95143562D01*
X154241500Y-95143562D01*
X154156833Y-95116952D01*
X154114500Y-95090343D01*
X154072167Y-95037124D01*
X154072167Y-94904076D01*
X154114500Y-94824248D01*
X154072167Y-94664591D02*
X154072167Y-94345277D01*
X154961167Y-94504934D02*
X154072167Y-94504934D01*
X154707167Y-94185620D02*
X154707167Y-93919525D01*
X154961167Y-94238839D02*
X154072167Y-94052572D01*
X154961167Y-93866306D01*
X154961167Y-93360725D02*
X154537833Y-93546992D01*
X154961167Y-93680039D02*
X154072167Y-93680039D01*
X154072167Y-93467163D01*
X154114500Y-93413944D01*
X154156833Y-93387335D01*
X154241500Y-93360725D01*
X154368500Y-93360725D01*
X154453167Y-93387335D01*
X154495500Y-93413944D01*
X154537833Y-93467163D01*
X154537833Y-93680039D01*
X154072167Y-93201068D02*
X154072167Y-92881754D01*
X154961167Y-93041411D02*
X154072167Y-93041411D01*
X153691167Y-95116952D02*
X152802167Y-95116952D01*
X152802167Y-94983905D01*
X152844500Y-94904076D01*
X152929167Y-94850857D01*
X153013833Y-94824248D01*
X153183167Y-94797638D01*
X153310167Y-94797638D01*
X153479500Y-94824248D01*
X153564167Y-94850857D01*
X153648833Y-94904076D01*
X153691167Y-94983905D01*
X153691167Y-95116952D01*
X153437167Y-94584762D02*
X153437167Y-94318667D01*
X153691167Y-94637981D02*
X152802167Y-94451714D01*
X153691167Y-94265448D01*
X152802167Y-94159010D02*
X152802167Y-93839696D01*
X153691167Y-93999353D02*
X152802167Y-93999353D01*
X153437167Y-93680039D02*
X153437167Y-93413944D01*
X153691167Y-93733258D02*
X152802167Y-93546991D01*
X153691167Y-93360725D01*
X153691167Y-92881754D02*
X153691167Y-93201068D01*
X153691167Y-93041411D02*
X152802167Y-93041411D01*
X152929167Y-93094630D01*
X153013833Y-93147849D01*
X153056167Y-93201068D01*
X152421167Y-95116952D02*
X151532167Y-95116952D01*
X151532167Y-94983905D01*
X151574500Y-94904076D01*
X151659167Y-94850857D01*
X151743833Y-94824248D01*
X151913167Y-94797638D01*
X152040167Y-94797638D01*
X152209500Y-94824248D01*
X152294167Y-94850857D01*
X152378833Y-94904076D01*
X152421167Y-94983905D01*
X152421167Y-95116952D01*
X152167167Y-94584762D02*
X152167167Y-94318667D01*
X152421167Y-94637981D02*
X151532167Y-94451714D01*
X152421167Y-94265448D01*
X151532167Y-94159010D02*
X151532167Y-93839696D01*
X152421167Y-93999353D02*
X151532167Y-93999353D01*
X152167167Y-93680039D02*
X152167167Y-93413944D01*
X152421167Y-93733258D02*
X151532167Y-93546991D01*
X152421167Y-93360725D01*
X151532167Y-93068020D02*
X151532167Y-93014801D01*
X151574500Y-92961582D01*
X151616833Y-92934973D01*
X151701500Y-92908363D01*
X151870833Y-92881754D01*
X152082500Y-92881754D01*
X152251833Y-92908363D01*
X152336500Y-92934973D01*
X152378833Y-92961582D01*
X152421167Y-93014801D01*
X152421167Y-93068020D01*
X152378833Y-93121239D01*
X152336500Y-93147849D01*
X152251833Y-93174458D01*
X152082500Y-93201068D01*
X151870833Y-93201068D01*
X151701500Y-93174458D01*
X151616833Y-93147849D01*
X151574500Y-93121239D01*
X151532167Y-93068020D01*
X150304500Y-94824248D02*
X150262167Y-94877467D01*
X150262167Y-94957295D01*
X150304500Y-95037124D01*
X150389167Y-95090343D01*
X150473833Y-95116952D01*
X150643167Y-95143562D01*
X150770167Y-95143562D01*
X150939500Y-95116952D01*
X151024167Y-95090343D01*
X151108833Y-95037124D01*
X151151167Y-94957295D01*
X151151167Y-94904076D01*
X151108833Y-94824248D01*
X151066500Y-94797638D01*
X150770167Y-94797638D01*
X150770167Y-94904076D01*
X151151167Y-94558152D02*
X150262167Y-94558152D01*
X151151167Y-94238838D01*
X150262167Y-94238838D01*
X151151167Y-93972742D02*
X150262167Y-93972742D01*
X150262167Y-93839695D01*
X150304500Y-93759866D01*
X150389167Y-93706647D01*
X150473833Y-93680038D01*
X150643167Y-93653428D01*
X150770167Y-93653428D01*
X150939500Y-93680038D01*
X151024167Y-93706647D01*
X151108833Y-93759866D01*
X151151167Y-93839695D01*
X151151167Y-93972742D01*
X148992167Y-95196781D02*
X148992167Y-94877467D01*
X149881167Y-95037124D02*
X148992167Y-95037124D01*
X149881167Y-94691200D02*
X148992167Y-94691200D01*
X149627167Y-94504934D01*
X148992167Y-94318667D01*
X149881167Y-94318667D01*
X149838833Y-94079181D02*
X149881167Y-93999352D01*
X149881167Y-93866305D01*
X149838833Y-93813086D01*
X149796500Y-93786476D01*
X149711833Y-93759867D01*
X149627167Y-93759867D01*
X149542500Y-93786476D01*
X149500167Y-93813086D01*
X149457833Y-93866305D01*
X149415500Y-93972743D01*
X149373167Y-94025962D01*
X149330833Y-94052571D01*
X149246167Y-94079181D01*
X149161500Y-94079181D01*
X149076833Y-94052571D01*
X149034500Y-94025962D01*
X148992167Y-93972743D01*
X148992167Y-93839695D01*
X149034500Y-93759867D01*
X148611167Y-94774778D02*
X148187833Y-94961045D01*
X148611167Y-95094092D02*
X147722167Y-95094092D01*
X147722167Y-94881216D01*
X147764500Y-94827997D01*
X147806833Y-94801388D01*
X147891500Y-94774778D01*
X148018500Y-94774778D01*
X148103167Y-94801388D01*
X148145500Y-94827997D01*
X148187833Y-94881216D01*
X148187833Y-95094092D01*
X148568833Y-94561902D02*
X148611167Y-94482073D01*
X148611167Y-94349026D01*
X148568833Y-94295807D01*
X148526500Y-94269197D01*
X148441833Y-94242588D01*
X148357167Y-94242588D01*
X148272500Y-94269197D01*
X148230167Y-94295807D01*
X148187833Y-94349026D01*
X148145500Y-94455464D01*
X148103167Y-94508683D01*
X148060833Y-94535292D01*
X147976167Y-94561902D01*
X147891500Y-94561902D01*
X147806833Y-94535292D01*
X147764500Y-94508683D01*
X147722167Y-94455464D01*
X147722167Y-94322416D01*
X147764500Y-94242588D01*
X147722167Y-94082931D02*
X147722167Y-93763617D01*
X148611167Y-93923274D02*
X147722167Y-93923274D01*
X148145500Y-93391084D02*
X148187833Y-93311255D01*
X148230167Y-93284646D01*
X148314833Y-93258036D01*
X148441833Y-93258036D01*
X148526500Y-93284646D01*
X148568833Y-93311255D01*
X148611167Y-93364474D01*
X148611167Y-93577350D01*
X147722167Y-93577350D01*
X147722167Y-93391084D01*
X147764500Y-93337865D01*
X147806833Y-93311255D01*
X147891500Y-93284646D01*
X147976167Y-93284646D01*
X148060833Y-93311255D01*
X148103167Y-93337865D01*
X148145500Y-93391084D01*
X148145500Y-93577350D01*
X146452167Y-95196781D02*
X146452167Y-94877467D01*
X147341167Y-95037124D02*
X146452167Y-95037124D01*
X147256500Y-94371886D02*
X147298833Y-94398496D01*
X147341167Y-94478324D01*
X147341167Y-94531543D01*
X147298833Y-94611372D01*
X147214167Y-94664591D01*
X147129500Y-94691200D01*
X146960167Y-94717810D01*
X146833167Y-94717810D01*
X146663833Y-94691200D01*
X146579167Y-94664591D01*
X146494500Y-94611372D01*
X146452167Y-94531543D01*
X146452167Y-94478324D01*
X146494500Y-94398496D01*
X146536833Y-94371886D01*
X147341167Y-94132400D02*
X146452167Y-94132400D01*
X147341167Y-93813086D02*
X146833167Y-94052572D01*
X146452167Y-93813086D02*
X146960167Y-94132400D01*
X145182167Y-95196781D02*
X145182167Y-94877467D01*
X146071167Y-95037124D02*
X145182167Y-95037124D01*
X146071167Y-94691200D02*
X145182167Y-94691200D01*
X145182167Y-94558153D01*
X145224500Y-94478324D01*
X145309167Y-94425105D01*
X145393833Y-94398496D01*
X145563167Y-94371886D01*
X145690167Y-94371886D01*
X145859500Y-94398496D01*
X145944167Y-94425105D01*
X146028833Y-94478324D01*
X146071167Y-94558153D01*
X146071167Y-94691200D01*
X146071167Y-94132400D02*
X145182167Y-94132400D01*
X143954500Y-94824248D02*
X143912167Y-94877467D01*
X143912167Y-94957295D01*
X143954500Y-95037124D01*
X144039167Y-95090343D01*
X144123833Y-95116952D01*
X144293167Y-95143562D01*
X144420167Y-95143562D01*
X144589500Y-95116952D01*
X144674167Y-95090343D01*
X144758833Y-95037124D01*
X144801167Y-94957295D01*
X144801167Y-94904076D01*
X144758833Y-94824248D01*
X144716500Y-94797638D01*
X144420167Y-94797638D01*
X144420167Y-94904076D01*
X144801167Y-94558152D02*
X143912167Y-94558152D01*
X144801167Y-94238838D01*
X143912167Y-94238838D01*
X144801167Y-93972742D02*
X143912167Y-93972742D01*
X143912167Y-93839695D01*
X143954500Y-93759866D01*
X144039167Y-93706647D01*
X144123833Y-93680038D01*
X144293167Y-93653428D01*
X144420167Y-93653428D01*
X144589500Y-93680038D01*
X144674167Y-93706647D01*
X144758833Y-93759866D01*
X144801167Y-93839695D01*
X144801167Y-93972742D01*
X142218833Y-95143562D02*
X142261167Y-95063733D01*
X142261167Y-94930686D01*
X142218833Y-94877467D01*
X142176500Y-94850857D01*
X142091833Y-94824248D01*
X142007167Y-94824248D01*
X141922500Y-94850857D01*
X141880167Y-94877467D01*
X141837833Y-94930686D01*
X141795500Y-95037124D01*
X141753167Y-95090343D01*
X141710833Y-95116952D01*
X141626167Y-95143562D01*
X141541500Y-95143562D01*
X141456833Y-95116952D01*
X141414500Y-95090343D01*
X141372167Y-95037124D01*
X141372167Y-94904076D01*
X141414500Y-94824248D01*
X142261167Y-94584762D02*
X141372167Y-94584762D01*
X141372167Y-94451715D01*
X141414500Y-94371886D01*
X141499167Y-94318667D01*
X141583833Y-94292058D01*
X141753167Y-94265448D01*
X141880167Y-94265448D01*
X142049500Y-94292058D01*
X142134167Y-94318667D01*
X142218833Y-94371886D01*
X142261167Y-94451715D01*
X142261167Y-94584762D01*
X142007167Y-94052572D02*
X142007167Y-93786477D01*
X142261167Y-94105791D02*
X141372167Y-93919524D01*
X142261167Y-93733258D01*
X142345833Y-93680039D02*
X142345833Y-93254287D01*
X141372167Y-93174458D02*
X142261167Y-93041411D01*
X141626167Y-92934973D01*
X142261167Y-92828535D01*
X141372167Y-92695487D01*
X142345833Y-92615658D02*
X142345833Y-92189906D01*
X141795500Y-91870592D02*
X141795500Y-92056858D01*
X142261167Y-92056858D02*
X141372167Y-92056858D01*
X141372167Y-91790763D01*
X140948833Y-95143562D02*
X140991167Y-95063733D01*
X140991167Y-94930686D01*
X140948833Y-94877467D01*
X140906500Y-94850857D01*
X140821833Y-94824248D01*
X140737167Y-94824248D01*
X140652500Y-94850857D01*
X140610167Y-94877467D01*
X140567833Y-94930686D01*
X140525500Y-95037124D01*
X140483167Y-95090343D01*
X140440833Y-95116952D01*
X140356167Y-95143562D01*
X140271500Y-95143562D01*
X140186833Y-95116952D01*
X140144500Y-95090343D01*
X140102167Y-95037124D01*
X140102167Y-94904076D01*
X140144500Y-94824248D01*
X140906500Y-94265448D02*
X140948833Y-94292058D01*
X140991167Y-94371886D01*
X140991167Y-94425105D01*
X140948833Y-94504934D01*
X140864167Y-94558153D01*
X140779500Y-94584762D01*
X140610167Y-94611372D01*
X140483167Y-94611372D01*
X140313833Y-94584762D01*
X140229167Y-94558153D01*
X140144500Y-94504934D01*
X140102167Y-94425105D01*
X140102167Y-94371886D01*
X140144500Y-94292058D01*
X140186833Y-94265448D01*
X140991167Y-93759867D02*
X140991167Y-94025962D01*
X140102167Y-94025962D01*
X141075833Y-93706648D02*
X141075833Y-93280896D01*
X140525500Y-92961582D02*
X140525500Y-93147848D01*
X140991167Y-93147848D02*
X140102167Y-93147848D01*
X140102167Y-92881753D01*
X139678833Y-95143562D02*
X139721167Y-95063733D01*
X139721167Y-94930686D01*
X139678833Y-94877467D01*
X139636500Y-94850857D01*
X139551833Y-94824248D01*
X139467167Y-94824248D01*
X139382500Y-94850857D01*
X139340167Y-94877467D01*
X139297833Y-94930686D01*
X139255500Y-95037124D01*
X139213167Y-95090343D01*
X139170833Y-95116952D01*
X139086167Y-95143562D01*
X139001500Y-95143562D01*
X138916833Y-95116952D01*
X138874500Y-95090343D01*
X138832167Y-95037124D01*
X138832167Y-94904076D01*
X138874500Y-94824248D01*
X139721167Y-94584762D02*
X138832167Y-94584762D01*
X138832167Y-94451715D01*
X138874500Y-94371886D01*
X138959167Y-94318667D01*
X139043833Y-94292058D01*
X139213167Y-94265448D01*
X139340167Y-94265448D01*
X139509500Y-94292058D01*
X139594167Y-94318667D01*
X139678833Y-94371886D01*
X139721167Y-94451715D01*
X139721167Y-94584762D01*
X139467167Y-94052572D02*
X139467167Y-93786477D01*
X139721167Y-94105791D02*
X138832167Y-93919524D01*
X139721167Y-93733258D01*
X139805833Y-93680039D02*
X139805833Y-93254287D01*
X139721167Y-92801925D02*
X139297833Y-92988192D01*
X139721167Y-93121239D02*
X138832167Y-93121239D01*
X138832167Y-92908363D01*
X138874500Y-92855144D01*
X138916833Y-92828535D01*
X139001500Y-92801925D01*
X139128500Y-92801925D01*
X139213167Y-92828535D01*
X139255500Y-92855144D01*
X139297833Y-92908363D01*
X139297833Y-93121239D01*
X139805833Y-92695487D02*
X139805833Y-92269735D01*
X139255500Y-91950421D02*
X139255500Y-92136687D01*
X139721167Y-92136687D02*
X138832167Y-92136687D01*
X138832167Y-91870592D01*
X137604500Y-94824248D02*
X137562167Y-94877467D01*
X137562167Y-94957295D01*
X137604500Y-95037124D01*
X137689167Y-95090343D01*
X137773833Y-95116952D01*
X137943167Y-95143562D01*
X138070167Y-95143562D01*
X138239500Y-95116952D01*
X138324167Y-95090343D01*
X138408833Y-95037124D01*
X138451167Y-94957295D01*
X138451167Y-94904076D01*
X138408833Y-94824248D01*
X138366500Y-94797638D01*
X138070167Y-94797638D01*
X138070167Y-94904076D01*
X138451167Y-94558152D02*
X137562167Y-94558152D01*
X138451167Y-94238838D01*
X137562167Y-94238838D01*
X138451167Y-93972742D02*
X137562167Y-93972742D01*
X137562167Y-93839695D01*
X137604500Y-93759866D01*
X137689167Y-93706647D01*
X137773833Y-93680038D01*
X137943167Y-93653428D01*
X138070167Y-93653428D01*
X138239500Y-93680038D01*
X138324167Y-93706647D01*
X138408833Y-93759866D01*
X138451167Y-93839695D01*
X138451167Y-93972742D01*
X134556500Y-94797638D02*
X134598833Y-94824248D01*
X134641167Y-94904076D01*
X134641167Y-94957295D01*
X134598833Y-95037124D01*
X134514167Y-95090343D01*
X134429500Y-95116952D01*
X134260167Y-95143562D01*
X134133167Y-95143562D01*
X133963833Y-95116952D01*
X133879167Y-95090343D01*
X133794500Y-95037124D01*
X133752167Y-94957295D01*
X133752167Y-94904076D01*
X133794500Y-94824248D01*
X133836833Y-94797638D01*
X134641167Y-94292057D02*
X134641167Y-94558152D01*
X133752167Y-94558152D01*
X134641167Y-94105790D02*
X133752167Y-94105790D01*
X134641167Y-93786476D02*
X134133167Y-94025962D01*
X133752167Y-93786476D02*
X134260167Y-94105790D01*
X134641167Y-93280895D02*
X134641167Y-93546990D01*
X133752167Y-93546990D01*
X156916967Y-49733199D02*
X156027967Y-49733199D01*
X156662967Y-49546933D01*
X156027967Y-49360666D01*
X156916967Y-49360666D01*
X156916967Y-49094570D02*
X156027967Y-49094570D01*
X156916967Y-48828475D02*
X156027967Y-48828475D01*
X156662967Y-48642209D01*
X156027967Y-48455942D01*
X156916967Y-48455942D01*
X156027967Y-48083408D02*
X156027967Y-47976970D01*
X156070300Y-47923751D01*
X156154967Y-47870532D01*
X156324300Y-47843923D01*
X156620633Y-47843923D01*
X156789967Y-47870532D01*
X156874633Y-47923751D01*
X156916967Y-47976970D01*
X156916967Y-48083408D01*
X156874633Y-48136627D01*
X156789967Y-48189846D01*
X156620633Y-48216456D01*
X156324300Y-48216456D01*
X156154967Y-48189846D01*
X156070300Y-48136627D01*
X156027967Y-48083408D01*
X156874633Y-47631046D02*
X156916967Y-47551217D01*
X156916967Y-47418170D01*
X156874633Y-47364951D01*
X156832300Y-47338341D01*
X156747633Y-47311732D01*
X156662967Y-47311732D01*
X156578300Y-47338341D01*
X156535967Y-47364951D01*
X156493633Y-47418170D01*
X156451300Y-47524608D01*
X156408967Y-47577827D01*
X156366633Y-47604436D01*
X156281967Y-47631046D01*
X156197300Y-47631046D01*
X156112633Y-47604436D01*
X156070300Y-47577827D01*
X156027967Y-47524608D01*
X156027967Y-47391560D01*
X156070300Y-47311732D01*
X156662967Y-47098856D02*
X156662967Y-46832761D01*
X156916967Y-47152075D02*
X156027967Y-46965808D01*
X156916967Y-46779542D01*
X157001633Y-46726323D02*
X157001633Y-46300571D01*
X156027967Y-46247352D02*
X156916967Y-46061085D01*
X156027967Y-45874819D01*
X156916967Y-45688552D02*
X156027967Y-45688552D01*
X156027967Y-45555505D01*
X156070300Y-45475676D01*
X156154967Y-45422457D01*
X156239633Y-45395848D01*
X156408967Y-45369238D01*
X156535967Y-45369238D01*
X156705300Y-45395848D01*
X156789967Y-45422457D01*
X156874633Y-45475676D01*
X156916967Y-45555505D01*
X156916967Y-45688552D01*
X156916967Y-45129752D02*
X156027967Y-45129752D01*
X156027967Y-44996705D01*
X156070300Y-44916876D01*
X156154967Y-44863657D01*
X156239633Y-44837048D01*
X156408967Y-44810438D01*
X156535967Y-44810438D01*
X156705300Y-44837048D01*
X156789967Y-44863657D01*
X156874633Y-44916876D01*
X156916967Y-44996705D01*
X156916967Y-45129752D01*
X154038300Y-45981258D02*
X153995967Y-46034477D01*
X153995967Y-46114305D01*
X154038300Y-46194134D01*
X154122967Y-46247353D01*
X154207633Y-46273962D01*
X154376967Y-46300572D01*
X154503967Y-46300572D01*
X154673300Y-46273962D01*
X154757967Y-46247353D01*
X154842633Y-46194134D01*
X154884967Y-46114305D01*
X154884967Y-46061086D01*
X154842633Y-45981258D01*
X154800300Y-45954648D01*
X154503967Y-45954648D01*
X154503967Y-46061086D01*
X154884967Y-45715162D02*
X153995967Y-45715162D01*
X154884967Y-45395848D01*
X153995967Y-45395848D01*
X154884967Y-45129752D02*
X153995967Y-45129752D01*
X153995967Y-44996705D01*
X154038300Y-44916876D01*
X154122967Y-44863657D01*
X154207633Y-44837048D01*
X154376967Y-44810438D01*
X154503967Y-44810438D01*
X154673300Y-44837048D01*
X154757967Y-44863657D01*
X154842633Y-44916876D01*
X154884967Y-44996705D01*
X154884967Y-45129752D01*
X153530300Y-47098857D02*
X153572633Y-47125467D01*
X153614967Y-47205295D01*
X153614967Y-47258514D01*
X153572633Y-47338343D01*
X153487967Y-47391562D01*
X153403300Y-47418171D01*
X153233967Y-47444781D01*
X153106967Y-47444781D01*
X152937633Y-47418171D01*
X152852967Y-47391562D01*
X152768300Y-47338343D01*
X152725967Y-47258514D01*
X152725967Y-47205295D01*
X152768300Y-47125467D01*
X152810633Y-47098857D01*
X153614967Y-46593276D02*
X153614967Y-46859371D01*
X152725967Y-46859371D01*
X153614967Y-46407009D02*
X152725967Y-46407009D01*
X153614967Y-46087695D02*
X153106967Y-46327181D01*
X152725967Y-46087695D02*
X153233967Y-46407009D01*
X153699633Y-45981257D02*
X153699633Y-45555505D01*
X153614967Y-45422457D02*
X152725967Y-45422457D01*
X153614967Y-45156362D02*
X152725967Y-45156362D01*
X153614967Y-44837048D01*
X152725967Y-44837048D01*
X152344967Y-49067960D02*
X151455967Y-49067960D01*
X151455967Y-48934913D01*
X151498300Y-48855084D01*
X151582967Y-48801865D01*
X151667633Y-48775256D01*
X151836967Y-48748646D01*
X151963967Y-48748646D01*
X152133300Y-48775256D01*
X152217967Y-48801865D01*
X152302633Y-48855084D01*
X152344967Y-48934913D01*
X152344967Y-49067960D01*
X152090967Y-48535770D02*
X152090967Y-48269675D01*
X152344967Y-48588989D02*
X151455967Y-48402722D01*
X152344967Y-48216456D01*
X151455967Y-48110018D02*
X151455967Y-47790704D01*
X152344967Y-47950361D02*
X151455967Y-47950361D01*
X152090967Y-47631047D02*
X152090967Y-47364952D01*
X152344967Y-47684266D02*
X151455967Y-47497999D01*
X152344967Y-47311733D01*
X152344967Y-46832762D02*
X152344967Y-47152076D01*
X152344967Y-46992419D02*
X151455967Y-46992419D01*
X151582967Y-47045638D01*
X151667633Y-47098857D01*
X151709967Y-47152076D01*
X152429633Y-46726324D02*
X152429633Y-46300572D01*
X151455967Y-46061086D02*
X151455967Y-45954648D01*
X151498300Y-45901429D01*
X151582967Y-45848210D01*
X151752300Y-45821601D01*
X152048633Y-45821601D01*
X152217967Y-45848210D01*
X152302633Y-45901429D01*
X152344967Y-45954648D01*
X152344967Y-46061086D01*
X152302633Y-46114305D01*
X152217967Y-46167524D01*
X152048633Y-46194134D01*
X151752300Y-46194134D01*
X151582967Y-46167524D01*
X151498300Y-46114305D01*
X151455967Y-46061086D01*
X151455967Y-45582114D02*
X152175633Y-45582114D01*
X152260300Y-45555505D01*
X152302633Y-45528895D01*
X152344967Y-45475676D01*
X152344967Y-45369238D01*
X152302633Y-45316019D01*
X152260300Y-45289410D01*
X152175633Y-45262800D01*
X151455967Y-45262800D01*
X151455967Y-45076533D02*
X151455967Y-44757219D01*
X152344967Y-44916876D02*
X151455967Y-44916876D01*
X151074967Y-49067960D02*
X150185967Y-49067960D01*
X150185967Y-48934913D01*
X150228300Y-48855084D01*
X150312967Y-48801865D01*
X150397633Y-48775256D01*
X150566967Y-48748646D01*
X150693967Y-48748646D01*
X150863300Y-48775256D01*
X150947967Y-48801865D01*
X151032633Y-48855084D01*
X151074967Y-48934913D01*
X151074967Y-49067960D01*
X150820967Y-48535770D02*
X150820967Y-48269675D01*
X151074967Y-48588989D02*
X150185967Y-48402722D01*
X151074967Y-48216456D01*
X150185967Y-48110018D02*
X150185967Y-47790704D01*
X151074967Y-47950361D02*
X150185967Y-47950361D01*
X150820967Y-47631047D02*
X150820967Y-47364952D01*
X151074967Y-47684266D02*
X150185967Y-47497999D01*
X151074967Y-47311733D01*
X150185967Y-47019028D02*
X150185967Y-46965809D01*
X150228300Y-46912590D01*
X150270633Y-46885981D01*
X150355300Y-46859371D01*
X150524633Y-46832762D01*
X150736300Y-46832762D01*
X150905633Y-46859371D01*
X150990300Y-46885981D01*
X151032633Y-46912590D01*
X151074967Y-46965809D01*
X151074967Y-47019028D01*
X151032633Y-47072247D01*
X150990300Y-47098857D01*
X150905633Y-47125466D01*
X150736300Y-47152076D01*
X150524633Y-47152076D01*
X150355300Y-47125466D01*
X150270633Y-47098857D01*
X150228300Y-47072247D01*
X150185967Y-47019028D01*
X151159633Y-46726324D02*
X151159633Y-46300572D01*
X150185967Y-46061086D02*
X150185967Y-45954648D01*
X150228300Y-45901429D01*
X150312967Y-45848210D01*
X150482300Y-45821601D01*
X150778633Y-45821601D01*
X150947967Y-45848210D01*
X151032633Y-45901429D01*
X151074967Y-45954648D01*
X151074967Y-46061086D01*
X151032633Y-46114305D01*
X150947967Y-46167524D01*
X150778633Y-46194134D01*
X150482300Y-46194134D01*
X150312967Y-46167524D01*
X150228300Y-46114305D01*
X150185967Y-46061086D01*
X150185967Y-45582114D02*
X150905633Y-45582114D01*
X150990300Y-45555505D01*
X151032633Y-45528895D01*
X151074967Y-45475676D01*
X151074967Y-45369238D01*
X151032633Y-45316019D01*
X150990300Y-45289410D01*
X150905633Y-45262800D01*
X150185967Y-45262800D01*
X150185967Y-45076533D02*
X150185967Y-44757219D01*
X151074967Y-44916876D02*
X150185967Y-44916876D01*
X148958300Y-45981258D02*
X148915967Y-46034477D01*
X148915967Y-46114305D01*
X148958300Y-46194134D01*
X149042967Y-46247353D01*
X149127633Y-46273962D01*
X149296967Y-46300572D01*
X149423967Y-46300572D01*
X149593300Y-46273962D01*
X149677967Y-46247353D01*
X149762633Y-46194134D01*
X149804967Y-46114305D01*
X149804967Y-46061086D01*
X149762633Y-45981258D01*
X149720300Y-45954648D01*
X149423967Y-45954648D01*
X149423967Y-46061086D01*
X149804967Y-45715162D02*
X148915967Y-45715162D01*
X149804967Y-45395848D01*
X148915967Y-45395848D01*
X149804967Y-45129752D02*
X148915967Y-45129752D01*
X148915967Y-44996705D01*
X148958300Y-44916876D01*
X149042967Y-44863657D01*
X149127633Y-44837048D01*
X149296967Y-44810438D01*
X149423967Y-44810438D01*
X149593300Y-44837048D01*
X149677967Y-44863657D01*
X149762633Y-44916876D01*
X149804967Y-44996705D01*
X149804967Y-45129752D01*
X148492633Y-48296284D02*
X148534967Y-48216455D01*
X148534967Y-48083408D01*
X148492633Y-48030189D01*
X148450300Y-48003579D01*
X148365633Y-47976970D01*
X148280967Y-47976970D01*
X148196300Y-48003579D01*
X148153967Y-48030189D01*
X148111633Y-48083408D01*
X148069300Y-48189846D01*
X148026967Y-48243065D01*
X147984633Y-48269674D01*
X147899967Y-48296284D01*
X147815300Y-48296284D01*
X147730633Y-48269674D01*
X147688300Y-48243065D01*
X147645967Y-48189846D01*
X147645967Y-48056798D01*
X147688300Y-47976970D01*
X147645967Y-47817313D02*
X147645967Y-47497999D01*
X148534967Y-47657656D02*
X147645967Y-47657656D01*
X148280967Y-47338342D02*
X148280967Y-47072247D01*
X148534967Y-47391561D02*
X147645967Y-47205294D01*
X148534967Y-47019028D01*
X148534967Y-46513447D02*
X148111633Y-46699714D01*
X148534967Y-46832761D02*
X147645967Y-46832761D01*
X147645967Y-46619885D01*
X147688300Y-46566666D01*
X147730633Y-46540057D01*
X147815300Y-46513447D01*
X147942300Y-46513447D01*
X148026967Y-46540057D01*
X148069300Y-46566666D01*
X148111633Y-46619885D01*
X148111633Y-46832761D01*
X147645967Y-46353790D02*
X147645967Y-46034476D01*
X148534967Y-46194133D02*
X147645967Y-46194133D01*
X148619633Y-45981257D02*
X148619633Y-45555505D01*
X148534967Y-45422457D02*
X147645967Y-45422457D01*
X148534967Y-45156362D02*
X147645967Y-45156362D01*
X148534967Y-44837048D01*
X147645967Y-44837048D01*
X146375967Y-46247352D02*
X146375967Y-45928038D01*
X147264967Y-46087695D02*
X146375967Y-46087695D01*
X147264967Y-45741771D02*
X146375967Y-45741771D01*
X147010967Y-45555505D01*
X146375967Y-45369238D01*
X147264967Y-45369238D01*
X147222633Y-45129752D02*
X147264967Y-45049923D01*
X147264967Y-44916876D01*
X147222633Y-44863657D01*
X147180300Y-44837047D01*
X147095633Y-44810438D01*
X147010967Y-44810438D01*
X146926300Y-44837047D01*
X146883967Y-44863657D01*
X146841633Y-44916876D01*
X146799300Y-45023314D01*
X146756967Y-45076533D01*
X146714633Y-45103142D01*
X146629967Y-45129752D01*
X146545300Y-45129752D01*
X146460633Y-45103142D01*
X146418300Y-45076533D01*
X146375967Y-45023314D01*
X146375967Y-44890266D01*
X146418300Y-44810438D01*
X145178780Y-45981258D02*
X145136447Y-46034477D01*
X145136447Y-46114305D01*
X145178780Y-46194134D01*
X145263447Y-46247353D01*
X145348113Y-46273962D01*
X145517447Y-46300572D01*
X145644447Y-46300572D01*
X145813780Y-46273962D01*
X145898447Y-46247353D01*
X145983113Y-46194134D01*
X146025447Y-46114305D01*
X146025447Y-46061086D01*
X145983113Y-45981258D01*
X145940780Y-45954648D01*
X145644447Y-45954648D01*
X145644447Y-46061086D01*
X146025447Y-45715162D02*
X145136447Y-45715162D01*
X146025447Y-45395848D01*
X145136447Y-45395848D01*
X146025447Y-45129752D02*
X145136447Y-45129752D01*
X145136447Y-44996705D01*
X145178780Y-44916876D01*
X145263447Y-44863657D01*
X145348113Y-44837048D01*
X145517447Y-44810438D01*
X145644447Y-44810438D01*
X145813780Y-44837048D01*
X145898447Y-44863657D01*
X145983113Y-44916876D01*
X146025447Y-44996705D01*
X146025447Y-45129752D01*
X144724967Y-46327180D02*
X144301633Y-46513447D01*
X144724967Y-46646494D02*
X143835967Y-46646494D01*
X143835967Y-46433618D01*
X143878300Y-46380399D01*
X143920633Y-46353790D01*
X144005300Y-46327180D01*
X144132300Y-46327180D01*
X144216967Y-46353790D01*
X144259300Y-46380399D01*
X144301633Y-46433618D01*
X144301633Y-46646494D01*
X144682633Y-46114304D02*
X144724967Y-46034475D01*
X144724967Y-45901428D01*
X144682633Y-45848209D01*
X144640300Y-45821599D01*
X144555633Y-45794990D01*
X144470967Y-45794990D01*
X144386300Y-45821599D01*
X144343967Y-45848209D01*
X144301633Y-45901428D01*
X144259300Y-46007866D01*
X144216967Y-46061085D01*
X144174633Y-46087694D01*
X144089967Y-46114304D01*
X144005300Y-46114304D01*
X143920633Y-46087694D01*
X143878300Y-46061085D01*
X143835967Y-46007866D01*
X143835967Y-45874818D01*
X143878300Y-45794990D01*
X143835967Y-45635333D02*
X143835967Y-45316019D01*
X144724967Y-45475676D02*
X143835967Y-45475676D01*
X144259300Y-44943486D02*
X144301633Y-44863657D01*
X144343967Y-44837048D01*
X144428633Y-44810438D01*
X144555633Y-44810438D01*
X144640300Y-44837048D01*
X144682633Y-44863657D01*
X144724967Y-44916876D01*
X144724967Y-45129752D01*
X143835967Y-45129752D01*
X143835967Y-44943486D01*
X143878300Y-44890267D01*
X143920633Y-44863657D01*
X144005300Y-44837048D01*
X144089967Y-44837048D01*
X144174633Y-44863657D01*
X144216967Y-44890267D01*
X144259300Y-44943486D01*
X144259300Y-45129752D01*
X142565967Y-46194133D02*
X142565967Y-45874819D01*
X143454967Y-46034476D02*
X142565967Y-46034476D01*
X143370300Y-45369238D02*
X143412633Y-45395848D01*
X143454967Y-45475676D01*
X143454967Y-45528895D01*
X143412633Y-45608724D01*
X143327967Y-45661943D01*
X143243300Y-45688552D01*
X143073967Y-45715162D01*
X142946967Y-45715162D01*
X142777633Y-45688552D01*
X142692967Y-45661943D01*
X142608300Y-45608724D01*
X142565967Y-45528895D01*
X142565967Y-45475676D01*
X142608300Y-45395848D01*
X142650633Y-45369238D01*
X143454967Y-45129752D02*
X142565967Y-45129752D01*
X143454967Y-44810438D02*
X142946967Y-45049924D01*
X142565967Y-44810438D02*
X143073967Y-45129752D01*
X141295967Y-45901428D02*
X141295967Y-45582114D01*
X142184967Y-45741771D02*
X141295967Y-45741771D01*
X142184967Y-45395847D02*
X141295967Y-45395847D01*
X141295967Y-45262800D01*
X141338300Y-45182971D01*
X141422967Y-45129752D01*
X141507633Y-45103143D01*
X141676967Y-45076533D01*
X141803967Y-45076533D01*
X141973300Y-45103143D01*
X142057967Y-45129752D01*
X142142633Y-45182971D01*
X142184967Y-45262800D01*
X142184967Y-45395847D01*
X142184967Y-44837047D02*
X141295967Y-44837047D01*
X140025967Y-46220743D02*
X140025967Y-45901429D01*
X140914967Y-46061086D02*
X140025967Y-46061086D01*
X140914967Y-45715162D02*
X140025967Y-45715162D01*
X140025967Y-45582115D01*
X140068300Y-45502286D01*
X140152967Y-45449067D01*
X140237633Y-45422458D01*
X140406967Y-45395848D01*
X140533967Y-45395848D01*
X140703300Y-45422458D01*
X140787967Y-45449067D01*
X140872633Y-45502286D01*
X140914967Y-45582115D01*
X140914967Y-45715162D01*
X140025967Y-45049924D02*
X140025967Y-44943486D01*
X140068300Y-44890267D01*
X140152967Y-44837048D01*
X140322300Y-44810439D01*
X140618633Y-44810439D01*
X140787967Y-44837048D01*
X140872633Y-44890267D01*
X140914967Y-44943486D01*
X140914967Y-45049924D01*
X140872633Y-45103143D01*
X140787967Y-45156362D01*
X140618633Y-45182972D01*
X140322300Y-45182972D01*
X140152967Y-45156362D01*
X140068300Y-45103143D01*
X140025967Y-45049924D01*
X138798300Y-45981258D02*
X138755967Y-46034477D01*
X138755967Y-46114305D01*
X138798300Y-46194134D01*
X138882967Y-46247353D01*
X138967633Y-46273962D01*
X139136967Y-46300572D01*
X139263967Y-46300572D01*
X139433300Y-46273962D01*
X139517967Y-46247353D01*
X139602633Y-46194134D01*
X139644967Y-46114305D01*
X139644967Y-46061086D01*
X139602633Y-45981258D01*
X139560300Y-45954648D01*
X139263967Y-45954648D01*
X139263967Y-46061086D01*
X139644967Y-45715162D02*
X138755967Y-45715162D01*
X139644967Y-45395848D01*
X138755967Y-45395848D01*
X139644967Y-45129752D02*
X138755967Y-45129752D01*
X138755967Y-44996705D01*
X138798300Y-44916876D01*
X138882967Y-44863657D01*
X138967633Y-44837048D01*
X139136967Y-44810438D01*
X139263967Y-44810438D01*
X139433300Y-44837048D01*
X139517967Y-44863657D01*
X139602633Y-44916876D01*
X139644967Y-44996705D01*
X139644967Y-45129752D01*
X138332633Y-46167523D02*
X138374967Y-46087694D01*
X138374967Y-45954647D01*
X138332633Y-45901428D01*
X138290300Y-45874818D01*
X138205633Y-45848209D01*
X138120967Y-45848209D01*
X138036300Y-45874818D01*
X137993967Y-45901428D01*
X137951633Y-45954647D01*
X137909300Y-46061085D01*
X137866967Y-46114304D01*
X137824633Y-46140913D01*
X137739967Y-46167523D01*
X137655300Y-46167523D01*
X137570633Y-46140913D01*
X137528300Y-46114304D01*
X137485967Y-46061085D01*
X137485967Y-45928037D01*
X137528300Y-45848209D01*
X138374967Y-45608723D02*
X137485967Y-45608723D01*
X137485967Y-45475676D01*
X137528300Y-45395847D01*
X137612967Y-45342628D01*
X137697633Y-45316019D01*
X137866967Y-45289409D01*
X137993967Y-45289409D01*
X138163300Y-45316019D01*
X138247967Y-45342628D01*
X138332633Y-45395847D01*
X138374967Y-45475676D01*
X138374967Y-45608723D01*
X138120967Y-45076533D02*
X138120967Y-44810438D01*
X138374967Y-45129752D02*
X137485967Y-44943485D01*
X138374967Y-44757219D01*
X137062633Y-46140914D02*
X137104967Y-46061085D01*
X137104967Y-45928038D01*
X137062633Y-45874819D01*
X137020300Y-45848209D01*
X136935633Y-45821600D01*
X136850967Y-45821600D01*
X136766300Y-45848209D01*
X136723967Y-45874819D01*
X136681633Y-45928038D01*
X136639300Y-46034476D01*
X136596967Y-46087695D01*
X136554633Y-46114304D01*
X136469967Y-46140914D01*
X136385300Y-46140914D01*
X136300633Y-46114304D01*
X136258300Y-46087695D01*
X136215967Y-46034476D01*
X136215967Y-45901428D01*
X136258300Y-45821600D01*
X137020300Y-45262800D02*
X137062633Y-45289410D01*
X137104967Y-45369238D01*
X137104967Y-45422457D01*
X137062633Y-45502286D01*
X136977967Y-45555505D01*
X136893300Y-45582114D01*
X136723967Y-45608724D01*
X136596967Y-45608724D01*
X136427633Y-45582114D01*
X136342967Y-45555505D01*
X136258300Y-45502286D01*
X136215967Y-45422457D01*
X136215967Y-45369238D01*
X136258300Y-45289410D01*
X136300633Y-45262800D01*
X137104967Y-44757219D02*
X137104967Y-45023314D01*
X136215967Y-45023314D01*
X134988300Y-45981258D02*
X134945967Y-46034477D01*
X134945967Y-46114305D01*
X134988300Y-46194134D01*
X135072967Y-46247353D01*
X135157633Y-46273962D01*
X135326967Y-46300572D01*
X135453967Y-46300572D01*
X135623300Y-46273962D01*
X135707967Y-46247353D01*
X135792633Y-46194134D01*
X135834967Y-46114305D01*
X135834967Y-46061086D01*
X135792633Y-45981258D01*
X135750300Y-45954648D01*
X135453967Y-45954648D01*
X135453967Y-46061086D01*
X135834967Y-45715162D02*
X134945967Y-45715162D01*
X135834967Y-45395848D01*
X134945967Y-45395848D01*
X135834967Y-45129752D02*
X134945967Y-45129752D01*
X134945967Y-44996705D01*
X134988300Y-44916876D01*
X135072967Y-44863657D01*
X135157633Y-44837048D01*
X135326967Y-44810438D01*
X135453967Y-44810438D01*
X135623300Y-44837048D01*
X135707967Y-44863657D01*
X135792633Y-44916876D01*
X135834967Y-44996705D01*
X135834967Y-45129752D01*
D12*
X150888780Y-75354180D02*
X151063780Y-75354180D01*
X150888780Y-69004180D02*
X151146280Y-69004180D01*
X163638780Y-69004180D02*
X163381280Y-69004180D01*
X163638780Y-75354180D02*
X163381280Y-75354180D01*
X150888780Y-75354180D02*
X150888780Y-69004180D01*
X163638780Y-75354180D02*
X163638780Y-69004180D01*
X151063780Y-75354180D02*
X151063780Y-76429180D01*
X71035660Y-43043400D02*
X70335660Y-43043400D01*
X70335660Y-41843400D02*
X71035660Y-41843400D01*
X72898000Y-40665400D02*
X74930000Y-40665400D01*
X74930000Y-40665400D02*
X74930000Y-39395400D01*
X74930000Y-39395400D02*
X72898000Y-39395400D01*
X72898000Y-39395400D02*
X72898000Y-40665400D01*
X105785920Y-37731700D02*
X101986080Y-37731700D01*
X105785920Y-44432220D02*
X105785920Y-39433500D01*
X101986080Y-44429680D02*
X101986080Y-39430960D01*
X106789220Y-37228780D02*
X105689400Y-37228780D01*
X106288840Y-36629340D02*
X106288840Y-37828220D01*
X75015840Y-38392660D02*
X74315840Y-38392660D01*
X74315840Y-37192660D02*
X75015840Y-37192660D01*
X105785920Y-65661540D02*
X101986080Y-65661540D01*
X105785920Y-72362060D02*
X105785920Y-67363340D01*
X101986080Y-72359520D02*
X101986080Y-67360800D01*
X106789220Y-65158620D02*
X105689400Y-65158620D01*
X106288840Y-64559180D02*
X106288840Y-65758060D01*
X75013300Y-66332660D02*
X74313300Y-66332660D01*
X74313300Y-65132660D02*
X75013300Y-65132660D01*
X93105680Y-47056790D02*
X93105680Y-46356790D01*
X94305680Y-46356790D02*
X94305680Y-47056790D01*
X95847460Y-49573700D02*
X95847460Y-50273700D01*
X94647460Y-50273700D02*
X94647460Y-49573700D01*
X103721460Y-51346620D02*
X103721460Y-52046620D01*
X102521460Y-52046620D02*
X102521460Y-51346620D01*
X98908160Y-52647100D02*
X98908160Y-53347100D01*
X97708160Y-53347100D02*
X97708160Y-52647100D01*
X97447660Y-49570460D02*
X97447660Y-50270460D01*
X96247660Y-50270460D02*
X96247660Y-49570460D01*
X94305680Y-57044540D02*
X94305680Y-57744540D01*
X93105680Y-57744540D02*
X93105680Y-57044540D01*
X74149700Y-43043400D02*
X73449700Y-43043400D01*
X73449700Y-41843400D02*
X74149700Y-41843400D01*
X74149700Y-70983400D02*
X73449700Y-70983400D01*
X73449700Y-69783400D02*
X74149700Y-69783400D01*
X84614460Y-47052980D02*
X84614460Y-46352980D01*
X85814460Y-46352980D02*
X85814460Y-47052980D01*
X71035660Y-72626780D02*
X70335660Y-72626780D01*
X70335660Y-71426780D02*
X71035660Y-71426780D01*
X103844800Y-36001440D02*
X103844800Y-35301440D01*
X105044800Y-35301440D02*
X105044800Y-36001440D01*
X103824480Y-63938900D02*
X103824480Y-63238900D01*
X105024480Y-63238900D02*
X105024480Y-63938900D01*
X71035660Y-44686780D02*
X70335660Y-44686780D01*
X70335660Y-43486780D02*
X71035660Y-43486780D01*
X71033120Y-70983400D02*
X70333120Y-70983400D01*
X70333120Y-69783400D02*
X71033120Y-69783400D01*
X84614460Y-56243400D02*
X84614460Y-55543400D01*
X85814460Y-55543400D02*
X85814460Y-56243400D01*
X111234000Y-33900860D02*
X111234000Y-33200860D01*
X112434000Y-33200860D02*
X112434000Y-33900860D01*
X112434000Y-66761880D02*
X112434000Y-67461880D01*
X111234000Y-67461880D02*
X111234000Y-66761880D01*
X77960740Y-32823860D02*
X78660740Y-32823860D01*
X78660740Y-34023860D02*
X77960740Y-34023860D01*
X77955660Y-60824820D02*
X78655660Y-60824820D01*
X78655660Y-62024820D02*
X77955660Y-62024820D01*
X66774580Y-58985860D02*
X67474580Y-58985860D01*
X67474580Y-60185860D02*
X66774580Y-60185860D01*
X66774580Y-31028080D02*
X67474580Y-31028080D01*
X67474580Y-32228080D02*
X66774580Y-32228080D01*
X79225660Y-42107560D02*
X79925660Y-42107560D01*
X79925660Y-43307560D02*
X79225660Y-43307560D01*
X79225660Y-70062800D02*
X79925660Y-70062800D01*
X79925660Y-71262800D02*
X79225660Y-71262800D01*
X76518020Y-48538840D02*
X77218020Y-48538840D01*
X77218020Y-49738840D02*
X76518020Y-49738840D01*
X76518020Y-46958960D02*
X77218020Y-46958960D01*
X77218020Y-48158960D02*
X76518020Y-48158960D01*
X80498240Y-51257720D02*
X80498240Y-51957720D01*
X79298240Y-51957720D02*
X79298240Y-51257720D01*
X75127560Y-35640760D02*
X75127560Y-34940760D01*
X76327560Y-34940760D02*
X76327560Y-35640760D01*
X75127560Y-63580760D02*
X75127560Y-62880760D01*
X76327560Y-62880760D02*
X76327560Y-63580760D01*
X121089940Y-42861940D02*
X121789940Y-42861940D01*
X121789940Y-44061940D02*
X121089940Y-44061940D01*
X74396600Y-83830160D02*
X69997320Y-83830160D01*
X69997320Y-85732620D02*
X69997320Y-94734380D01*
X74396600Y-94734380D02*
X74396600Y-85732620D01*
X75399900Y-83375500D02*
X74300080Y-83375500D01*
X74899520Y-82776060D02*
X74899520Y-83974940D01*
X115989280Y-44061940D02*
X115289280Y-44061940D01*
X115289280Y-42861940D02*
X115989280Y-42861940D01*
X75371960Y-85737700D02*
X75371960Y-90939620D01*
X77769720Y-90939620D02*
X77769720Y-85737700D01*
X78869540Y-83738720D02*
X77769720Y-83738720D01*
X78369160Y-83139280D02*
X78369160Y-84338160D01*
X77769720Y-84343240D02*
X75371960Y-84343240D01*
X103375460Y-106240580D02*
X103375460Y-110040420D01*
X110075980Y-106240580D02*
X105077260Y-106240580D01*
X110073440Y-110040420D02*
X105074720Y-110040420D01*
X102872540Y-105237280D02*
X102872540Y-106337100D01*
X102273100Y-105737660D02*
X103471980Y-105737660D01*
X66196960Y-57282640D02*
X65496960Y-57282640D01*
X65496960Y-56082640D02*
X66196960Y-56082640D01*
X66196960Y-48098000D02*
X65496960Y-48098000D01*
X65496960Y-46898000D02*
X66196960Y-46898000D01*
X109910880Y-96139000D02*
X109910880Y-90937080D01*
X107513120Y-90937080D02*
X107513120Y-96139000D01*
X106413300Y-98137980D02*
X107513120Y-98137980D01*
X106913680Y-98737420D02*
X106913680Y-97538540D01*
X107513120Y-97533460D02*
X109910880Y-97533460D01*
X106908600Y-105925620D02*
X110708440Y-105925620D01*
X106908600Y-99225100D02*
X106908600Y-104223820D01*
X110708440Y-99227640D02*
X110708440Y-104226360D01*
X105905300Y-106428540D02*
X107005120Y-106428540D01*
X106405680Y-107027980D02*
X106405680Y-105829100D01*
X102687120Y-98054160D02*
X107086400Y-98054160D01*
X107086400Y-96151700D02*
X107086400Y-87149940D01*
X102687120Y-87149940D02*
X102687120Y-96151700D01*
X101683820Y-98508820D02*
X102783640Y-98508820D01*
X102184200Y-99108260D02*
X102184200Y-97909380D01*
X150411740Y-68826900D02*
X150411740Y-69526900D01*
X149211740Y-69526900D02*
X149211740Y-68826900D01*
X165273280Y-68826900D02*
X165273280Y-69526900D01*
X164073280Y-69526900D02*
X164073280Y-68826900D01*
X128051000Y-81614760D02*
X128051000Y-80914760D01*
X129251000Y-80914760D02*
X129251000Y-81614760D01*
X128025600Y-89229680D02*
X128025600Y-88529680D01*
X129225600Y-88529680D02*
X129225600Y-89229680D01*
X128051000Y-73992920D02*
X128051000Y-73292920D01*
X129251000Y-73292920D02*
X129251000Y-73992920D01*
X118734280Y-81614760D02*
X118734280Y-80914760D01*
X119934280Y-80914760D02*
X119934280Y-81614760D01*
X118734280Y-73994760D02*
X118734280Y-73294760D01*
X119934280Y-73294760D02*
X119934280Y-73994760D01*
X115892400Y-84060740D02*
X116592400Y-84060740D01*
X116592400Y-85260740D02*
X115892400Y-85260740D01*
X115893100Y-76458520D02*
X116593100Y-76458520D01*
X116593100Y-77658520D02*
X115893100Y-77658520D01*
X110337600Y-43975020D02*
X110337600Y-40520620D01*
X106578400Y-43975020D02*
X106578400Y-40520620D01*
X110337600Y-71902320D02*
X110337600Y-68447920D01*
X106578400Y-71902320D02*
X106578400Y-68447920D01*
X157794960Y-41402000D02*
X132140960Y-41402000D01*
X132140960Y-41402000D02*
X132140960Y-44196000D01*
X157794960Y-44196000D02*
X132140960Y-44196000D01*
X157794960Y-41402000D02*
X157794960Y-44196000D01*
X157794960Y-95758000D02*
X132140960Y-95758000D01*
X132140960Y-95758000D02*
X132140960Y-98552000D01*
X157794960Y-98552000D02*
X132140960Y-98552000D01*
X157794960Y-95758000D02*
X157794960Y-98552000D01*
X98069020Y-48129820D02*
X97069020Y-48129820D01*
X97069020Y-46779820D02*
X98069020Y-46779820D01*
X98069020Y-57319540D02*
X97069020Y-57319540D01*
X97069020Y-55969540D02*
X98069020Y-55969540D01*
X82562060Y-46202980D02*
X82562060Y-47202980D01*
X81212060Y-47202980D02*
X81212060Y-46202980D01*
X82562060Y-55395240D02*
X82562060Y-56395240D01*
X81212060Y-56395240D02*
X81212060Y-55395240D01*
X96024060Y-46205520D02*
X96024060Y-47205520D01*
X94674060Y-47205520D02*
X94674060Y-46205520D01*
X76565120Y-39797100D02*
X76565120Y-40797100D01*
X75215120Y-40797100D02*
X75215120Y-39797100D01*
X76565120Y-67737100D02*
X76565120Y-68737100D01*
X75215120Y-68737100D02*
X75215120Y-67737100D01*
X94674060Y-57893840D02*
X94674060Y-56893840D01*
X96024060Y-56893840D02*
X96024060Y-57893840D01*
X103435780Y-35151440D02*
X103435780Y-36151440D01*
X102085780Y-36151440D02*
X102085780Y-35151440D01*
X104012620Y-34078540D02*
X103012620Y-34078540D01*
X103012620Y-32728540D02*
X104012620Y-32728540D01*
X103435780Y-63091440D02*
X103435780Y-64091440D01*
X102085780Y-64091440D02*
X102085780Y-63091440D01*
X104012620Y-62010920D02*
X103012620Y-62010920D01*
X103012620Y-60660920D02*
X104012620Y-60660920D01*
X84241000Y-46202980D02*
X84241000Y-47202980D01*
X82891000Y-47202980D02*
X82891000Y-46202980D01*
X84241000Y-55392700D02*
X84241000Y-56392700D01*
X82891000Y-56392700D02*
X82891000Y-55392700D01*
X73299700Y-43411780D02*
X74299700Y-43411780D01*
X74299700Y-44761780D02*
X73299700Y-44761780D01*
X73299700Y-71351780D02*
X74299700Y-71351780D01*
X74299700Y-72701780D02*
X73299700Y-72701780D01*
X105443660Y-36151440D02*
X105443660Y-35151440D01*
X106793660Y-35151440D02*
X106793660Y-36151440D01*
X70185660Y-40089460D02*
X71185660Y-40089460D01*
X71185660Y-41439460D02*
X70185660Y-41439460D01*
X105443660Y-64088900D02*
X105443660Y-63088900D01*
X106793660Y-63088900D02*
X106793660Y-64088900D01*
X70183120Y-68029460D02*
X71183120Y-68029460D01*
X71183120Y-69379460D02*
X70183120Y-69379460D01*
X92052460Y-48127280D02*
X91052460Y-48127280D01*
X91052460Y-46777280D02*
X92052460Y-46777280D01*
X92052460Y-57319540D02*
X91052460Y-57319540D01*
X91052460Y-55969540D02*
X92052460Y-55969540D01*
X86876000Y-46777280D02*
X87876000Y-46777280D01*
X87876000Y-48127280D02*
X86876000Y-48127280D01*
X86876000Y-55969540D02*
X87876000Y-55969540D01*
X87876000Y-57319540D02*
X86876000Y-57319540D01*
X112284000Y-35326440D02*
X114284000Y-35326440D01*
X114284000Y-37476440D02*
X112284000Y-37476440D01*
X112284000Y-63263900D02*
X114284000Y-63263900D01*
X114284000Y-65413900D02*
X112284000Y-65413900D01*
X115429660Y-53348000D02*
X115429660Y-54348000D01*
X114079660Y-54348000D02*
X114079660Y-53348000D01*
X113730400Y-53348000D02*
X113730400Y-54348000D01*
X112380400Y-54348000D02*
X112380400Y-53348000D01*
X88081480Y-53114320D02*
X88081480Y-54114320D01*
X86731480Y-54114320D02*
X86731480Y-53114320D01*
X62539500Y-57357640D02*
X61539500Y-57357640D01*
X61539500Y-56007640D02*
X62539500Y-56007640D01*
X113148740Y-49365280D02*
X113148740Y-50365280D01*
X111798740Y-50365280D02*
X111798740Y-49365280D01*
X65357120Y-40239320D02*
X66357120Y-40239320D01*
X66357120Y-41589320D02*
X65357120Y-41589320D01*
X62654560Y-40236780D02*
X63654560Y-40236780D01*
X63654560Y-41586780D02*
X62654560Y-41586780D01*
X65357120Y-68179320D02*
X66357120Y-68179320D01*
X66357120Y-69529320D02*
X65357120Y-69529320D01*
X62654560Y-68179320D02*
X63654560Y-68179320D01*
X63654560Y-69529320D02*
X62654560Y-69529320D01*
X152200420Y-79528040D02*
X153200420Y-79528040D01*
X153200420Y-80878040D02*
X152200420Y-80878040D01*
X155424760Y-82562060D02*
X154424760Y-82562060D01*
X154424760Y-81212060D02*
X155424760Y-81212060D01*
X156692980Y-79528040D02*
X157692980Y-79528040D01*
X157692980Y-80878040D02*
X156692980Y-80878040D01*
X159933260Y-82562060D02*
X158933260Y-82562060D01*
X158933260Y-81212060D02*
X159933260Y-81212060D01*
X103640000Y-81684500D02*
X104640000Y-81684500D01*
X104640000Y-83034500D02*
X103640000Y-83034500D01*
X104640000Y-81269200D02*
X103640000Y-81269200D01*
X103640000Y-79919200D02*
X104640000Y-79919200D01*
X104198800Y-100673540D02*
X105198800Y-100673540D01*
X105198800Y-102023540D02*
X104198800Y-102023540D01*
X105198800Y-100276020D02*
X104198800Y-100276020D01*
X104198800Y-98926020D02*
X105198800Y-98926020D01*
X123183020Y-48793720D02*
X123183020Y-47793720D01*
X124533020Y-47793720D02*
X124533020Y-48793720D01*
X124910220Y-50294160D02*
X124910220Y-49294160D01*
X126260220Y-49294160D02*
X126260220Y-50294160D01*
X123183020Y-51792760D02*
X123183020Y-50792760D01*
X124533020Y-50792760D02*
X124533020Y-51792760D01*
X126260220Y-46294420D02*
X126260220Y-47294420D01*
X124910220Y-47294420D02*
X124910220Y-46294420D01*
X124533020Y-44795820D02*
X124533020Y-45795820D01*
X123183020Y-45795820D02*
X123183020Y-44795820D01*
X126260220Y-43292140D02*
X126260220Y-44292140D01*
X124910220Y-44292140D02*
X124910220Y-43292140D01*
X120009280Y-83624800D02*
X120009280Y-84624800D01*
X118659280Y-84624800D02*
X118659280Y-83624800D01*
X120009280Y-75984480D02*
X120009280Y-76984480D01*
X118659280Y-76984480D02*
X118659280Y-75984480D01*
X72898000Y-68605400D02*
X74930000Y-68605400D01*
X74930000Y-68605400D02*
X74930000Y-67335400D01*
X74930000Y-67335400D02*
X72898000Y-67335400D01*
X72898000Y-67335400D02*
X72898000Y-68605400D01*
X82036360Y-36025000D02*
X81986360Y-36025000D01*
X82036360Y-40175000D02*
X81891360Y-40175000D01*
X76886360Y-40175000D02*
X77031360Y-40175000D01*
X76886360Y-36025000D02*
X77031360Y-36025000D01*
X82036360Y-36025000D02*
X82036360Y-40175000D01*
X76886360Y-36025000D02*
X76886360Y-40175000D01*
X81986360Y-36025000D02*
X81986360Y-34625000D01*
X82036360Y-63965000D02*
X81986360Y-63965000D01*
X82036360Y-68115000D02*
X81891360Y-68115000D01*
X76886360Y-68115000D02*
X77031360Y-68115000D01*
X76886360Y-63965000D02*
X77031360Y-63965000D01*
X82036360Y-63965000D02*
X82036360Y-68115000D01*
X76886360Y-63965000D02*
X76886360Y-68115000D01*
X81986360Y-63965000D02*
X81986360Y-62565000D01*
X68543880Y-34170800D02*
X68493880Y-34170800D01*
X68543880Y-38320800D02*
X68398880Y-38320800D01*
X63393880Y-38320800D02*
X63538880Y-38320800D01*
X63393880Y-34170800D02*
X63538880Y-34170800D01*
X68543880Y-34170800D02*
X68543880Y-38320800D01*
X63393880Y-34170800D02*
X63393880Y-38320800D01*
X68493880Y-34170800D02*
X68493880Y-32770800D01*
X68543880Y-62110800D02*
X68493880Y-62110800D01*
X68543880Y-66260800D02*
X68398880Y-66260800D01*
X63393880Y-66260800D02*
X63538880Y-66260800D01*
X63393880Y-62110800D02*
X63538880Y-62110800D01*
X68543880Y-62110800D02*
X68543880Y-66260800D01*
X63393880Y-62110800D02*
X63393880Y-66260800D01*
X68493880Y-62110800D02*
X68493880Y-60710800D01*
X111400500Y-49745000D02*
X111275500Y-49745000D01*
X111400500Y-54395000D02*
X111175500Y-54395000D01*
X106150500Y-54395000D02*
X106375500Y-54395000D01*
X106150500Y-49745000D02*
X106375500Y-49745000D01*
X111400500Y-49745000D02*
X111400500Y-54395000D01*
X106150500Y-49745000D02*
X106150500Y-54395000D01*
X111275500Y-49745000D02*
X111275500Y-48395000D01*
X116914260Y-44552200D02*
X116914260Y-44727200D01*
X120164260Y-44552200D02*
X120164260Y-44827200D01*
X120164260Y-47802200D02*
X120164260Y-47527200D01*
X116914260Y-47802200D02*
X116914260Y-47527200D01*
X116914260Y-44552200D02*
X120164260Y-44552200D01*
X116914260Y-47802200D02*
X120164260Y-47802200D01*
X116914260Y-44727200D02*
X115839260Y-44727200D01*
X67228800Y-49995000D02*
X67203800Y-49995000D01*
X67228800Y-54145000D02*
X67123800Y-54145000D01*
X57078800Y-54145000D02*
X57183800Y-54145000D01*
X57078800Y-49995000D02*
X57183800Y-49995000D01*
X67228800Y-49995000D02*
X67228800Y-54145000D01*
X57078800Y-49995000D02*
X57078800Y-54145000D01*
X67203800Y-49995000D02*
X67203800Y-48620000D01*
X121958280Y-81344060D02*
X121958280Y-81394060D01*
X126108280Y-81344060D02*
X126108280Y-81489060D01*
X126108280Y-86494060D02*
X126108280Y-86349060D01*
X121958280Y-86494060D02*
X121958280Y-86349060D01*
X121958280Y-81344060D02*
X126108280Y-81344060D01*
X121958280Y-86494060D02*
X126108280Y-86494060D01*
X121958280Y-81394060D02*
X120558280Y-81394060D01*
X121958280Y-73724060D02*
X121958280Y-73774060D01*
X126108280Y-73724060D02*
X126108280Y-73869060D01*
X126108280Y-78874060D02*
X126108280Y-78729060D01*
X121958280Y-78874060D02*
X121958280Y-78729060D01*
X121958280Y-73724060D02*
X126108280Y-73724060D01*
X121958280Y-78874060D02*
X126108280Y-78874060D01*
X121958280Y-73774060D02*
X120558280Y-73774060D01*
X121958280Y-88964060D02*
X121958280Y-89014060D01*
X126108280Y-88964060D02*
X126108280Y-89109060D01*
X126108280Y-94114060D02*
X126108280Y-93969060D01*
X121958280Y-94114060D02*
X121958280Y-93969060D01*
X121958280Y-88964060D02*
X126108280Y-88964060D01*
X121958280Y-94114060D02*
X126108280Y-94114060D01*
X121958280Y-89014060D02*
X120558280Y-89014060D01*
X115874800Y-81724500D02*
X115874800Y-83756500D01*
X115874800Y-83756500D02*
X117144800Y-83756500D01*
X117144800Y-83756500D02*
X117144800Y-81724500D01*
X117144800Y-81724500D02*
X115874800Y-81724500D01*
X115874800Y-74086720D02*
X115874800Y-76118720D01*
X115874800Y-76118720D02*
X117144800Y-76118720D01*
X117144800Y-76118720D02*
X117144800Y-74086720D01*
X117144800Y-74086720D02*
X115874800Y-74086720D01*
X78493020Y-50485640D02*
X78493020Y-50985640D01*
X75243020Y-53735640D02*
X75243020Y-53235640D01*
X78493020Y-53735640D02*
X78493020Y-53235640D01*
X75243020Y-50485640D02*
X75743020Y-50485640D01*
X75243020Y-53735640D02*
X75743020Y-53735640D01*
X78493020Y-53735640D02*
X77993020Y-53735640D01*
X78493020Y-50485640D02*
X77993020Y-50485640D01*
X96560000Y-33100000D02*
X96560000Y-34350000D01*
X96560000Y-33100000D02*
X95060000Y-33100000D01*
X96560000Y-43100000D02*
X95060000Y-43100000D01*
X96560000Y-43100000D02*
X96560000Y-41850000D01*
X96560000Y-61040000D02*
X96560000Y-62290000D01*
X96560000Y-61040000D02*
X95060000Y-61040000D01*
X96560000Y-71040000D02*
X95060000Y-71040000D01*
X96560000Y-71040000D02*
X96560000Y-69790000D01*
X97581080Y-99743780D02*
X97581080Y-100993780D01*
X97581080Y-99743780D02*
X96081080Y-99743780D01*
X97581080Y-109743780D02*
X96081080Y-109743780D01*
X97581080Y-109743780D02*
X97581080Y-108493780D01*
X78960980Y-97579180D02*
X102074980Y-97579180D01*
X78960980Y-80815180D02*
X102074980Y-80815180D01*
X78960980Y-97579180D02*
X78960980Y-80815180D01*
X102074980Y-97579180D02*
X102074980Y-80815180D01*
D13*
X120523000Y-31369000D02*
X172593000Y-31369000D01*
X172593000Y-31369000D02*
X172593000Y-37719000D01*
X172593000Y-37719000D02*
X120523000Y-37719000D01*
X120523000Y-37719000D02*
X120523000Y-31369000D01*
X120523000Y-34544000D02*
X123698000Y-34544000D01*
X123698000Y-34544000D02*
X123698000Y-37719000D01*
D12*
X120523000Y-38354000D02*
X123698000Y-38354000D01*
D13*
X120523000Y-107315000D02*
X172593000Y-107315000D01*
X172593000Y-107315000D02*
X172593000Y-113665000D01*
X172593000Y-113665000D02*
X120523000Y-113665000D01*
X120523000Y-113665000D02*
X120523000Y-107315000D01*
X120523000Y-110490000D02*
X123698000Y-110490000D01*
X123698000Y-110490000D02*
X123698000Y-113665000D01*
D12*
X120523000Y-114300000D02*
X123698000Y-114300000D01*
X115274000Y-100246000D02*
X115274000Y-102146000D01*
X116374000Y-100246000D02*
X116374000Y-102146000D01*
X115824000Y-101146000D02*
X115824000Y-101596000D01*
X116074000Y-101096000D02*
X115574000Y-101096000D01*
X115824000Y-101096000D02*
X116074000Y-101346000D01*
X116074000Y-101346000D02*
X115574000Y-101346000D01*
X115574000Y-101346000D02*
X115824000Y-101096000D01*
X107231000Y-82909500D02*
X109131000Y-82909500D01*
X107231000Y-81809500D02*
X109131000Y-81809500D01*
X108131000Y-82359500D02*
X108581000Y-82359500D01*
X108081000Y-82109500D02*
X108081000Y-82609500D01*
X108081000Y-82359500D02*
X108331000Y-82109500D01*
X108331000Y-82109500D02*
X108331000Y-82609500D01*
X108331000Y-82609500D02*
X108081000Y-82359500D01*
X115149000Y-104640000D02*
X115149000Y-103640000D01*
X116499000Y-103640000D02*
X116499000Y-104640000D01*
X107831000Y-80033500D02*
X108831000Y-80033500D01*
X108831000Y-81383500D02*
X107831000Y-81383500D01*
X59408060Y-99822000D02*
X82649060Y-99822000D01*
X59408060Y-115062000D02*
X59408060Y-99822000D01*
X82649060Y-115062000D02*
X82649060Y-99822000D01*
X59408060Y-115062000D02*
X82649060Y-115062000D01*
X94275560Y-54329360D02*
X94175560Y-54329360D01*
X88750560Y-54354360D02*
X88775560Y-54354360D01*
X88750560Y-49704360D02*
X88775560Y-49704360D01*
X94275560Y-48629360D02*
X94275560Y-54329360D01*
X88750560Y-49704360D02*
X88750560Y-54354360D01*
X99207520Y-52746860D02*
G75*
G03X99207520Y-52746860I-100000J0D01*
G01*
X99357520Y-52096860D02*
X99357520Y-52596860D01*
X102257520Y-52096860D02*
X99357520Y-52096860D01*
X102257520Y-52596860D02*
X102257520Y-52096860D01*
X99357520Y-52596860D02*
X102257520Y-52596860D01*
X75117100Y-34540240D02*
G75*
G03X75117100Y-34540240I-100000J0D01*
G01*
X74767100Y-35190240D02*
X74767100Y-34690240D01*
X71867100Y-35190240D02*
X74767100Y-35190240D01*
X71867100Y-34690240D02*
X71867100Y-35190240D01*
X74767100Y-34690240D02*
X71867100Y-34690240D01*
X75117100Y-62480240D02*
G75*
G03X75117100Y-62480240I-100000J0D01*
G01*
X74767100Y-63130240D02*
X74767100Y-62630240D01*
X71867100Y-63130240D02*
X74767100Y-63130240D01*
X71867100Y-62630240D02*
X71867100Y-63130240D01*
X74767100Y-62630240D02*
X71867100Y-62630240D01*
X177609667Y-34805881D02*
X177276333Y-34329690D01*
X177038238Y-34805881D02*
X177038238Y-33805881D01*
X177419191Y-33805881D01*
X177514429Y-33853500D01*
X177562048Y-33901119D01*
X177609667Y-33996357D01*
X177609667Y-34139214D01*
X177562048Y-34234452D01*
X177514429Y-34282071D01*
X177419191Y-34329690D01*
X177038238Y-34329690D01*
X178038238Y-34282071D02*
X178371572Y-34282071D01*
X178514429Y-34805881D02*
X178038238Y-34805881D01*
X178038238Y-33805881D01*
X178514429Y-33805881D01*
X179276334Y-34282071D02*
X178943000Y-34282071D01*
X178943000Y-34805881D02*
X178943000Y-33805881D01*
X179419191Y-33805881D01*
X179943000Y-33805881D02*
X179943000Y-34043976D01*
X179704905Y-33948738D02*
X179943000Y-34043976D01*
X180181096Y-33948738D01*
X179800143Y-34234452D02*
X179943000Y-34043976D01*
X180085858Y-34234452D01*
X180704905Y-33805881D02*
X180704905Y-34043976D01*
X180466810Y-33948738D02*
X180704905Y-34043976D01*
X180943001Y-33948738D01*
X180562048Y-34234452D02*
X180704905Y-34043976D01*
X180847763Y-34234452D01*
X177673167Y-110942381D02*
X177339833Y-110466190D01*
X177101738Y-110942381D02*
X177101738Y-109942381D01*
X177482691Y-109942381D01*
X177577929Y-109990000D01*
X177625548Y-110037619D01*
X177673167Y-110132857D01*
X177673167Y-110275714D01*
X177625548Y-110370952D01*
X177577929Y-110418571D01*
X177482691Y-110466190D01*
X177101738Y-110466190D01*
X178101738Y-110418571D02*
X178435072Y-110418571D01*
X178577929Y-110942381D02*
X178101738Y-110942381D01*
X178101738Y-109942381D01*
X178577929Y-109942381D01*
X179339834Y-110418571D02*
X179006500Y-110418571D01*
X179006500Y-110942381D02*
X179006500Y-109942381D01*
X179482691Y-109942381D01*
X180006500Y-109942381D02*
X180006500Y-110180476D01*
X179768405Y-110085238D02*
X180006500Y-110180476D01*
X180244596Y-110085238D01*
X179863643Y-110370952D02*
X180006500Y-110180476D01*
X180149358Y-110370952D01*
X180768405Y-109942381D02*
X180768405Y-110180476D01*
X180530310Y-110085238D02*
X180768405Y-110180476D01*
X181006501Y-110085238D01*
X180625548Y-110370952D02*
X180768405Y-110180476D01*
X180911263Y-110370952D01*
X149601941Y-74222455D02*
X150411465Y-74222455D01*
X150506703Y-74174836D01*
X150554322Y-74127217D01*
X150601941Y-74031979D01*
X150601941Y-73841502D01*
X150554322Y-73746264D01*
X150506703Y-73698645D01*
X150411465Y-73651026D01*
X149601941Y-73651026D01*
X150601941Y-72651026D02*
X150601941Y-73222455D01*
X150601941Y-72936741D02*
X149601941Y-72936741D01*
X149744798Y-73031979D01*
X149840036Y-73127217D01*
X149887655Y-73222455D01*
X150030512Y-72079598D02*
X149982893Y-72174836D01*
X149935274Y-72222455D01*
X149840036Y-72270074D01*
X149792417Y-72270074D01*
X149697179Y-72222455D01*
X149649560Y-72174836D01*
X149601941Y-72079598D01*
X149601941Y-71889121D01*
X149649560Y-71793883D01*
X149697179Y-71746264D01*
X149792417Y-71698645D01*
X149840036Y-71698645D01*
X149935274Y-71746264D01*
X149982893Y-71793883D01*
X150030512Y-71889121D01*
X150030512Y-72079598D01*
X150078131Y-72174836D01*
X150125750Y-72222455D01*
X150220989Y-72270074D01*
X150411465Y-72270074D01*
X150506703Y-72222455D01*
X150554322Y-72174836D01*
X150601941Y-72079598D01*
X150601941Y-71889121D01*
X150554322Y-71793883D01*
X150506703Y-71746264D01*
X150411465Y-71698645D01*
X150220989Y-71698645D01*
X150125750Y-71746264D01*
X150078131Y-71793883D01*
X150030512Y-71889121D01*
X69793883Y-47146483D02*
X69746264Y-47194102D01*
X69603407Y-47241721D01*
X69508169Y-47241721D01*
X69365311Y-47194102D01*
X69270073Y-47098864D01*
X69222454Y-47003626D01*
X69174835Y-46813150D01*
X69174835Y-46670292D01*
X69222454Y-46479816D01*
X69270073Y-46384578D01*
X69365311Y-46289340D01*
X69508169Y-46241721D01*
X69603407Y-46241721D01*
X69746264Y-46289340D01*
X69793883Y-46336959D01*
X70746264Y-47241721D02*
X70174835Y-47241721D01*
X70460549Y-47241721D02*
X70460549Y-46241721D01*
X70365311Y-46384578D01*
X70270073Y-46479816D01*
X70174835Y-46527435D01*
X71603407Y-46575054D02*
X71603407Y-47241721D01*
X71365311Y-46194102D02*
X71127216Y-46908388D01*
X71746264Y-46908388D01*
X71023575Y-38781741D02*
X71023575Y-39591265D01*
X71071194Y-39686503D01*
X71118813Y-39734122D01*
X71214051Y-39781741D01*
X71404528Y-39781741D01*
X71499766Y-39734122D01*
X71547385Y-39686503D01*
X71595004Y-39591265D01*
X71595004Y-38781741D01*
X72499766Y-39115074D02*
X72499766Y-39781741D01*
X72261670Y-38734122D02*
X72023575Y-39448408D01*
X72642623Y-39448408D01*
X104271083Y-46978866D02*
X104318702Y-47026485D01*
X104366321Y-47169342D01*
X104366321Y-47264580D01*
X104318702Y-47407438D01*
X104223464Y-47502676D01*
X104128226Y-47550295D01*
X103937750Y-47597914D01*
X103794892Y-47597914D01*
X103604416Y-47550295D01*
X103509178Y-47502676D01*
X103413940Y-47407438D01*
X103366321Y-47264580D01*
X103366321Y-47169342D01*
X103413940Y-47026485D01*
X103461559Y-46978866D01*
X104366321Y-46026485D02*
X104366321Y-46597914D01*
X104366321Y-46312200D02*
X103366321Y-46312200D01*
X103509178Y-46407438D01*
X103604416Y-46502676D01*
X103652035Y-46597914D01*
X106357729Y-37612272D02*
X106357729Y-36850367D01*
X106738681Y-37231319D02*
X105976776Y-37231319D01*
X72106494Y-38154883D02*
X72058875Y-38202502D01*
X71916018Y-38250121D01*
X71820780Y-38250121D01*
X71677922Y-38202502D01*
X71582684Y-38107264D01*
X71535065Y-38012026D01*
X71487446Y-37821550D01*
X71487446Y-37678692D01*
X71535065Y-37488216D01*
X71582684Y-37392978D01*
X71677922Y-37297740D01*
X71820780Y-37250121D01*
X71916018Y-37250121D01*
X72058875Y-37297740D01*
X72106494Y-37345359D01*
X72487446Y-37345359D02*
X72535065Y-37297740D01*
X72630303Y-37250121D01*
X72868399Y-37250121D01*
X72963637Y-37297740D01*
X73011256Y-37345359D01*
X73058875Y-37440597D01*
X73058875Y-37535835D01*
X73011256Y-37678692D01*
X72439827Y-38250121D01*
X73058875Y-38250121D01*
X104263463Y-74954426D02*
X104311082Y-75002045D01*
X104358701Y-75144902D01*
X104358701Y-75240140D01*
X104311082Y-75382998D01*
X104215844Y-75478236D01*
X104120606Y-75525855D01*
X103930130Y-75573474D01*
X103787272Y-75573474D01*
X103596796Y-75525855D01*
X103501558Y-75478236D01*
X103406320Y-75382998D01*
X103358701Y-75240140D01*
X103358701Y-75144902D01*
X103406320Y-75002045D01*
X103453939Y-74954426D01*
X103358701Y-74621093D02*
X103358701Y-74002045D01*
X103739653Y-74335379D01*
X103739653Y-74192521D01*
X103787272Y-74097283D01*
X103834891Y-74049664D01*
X103930130Y-74002045D01*
X104168225Y-74002045D01*
X104263463Y-74049664D01*
X104311082Y-74097283D01*
X104358701Y-74192521D01*
X104358701Y-74478236D01*
X104311082Y-74573474D01*
X104263463Y-74621093D01*
X106357729Y-65542112D02*
X106357729Y-64780207D01*
X106738681Y-65161159D02*
X105976776Y-65161159D01*
X72037914Y-66097423D02*
X71990295Y-66145042D01*
X71847438Y-66192661D01*
X71752200Y-66192661D01*
X71609342Y-66145042D01*
X71514104Y-66049804D01*
X71466485Y-65954566D01*
X71418866Y-65764090D01*
X71418866Y-65621232D01*
X71466485Y-65430756D01*
X71514104Y-65335518D01*
X71609342Y-65240280D01*
X71752200Y-65192661D01*
X71847438Y-65192661D01*
X71990295Y-65240280D01*
X72037914Y-65287899D01*
X72895057Y-65525994D02*
X72895057Y-66192661D01*
X72656961Y-65145042D02*
X72418866Y-65859328D01*
X73037914Y-65859328D01*
X94095843Y-44586186D02*
X94143462Y-44633805D01*
X94191081Y-44776662D01*
X94191081Y-44871900D01*
X94143462Y-45014758D01*
X94048224Y-45109996D01*
X93952986Y-45157615D01*
X93762510Y-45205234D01*
X93619652Y-45205234D01*
X93429176Y-45157615D01*
X93333938Y-45109996D01*
X93238700Y-45014758D01*
X93191081Y-44871900D01*
X93191081Y-44776662D01*
X93238700Y-44633805D01*
X93286319Y-44586186D01*
X93191081Y-43681424D02*
X93191081Y-44157615D01*
X93667271Y-44205234D01*
X93619652Y-44157615D01*
X93572033Y-44062377D01*
X93572033Y-43824281D01*
X93619652Y-43729043D01*
X93667271Y-43681424D01*
X93762510Y-43633805D01*
X94000605Y-43633805D01*
X94095843Y-43681424D01*
X94143462Y-43729043D01*
X94191081Y-43824281D01*
X94191081Y-44062377D01*
X94143462Y-44157615D01*
X94095843Y-44205234D01*
X98644983Y-49417266D02*
X98692602Y-49464885D01*
X98740221Y-49607742D01*
X98740221Y-49702980D01*
X98692602Y-49845838D01*
X98597364Y-49941076D01*
X98502126Y-49988695D01*
X98311650Y-50036314D01*
X98168792Y-50036314D01*
X97978316Y-49988695D01*
X97883078Y-49941076D01*
X97787840Y-49845838D01*
X97740221Y-49702980D01*
X97740221Y-49607742D01*
X97787840Y-49464885D01*
X97835459Y-49417266D01*
X97740221Y-48560123D02*
X97740221Y-48750600D01*
X97787840Y-48845838D01*
X97835459Y-48893457D01*
X97978316Y-48988695D01*
X98168792Y-49036314D01*
X98549745Y-49036314D01*
X98644983Y-48988695D01*
X98692602Y-48941076D01*
X98740221Y-48845838D01*
X98740221Y-48655361D01*
X98692602Y-48560123D01*
X98644983Y-48512504D01*
X98549745Y-48464885D01*
X98311650Y-48464885D01*
X98216411Y-48512504D01*
X98168792Y-48560123D01*
X98121173Y-48655361D01*
X98121173Y-48845838D01*
X98168792Y-48941076D01*
X98216411Y-48988695D01*
X98311650Y-49036314D01*
X103498923Y-49488386D02*
X103546542Y-49536005D01*
X103594161Y-49678862D01*
X103594161Y-49774100D01*
X103546542Y-49916958D01*
X103451304Y-50012196D01*
X103356066Y-50059815D01*
X103165590Y-50107434D01*
X103022732Y-50107434D01*
X102832256Y-50059815D01*
X102737018Y-50012196D01*
X102641780Y-49916958D01*
X102594161Y-49774100D01*
X102594161Y-49678862D01*
X102641780Y-49536005D01*
X102689399Y-49488386D01*
X102594161Y-49155053D02*
X102594161Y-48488386D01*
X103594161Y-48916958D01*
X98271034Y-55495463D02*
X98223415Y-55543082D01*
X98080558Y-55590701D01*
X97985320Y-55590701D01*
X97842462Y-55543082D01*
X97747224Y-55447844D01*
X97699605Y-55352606D01*
X97651986Y-55162130D01*
X97651986Y-55019272D01*
X97699605Y-54828796D01*
X97747224Y-54733558D01*
X97842462Y-54638320D01*
X97985320Y-54590701D01*
X98080558Y-54590701D01*
X98223415Y-54638320D01*
X98271034Y-54685939D01*
X98842462Y-55019272D02*
X98747224Y-54971653D01*
X98699605Y-54924034D01*
X98651986Y-54828796D01*
X98651986Y-54781177D01*
X98699605Y-54685939D01*
X98747224Y-54638320D01*
X98842462Y-54590701D01*
X99032939Y-54590701D01*
X99128177Y-54638320D01*
X99175796Y-54685939D01*
X99223415Y-54781177D01*
X99223415Y-54828796D01*
X99175796Y-54924034D01*
X99128177Y-54971653D01*
X99032939Y-55019272D01*
X98842462Y-55019272D01*
X98747224Y-55066891D01*
X98699605Y-55114510D01*
X98651986Y-55209749D01*
X98651986Y-55400225D01*
X98699605Y-55495463D01*
X98747224Y-55543082D01*
X98842462Y-55590701D01*
X99032939Y-55590701D01*
X99128177Y-55543082D01*
X99175796Y-55495463D01*
X99223415Y-55400225D01*
X99223415Y-55209749D01*
X99175796Y-55114510D01*
X99128177Y-55066891D01*
X99032939Y-55019272D01*
X99887043Y-49435046D02*
X99934662Y-49482665D01*
X99982281Y-49625522D01*
X99982281Y-49720760D01*
X99934662Y-49863618D01*
X99839424Y-49958856D01*
X99744186Y-50006475D01*
X99553710Y-50054094D01*
X99410852Y-50054094D01*
X99220376Y-50006475D01*
X99125138Y-49958856D01*
X99029900Y-49863618D01*
X98982281Y-49720760D01*
X98982281Y-49625522D01*
X99029900Y-49482665D01*
X99077519Y-49435046D01*
X99982281Y-48958856D02*
X99982281Y-48768380D01*
X99934662Y-48673141D01*
X99887043Y-48625522D01*
X99744186Y-48530284D01*
X99553710Y-48482665D01*
X99172757Y-48482665D01*
X99077519Y-48530284D01*
X99029900Y-48577903D01*
X98982281Y-48673141D01*
X98982281Y-48863618D01*
X99029900Y-48958856D01*
X99077519Y-49006475D01*
X99172757Y-49054094D01*
X99410852Y-49054094D01*
X99506090Y-49006475D01*
X99553710Y-48958856D01*
X99601329Y-48863618D01*
X99601329Y-48673141D01*
X99553710Y-48577903D01*
X99506090Y-48530284D01*
X99410852Y-48482665D01*
X92656423Y-60024283D02*
X92608804Y-60071902D01*
X92465947Y-60119521D01*
X92370709Y-60119521D01*
X92227851Y-60071902D01*
X92132613Y-59976664D01*
X92084994Y-59881426D01*
X92037375Y-59690950D01*
X92037375Y-59548092D01*
X92084994Y-59357616D01*
X92132613Y-59262378D01*
X92227851Y-59167140D01*
X92370709Y-59119521D01*
X92465947Y-59119521D01*
X92608804Y-59167140D01*
X92656423Y-59214759D01*
X93608804Y-60119521D02*
X93037375Y-60119521D01*
X93323089Y-60119521D02*
X93323089Y-59119521D01*
X93227851Y-59262378D01*
X93132613Y-59357616D01*
X93037375Y-59405235D01*
X94227851Y-59119521D02*
X94323090Y-59119521D01*
X94418328Y-59167140D01*
X94465947Y-59214759D01*
X94513566Y-59309997D01*
X94561185Y-59500473D01*
X94561185Y-59738569D01*
X94513566Y-59929045D01*
X94465947Y-60024283D01*
X94418328Y-60071902D01*
X94323090Y-60119521D01*
X94227851Y-60119521D01*
X94132613Y-60071902D01*
X94084994Y-60024283D01*
X94037375Y-59929045D01*
X93989756Y-59738569D01*
X93989756Y-59500473D01*
X94037375Y-59309997D01*
X94084994Y-59214759D01*
X94132613Y-59167140D01*
X94227851Y-59119521D01*
X73065403Y-45962843D02*
X73017784Y-46010462D01*
X72874927Y-46058081D01*
X72779689Y-46058081D01*
X72636831Y-46010462D01*
X72541593Y-45915224D01*
X72493974Y-45819986D01*
X72446355Y-45629510D01*
X72446355Y-45486652D01*
X72493974Y-45296176D01*
X72541593Y-45200938D01*
X72636831Y-45105700D01*
X72779689Y-45058081D01*
X72874927Y-45058081D01*
X73017784Y-45105700D01*
X73065403Y-45153319D01*
X74017784Y-46058081D02*
X73446355Y-46058081D01*
X73732069Y-46058081D02*
X73732069Y-45058081D01*
X73636831Y-45200938D01*
X73541593Y-45296176D01*
X73446355Y-45343795D01*
X74970165Y-46058081D02*
X74398736Y-46058081D01*
X74684450Y-46058081D02*
X74684450Y-45058081D01*
X74589212Y-45200938D01*
X74493974Y-45296176D01*
X74398736Y-45343795D01*
X73141603Y-73923163D02*
X73093984Y-73970782D01*
X72951127Y-74018401D01*
X72855889Y-74018401D01*
X72713031Y-73970782D01*
X72617793Y-73875544D01*
X72570174Y-73780306D01*
X72522555Y-73589830D01*
X72522555Y-73446972D01*
X72570174Y-73256496D01*
X72617793Y-73161258D01*
X72713031Y-73066020D01*
X72855889Y-73018401D01*
X72951127Y-73018401D01*
X73093984Y-73066020D01*
X73141603Y-73113639D01*
X74093984Y-74018401D02*
X73522555Y-74018401D01*
X73808269Y-74018401D02*
X73808269Y-73018401D01*
X73713031Y-73161258D01*
X73617793Y-73256496D01*
X73522555Y-73304115D01*
X74474936Y-73113639D02*
X74522555Y-73066020D01*
X74617793Y-73018401D01*
X74855889Y-73018401D01*
X74951127Y-73066020D01*
X74998746Y-73113639D01*
X75046365Y-73208877D01*
X75046365Y-73304115D01*
X74998746Y-73446972D01*
X74427317Y-74018401D01*
X75046365Y-74018401D01*
X85640183Y-50271917D02*
X85687802Y-50319536D01*
X85735421Y-50462393D01*
X85735421Y-50557631D01*
X85687802Y-50700489D01*
X85592564Y-50795727D01*
X85497326Y-50843346D01*
X85306850Y-50890965D01*
X85163992Y-50890965D01*
X84973516Y-50843346D01*
X84878278Y-50795727D01*
X84783040Y-50700489D01*
X84735421Y-50557631D01*
X84735421Y-50462393D01*
X84783040Y-50319536D01*
X84830659Y-50271917D01*
X85735421Y-49319536D02*
X85735421Y-49890965D01*
X85735421Y-49605251D02*
X84735421Y-49605251D01*
X84878278Y-49700489D01*
X84973516Y-49795727D01*
X85021135Y-49890965D01*
X84735421Y-48986203D02*
X84735421Y-48367155D01*
X85116373Y-48700489D01*
X85116373Y-48557631D01*
X85163992Y-48462393D01*
X85211611Y-48414774D01*
X85306850Y-48367155D01*
X85544945Y-48367155D01*
X85640183Y-48414774D01*
X85687802Y-48462393D01*
X85735421Y-48557631D01*
X85735421Y-48843346D01*
X85687802Y-48938584D01*
X85640183Y-48986203D01*
X69842143Y-76432683D02*
X69794524Y-76480302D01*
X69651667Y-76527921D01*
X69556429Y-76527921D01*
X69413571Y-76480302D01*
X69318333Y-76385064D01*
X69270714Y-76289826D01*
X69223095Y-76099350D01*
X69223095Y-75956492D01*
X69270714Y-75766016D01*
X69318333Y-75670778D01*
X69413571Y-75575540D01*
X69556429Y-75527921D01*
X69651667Y-75527921D01*
X69794524Y-75575540D01*
X69842143Y-75623159D01*
X70794524Y-76527921D02*
X70223095Y-76527921D01*
X70508809Y-76527921D02*
X70508809Y-75527921D01*
X70413571Y-75670778D01*
X70318333Y-75766016D01*
X70223095Y-75813635D01*
X71699286Y-75527921D02*
X71223095Y-75527921D01*
X71175476Y-76004111D01*
X71223095Y-75956492D01*
X71318333Y-75908873D01*
X71556429Y-75908873D01*
X71651667Y-75956492D01*
X71699286Y-76004111D01*
X71746905Y-76099350D01*
X71746905Y-76337445D01*
X71699286Y-76432683D01*
X71651667Y-76480302D01*
X71556429Y-76527921D01*
X71318333Y-76527921D01*
X71223095Y-76480302D01*
X71175476Y-76432683D01*
X109257103Y-36296837D02*
X109304722Y-36344456D01*
X109352341Y-36487313D01*
X109352341Y-36582551D01*
X109304722Y-36725409D01*
X109209484Y-36820647D01*
X109114246Y-36868266D01*
X108923770Y-36915885D01*
X108780912Y-36915885D01*
X108590436Y-36868266D01*
X108495198Y-36820647D01*
X108399960Y-36725409D01*
X108352341Y-36582551D01*
X108352341Y-36487313D01*
X108399960Y-36344456D01*
X108447579Y-36296837D01*
X109352341Y-35344456D02*
X109352341Y-35915885D01*
X109352341Y-35630171D02*
X108352341Y-35630171D01*
X108495198Y-35725409D01*
X108590436Y-35820647D01*
X108638055Y-35915885D01*
X108352341Y-34487313D02*
X108352341Y-34677790D01*
X108399960Y-34773028D01*
X108447579Y-34820647D01*
X108590436Y-34915885D01*
X108780912Y-34963504D01*
X109161865Y-34963504D01*
X109257103Y-34915885D01*
X109304722Y-34868266D01*
X109352341Y-34773028D01*
X109352341Y-34582551D01*
X109304722Y-34487313D01*
X109257103Y-34439694D01*
X109161865Y-34392075D01*
X108923770Y-34392075D01*
X108828531Y-34439694D01*
X108780912Y-34487313D01*
X108733293Y-34582551D01*
X108733293Y-34773028D01*
X108780912Y-34868266D01*
X108828531Y-34915885D01*
X108923770Y-34963504D01*
X104591123Y-59700397D02*
X104638742Y-59748016D01*
X104686361Y-59890873D01*
X104686361Y-59986111D01*
X104638742Y-60128969D01*
X104543504Y-60224207D01*
X104448266Y-60271826D01*
X104257790Y-60319445D01*
X104114932Y-60319445D01*
X103924456Y-60271826D01*
X103829218Y-60224207D01*
X103733980Y-60128969D01*
X103686361Y-59986111D01*
X103686361Y-59890873D01*
X103733980Y-59748016D01*
X103781599Y-59700397D01*
X104686361Y-58748016D02*
X104686361Y-59319445D01*
X104686361Y-59033731D02*
X103686361Y-59033731D01*
X103829218Y-59128969D01*
X103924456Y-59224207D01*
X103972075Y-59319445D01*
X103686361Y-58414683D02*
X103686361Y-57748016D01*
X104686361Y-58176588D01*
X69793883Y-48401243D02*
X69746264Y-48448862D01*
X69603407Y-48496481D01*
X69508169Y-48496481D01*
X69365311Y-48448862D01*
X69270073Y-48353624D01*
X69222454Y-48258386D01*
X69174835Y-48067910D01*
X69174835Y-47925052D01*
X69222454Y-47734576D01*
X69270073Y-47639338D01*
X69365311Y-47544100D01*
X69508169Y-47496481D01*
X69603407Y-47496481D01*
X69746264Y-47544100D01*
X69793883Y-47591719D01*
X70746264Y-48496481D02*
X70174835Y-48496481D01*
X70460549Y-48496481D02*
X70460549Y-47496481D01*
X70365311Y-47639338D01*
X70270073Y-47734576D01*
X70174835Y-47782195D01*
X71317692Y-47925052D02*
X71222454Y-47877433D01*
X71174835Y-47829814D01*
X71127216Y-47734576D01*
X71127216Y-47686957D01*
X71174835Y-47591719D01*
X71222454Y-47544100D01*
X71317692Y-47496481D01*
X71508169Y-47496481D01*
X71603407Y-47544100D01*
X71651026Y-47591719D01*
X71698645Y-47686957D01*
X71698645Y-47734576D01*
X71651026Y-47829814D01*
X71603407Y-47877433D01*
X71508169Y-47925052D01*
X71317692Y-47925052D01*
X71222454Y-47972671D01*
X71174835Y-48020290D01*
X71127216Y-48115529D01*
X71127216Y-48306005D01*
X71174835Y-48401243D01*
X71222454Y-48448862D01*
X71317692Y-48496481D01*
X71508169Y-48496481D01*
X71603407Y-48448862D01*
X71651026Y-48401243D01*
X71698645Y-48306005D01*
X71698645Y-48115529D01*
X71651026Y-48020290D01*
X71603407Y-47972671D01*
X71508169Y-47925052D01*
X69842143Y-75132203D02*
X69794524Y-75179822D01*
X69651667Y-75227441D01*
X69556429Y-75227441D01*
X69413571Y-75179822D01*
X69318333Y-75084584D01*
X69270714Y-74989346D01*
X69223095Y-74798870D01*
X69223095Y-74656012D01*
X69270714Y-74465536D01*
X69318333Y-74370298D01*
X69413571Y-74275060D01*
X69556429Y-74227441D01*
X69651667Y-74227441D01*
X69794524Y-74275060D01*
X69842143Y-74322679D01*
X70794524Y-75227441D02*
X70223095Y-75227441D01*
X70508809Y-75227441D02*
X70508809Y-74227441D01*
X70413571Y-74370298D01*
X70318333Y-74465536D01*
X70223095Y-74513155D01*
X71270714Y-75227441D02*
X71461190Y-75227441D01*
X71556429Y-75179822D01*
X71604048Y-75132203D01*
X71699286Y-74989346D01*
X71746905Y-74798870D01*
X71746905Y-74417917D01*
X71699286Y-74322679D01*
X71651667Y-74275060D01*
X71556429Y-74227441D01*
X71365952Y-74227441D01*
X71270714Y-74275060D01*
X71223095Y-74322679D01*
X71175476Y-74417917D01*
X71175476Y-74656012D01*
X71223095Y-74751250D01*
X71270714Y-74798870D01*
X71365952Y-74846489D01*
X71556429Y-74846489D01*
X71651667Y-74798870D01*
X71699286Y-74751250D01*
X71746905Y-74656012D01*
X85591923Y-53594237D02*
X85639542Y-53641856D01*
X85687161Y-53784713D01*
X85687161Y-53879951D01*
X85639542Y-54022809D01*
X85544304Y-54118047D01*
X85449066Y-54165666D01*
X85258590Y-54213285D01*
X85115732Y-54213285D01*
X84925256Y-54165666D01*
X84830018Y-54118047D01*
X84734780Y-54022809D01*
X84687161Y-53879951D01*
X84687161Y-53784713D01*
X84734780Y-53641856D01*
X84782399Y-53594237D01*
X84782399Y-53213285D02*
X84734780Y-53165666D01*
X84687161Y-53070428D01*
X84687161Y-52832332D01*
X84734780Y-52737094D01*
X84782399Y-52689475D01*
X84877637Y-52641856D01*
X84972875Y-52641856D01*
X85115732Y-52689475D01*
X85687161Y-53260904D01*
X85687161Y-52641856D01*
X84687161Y-52022809D02*
X84687161Y-51927570D01*
X84734780Y-51832332D01*
X84782399Y-51784713D01*
X84877637Y-51737094D01*
X85068113Y-51689475D01*
X85306209Y-51689475D01*
X85496685Y-51737094D01*
X85591923Y-51784713D01*
X85639542Y-51832332D01*
X85687161Y-51927570D01*
X85687161Y-52022809D01*
X85639542Y-52118047D01*
X85591923Y-52165666D01*
X85496685Y-52213285D01*
X85306209Y-52260904D01*
X85068113Y-52260904D01*
X84877637Y-52213285D01*
X84782399Y-52165666D01*
X84734780Y-52118047D01*
X84687161Y-52022809D01*
X113651303Y-34140377D02*
X113698922Y-34187996D01*
X113746541Y-34330853D01*
X113746541Y-34426091D01*
X113698922Y-34568949D01*
X113603684Y-34664187D01*
X113508446Y-34711806D01*
X113317970Y-34759425D01*
X113175112Y-34759425D01*
X112984636Y-34711806D01*
X112889398Y-34664187D01*
X112794160Y-34568949D01*
X112746541Y-34426091D01*
X112746541Y-34330853D01*
X112794160Y-34187996D01*
X112841779Y-34140377D01*
X112841779Y-33759425D02*
X112794160Y-33711806D01*
X112746541Y-33616568D01*
X112746541Y-33378472D01*
X112794160Y-33283234D01*
X112841779Y-33235615D01*
X112937017Y-33187996D01*
X113032255Y-33187996D01*
X113175112Y-33235615D01*
X113746541Y-33807044D01*
X113746541Y-33187996D01*
X113746541Y-32235615D02*
X113746541Y-32807044D01*
X113746541Y-32521330D02*
X112746541Y-32521330D01*
X112889398Y-32616568D01*
X112984636Y-32711806D01*
X113032255Y-32807044D01*
X112132723Y-70693517D02*
X112180342Y-70741136D01*
X112227961Y-70883993D01*
X112227961Y-70979231D01*
X112180342Y-71122089D01*
X112085104Y-71217327D01*
X111989866Y-71264946D01*
X111799390Y-71312565D01*
X111656532Y-71312565D01*
X111466056Y-71264946D01*
X111370818Y-71217327D01*
X111275580Y-71122089D01*
X111227961Y-70979231D01*
X111227961Y-70883993D01*
X111275580Y-70741136D01*
X111323199Y-70693517D01*
X111323199Y-70312565D02*
X111275580Y-70264946D01*
X111227961Y-70169708D01*
X111227961Y-69931612D01*
X111275580Y-69836374D01*
X111323199Y-69788755D01*
X111418437Y-69741136D01*
X111513675Y-69741136D01*
X111656532Y-69788755D01*
X112227961Y-70360184D01*
X112227961Y-69741136D01*
X111323199Y-69360184D02*
X111275580Y-69312565D01*
X111227961Y-69217327D01*
X111227961Y-68979231D01*
X111275580Y-68883993D01*
X111323199Y-68836374D01*
X111418437Y-68788755D01*
X111513675Y-68788755D01*
X111656532Y-68836374D01*
X112227961Y-69407803D01*
X112227961Y-68788755D01*
X80556563Y-33867363D02*
X80508944Y-33914982D01*
X80366087Y-33962601D01*
X80270849Y-33962601D01*
X80127991Y-33914982D01*
X80032753Y-33819744D01*
X79985134Y-33724506D01*
X79937515Y-33534030D01*
X79937515Y-33391172D01*
X79985134Y-33200696D01*
X80032753Y-33105458D01*
X80127991Y-33010220D01*
X80270849Y-32962601D01*
X80366087Y-32962601D01*
X80508944Y-33010220D01*
X80556563Y-33057839D01*
X80937515Y-33057839D02*
X80985134Y-33010220D01*
X81080372Y-32962601D01*
X81318468Y-32962601D01*
X81413706Y-33010220D01*
X81461325Y-33057839D01*
X81508944Y-33153077D01*
X81508944Y-33248315D01*
X81461325Y-33391172D01*
X80889896Y-33962601D01*
X81508944Y-33962601D01*
X81842277Y-32962601D02*
X82461325Y-32962601D01*
X82127991Y-33343553D01*
X82270849Y-33343553D01*
X82366087Y-33391172D01*
X82413706Y-33438791D01*
X82461325Y-33534030D01*
X82461325Y-33772125D01*
X82413706Y-33867363D01*
X82366087Y-33914982D01*
X82270849Y-33962601D01*
X81985134Y-33962601D01*
X81889896Y-33914982D01*
X81842277Y-33867363D01*
X77512943Y-60407823D02*
X77465324Y-60455442D01*
X77322467Y-60503061D01*
X77227229Y-60503061D01*
X77084371Y-60455442D01*
X76989133Y-60360204D01*
X76941514Y-60264966D01*
X76893895Y-60074490D01*
X76893895Y-59931632D01*
X76941514Y-59741156D01*
X76989133Y-59645918D01*
X77084371Y-59550680D01*
X77227229Y-59503061D01*
X77322467Y-59503061D01*
X77465324Y-59550680D01*
X77512943Y-59598299D01*
X77893895Y-59598299D02*
X77941514Y-59550680D01*
X78036752Y-59503061D01*
X78274848Y-59503061D01*
X78370086Y-59550680D01*
X78417705Y-59598299D01*
X78465324Y-59693537D01*
X78465324Y-59788775D01*
X78417705Y-59931632D01*
X77846276Y-60503061D01*
X78465324Y-60503061D01*
X79322467Y-59836394D02*
X79322467Y-60503061D01*
X79084371Y-59455442D02*
X78846276Y-60169728D01*
X79465324Y-60169728D01*
X69367163Y-59940463D02*
X69319544Y-59988082D01*
X69176687Y-60035701D01*
X69081449Y-60035701D01*
X68938591Y-59988082D01*
X68843353Y-59892844D01*
X68795734Y-59797606D01*
X68748115Y-59607130D01*
X68748115Y-59464272D01*
X68795734Y-59273796D01*
X68843353Y-59178558D01*
X68938591Y-59083320D01*
X69081449Y-59035701D01*
X69176687Y-59035701D01*
X69319544Y-59083320D01*
X69367163Y-59130939D01*
X69748115Y-59130939D02*
X69795734Y-59083320D01*
X69890972Y-59035701D01*
X70129068Y-59035701D01*
X70224306Y-59083320D01*
X70271925Y-59130939D01*
X70319544Y-59226177D01*
X70319544Y-59321415D01*
X70271925Y-59464272D01*
X69700496Y-60035701D01*
X70319544Y-60035701D01*
X71224306Y-59035701D02*
X70748115Y-59035701D01*
X70700496Y-59511891D01*
X70748115Y-59464272D01*
X70843353Y-59416653D01*
X71081449Y-59416653D01*
X71176687Y-59464272D01*
X71224306Y-59511891D01*
X71271925Y-59607130D01*
X71271925Y-59845225D01*
X71224306Y-59940463D01*
X71176687Y-59988082D01*
X71081449Y-60035701D01*
X70843353Y-60035701D01*
X70748115Y-59988082D01*
X70700496Y-59940463D01*
X69349383Y-31954743D02*
X69301764Y-32002362D01*
X69158907Y-32049981D01*
X69063669Y-32049981D01*
X68920811Y-32002362D01*
X68825573Y-31907124D01*
X68777954Y-31811886D01*
X68730335Y-31621410D01*
X68730335Y-31478552D01*
X68777954Y-31288076D01*
X68825573Y-31192838D01*
X68920811Y-31097600D01*
X69063669Y-31049981D01*
X69158907Y-31049981D01*
X69301764Y-31097600D01*
X69349383Y-31145219D01*
X69730335Y-31145219D02*
X69777954Y-31097600D01*
X69873192Y-31049981D01*
X70111288Y-31049981D01*
X70206526Y-31097600D01*
X70254145Y-31145219D01*
X70301764Y-31240457D01*
X70301764Y-31335695D01*
X70254145Y-31478552D01*
X69682716Y-32049981D01*
X70301764Y-32049981D01*
X71158907Y-31049981D02*
X70968430Y-31049981D01*
X70873192Y-31097600D01*
X70825573Y-31145219D01*
X70730335Y-31288076D01*
X70682716Y-31478552D01*
X70682716Y-31859505D01*
X70730335Y-31954743D01*
X70777954Y-32002362D01*
X70873192Y-32049981D01*
X71063669Y-32049981D01*
X71158907Y-32002362D01*
X71206526Y-31954743D01*
X71254145Y-31859505D01*
X71254145Y-31621410D01*
X71206526Y-31526171D01*
X71158907Y-31478552D01*
X71063669Y-31430933D01*
X70873192Y-31430933D01*
X70777954Y-31478552D01*
X70730335Y-31526171D01*
X70682716Y-31621410D01*
X81858883Y-43120583D02*
X81811264Y-43168202D01*
X81668407Y-43215821D01*
X81573169Y-43215821D01*
X81430311Y-43168202D01*
X81335073Y-43072964D01*
X81287454Y-42977726D01*
X81239835Y-42787250D01*
X81239835Y-42644392D01*
X81287454Y-42453916D01*
X81335073Y-42358678D01*
X81430311Y-42263440D01*
X81573169Y-42215821D01*
X81668407Y-42215821D01*
X81811264Y-42263440D01*
X81858883Y-42311059D01*
X82239835Y-42311059D02*
X82287454Y-42263440D01*
X82382692Y-42215821D01*
X82620788Y-42215821D01*
X82716026Y-42263440D01*
X82763645Y-42311059D01*
X82811264Y-42406297D01*
X82811264Y-42501535D01*
X82763645Y-42644392D01*
X82192216Y-43215821D01*
X82811264Y-43215821D01*
X83144597Y-42215821D02*
X83811264Y-42215821D01*
X83382692Y-43215821D01*
X81834183Y-71022483D02*
X81786564Y-71070102D01*
X81643707Y-71117721D01*
X81548469Y-71117721D01*
X81405611Y-71070102D01*
X81310373Y-70974864D01*
X81262754Y-70879626D01*
X81215135Y-70689150D01*
X81215135Y-70546292D01*
X81262754Y-70355816D01*
X81310373Y-70260578D01*
X81405611Y-70165340D01*
X81548469Y-70117721D01*
X81643707Y-70117721D01*
X81786564Y-70165340D01*
X81834183Y-70212959D01*
X82215135Y-70212959D02*
X82262754Y-70165340D01*
X82357992Y-70117721D01*
X82596088Y-70117721D01*
X82691326Y-70165340D01*
X82738945Y-70212959D01*
X82786564Y-70308197D01*
X82786564Y-70403435D01*
X82738945Y-70546292D01*
X82167516Y-71117721D01*
X82786564Y-71117721D01*
X83357992Y-70546292D02*
X83262754Y-70498673D01*
X83215135Y-70451054D01*
X83167516Y-70355816D01*
X83167516Y-70308197D01*
X83215135Y-70212959D01*
X83262754Y-70165340D01*
X83357992Y-70117721D01*
X83548469Y-70117721D01*
X83643707Y-70165340D01*
X83691326Y-70212959D01*
X83738945Y-70308197D01*
X83738945Y-70355816D01*
X83691326Y-70451054D01*
X83643707Y-70498673D01*
X83548469Y-70546292D01*
X83357992Y-70546292D01*
X83262754Y-70593911D01*
X83215135Y-70641530D01*
X83167516Y-70736769D01*
X83167516Y-70927245D01*
X83215135Y-71022483D01*
X83262754Y-71070102D01*
X83357992Y-71117721D01*
X83548469Y-71117721D01*
X83643707Y-71070102D01*
X83691326Y-71022483D01*
X83738945Y-70927245D01*
X83738945Y-70736769D01*
X83691326Y-70641530D01*
X83643707Y-70593911D01*
X83548469Y-70546292D01*
X79136003Y-49495983D02*
X79088384Y-49543602D01*
X78945527Y-49591221D01*
X78850289Y-49591221D01*
X78707431Y-49543602D01*
X78612193Y-49448364D01*
X78564574Y-49353126D01*
X78516955Y-49162650D01*
X78516955Y-49019792D01*
X78564574Y-48829316D01*
X78612193Y-48734078D01*
X78707431Y-48638840D01*
X78850289Y-48591221D01*
X78945527Y-48591221D01*
X79088384Y-48638840D01*
X79136003Y-48686459D01*
X79516955Y-48686459D02*
X79564574Y-48638840D01*
X79659812Y-48591221D01*
X79897908Y-48591221D01*
X79993146Y-48638840D01*
X80040765Y-48686459D01*
X80088384Y-48781697D01*
X80088384Y-48876935D01*
X80040765Y-49019792D01*
X79469336Y-49591221D01*
X80088384Y-49591221D01*
X80564574Y-49591221D02*
X80755050Y-49591221D01*
X80850289Y-49543602D01*
X80897908Y-49495983D01*
X80993146Y-49353126D01*
X81040765Y-49162650D01*
X81040765Y-48781697D01*
X80993146Y-48686459D01*
X80945527Y-48638840D01*
X80850289Y-48591221D01*
X80659812Y-48591221D01*
X80564574Y-48638840D01*
X80516955Y-48686459D01*
X80469336Y-48781697D01*
X80469336Y-49019792D01*
X80516955Y-49115030D01*
X80564574Y-49162650D01*
X80659812Y-49210269D01*
X80850289Y-49210269D01*
X80945527Y-49162650D01*
X80993146Y-49115030D01*
X81040765Y-49019792D01*
X79092823Y-47824663D02*
X79045204Y-47872282D01*
X78902347Y-47919901D01*
X78807109Y-47919901D01*
X78664251Y-47872282D01*
X78569013Y-47777044D01*
X78521394Y-47681806D01*
X78473775Y-47491330D01*
X78473775Y-47348472D01*
X78521394Y-47157996D01*
X78569013Y-47062758D01*
X78664251Y-46967520D01*
X78807109Y-46919901D01*
X78902347Y-46919901D01*
X79045204Y-46967520D01*
X79092823Y-47015139D01*
X79426156Y-46919901D02*
X80045204Y-46919901D01*
X79711870Y-47300853D01*
X79854728Y-47300853D01*
X79949966Y-47348472D01*
X79997585Y-47396091D01*
X80045204Y-47491330D01*
X80045204Y-47729425D01*
X79997585Y-47824663D01*
X79949966Y-47872282D01*
X79854728Y-47919901D01*
X79569013Y-47919901D01*
X79473775Y-47872282D01*
X79426156Y-47824663D01*
X80664251Y-46919901D02*
X80759490Y-46919901D01*
X80854728Y-46967520D01*
X80902347Y-47015139D01*
X80949966Y-47110377D01*
X80997585Y-47300853D01*
X80997585Y-47538949D01*
X80949966Y-47729425D01*
X80902347Y-47824663D01*
X80854728Y-47872282D01*
X80759490Y-47919901D01*
X80664251Y-47919901D01*
X80569013Y-47872282D01*
X80521394Y-47824663D01*
X80473775Y-47729425D01*
X80426156Y-47538949D01*
X80426156Y-47300853D01*
X80473775Y-47110377D01*
X80521394Y-47015139D01*
X80569013Y-46967520D01*
X80664251Y-46919901D01*
X81743823Y-52232797D02*
X81791442Y-52280416D01*
X81839061Y-52423273D01*
X81839061Y-52518511D01*
X81791442Y-52661369D01*
X81696204Y-52756607D01*
X81600966Y-52804226D01*
X81410490Y-52851845D01*
X81267632Y-52851845D01*
X81077156Y-52804226D01*
X80981918Y-52756607D01*
X80886680Y-52661369D01*
X80839061Y-52518511D01*
X80839061Y-52423273D01*
X80886680Y-52280416D01*
X80934299Y-52232797D01*
X80839061Y-51899464D02*
X80839061Y-51280416D01*
X81220013Y-51613750D01*
X81220013Y-51470892D01*
X81267632Y-51375654D01*
X81315251Y-51328035D01*
X81410490Y-51280416D01*
X81648585Y-51280416D01*
X81743823Y-51328035D01*
X81791442Y-51375654D01*
X81839061Y-51470892D01*
X81839061Y-51756607D01*
X81791442Y-51851845D01*
X81743823Y-51899464D01*
X81839061Y-50328035D02*
X81839061Y-50899464D01*
X81839061Y-50613750D02*
X80839061Y-50613750D01*
X80981918Y-50708988D01*
X81077156Y-50804226D01*
X81124775Y-50899464D01*
X76097403Y-33098977D02*
X76145022Y-33146596D01*
X76192641Y-33289453D01*
X76192641Y-33384691D01*
X76145022Y-33527549D01*
X76049784Y-33622787D01*
X75954546Y-33670406D01*
X75764070Y-33718025D01*
X75621212Y-33718025D01*
X75430736Y-33670406D01*
X75335498Y-33622787D01*
X75240260Y-33527549D01*
X75192641Y-33384691D01*
X75192641Y-33289453D01*
X75240260Y-33146596D01*
X75287879Y-33098977D01*
X75192641Y-32765644D02*
X75192641Y-32146596D01*
X75573593Y-32479930D01*
X75573593Y-32337072D01*
X75621212Y-32241834D01*
X75668831Y-32194215D01*
X75764070Y-32146596D01*
X76002165Y-32146596D01*
X76097403Y-32194215D01*
X76145022Y-32241834D01*
X76192641Y-32337072D01*
X76192641Y-32622787D01*
X76145022Y-32718025D01*
X76097403Y-32765644D01*
X75287879Y-31765644D02*
X75240260Y-31718025D01*
X75192641Y-31622787D01*
X75192641Y-31384691D01*
X75240260Y-31289453D01*
X75287879Y-31241834D01*
X75383117Y-31194215D01*
X75478355Y-31194215D01*
X75621212Y-31241834D01*
X76192641Y-31813263D01*
X76192641Y-31194215D01*
X76237103Y-60845937D02*
X76284722Y-60893556D01*
X76332341Y-61036413D01*
X76332341Y-61131651D01*
X76284722Y-61274509D01*
X76189484Y-61369747D01*
X76094246Y-61417366D01*
X75903770Y-61464985D01*
X75760912Y-61464985D01*
X75570436Y-61417366D01*
X75475198Y-61369747D01*
X75379960Y-61274509D01*
X75332341Y-61131651D01*
X75332341Y-61036413D01*
X75379960Y-60893556D01*
X75427579Y-60845937D01*
X75332341Y-60512604D02*
X75332341Y-59893556D01*
X75713293Y-60226890D01*
X75713293Y-60084032D01*
X75760912Y-59988794D01*
X75808531Y-59941175D01*
X75903770Y-59893556D01*
X76141865Y-59893556D01*
X76237103Y-59941175D01*
X76284722Y-59988794D01*
X76332341Y-60084032D01*
X76332341Y-60369747D01*
X76284722Y-60464985D01*
X76237103Y-60512604D01*
X75332341Y-59560223D02*
X75332341Y-58941175D01*
X75713293Y-59274509D01*
X75713293Y-59131651D01*
X75760912Y-59036413D01*
X75808531Y-58988794D01*
X75903770Y-58941175D01*
X76141865Y-58941175D01*
X76237103Y-58988794D01*
X76284722Y-59036413D01*
X76332341Y-59131651D01*
X76332341Y-59417366D01*
X76284722Y-59512604D01*
X76237103Y-59560223D01*
X120708183Y-42447483D02*
X120660564Y-42495102D01*
X120517707Y-42542721D01*
X120422469Y-42542721D01*
X120279611Y-42495102D01*
X120184373Y-42399864D01*
X120136754Y-42304626D01*
X120089135Y-42114150D01*
X120089135Y-41971292D01*
X120136754Y-41780816D01*
X120184373Y-41685578D01*
X120279611Y-41590340D01*
X120422469Y-41542721D01*
X120517707Y-41542721D01*
X120660564Y-41590340D01*
X120708183Y-41637959D01*
X121041516Y-41542721D02*
X121660564Y-41542721D01*
X121327230Y-41923673D01*
X121470088Y-41923673D01*
X121565326Y-41971292D01*
X121612945Y-42018911D01*
X121660564Y-42114150D01*
X121660564Y-42352245D01*
X121612945Y-42447483D01*
X121565326Y-42495102D01*
X121470088Y-42542721D01*
X121184373Y-42542721D01*
X121089135Y-42495102D01*
X121041516Y-42447483D01*
X122517707Y-41876054D02*
X122517707Y-42542721D01*
X122279611Y-41495102D02*
X122041516Y-42209388D01*
X122660564Y-42209388D01*
X72556643Y-82875357D02*
X72604262Y-82922976D01*
X72651881Y-83065833D01*
X72651881Y-83161071D01*
X72604262Y-83303929D01*
X72509024Y-83399167D01*
X72413786Y-83446786D01*
X72223310Y-83494405D01*
X72080452Y-83494405D01*
X71889976Y-83446786D01*
X71794738Y-83399167D01*
X71699500Y-83303929D01*
X71651881Y-83161071D01*
X71651881Y-83065833D01*
X71699500Y-82922976D01*
X71747119Y-82875357D01*
X71651881Y-82542024D02*
X71651881Y-81922976D01*
X72032833Y-82256310D01*
X72032833Y-82113452D01*
X72080452Y-82018214D01*
X72128071Y-81970595D01*
X72223310Y-81922976D01*
X72461405Y-81922976D01*
X72556643Y-81970595D01*
X72604262Y-82018214D01*
X72651881Y-82113452D01*
X72651881Y-82399167D01*
X72604262Y-82494405D01*
X72556643Y-82542024D01*
X71651881Y-81018214D02*
X71651881Y-81494405D01*
X72128071Y-81542024D01*
X72080452Y-81494405D01*
X72032833Y-81399167D01*
X72032833Y-81161071D01*
X72080452Y-81065833D01*
X72128071Y-81018214D01*
X72223310Y-80970595D01*
X72461405Y-80970595D01*
X72556643Y-81018214D01*
X72604262Y-81065833D01*
X72651881Y-81161071D01*
X72651881Y-81399167D01*
X72604262Y-81494405D01*
X72556643Y-81542024D01*
X74968409Y-83758992D02*
X74968409Y-82997087D01*
X75349361Y-83378039D02*
X74587456Y-83378039D01*
X114850943Y-42457643D02*
X114803324Y-42505262D01*
X114660467Y-42552881D01*
X114565229Y-42552881D01*
X114422371Y-42505262D01*
X114327133Y-42410024D01*
X114279514Y-42314786D01*
X114231895Y-42124310D01*
X114231895Y-41981452D01*
X114279514Y-41790976D01*
X114327133Y-41695738D01*
X114422371Y-41600500D01*
X114565229Y-41552881D01*
X114660467Y-41552881D01*
X114803324Y-41600500D01*
X114850943Y-41648119D01*
X115184276Y-41552881D02*
X115803324Y-41552881D01*
X115469990Y-41933833D01*
X115612848Y-41933833D01*
X115708086Y-41981452D01*
X115755705Y-42029071D01*
X115803324Y-42124310D01*
X115803324Y-42362405D01*
X115755705Y-42457643D01*
X115708086Y-42505262D01*
X115612848Y-42552881D01*
X115327133Y-42552881D01*
X115231895Y-42505262D01*
X115184276Y-42457643D01*
X116660467Y-41552881D02*
X116469990Y-41552881D01*
X116374752Y-41600500D01*
X116327133Y-41648119D01*
X116231895Y-41790976D01*
X116184276Y-41981452D01*
X116184276Y-42362405D01*
X116231895Y-42457643D01*
X116279514Y-42505262D01*
X116374752Y-42552881D01*
X116565229Y-42552881D01*
X116660467Y-42505262D01*
X116708086Y-42457643D01*
X116755705Y-42362405D01*
X116755705Y-42124310D01*
X116708086Y-42029071D01*
X116660467Y-41981452D01*
X116565229Y-41933833D01*
X116374752Y-41933833D01*
X116279514Y-41981452D01*
X116231895Y-42029071D01*
X116184276Y-42124310D01*
X76938143Y-83319857D02*
X76985762Y-83367476D01*
X77033381Y-83510333D01*
X77033381Y-83605571D01*
X76985762Y-83748429D01*
X76890524Y-83843667D01*
X76795286Y-83891286D01*
X76604810Y-83938905D01*
X76461952Y-83938905D01*
X76271476Y-83891286D01*
X76176238Y-83843667D01*
X76081000Y-83748429D01*
X76033381Y-83605571D01*
X76033381Y-83510333D01*
X76081000Y-83367476D01*
X76128619Y-83319857D01*
X76033381Y-82986524D02*
X76033381Y-82367476D01*
X76414333Y-82700810D01*
X76414333Y-82557952D01*
X76461952Y-82462714D01*
X76509571Y-82415095D01*
X76604810Y-82367476D01*
X76842905Y-82367476D01*
X76938143Y-82415095D01*
X76985762Y-82462714D01*
X77033381Y-82557952D01*
X77033381Y-82843667D01*
X76985762Y-82938905D01*
X76938143Y-82986524D01*
X76033381Y-82034143D02*
X76033381Y-81367476D01*
X77033381Y-81796048D01*
X78443129Y-84119672D02*
X78443129Y-83357767D01*
X78824081Y-83738719D02*
X78062176Y-83738719D01*
X112524303Y-108472243D02*
X112476684Y-108519862D01*
X112333827Y-108567481D01*
X112238589Y-108567481D01*
X112095731Y-108519862D01*
X112000493Y-108424624D01*
X111952874Y-108329386D01*
X111905255Y-108138910D01*
X111905255Y-107996052D01*
X111952874Y-107805576D01*
X112000493Y-107710338D01*
X112095731Y-107615100D01*
X112238589Y-107567481D01*
X112333827Y-107567481D01*
X112476684Y-107615100D01*
X112524303Y-107662719D01*
X112857636Y-107567481D02*
X113476684Y-107567481D01*
X113143350Y-107948433D01*
X113286208Y-107948433D01*
X113381446Y-107996052D01*
X113429065Y-108043671D01*
X113476684Y-108138910D01*
X113476684Y-108377005D01*
X113429065Y-108472243D01*
X113381446Y-108519862D01*
X113286208Y-108567481D01*
X113000493Y-108567481D01*
X112905255Y-108519862D01*
X112857636Y-108472243D01*
X114048112Y-107996052D02*
X113952874Y-107948433D01*
X113905255Y-107900814D01*
X113857636Y-107805576D01*
X113857636Y-107757957D01*
X113905255Y-107662719D01*
X113952874Y-107615100D01*
X114048112Y-107567481D01*
X114238589Y-107567481D01*
X114333827Y-107615100D01*
X114381446Y-107662719D01*
X114429065Y-107757957D01*
X114429065Y-107805576D01*
X114381446Y-107900814D01*
X114333827Y-107948433D01*
X114238589Y-107996052D01*
X114048112Y-107996052D01*
X113952874Y-108043671D01*
X113905255Y-108091290D01*
X113857636Y-108186529D01*
X113857636Y-108377005D01*
X113905255Y-108472243D01*
X113952874Y-108519862D01*
X114048112Y-108567481D01*
X114238589Y-108567481D01*
X114333827Y-108519862D01*
X114381446Y-108472243D01*
X114429065Y-108377005D01*
X114429065Y-108186529D01*
X114381446Y-108091290D01*
X114333827Y-108043671D01*
X114238589Y-107996052D01*
X102494128Y-105811629D02*
X103256033Y-105811629D01*
X102875081Y-106192581D02*
X102875081Y-105430676D01*
X68102943Y-57062643D02*
X68055324Y-57110262D01*
X67912467Y-57157881D01*
X67817229Y-57157881D01*
X67674371Y-57110262D01*
X67579133Y-57015024D01*
X67531514Y-56919786D01*
X67483895Y-56729310D01*
X67483895Y-56586452D01*
X67531514Y-56395976D01*
X67579133Y-56300738D01*
X67674371Y-56205500D01*
X67817229Y-56157881D01*
X67912467Y-56157881D01*
X68055324Y-56205500D01*
X68102943Y-56253119D01*
X68436276Y-56157881D02*
X69055324Y-56157881D01*
X68721990Y-56538833D01*
X68864848Y-56538833D01*
X68960086Y-56586452D01*
X69007705Y-56634071D01*
X69055324Y-56729310D01*
X69055324Y-56967405D01*
X69007705Y-57062643D01*
X68960086Y-57110262D01*
X68864848Y-57157881D01*
X68579133Y-57157881D01*
X68483895Y-57110262D01*
X68436276Y-57062643D01*
X69531514Y-57157881D02*
X69721990Y-57157881D01*
X69817229Y-57110262D01*
X69864848Y-57062643D01*
X69960086Y-56919786D01*
X70007705Y-56729310D01*
X70007705Y-56348357D01*
X69960086Y-56253119D01*
X69912467Y-56205500D01*
X69817229Y-56157881D01*
X69626752Y-56157881D01*
X69531514Y-56205500D01*
X69483895Y-56253119D01*
X69436276Y-56348357D01*
X69436276Y-56586452D01*
X69483895Y-56681690D01*
X69531514Y-56729310D01*
X69626752Y-56776929D01*
X69817229Y-56776929D01*
X69912467Y-56729310D01*
X69960086Y-56681690D01*
X70007705Y-56586452D01*
X62341523Y-47857683D02*
X62293904Y-47905302D01*
X62151047Y-47952921D01*
X62055809Y-47952921D01*
X61912951Y-47905302D01*
X61817713Y-47810064D01*
X61770094Y-47714826D01*
X61722475Y-47524350D01*
X61722475Y-47381492D01*
X61770094Y-47191016D01*
X61817713Y-47095778D01*
X61912951Y-47000540D01*
X62055809Y-46952921D01*
X62151047Y-46952921D01*
X62293904Y-47000540D01*
X62341523Y-47048159D01*
X63198666Y-47286254D02*
X63198666Y-47952921D01*
X62960570Y-46905302D02*
X62722475Y-47619588D01*
X63341523Y-47619588D01*
X63912951Y-46952921D02*
X64008190Y-46952921D01*
X64103428Y-47000540D01*
X64151047Y-47048159D01*
X64198666Y-47143397D01*
X64246285Y-47333873D01*
X64246285Y-47571969D01*
X64198666Y-47762445D01*
X64151047Y-47857683D01*
X64103428Y-47905302D01*
X64008190Y-47952921D01*
X63912951Y-47952921D01*
X63817713Y-47905302D01*
X63770094Y-47857683D01*
X63722475Y-47762445D01*
X63674856Y-47571969D01*
X63674856Y-47333873D01*
X63722475Y-47143397D01*
X63770094Y-47048159D01*
X63817713Y-47000540D01*
X63912951Y-46952921D01*
X109257103Y-88851977D02*
X109304722Y-88899596D01*
X109352341Y-89042453D01*
X109352341Y-89137691D01*
X109304722Y-89280549D01*
X109209484Y-89375787D01*
X109114246Y-89423406D01*
X108923770Y-89471025D01*
X108780912Y-89471025D01*
X108590436Y-89423406D01*
X108495198Y-89375787D01*
X108399960Y-89280549D01*
X108352341Y-89137691D01*
X108352341Y-89042453D01*
X108399960Y-88899596D01*
X108447579Y-88851977D01*
X108685674Y-87994834D02*
X109352341Y-87994834D01*
X108304722Y-88232930D02*
X109019008Y-88471025D01*
X109019008Y-87851977D01*
X109352341Y-86947215D02*
X109352341Y-87518644D01*
X109352341Y-87232930D02*
X108352341Y-87232930D01*
X108495198Y-87328168D01*
X108590436Y-87423406D01*
X108638055Y-87518644D01*
X106982569Y-98518932D02*
X106982569Y-97757027D01*
X107363521Y-98137979D02*
X106601616Y-98137979D01*
X111944423Y-101173517D02*
X111992042Y-101221136D01*
X112039661Y-101363993D01*
X112039661Y-101459231D01*
X111992042Y-101602089D01*
X111896804Y-101697327D01*
X111801566Y-101744946D01*
X111611090Y-101792565D01*
X111468232Y-101792565D01*
X111277756Y-101744946D01*
X111182518Y-101697327D01*
X111087280Y-101602089D01*
X111039661Y-101459231D01*
X111039661Y-101363993D01*
X111087280Y-101221136D01*
X111134899Y-101173517D01*
X111372994Y-100316374D02*
X112039661Y-100316374D01*
X110992042Y-100554470D02*
X111706328Y-100792565D01*
X111706328Y-100173517D01*
X111134899Y-99840184D02*
X111087280Y-99792565D01*
X111039661Y-99697327D01*
X111039661Y-99459231D01*
X111087280Y-99363993D01*
X111134899Y-99316374D01*
X111230137Y-99268755D01*
X111325375Y-99268755D01*
X111468232Y-99316374D01*
X112039661Y-99887803D01*
X112039661Y-99268755D01*
X106479649Y-106806952D02*
X106479649Y-106045047D01*
X106860601Y-106425999D02*
X106098696Y-106425999D01*
X101944443Y-92494337D02*
X101992062Y-92541956D01*
X102039681Y-92684813D01*
X102039681Y-92780051D01*
X101992062Y-92922909D01*
X101896824Y-93018147D01*
X101801586Y-93065766D01*
X101611110Y-93113385D01*
X101468252Y-93113385D01*
X101277776Y-93065766D01*
X101182538Y-93018147D01*
X101087300Y-92922909D01*
X101039681Y-92780051D01*
X101039681Y-92684813D01*
X101087300Y-92541956D01*
X101134919Y-92494337D01*
X101373014Y-91637194D02*
X102039681Y-91637194D01*
X100992062Y-91875290D02*
X101706348Y-92113385D01*
X101706348Y-91494337D01*
X101039681Y-91208623D02*
X101039681Y-90589575D01*
X101420633Y-90922909D01*
X101420633Y-90780051D01*
X101468252Y-90684813D01*
X101515871Y-90637194D01*
X101611110Y-90589575D01*
X101849205Y-90589575D01*
X101944443Y-90637194D01*
X101992062Y-90684813D01*
X102039681Y-90780051D01*
X102039681Y-91065766D01*
X101992062Y-91161004D01*
X101944443Y-91208623D01*
X102258169Y-98887232D02*
X102258169Y-98125327D01*
X102639121Y-98506279D02*
X101877216Y-98506279D01*
X150209523Y-66949557D02*
X150257142Y-66997176D01*
X150304761Y-67140033D01*
X150304761Y-67235271D01*
X150257142Y-67378129D01*
X150161904Y-67473367D01*
X150066666Y-67520986D01*
X149876190Y-67568605D01*
X149733332Y-67568605D01*
X149542856Y-67520986D01*
X149447618Y-67473367D01*
X149352380Y-67378129D01*
X149304761Y-67235271D01*
X149304761Y-67140033D01*
X149352380Y-66997176D01*
X149399999Y-66949557D01*
X149638094Y-66092414D02*
X150304761Y-66092414D01*
X149257142Y-66330510D02*
X149971428Y-66568605D01*
X149971428Y-65949557D01*
X149638094Y-65140033D02*
X150304761Y-65140033D01*
X149257142Y-65378129D02*
X149971428Y-65616224D01*
X149971428Y-64997176D01*
X165038043Y-66903837D02*
X165085662Y-66951456D01*
X165133281Y-67094313D01*
X165133281Y-67189551D01*
X165085662Y-67332409D01*
X164990424Y-67427647D01*
X164895186Y-67475266D01*
X164704710Y-67522885D01*
X164561852Y-67522885D01*
X164371376Y-67475266D01*
X164276138Y-67427647D01*
X164180900Y-67332409D01*
X164133281Y-67189551D01*
X164133281Y-67094313D01*
X164180900Y-66951456D01*
X164228519Y-66903837D01*
X164466614Y-66046694D02*
X165133281Y-66046694D01*
X164085662Y-66284790D02*
X164799948Y-66522885D01*
X164799948Y-65903837D01*
X164133281Y-65046694D02*
X164133281Y-65522885D01*
X164609471Y-65570504D01*
X164561852Y-65522885D01*
X164514233Y-65427647D01*
X164514233Y-65189551D01*
X164561852Y-65094313D01*
X164609471Y-65046694D01*
X164704710Y-64999075D01*
X164942805Y-64999075D01*
X165038043Y-65046694D01*
X165085662Y-65094313D01*
X165133281Y-65189551D01*
X165133281Y-65427647D01*
X165085662Y-65522885D01*
X165038043Y-65570504D01*
X130473723Y-82090497D02*
X130521342Y-82138116D01*
X130568961Y-82280973D01*
X130568961Y-82376211D01*
X130521342Y-82519069D01*
X130426104Y-82614307D01*
X130330866Y-82661926D01*
X130140390Y-82709545D01*
X129997532Y-82709545D01*
X129807056Y-82661926D01*
X129711818Y-82614307D01*
X129616580Y-82519069D01*
X129568961Y-82376211D01*
X129568961Y-82280973D01*
X129616580Y-82138116D01*
X129664199Y-82090497D01*
X129902294Y-81233354D02*
X130568961Y-81233354D01*
X129521342Y-81471450D02*
X130235628Y-81709545D01*
X130235628Y-81090497D01*
X129568961Y-80280973D02*
X129568961Y-80471450D01*
X129616580Y-80566688D01*
X129664199Y-80614307D01*
X129807056Y-80709545D01*
X129997532Y-80757164D01*
X130378485Y-80757164D01*
X130473723Y-80709545D01*
X130521342Y-80661926D01*
X130568961Y-80566688D01*
X130568961Y-80376211D01*
X130521342Y-80280973D01*
X130473723Y-80233354D01*
X130378485Y-80185735D01*
X130140390Y-80185735D01*
X130045151Y-80233354D01*
X129997532Y-80280973D01*
X129949913Y-80376211D01*
X129949913Y-80566688D01*
X129997532Y-80661926D01*
X130045151Y-80709545D01*
X130140390Y-80757164D01*
X130466103Y-89639377D02*
X130513722Y-89686996D01*
X130561341Y-89829853D01*
X130561341Y-89925091D01*
X130513722Y-90067949D01*
X130418484Y-90163187D01*
X130323246Y-90210806D01*
X130132770Y-90258425D01*
X129989912Y-90258425D01*
X129799436Y-90210806D01*
X129704198Y-90163187D01*
X129608960Y-90067949D01*
X129561341Y-89925091D01*
X129561341Y-89829853D01*
X129608960Y-89686996D01*
X129656579Y-89639377D01*
X129894674Y-88782234D02*
X130561341Y-88782234D01*
X129513722Y-89020330D02*
X130228008Y-89258425D01*
X130228008Y-88639377D01*
X129561341Y-88353663D02*
X129561341Y-87686996D01*
X130561341Y-88115568D01*
X130516903Y-74455257D02*
X130564522Y-74502876D01*
X130612141Y-74645733D01*
X130612141Y-74740971D01*
X130564522Y-74883829D01*
X130469284Y-74979067D01*
X130374046Y-75026686D01*
X130183570Y-75074305D01*
X130040712Y-75074305D01*
X129850236Y-75026686D01*
X129754998Y-74979067D01*
X129659760Y-74883829D01*
X129612141Y-74740971D01*
X129612141Y-74645733D01*
X129659760Y-74502876D01*
X129707379Y-74455257D01*
X129945474Y-73598114D02*
X130612141Y-73598114D01*
X129564522Y-73836210D02*
X130278808Y-74074305D01*
X130278808Y-73455257D01*
X130040712Y-72931448D02*
X129993093Y-73026686D01*
X129945474Y-73074305D01*
X129850236Y-73121924D01*
X129802617Y-73121924D01*
X129707379Y-73074305D01*
X129659760Y-73026686D01*
X129612141Y-72931448D01*
X129612141Y-72740971D01*
X129659760Y-72645733D01*
X129707379Y-72598114D01*
X129802617Y-72550495D01*
X129850236Y-72550495D01*
X129945474Y-72598114D01*
X129993093Y-72645733D01*
X130040712Y-72740971D01*
X130040712Y-72931448D01*
X130088331Y-73026686D01*
X130135950Y-73074305D01*
X130231189Y-73121924D01*
X130421665Y-73121924D01*
X130516903Y-73074305D01*
X130564522Y-73026686D01*
X130612141Y-72931448D01*
X130612141Y-72740971D01*
X130564522Y-72645733D01*
X130516903Y-72598114D01*
X130421665Y-72550495D01*
X130231189Y-72550495D01*
X130135950Y-72598114D01*
X130088331Y-72645733D01*
X130040712Y-72740971D01*
X120850423Y-80890383D02*
X120802804Y-80938002D01*
X120659947Y-80985621D01*
X120564709Y-80985621D01*
X120421851Y-80938002D01*
X120326613Y-80842764D01*
X120278994Y-80747526D01*
X120231375Y-80557050D01*
X120231375Y-80414192D01*
X120278994Y-80223716D01*
X120326613Y-80128478D01*
X120421851Y-80033240D01*
X120564709Y-79985621D01*
X120659947Y-79985621D01*
X120802804Y-80033240D01*
X120850423Y-80080859D01*
X121707566Y-80318954D02*
X121707566Y-80985621D01*
X121469470Y-79938002D02*
X121231375Y-80652288D01*
X121850423Y-80652288D01*
X122278994Y-80985621D02*
X122469470Y-80985621D01*
X122564709Y-80938002D01*
X122612328Y-80890383D01*
X122707566Y-80747526D01*
X122755185Y-80557050D01*
X122755185Y-80176097D01*
X122707566Y-80080859D01*
X122659947Y-80033240D01*
X122564709Y-79985621D01*
X122374232Y-79985621D01*
X122278994Y-80033240D01*
X122231375Y-80080859D01*
X122183756Y-80176097D01*
X122183756Y-80414192D01*
X122231375Y-80509430D01*
X122278994Y-80557050D01*
X122374232Y-80604669D01*
X122564709Y-80604669D01*
X122659947Y-80557050D01*
X122707566Y-80509430D01*
X122755185Y-80414192D01*
X119851443Y-71366617D02*
X119899062Y-71414236D01*
X119946681Y-71557093D01*
X119946681Y-71652331D01*
X119899062Y-71795189D01*
X119803824Y-71890427D01*
X119708586Y-71938046D01*
X119518110Y-71985665D01*
X119375252Y-71985665D01*
X119184776Y-71938046D01*
X119089538Y-71890427D01*
X118994300Y-71795189D01*
X118946681Y-71652331D01*
X118946681Y-71557093D01*
X118994300Y-71414236D01*
X119041919Y-71366617D01*
X118946681Y-70461855D02*
X118946681Y-70938046D01*
X119422871Y-70985665D01*
X119375252Y-70938046D01*
X119327633Y-70842808D01*
X119327633Y-70604712D01*
X119375252Y-70509474D01*
X119422871Y-70461855D01*
X119518110Y-70414236D01*
X119756205Y-70414236D01*
X119851443Y-70461855D01*
X119899062Y-70509474D01*
X119946681Y-70604712D01*
X119946681Y-70842808D01*
X119899062Y-70938046D01*
X119851443Y-70985665D01*
X118946681Y-69795189D02*
X118946681Y-69699950D01*
X118994300Y-69604712D01*
X119041919Y-69557093D01*
X119137157Y-69509474D01*
X119327633Y-69461855D01*
X119565729Y-69461855D01*
X119756205Y-69509474D01*
X119851443Y-69557093D01*
X119899062Y-69604712D01*
X119946681Y-69699950D01*
X119946681Y-69795189D01*
X119899062Y-69890427D01*
X119851443Y-69938046D01*
X119756205Y-69985665D01*
X119565729Y-70033284D01*
X119327633Y-70033284D01*
X119137157Y-69985665D01*
X119041919Y-69938046D01*
X118994300Y-69890427D01*
X118946681Y-69795189D01*
X112707183Y-85020423D02*
X112659564Y-85068042D01*
X112516707Y-85115661D01*
X112421469Y-85115661D01*
X112278611Y-85068042D01*
X112183373Y-84972804D01*
X112135754Y-84877566D01*
X112088135Y-84687090D01*
X112088135Y-84544232D01*
X112135754Y-84353756D01*
X112183373Y-84258518D01*
X112278611Y-84163280D01*
X112421469Y-84115661D01*
X112516707Y-84115661D01*
X112659564Y-84163280D01*
X112707183Y-84210899D01*
X113611945Y-84115661D02*
X113135754Y-84115661D01*
X113088135Y-84591851D01*
X113135754Y-84544232D01*
X113230992Y-84496613D01*
X113469088Y-84496613D01*
X113564326Y-84544232D01*
X113611945Y-84591851D01*
X113659564Y-84687090D01*
X113659564Y-84925185D01*
X113611945Y-85020423D01*
X113564326Y-85068042D01*
X113469088Y-85115661D01*
X113230992Y-85115661D01*
X113135754Y-85068042D01*
X113088135Y-85020423D01*
X114611945Y-85115661D02*
X114040516Y-85115661D01*
X114326230Y-85115661D02*
X114326230Y-84115661D01*
X114230992Y-84258518D01*
X114135754Y-84353756D01*
X114040516Y-84401375D01*
X112694483Y-77489323D02*
X112646864Y-77536942D01*
X112504007Y-77584561D01*
X112408769Y-77584561D01*
X112265911Y-77536942D01*
X112170673Y-77441704D01*
X112123054Y-77346466D01*
X112075435Y-77155990D01*
X112075435Y-77013132D01*
X112123054Y-76822656D01*
X112170673Y-76727418D01*
X112265911Y-76632180D01*
X112408769Y-76584561D01*
X112504007Y-76584561D01*
X112646864Y-76632180D01*
X112694483Y-76679799D01*
X113599245Y-76584561D02*
X113123054Y-76584561D01*
X113075435Y-77060751D01*
X113123054Y-77013132D01*
X113218292Y-76965513D01*
X113456388Y-76965513D01*
X113551626Y-77013132D01*
X113599245Y-77060751D01*
X113646864Y-77155990D01*
X113646864Y-77394085D01*
X113599245Y-77489323D01*
X113551626Y-77536942D01*
X113456388Y-77584561D01*
X113218292Y-77584561D01*
X113123054Y-77536942D01*
X113075435Y-77489323D01*
X114027816Y-76679799D02*
X114075435Y-76632180D01*
X114170673Y-76584561D01*
X114408769Y-76584561D01*
X114504007Y-76632180D01*
X114551626Y-76679799D01*
X114599245Y-76775037D01*
X114599245Y-76870275D01*
X114551626Y-77013132D01*
X113980197Y-77584561D01*
X114599245Y-77584561D01*
X108366251Y-47031233D02*
X108366251Y-47364567D01*
X108890061Y-47364567D02*
X107890061Y-47364567D01*
X107890061Y-46888376D01*
X108890061Y-45983614D02*
X108890061Y-46555043D01*
X108890061Y-46269329D02*
X107890061Y-46269329D01*
X108032918Y-46364567D01*
X108128156Y-46459805D01*
X108175775Y-46555043D01*
X108419591Y-75044893D02*
X108419591Y-75378227D01*
X108943401Y-75378227D02*
X107943401Y-75378227D01*
X107943401Y-74902036D01*
X108038639Y-74568703D02*
X107991020Y-74521084D01*
X107943401Y-74425846D01*
X107943401Y-74187750D01*
X107991020Y-74092512D01*
X108038639Y-74044893D01*
X108133877Y-73997274D01*
X108229115Y-73997274D01*
X108371972Y-74044893D01*
X108943401Y-74616322D01*
X108943401Y-73997274D01*
X130214145Y-43314881D02*
X130214145Y-42314881D01*
X130595098Y-42314881D01*
X130690336Y-42362500D01*
X130737955Y-42410119D01*
X130785574Y-42505357D01*
X130785574Y-42648214D01*
X130737955Y-42743452D01*
X130690336Y-42791071D01*
X130595098Y-42838690D01*
X130214145Y-42838690D01*
X131737955Y-43314881D02*
X131166526Y-43314881D01*
X131452240Y-43314881D02*
X131452240Y-42314881D01*
X131357002Y-42457738D01*
X131261764Y-42552976D01*
X131166526Y-42600595D01*
X130219225Y-96850461D02*
X130219225Y-95850461D01*
X130600178Y-95850461D01*
X130695416Y-95898080D01*
X130743035Y-95945699D01*
X130790654Y-96040937D01*
X130790654Y-96183794D01*
X130743035Y-96279032D01*
X130695416Y-96326651D01*
X130600178Y-96374270D01*
X130219225Y-96374270D01*
X131171606Y-95945699D02*
X131219225Y-95898080D01*
X131314463Y-95850461D01*
X131552559Y-95850461D01*
X131647797Y-95898080D01*
X131695416Y-95945699D01*
X131743035Y-96040937D01*
X131743035Y-96136175D01*
X131695416Y-96279032D01*
X131123987Y-96850461D01*
X131743035Y-96850461D01*
X97402354Y-46007201D02*
X97069020Y-45531010D01*
X96830925Y-46007201D02*
X96830925Y-45007201D01*
X97211878Y-45007201D01*
X97307116Y-45054820D01*
X97354735Y-45102439D01*
X97402354Y-45197677D01*
X97402354Y-45340534D01*
X97354735Y-45435772D01*
X97307116Y-45483391D01*
X97211878Y-45531010D01*
X96830925Y-45531010D01*
X98354735Y-46007201D02*
X97783306Y-46007201D01*
X98069020Y-46007201D02*
X98069020Y-45007201D01*
X97973782Y-45150058D01*
X97878544Y-45245296D01*
X97783306Y-45292915D01*
X99596914Y-57096921D02*
X99263580Y-56620730D01*
X99025485Y-57096921D02*
X99025485Y-56096921D01*
X99406438Y-56096921D01*
X99501676Y-56144540D01*
X99549295Y-56192159D01*
X99596914Y-56287397D01*
X99596914Y-56430254D01*
X99549295Y-56525492D01*
X99501676Y-56573111D01*
X99406438Y-56620730D01*
X99025485Y-56620730D01*
X99977866Y-56192159D02*
X100025485Y-56144540D01*
X100120723Y-56096921D01*
X100358819Y-56096921D01*
X100454057Y-56144540D01*
X100501676Y-56192159D01*
X100549295Y-56287397D01*
X100549295Y-56382635D01*
X100501676Y-56525492D01*
X99930247Y-57096921D01*
X100549295Y-57096921D01*
X82334361Y-49208986D02*
X81858170Y-49542320D01*
X82334361Y-49780415D02*
X81334361Y-49780415D01*
X81334361Y-49399462D01*
X81381980Y-49304224D01*
X81429599Y-49256605D01*
X81524837Y-49208986D01*
X81667694Y-49208986D01*
X81762932Y-49256605D01*
X81810551Y-49304224D01*
X81858170Y-49399462D01*
X81858170Y-49780415D01*
X81334361Y-48875653D02*
X81334361Y-48256605D01*
X81715313Y-48589939D01*
X81715313Y-48447081D01*
X81762932Y-48351843D01*
X81810551Y-48304224D01*
X81905790Y-48256605D01*
X82143885Y-48256605D01*
X82239123Y-48304224D01*
X82286742Y-48351843D01*
X82334361Y-48447081D01*
X82334361Y-48732796D01*
X82286742Y-48828034D01*
X82239123Y-48875653D01*
X82369921Y-53801306D02*
X81893730Y-54134640D01*
X82369921Y-54372735D02*
X81369921Y-54372735D01*
X81369921Y-53991782D01*
X81417540Y-53896544D01*
X81465159Y-53848925D01*
X81560397Y-53801306D01*
X81703254Y-53801306D01*
X81798492Y-53848925D01*
X81846111Y-53896544D01*
X81893730Y-53991782D01*
X81893730Y-54372735D01*
X81703254Y-52944163D02*
X82369921Y-52944163D01*
X81322302Y-53182259D02*
X82036588Y-53420354D01*
X82036588Y-52801306D01*
X95847161Y-44672546D02*
X95370970Y-45005880D01*
X95847161Y-45243975D02*
X94847161Y-45243975D01*
X94847161Y-44863022D01*
X94894780Y-44767784D01*
X94942399Y-44720165D01*
X95037637Y-44672546D01*
X95180494Y-44672546D01*
X95275732Y-44720165D01*
X95323351Y-44767784D01*
X95370970Y-44863022D01*
X95370970Y-45243975D01*
X94847161Y-43767784D02*
X94847161Y-44243975D01*
X95323351Y-44291594D01*
X95275732Y-44243975D01*
X95228113Y-44148737D01*
X95228113Y-43910641D01*
X95275732Y-43815403D01*
X95323351Y-43767784D01*
X95418590Y-43720165D01*
X95656685Y-43720165D01*
X95751923Y-43767784D01*
X95799542Y-43815403D01*
X95847161Y-43910641D01*
X95847161Y-44148737D01*
X95799542Y-44243975D01*
X95751923Y-44291594D01*
X76411081Y-42765006D02*
X75934890Y-43098340D01*
X76411081Y-43336435D02*
X75411081Y-43336435D01*
X75411081Y-42955482D01*
X75458700Y-42860244D01*
X75506319Y-42812625D01*
X75601557Y-42765006D01*
X75744414Y-42765006D01*
X75839652Y-42812625D01*
X75887271Y-42860244D01*
X75934890Y-42955482D01*
X75934890Y-43336435D01*
X75411081Y-41907863D02*
X75411081Y-42098340D01*
X75458700Y-42193578D01*
X75506319Y-42241197D01*
X75649176Y-42336435D01*
X75839652Y-42384054D01*
X76220605Y-42384054D01*
X76315843Y-42336435D01*
X76363462Y-42288816D01*
X76411081Y-42193578D01*
X76411081Y-42003101D01*
X76363462Y-41907863D01*
X76315843Y-41860244D01*
X76220605Y-41812625D01*
X75982510Y-41812625D01*
X75887271Y-41860244D01*
X75839652Y-41907863D01*
X75792033Y-42003101D01*
X75792033Y-42193578D01*
X75839652Y-42288816D01*
X75887271Y-42336435D01*
X75982510Y-42384054D01*
X76345041Y-70702466D02*
X75868850Y-71035800D01*
X76345041Y-71273895D02*
X75345041Y-71273895D01*
X75345041Y-70892942D01*
X75392660Y-70797704D01*
X75440279Y-70750085D01*
X75535517Y-70702466D01*
X75678374Y-70702466D01*
X75773612Y-70750085D01*
X75821231Y-70797704D01*
X75868850Y-70892942D01*
X75868850Y-71273895D01*
X75345041Y-70369133D02*
X75345041Y-69702466D01*
X76345041Y-70131038D01*
X96057981Y-59821106D02*
X95581790Y-60154440D01*
X96057981Y-60392535D02*
X95057981Y-60392535D01*
X95057981Y-60011582D01*
X95105600Y-59916344D01*
X95153219Y-59868725D01*
X95248457Y-59821106D01*
X95391314Y-59821106D01*
X95486552Y-59868725D01*
X95534171Y-59916344D01*
X95581790Y-60011582D01*
X95581790Y-60392535D01*
X95486552Y-59249678D02*
X95438933Y-59344916D01*
X95391314Y-59392535D01*
X95296076Y-59440154D01*
X95248457Y-59440154D01*
X95153219Y-59392535D01*
X95105600Y-59344916D01*
X95057981Y-59249678D01*
X95057981Y-59059201D01*
X95105600Y-58963963D01*
X95153219Y-58916344D01*
X95248457Y-58868725D01*
X95296076Y-58868725D01*
X95391314Y-58916344D01*
X95438933Y-58963963D01*
X95486552Y-59059201D01*
X95486552Y-59249678D01*
X95534171Y-59344916D01*
X95581790Y-59392535D01*
X95677029Y-59440154D01*
X95867505Y-59440154D01*
X95962743Y-59392535D01*
X96010362Y-59344916D01*
X96057981Y-59249678D01*
X96057981Y-59059201D01*
X96010362Y-58963963D01*
X95962743Y-58916344D01*
X95867505Y-58868725D01*
X95677029Y-58868725D01*
X95581790Y-58916344D01*
X95534171Y-58963963D01*
X95486552Y-59059201D01*
X108069641Y-36321026D02*
X107593450Y-36654360D01*
X108069641Y-36892455D02*
X107069641Y-36892455D01*
X107069641Y-36511502D01*
X107117260Y-36416264D01*
X107164879Y-36368645D01*
X107260117Y-36321026D01*
X107402974Y-36321026D01*
X107498212Y-36368645D01*
X107545831Y-36416264D01*
X107593450Y-36511502D01*
X107593450Y-36892455D01*
X108069641Y-35844836D02*
X108069641Y-35654360D01*
X108022022Y-35559121D01*
X107974403Y-35511502D01*
X107831546Y-35416264D01*
X107641070Y-35368645D01*
X107260117Y-35368645D01*
X107164879Y-35416264D01*
X107117260Y-35463883D01*
X107069641Y-35559121D01*
X107069641Y-35749598D01*
X107117260Y-35844836D01*
X107164879Y-35892455D01*
X107260117Y-35940074D01*
X107498212Y-35940074D01*
X107593450Y-35892455D01*
X107641070Y-35844836D01*
X107688689Y-35749598D01*
X107688689Y-35559121D01*
X107641070Y-35463883D01*
X107593450Y-35416264D01*
X107498212Y-35368645D01*
X105618043Y-33863541D02*
X105284709Y-33387350D01*
X105046614Y-33863541D02*
X105046614Y-32863541D01*
X105427567Y-32863541D01*
X105522805Y-32911160D01*
X105570424Y-32958779D01*
X105618043Y-33054017D01*
X105618043Y-33196874D01*
X105570424Y-33292112D01*
X105522805Y-33339731D01*
X105427567Y-33387350D01*
X105046614Y-33387350D01*
X106570424Y-33863541D02*
X105998995Y-33863541D01*
X106284709Y-33863541D02*
X106284709Y-32863541D01*
X106189471Y-33006398D01*
X106094233Y-33101636D01*
X105998995Y-33149255D01*
X107189471Y-32863541D02*
X107284710Y-32863541D01*
X107379948Y-32911160D01*
X107427567Y-32958779D01*
X107475186Y-33054017D01*
X107522805Y-33244493D01*
X107522805Y-33482589D01*
X107475186Y-33673065D01*
X107427567Y-33768303D01*
X107379948Y-33815922D01*
X107284710Y-33863541D01*
X107189471Y-33863541D01*
X107094233Y-33815922D01*
X107046614Y-33768303D01*
X106998995Y-33673065D01*
X106951376Y-33482589D01*
X106951376Y-33244493D01*
X106998995Y-33054017D01*
X107046614Y-32958779D01*
X107094233Y-32911160D01*
X107189471Y-32863541D01*
X103167441Y-59718177D02*
X102691250Y-60051511D01*
X103167441Y-60289606D02*
X102167441Y-60289606D01*
X102167441Y-59908653D01*
X102215060Y-59813415D01*
X102262679Y-59765796D01*
X102357917Y-59718177D01*
X102500774Y-59718177D01*
X102596012Y-59765796D01*
X102643631Y-59813415D01*
X102691250Y-59908653D01*
X102691250Y-60289606D01*
X103167441Y-58765796D02*
X103167441Y-59337225D01*
X103167441Y-59051511D02*
X102167441Y-59051511D01*
X102310298Y-59146749D01*
X102405536Y-59241987D01*
X102453155Y-59337225D01*
X103167441Y-57813415D02*
X103167441Y-58384844D01*
X103167441Y-58099130D02*
X102167441Y-58099130D01*
X102310298Y-58194368D01*
X102405536Y-58289606D01*
X102453155Y-58384844D01*
X105671383Y-61813701D02*
X105338049Y-61337510D01*
X105099954Y-61813701D02*
X105099954Y-60813701D01*
X105480907Y-60813701D01*
X105576145Y-60861320D01*
X105623764Y-60908939D01*
X105671383Y-61004177D01*
X105671383Y-61147034D01*
X105623764Y-61242272D01*
X105576145Y-61289891D01*
X105480907Y-61337510D01*
X105099954Y-61337510D01*
X106623764Y-61813701D02*
X106052335Y-61813701D01*
X106338049Y-61813701D02*
X106338049Y-60813701D01*
X106242811Y-60956558D01*
X106147573Y-61051796D01*
X106052335Y-61099415D01*
X107004716Y-60908939D02*
X107052335Y-60861320D01*
X107147573Y-60813701D01*
X107385669Y-60813701D01*
X107480907Y-60861320D01*
X107528526Y-60908939D01*
X107576145Y-61004177D01*
X107576145Y-61099415D01*
X107528526Y-61242272D01*
X106957097Y-61813701D01*
X107576145Y-61813701D01*
X84023461Y-50157617D02*
X83547270Y-50490951D01*
X84023461Y-50729046D02*
X83023461Y-50729046D01*
X83023461Y-50348093D01*
X83071080Y-50252855D01*
X83118699Y-50205236D01*
X83213937Y-50157617D01*
X83356794Y-50157617D01*
X83452032Y-50205236D01*
X83499651Y-50252855D01*
X83547270Y-50348093D01*
X83547270Y-50729046D01*
X84023461Y-49205236D02*
X84023461Y-49776665D01*
X84023461Y-49490951D02*
X83023461Y-49490951D01*
X83166318Y-49586189D01*
X83261556Y-49681427D01*
X83309175Y-49776665D01*
X83023461Y-48871903D02*
X83023461Y-48252855D01*
X83404413Y-48586189D01*
X83404413Y-48443331D01*
X83452032Y-48348093D01*
X83499651Y-48300474D01*
X83594890Y-48252855D01*
X83832985Y-48252855D01*
X83928223Y-48300474D01*
X83975842Y-48348093D01*
X84023461Y-48443331D01*
X84023461Y-48729046D01*
X83975842Y-48824284D01*
X83928223Y-48871903D01*
X84102201Y-53772037D02*
X83626010Y-54105371D01*
X84102201Y-54343466D02*
X83102201Y-54343466D01*
X83102201Y-53962513D01*
X83149820Y-53867275D01*
X83197439Y-53819656D01*
X83292677Y-53772037D01*
X83435534Y-53772037D01*
X83530772Y-53819656D01*
X83578391Y-53867275D01*
X83626010Y-53962513D01*
X83626010Y-54343466D01*
X84102201Y-52819656D02*
X84102201Y-53391085D01*
X84102201Y-53105371D02*
X83102201Y-53105371D01*
X83245058Y-53200609D01*
X83340296Y-53295847D01*
X83387915Y-53391085D01*
X83435534Y-51962513D02*
X84102201Y-51962513D01*
X83054582Y-52200609D02*
X83768868Y-52438704D01*
X83768868Y-51819656D01*
X73121283Y-47330621D02*
X72787949Y-46854430D01*
X72549854Y-47330621D02*
X72549854Y-46330621D01*
X72930807Y-46330621D01*
X73026045Y-46378240D01*
X73073664Y-46425859D01*
X73121283Y-46521097D01*
X73121283Y-46663954D01*
X73073664Y-46759192D01*
X73026045Y-46806811D01*
X72930807Y-46854430D01*
X72549854Y-46854430D01*
X74073664Y-47330621D02*
X73502235Y-47330621D01*
X73787949Y-47330621D02*
X73787949Y-46330621D01*
X73692711Y-46473478D01*
X73597473Y-46568716D01*
X73502235Y-46616335D01*
X74978426Y-46330621D02*
X74502235Y-46330621D01*
X74454616Y-46806811D01*
X74502235Y-46759192D01*
X74597473Y-46711573D01*
X74835569Y-46711573D01*
X74930807Y-46759192D01*
X74978426Y-46806811D01*
X75026045Y-46902050D01*
X75026045Y-47140145D01*
X74978426Y-47235383D01*
X74930807Y-47283002D01*
X74835569Y-47330621D01*
X74597473Y-47330621D01*
X74502235Y-47283002D01*
X74454616Y-47235383D01*
X73202563Y-75270621D02*
X72869229Y-74794430D01*
X72631134Y-75270621D02*
X72631134Y-74270621D01*
X73012087Y-74270621D01*
X73107325Y-74318240D01*
X73154944Y-74365859D01*
X73202563Y-74461097D01*
X73202563Y-74603954D01*
X73154944Y-74699192D01*
X73107325Y-74746811D01*
X73012087Y-74794430D01*
X72631134Y-74794430D01*
X74154944Y-75270621D02*
X73583515Y-75270621D01*
X73869229Y-75270621D02*
X73869229Y-74270621D01*
X73773991Y-74413478D01*
X73678753Y-74508716D01*
X73583515Y-74556335D01*
X75012087Y-74270621D02*
X74821610Y-74270621D01*
X74726372Y-74318240D01*
X74678753Y-74365859D01*
X74583515Y-74508716D01*
X74535896Y-74699192D01*
X74535896Y-75080145D01*
X74583515Y-75175383D01*
X74631134Y-75223002D01*
X74726372Y-75270621D01*
X74916849Y-75270621D01*
X75012087Y-75223002D01*
X75059706Y-75175383D01*
X75107325Y-75080145D01*
X75107325Y-74842050D01*
X75059706Y-74746811D01*
X75012087Y-74699192D01*
X74916849Y-74651573D01*
X74726372Y-74651573D01*
X74631134Y-74699192D01*
X74583515Y-74746811D01*
X74535896Y-74842050D01*
X110678221Y-36322237D02*
X110202030Y-36655571D01*
X110678221Y-36893666D02*
X109678221Y-36893666D01*
X109678221Y-36512713D01*
X109725840Y-36417475D01*
X109773459Y-36369856D01*
X109868697Y-36322237D01*
X110011554Y-36322237D01*
X110106792Y-36369856D01*
X110154411Y-36417475D01*
X110202030Y-36512713D01*
X110202030Y-36893666D01*
X110678221Y-35369856D02*
X110678221Y-35941285D01*
X110678221Y-35655571D02*
X109678221Y-35655571D01*
X109821078Y-35750809D01*
X109916316Y-35846047D01*
X109963935Y-35941285D01*
X109678221Y-35036523D02*
X109678221Y-34369856D01*
X110678221Y-34798428D01*
X69842143Y-46002201D02*
X69508809Y-45526010D01*
X69270714Y-46002201D02*
X69270714Y-45002201D01*
X69651667Y-45002201D01*
X69746905Y-45049820D01*
X69794524Y-45097439D01*
X69842143Y-45192677D01*
X69842143Y-45335534D01*
X69794524Y-45430772D01*
X69746905Y-45478391D01*
X69651667Y-45526010D01*
X69270714Y-45526010D01*
X70794524Y-46002201D02*
X70223095Y-46002201D01*
X70508809Y-46002201D02*
X70508809Y-45002201D01*
X70413571Y-45145058D01*
X70318333Y-45240296D01*
X70223095Y-45287915D01*
X71365952Y-45430772D02*
X71270714Y-45383153D01*
X71223095Y-45335534D01*
X71175476Y-45240296D01*
X71175476Y-45192677D01*
X71223095Y-45097439D01*
X71270714Y-45049820D01*
X71365952Y-45002201D01*
X71556429Y-45002201D01*
X71651667Y-45049820D01*
X71699286Y-45097439D01*
X71746905Y-45192677D01*
X71746905Y-45240296D01*
X71699286Y-45335534D01*
X71651667Y-45383153D01*
X71556429Y-45430772D01*
X71365952Y-45430772D01*
X71270714Y-45478391D01*
X71223095Y-45526010D01*
X71175476Y-45621249D01*
X71175476Y-45811725D01*
X71223095Y-45906963D01*
X71270714Y-45954582D01*
X71365952Y-46002201D01*
X71556429Y-46002201D01*
X71651667Y-45954582D01*
X71699286Y-45906963D01*
X71746905Y-45811725D01*
X71746905Y-45621249D01*
X71699286Y-45526010D01*
X71651667Y-45478391D01*
X71556429Y-45430772D01*
X108072181Y-64246997D02*
X107595990Y-64580331D01*
X108072181Y-64818426D02*
X107072181Y-64818426D01*
X107072181Y-64437473D01*
X107119800Y-64342235D01*
X107167419Y-64294616D01*
X107262657Y-64246997D01*
X107405514Y-64246997D01*
X107500752Y-64294616D01*
X107548371Y-64342235D01*
X107595990Y-64437473D01*
X107595990Y-64818426D01*
X108072181Y-63294616D02*
X108072181Y-63866045D01*
X108072181Y-63580331D02*
X107072181Y-63580331D01*
X107215038Y-63675569D01*
X107310276Y-63770807D01*
X107357895Y-63866045D01*
X108072181Y-62818426D02*
X108072181Y-62627950D01*
X108024562Y-62532711D01*
X107976943Y-62485092D01*
X107834086Y-62389854D01*
X107643610Y-62342235D01*
X107262657Y-62342235D01*
X107167419Y-62389854D01*
X107119800Y-62437473D01*
X107072181Y-62532711D01*
X107072181Y-62723188D01*
X107119800Y-62818426D01*
X107167419Y-62866045D01*
X107262657Y-62913664D01*
X107500752Y-62913664D01*
X107595990Y-62866045D01*
X107643610Y-62818426D01*
X107691229Y-62723188D01*
X107691229Y-62532711D01*
X107643610Y-62437473D01*
X107595990Y-62389854D01*
X107500752Y-62342235D01*
X69842143Y-73944741D02*
X69508809Y-73468550D01*
X69270714Y-73944741D02*
X69270714Y-72944741D01*
X69651667Y-72944741D01*
X69746905Y-72992360D01*
X69794524Y-73039979D01*
X69842143Y-73135217D01*
X69842143Y-73278074D01*
X69794524Y-73373312D01*
X69746905Y-73420931D01*
X69651667Y-73468550D01*
X69270714Y-73468550D01*
X70223095Y-73039979D02*
X70270714Y-72992360D01*
X70365952Y-72944741D01*
X70604048Y-72944741D01*
X70699286Y-72992360D01*
X70746905Y-73039979D01*
X70794524Y-73135217D01*
X70794524Y-73230455D01*
X70746905Y-73373312D01*
X70175476Y-73944741D01*
X70794524Y-73944741D01*
X71413571Y-72944741D02*
X71508810Y-72944741D01*
X71604048Y-72992360D01*
X71651667Y-73039979D01*
X71699286Y-73135217D01*
X71746905Y-73325693D01*
X71746905Y-73563789D01*
X71699286Y-73754265D01*
X71651667Y-73849503D01*
X71604048Y-73897122D01*
X71508810Y-73944741D01*
X71413571Y-73944741D01*
X71318333Y-73897122D01*
X71270714Y-73849503D01*
X71223095Y-73754265D01*
X71175476Y-73563789D01*
X71175476Y-73325693D01*
X71223095Y-73135217D01*
X71270714Y-73039979D01*
X71318333Y-72992360D01*
X71413571Y-72944741D01*
X90949543Y-46454321D02*
X90616209Y-45978130D01*
X90378114Y-46454321D02*
X90378114Y-45454321D01*
X90759067Y-45454321D01*
X90854305Y-45501940D01*
X90901924Y-45549559D01*
X90949543Y-45644797D01*
X90949543Y-45787654D01*
X90901924Y-45882892D01*
X90854305Y-45930511D01*
X90759067Y-45978130D01*
X90378114Y-45978130D01*
X91330495Y-45549559D02*
X91378114Y-45501940D01*
X91473352Y-45454321D01*
X91711448Y-45454321D01*
X91806686Y-45501940D01*
X91854305Y-45549559D01*
X91901924Y-45644797D01*
X91901924Y-45740035D01*
X91854305Y-45882892D01*
X91282876Y-46454321D01*
X91901924Y-46454321D01*
X92854305Y-46454321D02*
X92282876Y-46454321D01*
X92568590Y-46454321D02*
X92568590Y-45454321D01*
X92473352Y-45597178D01*
X92378114Y-45692416D01*
X92282876Y-45740035D01*
X90878423Y-58641241D02*
X90545089Y-58165050D01*
X90306994Y-58641241D02*
X90306994Y-57641241D01*
X90687947Y-57641241D01*
X90783185Y-57688860D01*
X90830804Y-57736479D01*
X90878423Y-57831717D01*
X90878423Y-57974574D01*
X90830804Y-58069812D01*
X90783185Y-58117431D01*
X90687947Y-58165050D01*
X90306994Y-58165050D01*
X91259375Y-57736479D02*
X91306994Y-57688860D01*
X91402232Y-57641241D01*
X91640328Y-57641241D01*
X91735566Y-57688860D01*
X91783185Y-57736479D01*
X91830804Y-57831717D01*
X91830804Y-57926955D01*
X91783185Y-58069812D01*
X91211756Y-58641241D01*
X91830804Y-58641241D01*
X92211756Y-57736479D02*
X92259375Y-57688860D01*
X92354613Y-57641241D01*
X92592709Y-57641241D01*
X92687947Y-57688860D01*
X92735566Y-57736479D01*
X92783185Y-57831717D01*
X92783185Y-57926955D01*
X92735566Y-58069812D01*
X92164137Y-58641241D01*
X92783185Y-58641241D01*
X86684883Y-49451521D02*
X86351549Y-48975330D01*
X86113454Y-49451521D02*
X86113454Y-48451521D01*
X86494407Y-48451521D01*
X86589645Y-48499140D01*
X86637264Y-48546759D01*
X86684883Y-48641997D01*
X86684883Y-48784854D01*
X86637264Y-48880092D01*
X86589645Y-48927711D01*
X86494407Y-48975330D01*
X86113454Y-48975330D01*
X87065835Y-48546759D02*
X87113454Y-48499140D01*
X87208692Y-48451521D01*
X87446788Y-48451521D01*
X87542026Y-48499140D01*
X87589645Y-48546759D01*
X87637264Y-48641997D01*
X87637264Y-48737235D01*
X87589645Y-48880092D01*
X87018216Y-49451521D01*
X87637264Y-49451521D01*
X87970597Y-48451521D02*
X88589645Y-48451521D01*
X88256311Y-48832473D01*
X88399169Y-48832473D01*
X88494407Y-48880092D01*
X88542026Y-48927711D01*
X88589645Y-49022950D01*
X88589645Y-49261045D01*
X88542026Y-49356283D01*
X88494407Y-49403902D01*
X88399169Y-49451521D01*
X88113454Y-49451521D01*
X88018216Y-49403902D01*
X87970597Y-49356283D01*
X86702663Y-58628541D02*
X86369329Y-58152350D01*
X86131234Y-58628541D02*
X86131234Y-57628541D01*
X86512187Y-57628541D01*
X86607425Y-57676160D01*
X86655044Y-57723779D01*
X86702663Y-57819017D01*
X86702663Y-57961874D01*
X86655044Y-58057112D01*
X86607425Y-58104731D01*
X86512187Y-58152350D01*
X86131234Y-58152350D01*
X87083615Y-57723779D02*
X87131234Y-57676160D01*
X87226472Y-57628541D01*
X87464568Y-57628541D01*
X87559806Y-57676160D01*
X87607425Y-57723779D01*
X87655044Y-57819017D01*
X87655044Y-57914255D01*
X87607425Y-58057112D01*
X87035996Y-58628541D01*
X87655044Y-58628541D01*
X88512187Y-57961874D02*
X88512187Y-58628541D01*
X88274091Y-57580922D02*
X88035996Y-58295208D01*
X88655044Y-58295208D01*
X116324483Y-36919861D02*
X115991149Y-36443670D01*
X115753054Y-36919861D02*
X115753054Y-35919861D01*
X116134007Y-35919861D01*
X116229245Y-35967480D01*
X116276864Y-36015099D01*
X116324483Y-36110337D01*
X116324483Y-36253194D01*
X116276864Y-36348432D01*
X116229245Y-36396051D01*
X116134007Y-36443670D01*
X115753054Y-36443670D01*
X116705435Y-36015099D02*
X116753054Y-35967480D01*
X116848292Y-35919861D01*
X117086388Y-35919861D01*
X117181626Y-35967480D01*
X117229245Y-36015099D01*
X117276864Y-36110337D01*
X117276864Y-36205575D01*
X117229245Y-36348432D01*
X116657816Y-36919861D01*
X117276864Y-36919861D01*
X118181626Y-35919861D02*
X117705435Y-35919861D01*
X117657816Y-36396051D01*
X117705435Y-36348432D01*
X117800673Y-36300813D01*
X118038769Y-36300813D01*
X118134007Y-36348432D01*
X118181626Y-36396051D01*
X118229245Y-36491290D01*
X118229245Y-36729385D01*
X118181626Y-36824623D01*
X118134007Y-36872242D01*
X118038769Y-36919861D01*
X117800673Y-36919861D01*
X117705435Y-36872242D01*
X117657816Y-36824623D01*
X116296203Y-64937901D02*
X115962869Y-64461710D01*
X115724774Y-64937901D02*
X115724774Y-63937901D01*
X116105727Y-63937901D01*
X116200965Y-63985520D01*
X116248584Y-64033139D01*
X116296203Y-64128377D01*
X116296203Y-64271234D01*
X116248584Y-64366472D01*
X116200965Y-64414091D01*
X116105727Y-64461710D01*
X115724774Y-64461710D01*
X116677155Y-64033139D02*
X116724774Y-63985520D01*
X116820012Y-63937901D01*
X117058108Y-63937901D01*
X117153346Y-63985520D01*
X117200965Y-64033139D01*
X117248584Y-64128377D01*
X117248584Y-64223615D01*
X117200965Y-64366472D01*
X116629536Y-64937901D01*
X117248584Y-64937901D01*
X118105727Y-63937901D02*
X117915250Y-63937901D01*
X117820012Y-63985520D01*
X117772393Y-64033139D01*
X117677155Y-64175996D01*
X117629536Y-64366472D01*
X117629536Y-64747425D01*
X117677155Y-64842663D01*
X117724774Y-64890282D01*
X117820012Y-64937901D01*
X118010489Y-64937901D01*
X118105727Y-64890282D01*
X118153346Y-64842663D01*
X118200965Y-64747425D01*
X118200965Y-64509330D01*
X118153346Y-64414091D01*
X118105727Y-64366472D01*
X118010489Y-64318853D01*
X117820012Y-64318853D01*
X117724774Y-64366472D01*
X117677155Y-64414091D01*
X117629536Y-64509330D01*
X115113061Y-57195957D02*
X114636870Y-57529291D01*
X115113061Y-57767386D02*
X114113061Y-57767386D01*
X114113061Y-57386433D01*
X114160680Y-57291195D01*
X114208299Y-57243576D01*
X114303537Y-57195957D01*
X114446394Y-57195957D01*
X114541632Y-57243576D01*
X114589251Y-57291195D01*
X114636870Y-57386433D01*
X114636870Y-57767386D01*
X114208299Y-56815005D02*
X114160680Y-56767386D01*
X114113061Y-56672148D01*
X114113061Y-56434052D01*
X114160680Y-56338814D01*
X114208299Y-56291195D01*
X114303537Y-56243576D01*
X114398775Y-56243576D01*
X114541632Y-56291195D01*
X115113061Y-56862624D01*
X115113061Y-56243576D01*
X114113061Y-55910243D02*
X114113061Y-55243576D01*
X115113061Y-55672148D01*
X113454441Y-57193417D02*
X112978250Y-57526751D01*
X113454441Y-57764846D02*
X112454441Y-57764846D01*
X112454441Y-57383893D01*
X112502060Y-57288655D01*
X112549679Y-57241036D01*
X112644917Y-57193417D01*
X112787774Y-57193417D01*
X112883012Y-57241036D01*
X112930631Y-57288655D01*
X112978250Y-57383893D01*
X112978250Y-57764846D01*
X112549679Y-56812465D02*
X112502060Y-56764846D01*
X112454441Y-56669608D01*
X112454441Y-56431512D01*
X112502060Y-56336274D01*
X112549679Y-56288655D01*
X112644917Y-56241036D01*
X112740155Y-56241036D01*
X112883012Y-56288655D01*
X113454441Y-56860084D01*
X113454441Y-56241036D01*
X112883012Y-55669608D02*
X112835393Y-55764846D01*
X112787774Y-55812465D01*
X112692536Y-55860084D01*
X112644917Y-55860084D01*
X112549679Y-55812465D01*
X112502060Y-55764846D01*
X112454441Y-55669608D01*
X112454441Y-55479131D01*
X112502060Y-55383893D01*
X112549679Y-55336274D01*
X112644917Y-55288655D01*
X112692536Y-55288655D01*
X112787774Y-55336274D01*
X112835393Y-55383893D01*
X112883012Y-55479131D01*
X112883012Y-55669608D01*
X112930631Y-55764846D01*
X112978250Y-55812465D01*
X113073489Y-55860084D01*
X113263965Y-55860084D01*
X113359203Y-55812465D01*
X113406822Y-55764846D01*
X113454441Y-55669608D01*
X113454441Y-55479131D01*
X113406822Y-55383893D01*
X113359203Y-55336274D01*
X113263965Y-55288655D01*
X113073489Y-55288655D01*
X112978250Y-55336274D01*
X112930631Y-55383893D01*
X112883012Y-55479131D01*
X87990941Y-51656217D02*
X87514750Y-51989551D01*
X87990941Y-52227646D02*
X86990941Y-52227646D01*
X86990941Y-51846693D01*
X87038560Y-51751455D01*
X87086179Y-51703836D01*
X87181417Y-51656217D01*
X87324274Y-51656217D01*
X87419512Y-51703836D01*
X87467131Y-51751455D01*
X87514750Y-51846693D01*
X87514750Y-52227646D01*
X87086179Y-51275265D02*
X87038560Y-51227646D01*
X86990941Y-51132408D01*
X86990941Y-50894312D01*
X87038560Y-50799074D01*
X87086179Y-50751455D01*
X87181417Y-50703836D01*
X87276655Y-50703836D01*
X87419512Y-50751455D01*
X87990941Y-51322884D01*
X87990941Y-50703836D01*
X87990941Y-50227646D02*
X87990941Y-50037170D01*
X87943322Y-49941931D01*
X87895703Y-49894312D01*
X87752846Y-49799074D01*
X87562370Y-49751455D01*
X87181417Y-49751455D01*
X87086179Y-49799074D01*
X87038560Y-49846693D01*
X86990941Y-49941931D01*
X86990941Y-50132408D01*
X87038560Y-50227646D01*
X87086179Y-50275265D01*
X87181417Y-50322884D01*
X87419512Y-50322884D01*
X87514750Y-50275265D01*
X87562370Y-50227646D01*
X87609989Y-50132408D01*
X87609989Y-49941931D01*
X87562370Y-49846693D01*
X87514750Y-49799074D01*
X87419512Y-49751455D01*
X58701703Y-57053741D02*
X58368369Y-56577550D01*
X58130274Y-57053741D02*
X58130274Y-56053741D01*
X58511227Y-56053741D01*
X58606465Y-56101360D01*
X58654084Y-56148979D01*
X58701703Y-56244217D01*
X58701703Y-56387074D01*
X58654084Y-56482312D01*
X58606465Y-56529931D01*
X58511227Y-56577550D01*
X58130274Y-56577550D01*
X59035036Y-56053741D02*
X59654084Y-56053741D01*
X59320750Y-56434693D01*
X59463608Y-56434693D01*
X59558846Y-56482312D01*
X59606465Y-56529931D01*
X59654084Y-56625170D01*
X59654084Y-56863265D01*
X59606465Y-56958503D01*
X59558846Y-57006122D01*
X59463608Y-57053741D01*
X59177893Y-57053741D01*
X59082655Y-57006122D01*
X59035036Y-56958503D01*
X60273131Y-56053741D02*
X60368370Y-56053741D01*
X60463608Y-56101360D01*
X60511227Y-56148979D01*
X60558846Y-56244217D01*
X60606465Y-56434693D01*
X60606465Y-56672789D01*
X60558846Y-56863265D01*
X60511227Y-56958503D01*
X60463608Y-57006122D01*
X60368370Y-57053741D01*
X60273131Y-57053741D01*
X60177893Y-57006122D01*
X60130274Y-56958503D01*
X60082655Y-56863265D01*
X60035036Y-56672789D01*
X60035036Y-56434693D01*
X60082655Y-56244217D01*
X60130274Y-56148979D01*
X60177893Y-56101360D01*
X60273131Y-56053741D01*
X112847381Y-47706517D02*
X112371190Y-48039851D01*
X112847381Y-48277946D02*
X111847381Y-48277946D01*
X111847381Y-47896993D01*
X111895000Y-47801755D01*
X111942619Y-47754136D01*
X112037857Y-47706517D01*
X112180714Y-47706517D01*
X112275952Y-47754136D01*
X112323571Y-47801755D01*
X112371190Y-47896993D01*
X112371190Y-48277946D01*
X111847381Y-47373184D02*
X111847381Y-46754136D01*
X112228333Y-47087470D01*
X112228333Y-46944612D01*
X112275952Y-46849374D01*
X112323571Y-46801755D01*
X112418810Y-46754136D01*
X112656905Y-46754136D01*
X112752143Y-46801755D01*
X112799762Y-46849374D01*
X112847381Y-46944612D01*
X112847381Y-47230327D01*
X112799762Y-47325565D01*
X112752143Y-47373184D01*
X112847381Y-45801755D02*
X112847381Y-46373184D01*
X112847381Y-46087470D02*
X111847381Y-46087470D01*
X111990238Y-46182708D01*
X112085476Y-46277946D01*
X112133095Y-46373184D01*
X65221883Y-42908481D02*
X64888549Y-42432290D01*
X64650454Y-42908481D02*
X64650454Y-41908481D01*
X65031407Y-41908481D01*
X65126645Y-41956100D01*
X65174264Y-42003719D01*
X65221883Y-42098957D01*
X65221883Y-42241814D01*
X65174264Y-42337052D01*
X65126645Y-42384671D01*
X65031407Y-42432290D01*
X64650454Y-42432290D01*
X65555216Y-41908481D02*
X66174264Y-41908481D01*
X65840930Y-42289433D01*
X65983788Y-42289433D01*
X66079026Y-42337052D01*
X66126645Y-42384671D01*
X66174264Y-42479910D01*
X66174264Y-42718005D01*
X66126645Y-42813243D01*
X66079026Y-42860862D01*
X65983788Y-42908481D01*
X65698073Y-42908481D01*
X65602835Y-42860862D01*
X65555216Y-42813243D01*
X66555216Y-42003719D02*
X66602835Y-41956100D01*
X66698073Y-41908481D01*
X66936169Y-41908481D01*
X67031407Y-41956100D01*
X67079026Y-42003719D01*
X67126645Y-42098957D01*
X67126645Y-42194195D01*
X67079026Y-42337052D01*
X66507597Y-42908481D01*
X67126645Y-42908481D01*
X62495763Y-42905941D02*
X62162429Y-42429750D01*
X61924334Y-42905941D02*
X61924334Y-41905941D01*
X62305287Y-41905941D01*
X62400525Y-41953560D01*
X62448144Y-42001179D01*
X62495763Y-42096417D01*
X62495763Y-42239274D01*
X62448144Y-42334512D01*
X62400525Y-42382131D01*
X62305287Y-42429750D01*
X61924334Y-42429750D01*
X62829096Y-41905941D02*
X63448144Y-41905941D01*
X63114810Y-42286893D01*
X63257668Y-42286893D01*
X63352906Y-42334512D01*
X63400525Y-42382131D01*
X63448144Y-42477370D01*
X63448144Y-42715465D01*
X63400525Y-42810703D01*
X63352906Y-42858322D01*
X63257668Y-42905941D01*
X62971953Y-42905941D01*
X62876715Y-42858322D01*
X62829096Y-42810703D01*
X63781477Y-41905941D02*
X64400525Y-41905941D01*
X64067191Y-42286893D01*
X64210049Y-42286893D01*
X64305287Y-42334512D01*
X64352906Y-42382131D01*
X64400525Y-42477370D01*
X64400525Y-42715465D01*
X64352906Y-42810703D01*
X64305287Y-42858322D01*
X64210049Y-42905941D01*
X63924334Y-42905941D01*
X63829096Y-42858322D01*
X63781477Y-42810703D01*
X65199023Y-70853561D02*
X64865689Y-70377370D01*
X64627594Y-70853561D02*
X64627594Y-69853561D01*
X65008547Y-69853561D01*
X65103785Y-69901180D01*
X65151404Y-69948799D01*
X65199023Y-70044037D01*
X65199023Y-70186894D01*
X65151404Y-70282132D01*
X65103785Y-70329751D01*
X65008547Y-70377370D01*
X64627594Y-70377370D01*
X65532356Y-69853561D02*
X66151404Y-69853561D01*
X65818070Y-70234513D01*
X65960928Y-70234513D01*
X66056166Y-70282132D01*
X66103785Y-70329751D01*
X66151404Y-70424990D01*
X66151404Y-70663085D01*
X66103785Y-70758323D01*
X66056166Y-70805942D01*
X65960928Y-70853561D01*
X65675213Y-70853561D01*
X65579975Y-70805942D01*
X65532356Y-70758323D01*
X67008547Y-70186894D02*
X67008547Y-70853561D01*
X66770451Y-69805942D02*
X66532356Y-70520228D01*
X67151404Y-70520228D01*
X62493223Y-70851021D02*
X62159889Y-70374830D01*
X61921794Y-70851021D02*
X61921794Y-69851021D01*
X62302747Y-69851021D01*
X62397985Y-69898640D01*
X62445604Y-69946259D01*
X62493223Y-70041497D01*
X62493223Y-70184354D01*
X62445604Y-70279592D01*
X62397985Y-70327211D01*
X62302747Y-70374830D01*
X61921794Y-70374830D01*
X62826556Y-69851021D02*
X63445604Y-69851021D01*
X63112270Y-70231973D01*
X63255128Y-70231973D01*
X63350366Y-70279592D01*
X63397985Y-70327211D01*
X63445604Y-70422450D01*
X63445604Y-70660545D01*
X63397985Y-70755783D01*
X63350366Y-70803402D01*
X63255128Y-70851021D01*
X62969413Y-70851021D01*
X62874175Y-70803402D01*
X62826556Y-70755783D01*
X64350366Y-69851021D02*
X63874175Y-69851021D01*
X63826556Y-70327211D01*
X63874175Y-70279592D01*
X63969413Y-70231973D01*
X64207509Y-70231973D01*
X64302747Y-70279592D01*
X64350366Y-70327211D01*
X64397985Y-70422450D01*
X64397985Y-70660545D01*
X64350366Y-70755783D01*
X64302747Y-70803402D01*
X64207509Y-70851021D01*
X63969413Y-70851021D01*
X63874175Y-70803402D01*
X63826556Y-70755783D01*
X152082263Y-79149201D02*
X151748929Y-78673010D01*
X151510834Y-79149201D02*
X151510834Y-78149201D01*
X151891787Y-78149201D01*
X151987025Y-78196820D01*
X152034644Y-78244439D01*
X152082263Y-78339677D01*
X152082263Y-78482534D01*
X152034644Y-78577772D01*
X151987025Y-78625391D01*
X151891787Y-78673010D01*
X151510834Y-78673010D01*
X152415596Y-78149201D02*
X153034644Y-78149201D01*
X152701310Y-78530153D01*
X152844168Y-78530153D01*
X152939406Y-78577772D01*
X152987025Y-78625391D01*
X153034644Y-78720630D01*
X153034644Y-78958725D01*
X152987025Y-79053963D01*
X152939406Y-79101582D01*
X152844168Y-79149201D01*
X152558453Y-79149201D01*
X152463215Y-79101582D01*
X152415596Y-79053963D01*
X153891787Y-78149201D02*
X153701310Y-78149201D01*
X153606072Y-78196820D01*
X153558453Y-78244439D01*
X153463215Y-78387296D01*
X153415596Y-78577772D01*
X153415596Y-78958725D01*
X153463215Y-79053963D01*
X153510834Y-79101582D01*
X153606072Y-79149201D01*
X153796549Y-79149201D01*
X153891787Y-79101582D01*
X153939406Y-79053963D01*
X153987025Y-78958725D01*
X153987025Y-78720630D01*
X153939406Y-78625391D01*
X153891787Y-78577772D01*
X153796549Y-78530153D01*
X153606072Y-78530153D01*
X153510834Y-78577772D01*
X153463215Y-78625391D01*
X153415596Y-78720630D01*
X154302223Y-83713581D02*
X153968889Y-83237390D01*
X153730794Y-83713581D02*
X153730794Y-82713581D01*
X154111747Y-82713581D01*
X154206985Y-82761200D01*
X154254604Y-82808819D01*
X154302223Y-82904057D01*
X154302223Y-83046914D01*
X154254604Y-83142152D01*
X154206985Y-83189771D01*
X154111747Y-83237390D01*
X153730794Y-83237390D01*
X154635556Y-82713581D02*
X155254604Y-82713581D01*
X154921270Y-83094533D01*
X155064128Y-83094533D01*
X155159366Y-83142152D01*
X155206985Y-83189771D01*
X155254604Y-83285010D01*
X155254604Y-83523105D01*
X155206985Y-83618343D01*
X155159366Y-83665962D01*
X155064128Y-83713581D01*
X154778413Y-83713581D01*
X154683175Y-83665962D01*
X154635556Y-83618343D01*
X155587937Y-82713581D02*
X156254604Y-82713581D01*
X155826032Y-83713581D01*
X156611083Y-79149201D02*
X156277749Y-78673010D01*
X156039654Y-79149201D02*
X156039654Y-78149201D01*
X156420607Y-78149201D01*
X156515845Y-78196820D01*
X156563464Y-78244439D01*
X156611083Y-78339677D01*
X156611083Y-78482534D01*
X156563464Y-78577772D01*
X156515845Y-78625391D01*
X156420607Y-78673010D01*
X156039654Y-78673010D01*
X156944416Y-78149201D02*
X157563464Y-78149201D01*
X157230130Y-78530153D01*
X157372988Y-78530153D01*
X157468226Y-78577772D01*
X157515845Y-78625391D01*
X157563464Y-78720630D01*
X157563464Y-78958725D01*
X157515845Y-79053963D01*
X157468226Y-79101582D01*
X157372988Y-79149201D01*
X157087273Y-79149201D01*
X156992035Y-79101582D01*
X156944416Y-79053963D01*
X158134892Y-78577772D02*
X158039654Y-78530153D01*
X157992035Y-78482534D01*
X157944416Y-78387296D01*
X157944416Y-78339677D01*
X157992035Y-78244439D01*
X158039654Y-78196820D01*
X158134892Y-78149201D01*
X158325369Y-78149201D01*
X158420607Y-78196820D01*
X158468226Y-78244439D01*
X158515845Y-78339677D01*
X158515845Y-78387296D01*
X158468226Y-78482534D01*
X158420607Y-78530153D01*
X158325369Y-78577772D01*
X158134892Y-78577772D01*
X158039654Y-78625391D01*
X157992035Y-78673010D01*
X157944416Y-78768249D01*
X157944416Y-78958725D01*
X157992035Y-79053963D01*
X158039654Y-79101582D01*
X158134892Y-79149201D01*
X158325369Y-79149201D01*
X158420607Y-79101582D01*
X158468226Y-79053963D01*
X158515845Y-78958725D01*
X158515845Y-78768249D01*
X158468226Y-78673010D01*
X158420607Y-78625391D01*
X158325369Y-78577772D01*
X158726903Y-83769461D02*
X158393569Y-83293270D01*
X158155474Y-83769461D02*
X158155474Y-82769461D01*
X158536427Y-82769461D01*
X158631665Y-82817080D01*
X158679284Y-82864699D01*
X158726903Y-82959937D01*
X158726903Y-83102794D01*
X158679284Y-83198032D01*
X158631665Y-83245651D01*
X158536427Y-83293270D01*
X158155474Y-83293270D01*
X159060236Y-82769461D02*
X159679284Y-82769461D01*
X159345950Y-83150413D01*
X159488808Y-83150413D01*
X159584046Y-83198032D01*
X159631665Y-83245651D01*
X159679284Y-83340890D01*
X159679284Y-83578985D01*
X159631665Y-83674223D01*
X159584046Y-83721842D01*
X159488808Y-83769461D01*
X159203093Y-83769461D01*
X159107855Y-83721842D01*
X159060236Y-83674223D01*
X160155474Y-83769461D02*
X160345950Y-83769461D01*
X160441189Y-83721842D01*
X160488808Y-83674223D01*
X160584046Y-83531366D01*
X160631665Y-83340890D01*
X160631665Y-82959937D01*
X160584046Y-82864699D01*
X160536427Y-82817080D01*
X160441189Y-82769461D01*
X160250712Y-82769461D01*
X160155474Y-82817080D01*
X160107855Y-82864699D01*
X160060236Y-82959937D01*
X160060236Y-83198032D01*
X160107855Y-83293270D01*
X160155474Y-83340890D01*
X160250712Y-83388509D01*
X160441189Y-83388509D01*
X160536427Y-83340890D01*
X160584046Y-83293270D01*
X160631665Y-83198032D01*
X103497143Y-84711881D02*
X103163809Y-84235690D01*
X102925714Y-84711881D02*
X102925714Y-83711881D01*
X103306667Y-83711881D01*
X103401905Y-83759500D01*
X103449524Y-83807119D01*
X103497143Y-83902357D01*
X103497143Y-84045214D01*
X103449524Y-84140452D01*
X103401905Y-84188071D01*
X103306667Y-84235690D01*
X102925714Y-84235690D01*
X104354286Y-84045214D02*
X104354286Y-84711881D01*
X104116190Y-83664262D02*
X103878095Y-84378548D01*
X104497143Y-84378548D01*
X104830476Y-83807119D02*
X104878095Y-83759500D01*
X104973333Y-83711881D01*
X105211429Y-83711881D01*
X105306667Y-83759500D01*
X105354286Y-83807119D01*
X105401905Y-83902357D01*
X105401905Y-83997595D01*
X105354286Y-84140452D01*
X104782857Y-84711881D01*
X105401905Y-84711881D01*
X103497143Y-79146581D02*
X103163809Y-78670390D01*
X102925714Y-79146581D02*
X102925714Y-78146581D01*
X103306667Y-78146581D01*
X103401905Y-78194200D01*
X103449524Y-78241819D01*
X103497143Y-78337057D01*
X103497143Y-78479914D01*
X103449524Y-78575152D01*
X103401905Y-78622771D01*
X103306667Y-78670390D01*
X102925714Y-78670390D01*
X104354286Y-78479914D02*
X104354286Y-79146581D01*
X104116190Y-78098962D02*
X103878095Y-78813248D01*
X104497143Y-78813248D01*
X104782857Y-78146581D02*
X105401905Y-78146581D01*
X105068571Y-78527533D01*
X105211429Y-78527533D01*
X105306667Y-78575152D01*
X105354286Y-78622771D01*
X105401905Y-78718010D01*
X105401905Y-78956105D01*
X105354286Y-79051343D01*
X105306667Y-79098962D01*
X105211429Y-79146581D01*
X104925714Y-79146581D01*
X104830476Y-79098962D01*
X104782857Y-79051343D01*
X104048323Y-104551741D02*
X103714989Y-104075550D01*
X103476894Y-104551741D02*
X103476894Y-103551741D01*
X103857847Y-103551741D01*
X103953085Y-103599360D01*
X104000704Y-103646979D01*
X104048323Y-103742217D01*
X104048323Y-103885074D01*
X104000704Y-103980312D01*
X103953085Y-104027931D01*
X103857847Y-104075550D01*
X103476894Y-104075550D01*
X104905466Y-103885074D02*
X104905466Y-104551741D01*
X104667370Y-103504122D02*
X104429275Y-104218408D01*
X105048323Y-104218408D01*
X105857847Y-103885074D02*
X105857847Y-104551741D01*
X105619751Y-103504122D02*
X105381656Y-104218408D01*
X106000704Y-104218408D01*
X104061023Y-103304601D02*
X103727689Y-102828410D01*
X103489594Y-103304601D02*
X103489594Y-102304601D01*
X103870547Y-102304601D01*
X103965785Y-102352220D01*
X104013404Y-102399839D01*
X104061023Y-102495077D01*
X104061023Y-102637934D01*
X104013404Y-102733172D01*
X103965785Y-102780791D01*
X103870547Y-102828410D01*
X103489594Y-102828410D01*
X104918166Y-102637934D02*
X104918166Y-103304601D01*
X104680070Y-102256982D02*
X104441975Y-102971268D01*
X105061023Y-102971268D01*
X105918166Y-102304601D02*
X105441975Y-102304601D01*
X105394356Y-102780791D01*
X105441975Y-102733172D01*
X105537213Y-102685553D01*
X105775309Y-102685553D01*
X105870547Y-102733172D01*
X105918166Y-102780791D01*
X105965785Y-102876030D01*
X105965785Y-103114125D01*
X105918166Y-103209363D01*
X105870547Y-103256982D01*
X105775309Y-103304601D01*
X105537213Y-103304601D01*
X105441975Y-103256982D01*
X105394356Y-103209363D01*
X122905781Y-48915557D02*
X122429590Y-49248891D01*
X122905781Y-49486986D02*
X121905781Y-49486986D01*
X121905781Y-49106033D01*
X121953400Y-49010795D01*
X122001019Y-48963176D01*
X122096257Y-48915557D01*
X122239114Y-48915557D01*
X122334352Y-48963176D01*
X122381971Y-49010795D01*
X122429590Y-49106033D01*
X122429590Y-49486986D01*
X122239114Y-48058414D02*
X122905781Y-48058414D01*
X121858162Y-48296510D02*
X122572448Y-48534605D01*
X122572448Y-47915557D01*
X121905781Y-47106033D02*
X121905781Y-47296510D01*
X121953400Y-47391748D01*
X122001019Y-47439367D01*
X122143876Y-47534605D01*
X122334352Y-47582224D01*
X122715305Y-47582224D01*
X122810543Y-47534605D01*
X122858162Y-47486986D01*
X122905781Y-47391748D01*
X122905781Y-47201271D01*
X122858162Y-47106033D01*
X122810543Y-47058414D01*
X122715305Y-47010795D01*
X122477210Y-47010795D01*
X122381971Y-47058414D01*
X122334352Y-47106033D01*
X122286733Y-47201271D01*
X122286733Y-47391748D01*
X122334352Y-47486986D01*
X122381971Y-47534605D01*
X122477210Y-47582224D01*
X127589541Y-50477657D02*
X127113350Y-50810991D01*
X127589541Y-51049086D02*
X126589541Y-51049086D01*
X126589541Y-50668133D01*
X126637160Y-50572895D01*
X126684779Y-50525276D01*
X126780017Y-50477657D01*
X126922874Y-50477657D01*
X127018112Y-50525276D01*
X127065731Y-50572895D01*
X127113350Y-50668133D01*
X127113350Y-51049086D01*
X126922874Y-49620514D02*
X127589541Y-49620514D01*
X126541922Y-49858610D02*
X127256208Y-50096705D01*
X127256208Y-49477657D01*
X126589541Y-49191943D02*
X126589541Y-48525276D01*
X127589541Y-48953848D01*
X124373901Y-54691517D02*
X123897710Y-55024851D01*
X124373901Y-55262946D02*
X123373901Y-55262946D01*
X123373901Y-54881993D01*
X123421520Y-54786755D01*
X123469139Y-54739136D01*
X123564377Y-54691517D01*
X123707234Y-54691517D01*
X123802472Y-54739136D01*
X123850091Y-54786755D01*
X123897710Y-54881993D01*
X123897710Y-55262946D01*
X123707234Y-53834374D02*
X124373901Y-53834374D01*
X123326282Y-54072470D02*
X124040568Y-54310565D01*
X124040568Y-53691517D01*
X123802472Y-53167708D02*
X123754853Y-53262946D01*
X123707234Y-53310565D01*
X123611996Y-53358184D01*
X123564377Y-53358184D01*
X123469139Y-53310565D01*
X123421520Y-53262946D01*
X123373901Y-53167708D01*
X123373901Y-52977231D01*
X123421520Y-52881993D01*
X123469139Y-52834374D01*
X123564377Y-52786755D01*
X123611996Y-52786755D01*
X123707234Y-52834374D01*
X123754853Y-52881993D01*
X123802472Y-52977231D01*
X123802472Y-53167708D01*
X123850091Y-53262946D01*
X123897710Y-53310565D01*
X123992949Y-53358184D01*
X124183425Y-53358184D01*
X124278663Y-53310565D01*
X124326282Y-53262946D01*
X124373901Y-53167708D01*
X124373901Y-52977231D01*
X124326282Y-52881993D01*
X124278663Y-52834374D01*
X124183425Y-52786755D01*
X123992949Y-52786755D01*
X123897710Y-52834374D01*
X123850091Y-52881993D01*
X123802472Y-52977231D01*
X127559061Y-47432197D02*
X127082870Y-47765531D01*
X127559061Y-48003626D02*
X126559061Y-48003626D01*
X126559061Y-47622673D01*
X126606680Y-47527435D01*
X126654299Y-47479816D01*
X126749537Y-47432197D01*
X126892394Y-47432197D01*
X126987632Y-47479816D01*
X127035251Y-47527435D01*
X127082870Y-47622673D01*
X127082870Y-48003626D01*
X126892394Y-46575054D02*
X127559061Y-46575054D01*
X126511442Y-46813150D02*
X127225728Y-47051245D01*
X127225728Y-46432197D01*
X127559061Y-46003626D02*
X127559061Y-45813150D01*
X127511442Y-45717911D01*
X127463823Y-45670292D01*
X127320966Y-45575054D01*
X127130490Y-45527435D01*
X126749537Y-45527435D01*
X126654299Y-45575054D01*
X126606680Y-45622673D01*
X126559061Y-45717911D01*
X126559061Y-45908388D01*
X126606680Y-46003626D01*
X126654299Y-46051245D01*
X126749537Y-46098864D01*
X126987632Y-46098864D01*
X127082870Y-46051245D01*
X127130490Y-46003626D01*
X127178109Y-45908388D01*
X127178109Y-45717911D01*
X127130490Y-45622673D01*
X127082870Y-45575054D01*
X126987632Y-45527435D01*
X124396761Y-43223417D02*
X123920570Y-43556751D01*
X124396761Y-43794846D02*
X123396761Y-43794846D01*
X123396761Y-43413893D01*
X123444380Y-43318655D01*
X123491999Y-43271036D01*
X123587237Y-43223417D01*
X123730094Y-43223417D01*
X123825332Y-43271036D01*
X123872951Y-43318655D01*
X123920570Y-43413893D01*
X123920570Y-43794846D01*
X123396761Y-42318655D02*
X123396761Y-42794846D01*
X123872951Y-42842465D01*
X123825332Y-42794846D01*
X123777713Y-42699608D01*
X123777713Y-42461512D01*
X123825332Y-42366274D01*
X123872951Y-42318655D01*
X123968190Y-42271036D01*
X124206285Y-42271036D01*
X124301523Y-42318655D01*
X124349142Y-42366274D01*
X124396761Y-42461512D01*
X124396761Y-42699608D01*
X124349142Y-42794846D01*
X124301523Y-42842465D01*
X123396761Y-41651989D02*
X123396761Y-41556750D01*
X123444380Y-41461512D01*
X123491999Y-41413893D01*
X123587237Y-41366274D01*
X123777713Y-41318655D01*
X124015809Y-41318655D01*
X124206285Y-41366274D01*
X124301523Y-41413893D01*
X124349142Y-41461512D01*
X124396761Y-41556750D01*
X124396761Y-41651989D01*
X124349142Y-41747227D01*
X124301523Y-41794846D01*
X124206285Y-41842465D01*
X124015809Y-41890084D01*
X123777713Y-41890084D01*
X123587237Y-41842465D01*
X123491999Y-41794846D01*
X123444380Y-41747227D01*
X123396761Y-41651989D01*
X127559061Y-44462937D02*
X127082870Y-44796271D01*
X127559061Y-45034366D02*
X126559061Y-45034366D01*
X126559061Y-44653413D01*
X126606680Y-44558175D01*
X126654299Y-44510556D01*
X126749537Y-44462937D01*
X126892394Y-44462937D01*
X126987632Y-44510556D01*
X127035251Y-44558175D01*
X127082870Y-44653413D01*
X127082870Y-45034366D01*
X126559061Y-43558175D02*
X126559061Y-44034366D01*
X127035251Y-44081985D01*
X126987632Y-44034366D01*
X126940013Y-43939128D01*
X126940013Y-43701032D01*
X126987632Y-43605794D01*
X127035251Y-43558175D01*
X127130490Y-43510556D01*
X127368585Y-43510556D01*
X127463823Y-43558175D01*
X127511442Y-43605794D01*
X127559061Y-43701032D01*
X127559061Y-43939128D01*
X127511442Y-44034366D01*
X127463823Y-44081985D01*
X127559061Y-42558175D02*
X127559061Y-43129604D01*
X127559061Y-42843890D02*
X126559061Y-42843890D01*
X126701918Y-42939128D01*
X126797156Y-43034366D01*
X126844775Y-43129604D01*
X119766341Y-87510857D02*
X119290150Y-87844191D01*
X119766341Y-88082286D02*
X118766341Y-88082286D01*
X118766341Y-87701333D01*
X118813960Y-87606095D01*
X118861579Y-87558476D01*
X118956817Y-87510857D01*
X119099674Y-87510857D01*
X119194912Y-87558476D01*
X119242531Y-87606095D01*
X119290150Y-87701333D01*
X119290150Y-88082286D01*
X118766341Y-86606095D02*
X118766341Y-87082286D01*
X119242531Y-87129905D01*
X119194912Y-87082286D01*
X119147293Y-86987048D01*
X119147293Y-86748952D01*
X119194912Y-86653714D01*
X119242531Y-86606095D01*
X119337770Y-86558476D01*
X119575865Y-86558476D01*
X119671103Y-86606095D01*
X119718722Y-86653714D01*
X119766341Y-86748952D01*
X119766341Y-86987048D01*
X119718722Y-87082286D01*
X119671103Y-87129905D01*
X118861579Y-86177524D02*
X118813960Y-86129905D01*
X118766341Y-86034667D01*
X118766341Y-85796571D01*
X118813960Y-85701333D01*
X118861579Y-85653714D01*
X118956817Y-85606095D01*
X119052055Y-85606095D01*
X119194912Y-85653714D01*
X119766341Y-86225143D01*
X119766341Y-85606095D01*
X118188503Y-78963781D02*
X117855169Y-78487590D01*
X117617074Y-78963781D02*
X117617074Y-77963781D01*
X117998027Y-77963781D01*
X118093265Y-78011400D01*
X118140884Y-78059019D01*
X118188503Y-78154257D01*
X118188503Y-78297114D01*
X118140884Y-78392352D01*
X118093265Y-78439971D01*
X117998027Y-78487590D01*
X117617074Y-78487590D01*
X119093265Y-77963781D02*
X118617074Y-77963781D01*
X118569455Y-78439971D01*
X118617074Y-78392352D01*
X118712312Y-78344733D01*
X118950408Y-78344733D01*
X119045646Y-78392352D01*
X119093265Y-78439971D01*
X119140884Y-78535210D01*
X119140884Y-78773305D01*
X119093265Y-78868543D01*
X119045646Y-78916162D01*
X118950408Y-78963781D01*
X118712312Y-78963781D01*
X118617074Y-78916162D01*
X118569455Y-78868543D01*
X119474217Y-77963781D02*
X120093265Y-77963781D01*
X119759931Y-78344733D01*
X119902789Y-78344733D01*
X119998027Y-78392352D01*
X120045646Y-78439971D01*
X120093265Y-78535210D01*
X120093265Y-78773305D01*
X120045646Y-78868543D01*
X119998027Y-78916162D01*
X119902789Y-78963781D01*
X119617074Y-78963781D01*
X119521836Y-78916162D01*
X119474217Y-78868543D01*
X71079455Y-66678561D02*
X71079455Y-67488085D01*
X71127074Y-67583323D01*
X71174693Y-67630942D01*
X71269931Y-67678561D01*
X71460408Y-67678561D01*
X71555646Y-67630942D01*
X71603265Y-67583323D01*
X71650884Y-67488085D01*
X71650884Y-66678561D01*
X72603265Y-66678561D02*
X72127074Y-66678561D01*
X72079455Y-67154751D01*
X72127074Y-67107132D01*
X72222312Y-67059513D01*
X72460408Y-67059513D01*
X72555646Y-67107132D01*
X72603265Y-67154751D01*
X72650884Y-67249990D01*
X72650884Y-67488085D01*
X72603265Y-67583323D01*
X72555646Y-67630942D01*
X72460408Y-67678561D01*
X72222312Y-67678561D01*
X72127074Y-67630942D01*
X72079455Y-67583323D01*
X82413741Y-38861905D02*
X83223265Y-38861905D01*
X83318503Y-38814286D01*
X83366122Y-38766667D01*
X83413741Y-38671429D01*
X83413741Y-38480952D01*
X83366122Y-38385714D01*
X83318503Y-38338095D01*
X83223265Y-38290476D01*
X82413741Y-38290476D01*
X82413741Y-37909524D02*
X82413741Y-37242857D01*
X83413741Y-37671429D01*
X82413741Y-66801905D02*
X83223265Y-66801905D01*
X83318503Y-66754286D01*
X83366122Y-66706667D01*
X83413741Y-66611429D01*
X83413741Y-66420952D01*
X83366122Y-66325714D01*
X83318503Y-66278095D01*
X83223265Y-66230476D01*
X82413741Y-66230476D01*
X82842312Y-65611429D02*
X82794693Y-65706667D01*
X82747074Y-65754286D01*
X82651836Y-65801905D01*
X82604217Y-65801905D01*
X82508979Y-65754286D01*
X82461360Y-65706667D01*
X82413741Y-65611429D01*
X82413741Y-65420952D01*
X82461360Y-65325714D01*
X82508979Y-65278095D01*
X82604217Y-65230476D01*
X82651836Y-65230476D01*
X82747074Y-65278095D01*
X82794693Y-65325714D01*
X82842312Y-65420952D01*
X82842312Y-65611429D01*
X82889931Y-65706667D01*
X82937550Y-65754286D01*
X83032789Y-65801905D01*
X83223265Y-65801905D01*
X83318503Y-65754286D01*
X83366122Y-65706667D01*
X83413741Y-65611429D01*
X83413741Y-65420952D01*
X83366122Y-65325714D01*
X83318503Y-65278095D01*
X83223265Y-65230476D01*
X83032789Y-65230476D01*
X82937550Y-65278095D01*
X82889931Y-65325714D01*
X82842312Y-65420952D01*
X68967101Y-37500465D02*
X69776625Y-37500465D01*
X69871863Y-37452846D01*
X69919482Y-37405227D01*
X69967101Y-37309989D01*
X69967101Y-37119512D01*
X69919482Y-37024274D01*
X69871863Y-36976655D01*
X69776625Y-36929036D01*
X68967101Y-36929036D01*
X69967101Y-36405227D02*
X69967101Y-36214751D01*
X69919482Y-36119512D01*
X69871863Y-36071893D01*
X69729006Y-35976655D01*
X69538530Y-35929036D01*
X69157577Y-35929036D01*
X69062339Y-35976655D01*
X69014720Y-36024274D01*
X68967101Y-36119512D01*
X68967101Y-36309989D01*
X69014720Y-36405227D01*
X69062339Y-36452846D01*
X69157577Y-36500465D01*
X69395672Y-36500465D01*
X69490910Y-36452846D01*
X69538530Y-36405227D01*
X69586149Y-36309989D01*
X69586149Y-36119512D01*
X69538530Y-36024274D01*
X69490910Y-35976655D01*
X69395672Y-35929036D01*
X68802001Y-66429735D02*
X69611525Y-66429735D01*
X69706763Y-66382116D01*
X69754382Y-66334497D01*
X69802001Y-66239259D01*
X69802001Y-66048782D01*
X69754382Y-65953544D01*
X69706763Y-65905925D01*
X69611525Y-65858306D01*
X68802001Y-65858306D01*
X69802001Y-64858306D02*
X69802001Y-65429735D01*
X69802001Y-65144021D02*
X68802001Y-65144021D01*
X68944858Y-65239259D01*
X69040096Y-65334497D01*
X69087715Y-65429735D01*
X68802001Y-64239259D02*
X68802001Y-64144020D01*
X68849620Y-64048782D01*
X68897239Y-64001163D01*
X68992477Y-63953544D01*
X69182953Y-63905925D01*
X69421049Y-63905925D01*
X69611525Y-63953544D01*
X69706763Y-64001163D01*
X69754382Y-64048782D01*
X69802001Y-64144020D01*
X69802001Y-64239259D01*
X69754382Y-64334497D01*
X69706763Y-64382116D01*
X69611525Y-64429735D01*
X69421049Y-64477354D01*
X69182953Y-64477354D01*
X68992477Y-64429735D01*
X68897239Y-64382116D01*
X68849620Y-64334497D01*
X68802001Y-64239259D01*
X104770941Y-53140455D02*
X105580465Y-53140455D01*
X105675703Y-53092836D01*
X105723322Y-53045217D01*
X105770941Y-52949979D01*
X105770941Y-52759502D01*
X105723322Y-52664264D01*
X105675703Y-52616645D01*
X105580465Y-52569026D01*
X104770941Y-52569026D01*
X105770941Y-51569026D02*
X105770941Y-52140455D01*
X105770941Y-51854741D02*
X104770941Y-51854741D01*
X104913798Y-51949979D01*
X105009036Y-52045217D01*
X105056655Y-52140455D01*
X104866179Y-51188074D02*
X104818560Y-51140455D01*
X104770941Y-51045217D01*
X104770941Y-50807121D01*
X104818560Y-50711883D01*
X104866179Y-50664264D01*
X104961417Y-50616645D01*
X105056655Y-50616645D01*
X105199512Y-50664264D01*
X105770941Y-51235693D01*
X105770941Y-50616645D01*
X117270685Y-43076881D02*
X117270685Y-43886405D01*
X117318304Y-43981643D01*
X117365923Y-44029262D01*
X117461161Y-44076881D01*
X117651638Y-44076881D01*
X117746876Y-44029262D01*
X117794495Y-43981643D01*
X117842114Y-43886405D01*
X117842114Y-43076881D01*
X118842114Y-44076881D02*
X118270685Y-44076881D01*
X118556399Y-44076881D02*
X118556399Y-43076881D01*
X118461161Y-43219738D01*
X118365923Y-43314976D01*
X118270685Y-43362595D01*
X119175447Y-43076881D02*
X119842114Y-43076881D01*
X119413542Y-44076881D01*
X67595501Y-53475735D02*
X68405025Y-53475735D01*
X68500263Y-53428116D01*
X68547882Y-53380497D01*
X68595501Y-53285259D01*
X68595501Y-53094782D01*
X68547882Y-52999544D01*
X68500263Y-52951925D01*
X68405025Y-52904306D01*
X67595501Y-52904306D01*
X68595501Y-51904306D02*
X68595501Y-52475735D01*
X68595501Y-52190021D02*
X67595501Y-52190021D01*
X67738358Y-52285259D01*
X67833596Y-52380497D01*
X67881215Y-52475735D01*
X68595501Y-51428116D02*
X68595501Y-51237640D01*
X68547882Y-51142401D01*
X68500263Y-51094782D01*
X68357406Y-50999544D01*
X68166930Y-50951925D01*
X67785977Y-50951925D01*
X67690739Y-50999544D01*
X67643120Y-51047163D01*
X67595501Y-51142401D01*
X67595501Y-51332878D01*
X67643120Y-51428116D01*
X67690739Y-51475735D01*
X67785977Y-51523354D01*
X68024072Y-51523354D01*
X68119310Y-51475735D01*
X68166930Y-51428116D01*
X68214549Y-51332878D01*
X68214549Y-51142401D01*
X68166930Y-51047163D01*
X68119310Y-50999544D01*
X68024072Y-50951925D01*
X123427645Y-79901801D02*
X123427645Y-80711325D01*
X123475264Y-80806563D01*
X123522883Y-80854182D01*
X123618121Y-80901801D01*
X123808598Y-80901801D01*
X123903836Y-80854182D01*
X123951455Y-80806563D01*
X123999074Y-80711325D01*
X123999074Y-79901801D01*
X124427645Y-79997039D02*
X124475264Y-79949420D01*
X124570502Y-79901801D01*
X124808598Y-79901801D01*
X124903836Y-79949420D01*
X124951455Y-79997039D01*
X124999074Y-80092277D01*
X124999074Y-80187515D01*
X124951455Y-80330372D01*
X124380026Y-80901801D01*
X124999074Y-80901801D01*
X125618121Y-79901801D02*
X125713360Y-79901801D01*
X125808598Y-79949420D01*
X125856217Y-79997039D01*
X125903836Y-80092277D01*
X125951455Y-80282753D01*
X125951455Y-80520849D01*
X125903836Y-80711325D01*
X125856217Y-80806563D01*
X125808598Y-80854182D01*
X125713360Y-80901801D01*
X125618121Y-80901801D01*
X125522883Y-80854182D01*
X125475264Y-80806563D01*
X125427645Y-80711325D01*
X125380026Y-80520849D01*
X125380026Y-80282753D01*
X125427645Y-80092277D01*
X125475264Y-79997039D01*
X125522883Y-79949420D01*
X125618121Y-79901801D01*
X122795185Y-72251441D02*
X122795185Y-73060965D01*
X122842804Y-73156203D01*
X122890423Y-73203822D01*
X122985661Y-73251441D01*
X123176138Y-73251441D01*
X123271376Y-73203822D01*
X123318995Y-73156203D01*
X123366614Y-73060965D01*
X123366614Y-72251441D01*
X123795185Y-72346679D02*
X123842804Y-72299060D01*
X123938042Y-72251441D01*
X124176138Y-72251441D01*
X124271376Y-72299060D01*
X124318995Y-72346679D01*
X124366614Y-72441917D01*
X124366614Y-72537155D01*
X124318995Y-72680012D01*
X123747566Y-73251441D01*
X124366614Y-73251441D01*
X125318995Y-73251441D02*
X124747566Y-73251441D01*
X125033280Y-73251441D02*
X125033280Y-72251441D01*
X124938042Y-72394298D01*
X124842804Y-72489536D01*
X124747566Y-72537155D01*
X122795185Y-87491441D02*
X122795185Y-88300965D01*
X122842804Y-88396203D01*
X122890423Y-88443822D01*
X122985661Y-88491441D01*
X123176138Y-88491441D01*
X123271376Y-88443822D01*
X123318995Y-88396203D01*
X123366614Y-88300965D01*
X123366614Y-87491441D01*
X123795185Y-87586679D02*
X123842804Y-87539060D01*
X123938042Y-87491441D01*
X124176138Y-87491441D01*
X124271376Y-87539060D01*
X124318995Y-87586679D01*
X124366614Y-87681917D01*
X124366614Y-87777155D01*
X124318995Y-87920012D01*
X123747566Y-88491441D01*
X124366614Y-88491441D01*
X124747566Y-87586679D02*
X124795185Y-87539060D01*
X124890423Y-87491441D01*
X125128519Y-87491441D01*
X125223757Y-87539060D01*
X125271376Y-87586679D01*
X125318995Y-87681917D01*
X125318995Y-87777155D01*
X125271376Y-87920012D01*
X124699947Y-88491441D01*
X125318995Y-88491441D01*
X115256465Y-80437741D02*
X115256465Y-81247265D01*
X115304084Y-81342503D01*
X115351703Y-81390122D01*
X115446941Y-81437741D01*
X115637418Y-81437741D01*
X115732656Y-81390122D01*
X115780275Y-81342503D01*
X115827894Y-81247265D01*
X115827894Y-80437741D01*
X116256465Y-80532979D02*
X116304084Y-80485360D01*
X116399322Y-80437741D01*
X116637418Y-80437741D01*
X116732656Y-80485360D01*
X116780275Y-80532979D01*
X116827894Y-80628217D01*
X116827894Y-80723455D01*
X116780275Y-80866312D01*
X116208846Y-81437741D01*
X116827894Y-81437741D01*
X117161227Y-80437741D02*
X117780275Y-80437741D01*
X117446941Y-80818693D01*
X117589799Y-80818693D01*
X117685037Y-80866312D01*
X117732656Y-80913931D01*
X117780275Y-81009170D01*
X117780275Y-81247265D01*
X117732656Y-81342503D01*
X117685037Y-81390122D01*
X117589799Y-81437741D01*
X117304084Y-81437741D01*
X117208846Y-81390122D01*
X117161227Y-81342503D01*
X115256465Y-72817741D02*
X115256465Y-73627265D01*
X115304084Y-73722503D01*
X115351703Y-73770122D01*
X115446941Y-73817741D01*
X115637418Y-73817741D01*
X115732656Y-73770122D01*
X115780275Y-73722503D01*
X115827894Y-73627265D01*
X115827894Y-72817741D01*
X116256465Y-72912979D02*
X116304084Y-72865360D01*
X116399322Y-72817741D01*
X116637418Y-72817741D01*
X116732656Y-72865360D01*
X116780275Y-72912979D01*
X116827894Y-73008217D01*
X116827894Y-73103455D01*
X116780275Y-73246312D01*
X116208846Y-73817741D01*
X116827894Y-73817741D01*
X117685037Y-73151074D02*
X117685037Y-73817741D01*
X117446941Y-72770122D02*
X117208846Y-73484408D01*
X117827894Y-73484408D01*
X72117105Y-49967901D02*
X72117105Y-50777425D01*
X72164724Y-50872663D01*
X72212343Y-50920282D01*
X72307581Y-50967901D01*
X72498058Y-50967901D01*
X72593296Y-50920282D01*
X72640915Y-50872663D01*
X72688534Y-50777425D01*
X72688534Y-49967901D01*
X73688534Y-50967901D02*
X73117105Y-50967901D01*
X73402819Y-50967901D02*
X73402819Y-49967901D01*
X73307581Y-50110758D01*
X73212343Y-50205996D01*
X73117105Y-50253615D01*
X74640915Y-50967901D02*
X74069486Y-50967901D01*
X74355200Y-50967901D02*
X74355200Y-49967901D01*
X74259962Y-50110758D01*
X74164724Y-50205996D01*
X74069486Y-50253615D01*
X92857415Y-31265881D02*
X92857415Y-32075405D01*
X92905034Y-32170643D01*
X92952653Y-32218262D01*
X93047891Y-32265881D01*
X93238368Y-32265881D01*
X93333606Y-32218262D01*
X93381225Y-32170643D01*
X93428844Y-32075405D01*
X93428844Y-31265881D01*
X93857415Y-31361119D02*
X93905034Y-31313500D01*
X94000272Y-31265881D01*
X94238368Y-31265881D01*
X94333606Y-31313500D01*
X94381225Y-31361119D01*
X94428844Y-31456357D01*
X94428844Y-31551595D01*
X94381225Y-31694452D01*
X93809796Y-32265881D01*
X94428844Y-32265881D01*
X93248575Y-71954141D02*
X93248575Y-72763665D01*
X93296194Y-72858903D01*
X93343813Y-72906522D01*
X93439051Y-72954141D01*
X93629528Y-72954141D01*
X93724766Y-72906522D01*
X93772385Y-72858903D01*
X93820004Y-72763665D01*
X93820004Y-71954141D01*
X94200956Y-71954141D02*
X94820004Y-71954141D01*
X94486670Y-72335093D01*
X94629528Y-72335093D01*
X94724766Y-72382712D01*
X94772385Y-72430331D01*
X94820004Y-72525570D01*
X94820004Y-72763665D01*
X94772385Y-72858903D01*
X94724766Y-72906522D01*
X94629528Y-72954141D01*
X94343813Y-72954141D01*
X94248575Y-72906522D01*
X94200956Y-72858903D01*
X84732881Y-105822595D02*
X85542405Y-105822595D01*
X85637643Y-105774976D01*
X85685262Y-105727357D01*
X85732881Y-105632119D01*
X85732881Y-105441642D01*
X85685262Y-105346404D01*
X85637643Y-105298785D01*
X85542405Y-105251166D01*
X84732881Y-105251166D01*
X85732881Y-104251166D02*
X85732881Y-104822595D01*
X85732881Y-104536881D02*
X84732881Y-104536881D01*
X84875738Y-104632119D01*
X84970976Y-104727357D01*
X85018595Y-104822595D01*
X84732881Y-103346404D02*
X84732881Y-103822595D01*
X85209071Y-103870214D01*
X85161452Y-103822595D01*
X85113833Y-103727357D01*
X85113833Y-103489261D01*
X85161452Y-103394023D01*
X85209071Y-103346404D01*
X85304310Y-103298785D01*
X85542405Y-103298785D01*
X85637643Y-103346404D01*
X85685262Y-103394023D01*
X85732881Y-103489261D01*
X85732881Y-103727357D01*
X85685262Y-103822595D01*
X85637643Y-103870214D01*
X79025905Y-79335381D02*
X79025905Y-80144905D01*
X79073524Y-80240143D01*
X79121143Y-80287762D01*
X79216381Y-80335381D01*
X79406858Y-80335381D01*
X79502096Y-80287762D01*
X79549715Y-80240143D01*
X79597334Y-80144905D01*
X79597334Y-79335381D01*
X80597334Y-80335381D02*
X80025905Y-80335381D01*
X80311619Y-80335381D02*
X80311619Y-79335381D01*
X80216381Y-79478238D01*
X80121143Y-79573476D01*
X80025905Y-79621095D01*
X81454477Y-79335381D02*
X81264000Y-79335381D01*
X81168762Y-79383000D01*
X81121143Y-79430619D01*
X81025905Y-79573476D01*
X80978286Y-79763952D01*
X80978286Y-80144905D01*
X81025905Y-80240143D01*
X81073524Y-80287762D01*
X81168762Y-80335381D01*
X81359239Y-80335381D01*
X81454477Y-80287762D01*
X81502096Y-80240143D01*
X81549715Y-80144905D01*
X81549715Y-79906810D01*
X81502096Y-79811571D01*
X81454477Y-79763952D01*
X81359239Y-79716333D01*
X81168762Y-79716333D01*
X81073524Y-79763952D01*
X81025905Y-79811571D01*
X80978286Y-79906810D01*
X173054084Y-37532265D02*
X173054084Y-36732265D01*
X173358846Y-36732265D01*
X173435037Y-36770360D01*
X173473132Y-36808455D01*
X173511227Y-36884646D01*
X173511227Y-36998931D01*
X173473132Y-37075122D01*
X173435037Y-37113217D01*
X173358846Y-37151312D01*
X173054084Y-37151312D01*
X174235037Y-36732265D02*
X173854084Y-36732265D01*
X173815989Y-37113217D01*
X173854084Y-37075122D01*
X173930275Y-37037027D01*
X174120751Y-37037027D01*
X174196941Y-37075122D01*
X174235037Y-37113217D01*
X174273132Y-37189408D01*
X174273132Y-37379884D01*
X174235037Y-37456074D01*
X174196941Y-37494170D01*
X174120751Y-37532265D01*
X173930275Y-37532265D01*
X173854084Y-37494170D01*
X173815989Y-37456074D01*
X118825084Y-108017265D02*
X118825084Y-107217265D01*
X119129846Y-107217265D01*
X119206037Y-107255360D01*
X119244132Y-107293455D01*
X119282227Y-107369646D01*
X119282227Y-107483931D01*
X119244132Y-107560122D01*
X119206037Y-107598217D01*
X119129846Y-107636312D01*
X118825084Y-107636312D01*
X119548894Y-107217265D02*
X120044132Y-107217265D01*
X119777465Y-107522027D01*
X119891751Y-107522027D01*
X119967941Y-107560122D01*
X120006037Y-107598217D01*
X120044132Y-107674408D01*
X120044132Y-107864884D01*
X120006037Y-107941074D01*
X119967941Y-107979170D01*
X119891751Y-108017265D01*
X119663179Y-108017265D01*
X119586989Y-107979170D01*
X119548894Y-107941074D01*
X117776381Y-102084095D02*
X116776381Y-102084095D01*
X116776381Y-101846000D01*
X116824000Y-101703142D01*
X116919238Y-101607904D01*
X117014476Y-101560285D01*
X117204952Y-101512666D01*
X117347810Y-101512666D01*
X117538286Y-101560285D01*
X117633524Y-101607904D01*
X117728762Y-101703142D01*
X117776381Y-101846000D01*
X117776381Y-102084095D01*
X117776381Y-100560285D02*
X117776381Y-101131714D01*
X117776381Y-100846000D02*
X116776381Y-100846000D01*
X116919238Y-100941238D01*
X117014476Y-101036476D01*
X117062095Y-101131714D01*
X109942405Y-82811881D02*
X109942405Y-81811881D01*
X110180500Y-81811881D01*
X110323358Y-81859500D01*
X110418596Y-81954738D01*
X110466215Y-82049976D01*
X110513834Y-82240452D01*
X110513834Y-82383310D01*
X110466215Y-82573786D01*
X110418596Y-82669024D01*
X110323358Y-82764262D01*
X110180500Y-82811881D01*
X109942405Y-82811881D01*
X110894786Y-81907119D02*
X110942405Y-81859500D01*
X111037643Y-81811881D01*
X111275739Y-81811881D01*
X111370977Y-81859500D01*
X111418596Y-81907119D01*
X111466215Y-82002357D01*
X111466215Y-82097595D01*
X111418596Y-82240452D01*
X110847167Y-82811881D01*
X111466215Y-82811881D01*
X117800381Y-104782857D02*
X117324190Y-105116191D01*
X117800381Y-105354286D02*
X116800381Y-105354286D01*
X116800381Y-104973333D01*
X116848000Y-104878095D01*
X116895619Y-104830476D01*
X116990857Y-104782857D01*
X117133714Y-104782857D01*
X117228952Y-104830476D01*
X117276571Y-104878095D01*
X117324190Y-104973333D01*
X117324190Y-105354286D01*
X117133714Y-103925714D02*
X117800381Y-103925714D01*
X116752762Y-104163810D02*
X117467048Y-104401905D01*
X117467048Y-103782857D01*
X116800381Y-103211429D02*
X116800381Y-103116190D01*
X116848000Y-103020952D01*
X116895619Y-102973333D01*
X116990857Y-102925714D01*
X117181333Y-102878095D01*
X117419429Y-102878095D01*
X117609905Y-102925714D01*
X117705143Y-102973333D01*
X117752762Y-103020952D01*
X117800381Y-103116190D01*
X117800381Y-103211429D01*
X117752762Y-103306667D01*
X117705143Y-103354286D01*
X117609905Y-103401905D01*
X117419429Y-103449524D01*
X117181333Y-103449524D01*
X116990857Y-103401905D01*
X116895619Y-103354286D01*
X116848000Y-103306667D01*
X116800381Y-103211429D01*
X110418643Y-81160881D02*
X110085309Y-80684690D01*
X109847214Y-81160881D02*
X109847214Y-80160881D01*
X110228167Y-80160881D01*
X110323405Y-80208500D01*
X110371024Y-80256119D01*
X110418643Y-80351357D01*
X110418643Y-80494214D01*
X110371024Y-80589452D01*
X110323405Y-80637071D01*
X110228167Y-80684690D01*
X109847214Y-80684690D01*
X111275786Y-80494214D02*
X111275786Y-81160881D01*
X111037690Y-80113262D02*
X110799595Y-80827548D01*
X111418643Y-80827548D01*
X112323405Y-81160881D02*
X111751976Y-81160881D01*
X112037690Y-81160881D02*
X112037690Y-80160881D01*
X111942452Y-80303738D01*
X111847214Y-80398976D01*
X111751976Y-80446595D01*
X53213167Y-34805881D02*
X52879833Y-34329690D01*
X52641738Y-34805881D02*
X52641738Y-33805881D01*
X53022691Y-33805881D01*
X53117929Y-33853500D01*
X53165548Y-33901119D01*
X53213167Y-33996357D01*
X53213167Y-34139214D01*
X53165548Y-34234452D01*
X53117929Y-34282071D01*
X53022691Y-34329690D01*
X52641738Y-34329690D01*
X53641738Y-34282071D02*
X53975072Y-34282071D01*
X54117929Y-34805881D02*
X53641738Y-34805881D01*
X53641738Y-33805881D01*
X54117929Y-33805881D01*
X54879834Y-34282071D02*
X54546500Y-34282071D01*
X54546500Y-34805881D02*
X54546500Y-33805881D01*
X55022691Y-33805881D01*
X55546500Y-33805881D02*
X55546500Y-34043976D01*
X55308405Y-33948738D02*
X55546500Y-34043976D01*
X55784596Y-33948738D01*
X55403643Y-34234452D02*
X55546500Y-34043976D01*
X55689358Y-34234452D01*
X56308405Y-33805881D02*
X56308405Y-34043976D01*
X56070310Y-33948738D02*
X56308405Y-34043976D01*
X56546501Y-33948738D01*
X56165548Y-34234452D02*
X56308405Y-34043976D01*
X56451263Y-34234452D01*
X53276667Y-111132881D02*
X52943333Y-110656690D01*
X52705238Y-111132881D02*
X52705238Y-110132881D01*
X53086191Y-110132881D01*
X53181429Y-110180500D01*
X53229048Y-110228119D01*
X53276667Y-110323357D01*
X53276667Y-110466214D01*
X53229048Y-110561452D01*
X53181429Y-110609071D01*
X53086191Y-110656690D01*
X52705238Y-110656690D01*
X53705238Y-110609071D02*
X54038572Y-110609071D01*
X54181429Y-111132881D02*
X53705238Y-111132881D01*
X53705238Y-110132881D01*
X54181429Y-110132881D01*
X54943334Y-110609071D02*
X54610000Y-110609071D01*
X54610000Y-111132881D02*
X54610000Y-110132881D01*
X55086191Y-110132881D01*
X55610000Y-110132881D02*
X55610000Y-110370976D01*
X55371905Y-110275738D02*
X55610000Y-110370976D01*
X55848096Y-110275738D01*
X55467143Y-110561452D02*
X55610000Y-110370976D01*
X55752858Y-110561452D01*
X56371905Y-110132881D02*
X56371905Y-110370976D01*
X56133810Y-110275738D02*
X56371905Y-110370976D01*
X56610001Y-110275738D01*
X56229048Y-110561452D02*
X56371905Y-110370976D01*
X56514763Y-110561452D01*
X59495465Y-99385381D02*
X59495465Y-98385381D01*
X59876418Y-98385381D01*
X59971656Y-98433000D01*
X60019275Y-98480619D01*
X60066894Y-98575857D01*
X60066894Y-98718714D01*
X60019275Y-98813952D01*
X59971656Y-98861571D01*
X59876418Y-98909190D01*
X59495465Y-98909190D01*
X60924037Y-98718714D02*
X60924037Y-99385381D01*
X60685941Y-98337762D02*
X60447846Y-99052048D01*
X61066894Y-99052048D01*
X94577941Y-53004625D02*
X95387465Y-53004625D01*
X95482703Y-52957006D01*
X95530322Y-52909387D01*
X95577941Y-52814149D01*
X95577941Y-52623672D01*
X95530322Y-52528434D01*
X95482703Y-52480815D01*
X95387465Y-52433196D01*
X94577941Y-52433196D01*
X94577941Y-51528434D02*
X94577941Y-51718911D01*
X94625560Y-51814149D01*
X94673179Y-51861768D01*
X94816036Y-51957006D01*
X95006512Y-52004625D01*
X95387465Y-52004625D01*
X95482703Y-51957006D01*
X95530322Y-51909387D01*
X95577941Y-51814149D01*
X95577941Y-51623672D01*
X95530322Y-51528434D01*
X95482703Y-51480815D01*
X95387465Y-51433196D01*
X95149370Y-51433196D01*
X95054131Y-51480815D01*
X95006512Y-51528434D01*
X94958893Y-51623672D01*
X94958893Y-51814149D01*
X95006512Y-51909387D01*
X95054131Y-51957006D01*
X95149370Y-52004625D01*
X100053235Y-54570381D02*
X100053235Y-55379905D01*
X100100854Y-55475143D01*
X100148473Y-55522762D01*
X100243711Y-55570381D01*
X100434188Y-55570381D01*
X100529426Y-55522762D01*
X100577045Y-55475143D01*
X100624664Y-55379905D01*
X100624664Y-54570381D01*
X101624664Y-55570381D02*
X101053235Y-55570381D01*
X101338949Y-55570381D02*
X101338949Y-54570381D01*
X101243711Y-54713238D01*
X101148473Y-54808476D01*
X101053235Y-54856095D01*
X72079005Y-31715461D02*
X72079005Y-32524985D01*
X72126624Y-32620223D01*
X72174243Y-32667842D01*
X72269481Y-32715461D01*
X72459958Y-32715461D01*
X72555196Y-32667842D01*
X72602815Y-32620223D01*
X72650434Y-32524985D01*
X72650434Y-31715461D01*
X73650434Y-32715461D02*
X73079005Y-32715461D01*
X73364719Y-32715461D02*
X73364719Y-31715461D01*
X73269481Y-31858318D01*
X73174243Y-31953556D01*
X73079005Y-32001175D01*
X73983767Y-31715461D02*
X74602815Y-31715461D01*
X74269481Y-32096413D01*
X74412339Y-32096413D01*
X74507577Y-32144032D01*
X74555196Y-32191651D01*
X74602815Y-32286890D01*
X74602815Y-32524985D01*
X74555196Y-32620223D01*
X74507577Y-32667842D01*
X74412339Y-32715461D01*
X74126624Y-32715461D01*
X74031386Y-32667842D01*
X73983767Y-32620223D01*
X72109485Y-59650381D02*
X72109485Y-60459905D01*
X72157104Y-60555143D01*
X72204723Y-60602762D01*
X72299961Y-60650381D01*
X72490438Y-60650381D01*
X72585676Y-60602762D01*
X72633295Y-60555143D01*
X72680914Y-60459905D01*
X72680914Y-59650381D01*
X73680914Y-60650381D02*
X73109485Y-60650381D01*
X73395199Y-60650381D02*
X73395199Y-59650381D01*
X73299961Y-59793238D01*
X73204723Y-59888476D01*
X73109485Y-59936095D01*
X74538057Y-59983714D02*
X74538057Y-60650381D01*
X74299961Y-59602762D02*
X74061866Y-60317048D01*
X74680914Y-60317048D01*
M02*
