M48
;DRILL file {KiCad 4.0.4-stable} date 2016 October 17, Monday 14:53:54
;FORMAT={-:-/ absolute / inch / decimal}
FMAT,2
INCH,TZ
T1C0.010
T2C0.012
T3C0.015
T4C0.020
T5C0.039
T6C0.070
%
G90
G05
M72
T1
X2.272Y-1.9911
X2.3927Y-2.2317
X2.4219Y-2.0079
X2.422Y-2.4673
X2.4292Y-2.7108
X2.4293Y-1.6107
X2.4925Y-1.3207
X2.4925Y-2.4207
X2.5218Y-2.0223
X2.5292Y-2.2317
X2.5293Y-1.8701
X2.5721Y-1.4849
X2.5721Y-2.0573
X2.5723Y-2.585
X2.5795Y-1.2452
X2.5795Y-2.3459
X2.6223Y-2.4721
X2.6555Y-1.8701
X2.6555Y-2.2316
X2.7058Y-2.346
X2.7059Y-1.2452
X2.7149Y-1.5332
X2.7255Y-2.7049
X2.7257Y-1.6051
X2.8491Y-2.3818
X2.8492Y-1.2818
X2.8598Y-1.576
X2.8763Y-2.5878
X2.8764Y-1.488
X2.8863Y-1.2817
X2.8864Y-2.3817
X2.9157Y-3.7056
X2.9327Y-2.0615
X2.9582Y-1.8724
X2.9813Y-2.4262
X2.9814Y-1.3262
X2.9878Y-2.7438
X2.9879Y-1.6438
X3.0147Y-3.6378
X3.0198Y-2.5574
X3.0202Y-1.458
X3.0534Y-1.5474
X3.0535Y-2.649
X3.0697Y-1.6814
X3.0698Y-2.7821
X3.0895Y-1.8725
X3.1338Y-3.2617
X3.1364Y-3.7617
X3.1461Y-2.4182
X3.1463Y-1.3158
X3.1534Y-1.4343
X3.1534Y-2.5421
X3.176Y-1.8092
X3.1782Y-2.0022
X3.1887Y-3.3143
X3.1888Y-3.2076
X3.1951Y-2.0425
X3.1961Y-1.6813
X3.1961Y-2.7821
X3.2275Y-2.0223
X3.2397Y-3.2617
X3.2458Y-3.7616
X3.3875Y-1.8092
X3.3875Y-2.171
X3.4413Y-2.168
X3.5158Y-2.0425
X3.5343Y-2.0223
X3.5616Y-2.1328
X3.7167Y-2.1744
X3.7859Y-1.6338
X3.7895Y-1.8095
X3.7895Y-2.2893
X3.8455Y-1.9359
X3.8456Y-1.9949
X3.8704Y-2.1497
X4.0367Y-1.7347
X4.0367Y-2.8343
X4.0456Y-2.3741
X4.0457Y-1.2758
X4.0457Y-2.2721
X4.0599Y-1.9721
X4.0599Y-2.0984
X4.0599Y-4.1238
X4.09Y-1.6548
X4.1325Y-1.3151
X4.1326Y-2.4149
X4.1433Y-1.7346
X4.1515Y-3.8766
X4.1517Y-4.1987
X4.1517Y-4.3182
X4.1621Y-3.173
X4.1621Y-3.2424
X4.1779Y-1.3463
X4.1779Y-1.4602
X4.1779Y-2.4462
X4.1832Y-2.8588
X4.2Y-3.2425
X4.2057Y-2.1198
X4.206Y-2.0425
X4.2075Y-3.1775
X4.2277Y-3.4552
X4.2278Y-3.4239
X4.2313Y-2.0223
X4.2316Y-1.8842
X4.2572Y-1.884
X4.2588Y-3.424
X4.2588Y-3.4552
X4.2699Y-1.8087
X4.2699Y-2.9082
X4.27Y-1.7099
X4.2701Y-2.8094
X4.2825Y-2.1197
X4.2869Y-3.4245
X4.2869Y-3.4552
X4.319Y-4.3176
X4.3191Y-4.1922
X4.3318Y-3.7327
X4.3319Y-3.7614
X4.3319Y-3.7884
X4.3337Y-1.8874
X4.3394Y-3.9212
X4.3549Y-3.733
X4.3549Y-3.7614
X4.3549Y-3.7884
X4.3568Y-1.7593
X4.3568Y-2.8588
X4.3592Y-2.2781
X4.3703Y-1.2914
X4.4016Y-4.2575
X4.403Y-2.462
X4.4154Y-2.1494
X4.4283Y-1.9059
X4.4356Y-2.6717
X4.4511Y-2.0425
X4.4792Y-2.5044
X4.4792Y-2.533
X4.4792Y-2.5591
X4.4846Y-1.711
X4.5178Y-2.0223
X4.521Y-3.2325
X4.5398Y-1.8574
X4.5469Y-3.3736
X4.547Y-3.0664
X4.5552Y-2.5026
X4.5552Y-2.533
X4.5552Y-2.5615
X4.56Y-3.925
X4.56Y-4.16
X4.6151Y-2.0425
X4.6208Y-1.7111
X4.627Y-2.9078
X4.627Y-3.2087
X4.6353Y-2.0223
X4.6353Y-2.6479
X4.6446Y-3.0338
X4.6446Y-3.3331
X4.6981Y-3.3742
X4.6982Y-3.0734
X4.713Y-1.7113
X4.7387Y-3.1699
X4.7388Y-2.8698
X4.82Y-4.1314
X4.8248Y-3.579
X4.8253Y-2.9789
X4.8253Y-3.2789
X4.8492Y-1.7112
X4.92Y-4.1143
X4.9411Y-3.0788
X4.9411Y-3.379
X5.02Y-4.0123
X5.0235Y-3.4697
X5.0245Y-2.8698
X5.0245Y-3.1699
X5.0326Y-3.6789
X5.0935Y-3.5287
X5.0945Y-3.2289
X5.0945Y-2.9289
X5.12Y-3.9953
X5.22Y-4.0803
X5.32Y-4.0633
X5.3702Y-3.9099
X5.4855Y-1.7931
X5.5039Y-1.7747
X5.5071Y-3.9099
X5.52Y-4.1483
X5.5324Y-3.9269
X5.5823Y-4.1823
X5.6071Y-3.9779
X5.6324Y-3.9439
X5.6571Y-3.9609
X5.6825Y-3.9269
X5.7076Y-4.0463
X5.7324Y-4.0293
X5.7717Y-3.9779
X5.7824Y-3.8922
X5.8071Y-3.9095
X5.8324Y-4.0973
X5.8571Y-3.9269
X5.8824Y-4.1143
X5.8981Y-2.7915
X5.9025Y-1.9481
X5.9073Y-4.1313
X5.9208Y-1.9664
X5.9334Y-3.9609
X5.9576Y-4.0123
X5.9651Y-2.9518
X5.9824Y-3.9953
X6.0135Y-4.0803
X6.0145Y-2.8775
X6.0324Y-4.0633
X6.0405Y-2.8775
X6.0571Y-3.9439
X6.0631Y-2.0912
X6.0695Y-2.8325
X6.0815Y-2.0728
X6.0824Y-4.1483
X6.0955Y-2.8325
X6.1073Y-4.1653
X6.1331Y-3.6424
X6.1515Y-3.6608
X6.1702Y-4.0465
X6.2314Y-3.5263
X6.2498Y-3.5447
X6.27Y-4.0293
X6.3698Y-3.9099
X6.3982Y-2.9518
X6.4702Y-3.8922
X6.483Y-2.6554
X6.4833Y-2.7916
X6.5723Y-3.9269
T2
X4.4214Y-4.0375
X4.4214Y-4.0784
X4.4214Y-4.1184
X4.4714Y-4.0384
X4.4714Y-4.0784
X4.4714Y-4.1184
X4.9144Y-2.049
X4.9824Y-1.6946
X4.9824Y-1.8721
X5.8981Y-2.6579
X6.1815Y-2.6539
X6.1816Y-2.9492
T3
X3.5398Y-1.5
X3.5398Y-2.6
X3.58Y-4.1238
T4
X5.2324Y-1.66
X5.2324Y-1.71
X5.2324Y-3.8
X5.2324Y-3.85
X5.2824Y-1.66
X5.2824Y-1.71
X5.2824Y-3.8
X5.2824Y-3.85
X5.3324Y-1.66
X5.3324Y-1.71
X5.3324Y-3.8
X5.3324Y-3.85
X5.3824Y-1.66
X5.3824Y-1.71
X5.3824Y-3.8
X5.3824Y-3.85
X5.4324Y-1.66
X5.4324Y-1.71
X5.4324Y-3.8
X5.4324Y-3.85
X5.4824Y-1.66
X5.4824Y-1.71
X5.4824Y-3.8
X5.4824Y-3.85
X5.5324Y-1.66
X5.5324Y-1.71
X5.5324Y-3.8
X5.5324Y-3.85
X5.5824Y-1.66
X5.5824Y-1.71
X5.5824Y-3.8
X5.5824Y-3.85
X5.6324Y-1.66
X5.6324Y-1.71
X5.6324Y-3.8
X5.6324Y-3.85
X5.6824Y-1.66
X5.6824Y-1.71
X5.6824Y-3.8
X5.6824Y-3.85
X5.7324Y-1.66
X5.7324Y-1.71
X5.7324Y-3.8
X5.7324Y-3.85
X5.7824Y-1.66
X5.7824Y-1.71
X5.7824Y-3.8
X5.7824Y-3.85
X5.8324Y-1.66
X5.8324Y-1.71
X5.8324Y-3.8
X5.8324Y-3.85
X5.8824Y-1.66
X5.8824Y-1.71
X5.8824Y-3.8
X5.8824Y-3.85
X5.9324Y-1.66
X5.9324Y-1.71
X5.9324Y-3.8
X5.9324Y-3.85
X5.9824Y-1.66
X5.9824Y-1.71
X5.9824Y-3.8
X5.9824Y-3.85
X6.0324Y-1.66
X6.0324Y-1.71
X6.0324Y-3.8
X6.0324Y-3.85
X6.0824Y-1.66
X6.0824Y-1.71
X6.0824Y-3.8
X6.0824Y-3.85
X6.1324Y-1.66
X6.1324Y-1.71
X6.1324Y-3.8
X6.1324Y-3.85
X6.1824Y-1.66
X6.1824Y-1.71
X6.1824Y-3.8
X6.1824Y-3.85
T5
X4.82Y-1.31
X4.82Y-1.41
X4.82Y-4.3
X4.82Y-4.4
X4.92Y-1.31
X4.92Y-1.41
X4.92Y-4.3
X4.92Y-4.4
X5.02Y-1.31
X5.02Y-1.41
X5.02Y-4.3
X5.02Y-4.4
X5.12Y-1.31
X5.12Y-1.41
X5.12Y-4.3
X5.12Y-4.4
X5.22Y-1.31
X5.22Y-1.41
X5.22Y-4.3
X5.22Y-4.4
X5.32Y-1.31
X5.32Y-1.41
X5.32Y-4.3
X5.32Y-4.4
X5.42Y-1.31
X5.42Y-1.41
X5.42Y-4.3
X5.42Y-4.4
X5.52Y-1.31
X5.52Y-1.41
X5.52Y-4.3
X5.52Y-4.4
X5.62Y-1.31
X5.62Y-1.41
X5.62Y-4.3
X5.62Y-4.4
X5.72Y-1.31
X5.72Y-1.41
X5.72Y-4.3
X5.72Y-4.4
X5.82Y-1.31
X5.82Y-1.41
X5.82Y-4.3
X5.82Y-4.4
X5.92Y-1.31
X5.92Y-1.41
X5.92Y-4.3
X5.92Y-4.4
X6.02Y-1.31
X6.02Y-1.41
X6.02Y-4.3
X6.02Y-4.4
X6.12Y-1.31
X6.12Y-1.41
X6.12Y-4.3
X6.12Y-4.4
X6.22Y-1.31
X6.22Y-1.41
X6.22Y-4.3
X6.22Y-4.4
X6.32Y-1.31
X6.32Y-1.41
X6.32Y-4.3
X6.32Y-4.4
X6.42Y-1.31
X6.42Y-1.41
X6.42Y-4.3
X6.42Y-4.4
X6.52Y-1.31
X6.52Y-1.41
X6.52Y-4.3
X6.52Y-4.4
X6.62Y-1.31
X6.62Y-1.41
X6.62Y-4.3
X6.62Y-4.4
X6.72Y-1.31
X6.72Y-1.41
X6.72Y-4.3
X6.72Y-4.4
T6
X2.4964Y-4.03
X2.6964Y-4.03
X2.8964Y-4.03
X3.0964Y-4.03
T0
M30
