G04 #@! TF.FileFunction,Soldermask,Bot*
%FSLAX46Y46*%
G04 Gerber Fmt 4.6, Leading zero omitted, Abs format (unit mm)*
G04 Created by KiCad (PCBNEW 4.0.4-stable) date 2016 October 17, Monday 14:50:17*
%MOMM*%
%LPD*%
G01*
G04 APERTURE LIST*
%ADD10C,0.100000*%
%ADD11R,1.924000X2.686000*%
%ADD12O,1.924000X2.686000*%
%ADD13C,1.300000*%
%ADD14C,4.972000*%
%ADD15C,1.314400*%
G04 APERTURE END LIST*
D10*
D11*
X117419120Y-89809320D03*
D12*
X119959120Y-89809320D03*
X122499120Y-89809320D03*
X125039120Y-89809320D03*
X127579120Y-89809320D03*
X130119120Y-89809320D03*
X132659120Y-89809320D03*
X135199120Y-89809320D03*
X137739120Y-89809320D03*
X140279120Y-89809320D03*
X142819120Y-89809320D03*
X145359120Y-89809320D03*
X147899120Y-89809320D03*
X150439120Y-89809320D03*
X152979120Y-89809320D03*
X155519120Y-89809320D03*
X158059120Y-89809320D03*
X160599120Y-89809320D03*
X163139120Y-89809320D03*
X165679120Y-89809320D03*
X117419120Y-86761320D03*
X119959120Y-86761320D03*
X122499120Y-86761320D03*
X125039120Y-86761320D03*
X127579120Y-86761320D03*
X130119120Y-86761320D03*
X132659120Y-86761320D03*
X135199120Y-86761320D03*
X137739120Y-86761320D03*
X140279120Y-86761320D03*
X142819120Y-86761320D03*
X145359120Y-86761320D03*
X147899120Y-86761320D03*
X150439120Y-86761320D03*
X152979120Y-86761320D03*
X155519120Y-86761320D03*
X158059120Y-86761320D03*
X160599120Y-86761320D03*
X163139120Y-86761320D03*
X165679120Y-86761320D03*
D13*
X129499360Y-77541120D03*
X130769360Y-77541120D03*
X132039360Y-77541120D03*
X133309360Y-77541120D03*
X134579360Y-77541120D03*
X135849360Y-77541120D03*
X137119360Y-77541120D03*
X138389360Y-77541120D03*
X139659360Y-77541120D03*
X140929360Y-77541120D03*
X142199360Y-77541120D03*
X143469360Y-77541120D03*
X144739360Y-77541120D03*
X146009360Y-77541120D03*
X147279360Y-77541120D03*
X148549360Y-77541120D03*
X149819360Y-77541120D03*
X151089360Y-77541120D03*
X152359360Y-77541120D03*
X153629360Y-77541120D03*
X129499360Y-78811120D03*
X130769360Y-78811120D03*
X132039360Y-78811120D03*
X133309360Y-78811120D03*
X134579360Y-78811120D03*
X135849360Y-78811120D03*
X137119360Y-78811120D03*
X138389360Y-78811120D03*
X139659360Y-78811120D03*
X140929360Y-78811120D03*
X142199360Y-78811120D03*
X143469360Y-78811120D03*
X144739360Y-78811120D03*
X146009360Y-78811120D03*
X147279360Y-78811120D03*
X148549360Y-78811120D03*
X149819360Y-78811120D03*
X151089360Y-78811120D03*
X152359360Y-78811120D03*
X153629360Y-78811120D03*
D14*
X172105320Y-102433120D03*
X110992920Y-102433120D03*
D15*
X163697920Y-99588320D03*
X160929320Y-99588320D03*
X158160720Y-99588320D03*
X155392120Y-99588320D03*
X152623520Y-99588320D03*
X149854920Y-99588320D03*
X147086320Y-99588320D03*
X144317720Y-99588320D03*
X141549120Y-99588320D03*
X138780520Y-99588320D03*
X136011920Y-99588320D03*
X133243320Y-99588320D03*
X130474720Y-99588320D03*
X127706120Y-99588320D03*
X124937520Y-99588320D03*
X122168920Y-99588320D03*
X119400320Y-99588320D03*
X162250120Y-102433120D03*
X152623520Y-105277920D03*
X155392120Y-105277920D03*
X158160720Y-105277920D03*
X149854920Y-105277920D03*
X147086320Y-105277920D03*
X160929320Y-105277920D03*
X163697920Y-105277920D03*
X124937520Y-105277920D03*
X119400320Y-105277920D03*
X122168920Y-105277920D03*
X141549120Y-105277920D03*
X130474720Y-105277920D03*
X144317720Y-105277920D03*
X133243320Y-105277920D03*
X138780520Y-105277920D03*
X136011920Y-105277920D03*
X127706120Y-105277920D03*
X159506920Y-102433120D03*
X156738320Y-102433120D03*
X153969720Y-102433120D03*
X151226520Y-102433120D03*
X148457920Y-102433120D03*
X145689320Y-102433120D03*
X142946120Y-102433120D03*
X140152120Y-102433120D03*
X137408920Y-102433120D03*
X134640320Y-102433120D03*
X131871720Y-102433120D03*
X129128520Y-102433120D03*
X126359920Y-102433120D03*
X123591320Y-102433120D03*
X120848120Y-102433120D03*
M02*
