G04 #@! TF.FileFunction,Legend,Top*
%FSLAX46Y46*%
G04 Gerber Fmt 4.6, Leading zero omitted, Abs format (unit mm)*
G04 Created by KiCad (PCBNEW 4.0.4-stable) date 2016 October 17, Monday 14:50:17*
%MOMM*%
%LPD*%
G01*
G04 APERTURE LIST*
%ADD10C,0.100000*%
%ADD11C,0.350000*%
%ADD12C,0.150000*%
G04 APERTURE END LIST*
D10*
D11*
X115514120Y-85110320D02*
X167584120Y-85110320D01*
X167584120Y-85110320D02*
X167584120Y-91460320D01*
X167584120Y-91460320D02*
X115514120Y-91460320D01*
X115514120Y-91460320D02*
X115514120Y-85110320D01*
X115514120Y-88285320D02*
X118689120Y-88285320D01*
X118689120Y-88285320D02*
X118689120Y-91460320D01*
D12*
X115514120Y-92095320D02*
X118689120Y-92095320D01*
X154391360Y-76779120D02*
X128737360Y-76779120D01*
X128737360Y-76779120D02*
X128737360Y-79573120D01*
X154391360Y-79573120D02*
X128737360Y-79573120D01*
X154391360Y-76779120D02*
X154391360Y-79573120D01*
X111391520Y-93019320D02*
X112091520Y-93019320D01*
X112091520Y-94219320D02*
X111391520Y-94219320D01*
X171706020Y-94219320D02*
X171006020Y-94219320D01*
X171006020Y-93019320D02*
X171706020Y-93019320D01*
X175051720Y-110078520D02*
X108046520Y-110078520D01*
X175051720Y-94787720D02*
X175051720Y-110078520D01*
X108046520Y-94787720D02*
X175051720Y-94787720D01*
X108046520Y-110078520D02*
X108046520Y-94787720D01*
X115346843Y-84776129D02*
X115346843Y-83785529D01*
X115724215Y-83785529D01*
X115818557Y-83832700D01*
X115865729Y-83879871D01*
X115912900Y-83974214D01*
X115912900Y-84115729D01*
X115865729Y-84210071D01*
X115818557Y-84257243D01*
X115724215Y-84304414D01*
X115346843Y-84304414D01*
X116856329Y-84776129D02*
X116290272Y-84776129D01*
X116573300Y-84776129D02*
X116573300Y-83785529D01*
X116478957Y-83927043D01*
X116384615Y-84021386D01*
X116290272Y-84068557D01*
X126769905Y-78684381D02*
X126769905Y-77684381D01*
X127150858Y-77684381D01*
X127246096Y-77732000D01*
X127293715Y-77779619D01*
X127341334Y-77874857D01*
X127341334Y-78017714D01*
X127293715Y-78112952D01*
X127246096Y-78160571D01*
X127150858Y-78208190D01*
X126769905Y-78208190D01*
X127722286Y-77779619D02*
X127769905Y-77732000D01*
X127865143Y-77684381D01*
X128103239Y-77684381D01*
X128198477Y-77732000D01*
X128246096Y-77779619D01*
X128293715Y-77874857D01*
X128293715Y-77970095D01*
X128246096Y-78112952D01*
X127674667Y-78684381D01*
X128293715Y-78684381D01*
X109180334Y-94178381D02*
X108847000Y-93702190D01*
X108608905Y-94178381D02*
X108608905Y-93178381D01*
X108989858Y-93178381D01*
X109085096Y-93226000D01*
X109132715Y-93273619D01*
X109180334Y-93368857D01*
X109180334Y-93511714D01*
X109132715Y-93606952D01*
X109085096Y-93654571D01*
X108989858Y-93702190D01*
X108608905Y-93702190D01*
X110132715Y-94178381D02*
X109561286Y-94178381D01*
X109847000Y-94178381D02*
X109847000Y-93178381D01*
X109751762Y-93321238D01*
X109656524Y-93416476D01*
X109561286Y-93464095D01*
X173569334Y-94051381D02*
X173236000Y-93575190D01*
X172997905Y-94051381D02*
X172997905Y-93051381D01*
X173378858Y-93051381D01*
X173474096Y-93099000D01*
X173521715Y-93146619D01*
X173569334Y-93241857D01*
X173569334Y-93384714D01*
X173521715Y-93479952D01*
X173474096Y-93527571D01*
X173378858Y-93575190D01*
X172997905Y-93575190D01*
X173950286Y-93146619D02*
X173997905Y-93099000D01*
X174093143Y-93051381D01*
X174331239Y-93051381D01*
X174426477Y-93099000D01*
X174474096Y-93146619D01*
X174521715Y-93241857D01*
X174521715Y-93337095D01*
X174474096Y-93479952D01*
X173902667Y-94051381D01*
X174521715Y-94051381D01*
X141271667Y-93305381D02*
X141271667Y-94019667D01*
X141224047Y-94162524D01*
X141128809Y-94257762D01*
X140985952Y-94305381D01*
X140890714Y-94305381D01*
X142271667Y-94305381D02*
X141700238Y-94305381D01*
X141985952Y-94305381D02*
X141985952Y-93305381D01*
X141890714Y-93448238D01*
X141795476Y-93543476D01*
X141700238Y-93591095D01*
M02*
