M48
;DRILL file {KiCad 4.0.4-stable} date 2016 October 17, Monday 14:50:35
;FORMAT={-:-/ absolute / inch / decimal}
FMAT,2
INCH,TZ
T1C0.016
T2C0.020
T3C0.024
T4C0.039
T5C0.126
%
G90
G05
M72
T1
X4.4691Y-3.6858
X6.6765Y-3.6858
T2
X5.0984Y-3.0528
X5.0984Y-3.1028
X5.1484Y-3.0528
X5.1484Y-3.1028
X5.1984Y-3.0528
X5.1984Y-3.1028
X5.2484Y-3.0528
X5.2484Y-3.1028
X5.2984Y-3.0528
X5.2984Y-3.1028
X5.3484Y-3.0528
X5.3484Y-3.1028
X5.3984Y-3.0528
X5.3984Y-3.1028
X5.4484Y-3.0528
X5.4484Y-3.1028
X5.4984Y-3.0528
X5.4984Y-3.1028
X5.5484Y-3.0528
X5.5484Y-3.1028
X5.5984Y-3.0528
X5.5984Y-3.1028
X5.6484Y-3.0528
X5.6484Y-3.1028
X5.6984Y-3.0528
X5.6984Y-3.1028
X5.7484Y-3.0528
X5.7484Y-3.1028
X5.7984Y-3.0528
X5.7984Y-3.1028
X5.8484Y-3.0528
X5.8484Y-3.1028
X5.8984Y-3.0528
X5.8984Y-3.1028
X5.9484Y-3.0528
X5.9484Y-3.1028
X5.9984Y-3.0528
X5.9984Y-3.1028
X6.0484Y-3.0528
X6.0484Y-3.1028
T3
X4.7008Y-3.9208
X4.7008Y-4.1448
X4.7578Y-4.0328
X4.8098Y-3.9208
X4.8098Y-4.1448
X4.8658Y-4.0328
X4.9188Y-3.9208
X4.9188Y-4.1448
X4.9748Y-4.0328
X5.0278Y-3.9208
X5.0278Y-4.1448
X5.0838Y-4.0328
X5.1368Y-3.9208
X5.1368Y-4.1448
X5.1918Y-4.0328
X5.2458Y-3.9208
X5.2458Y-4.1448
X5.3008Y-4.0328
X5.3548Y-3.9208
X5.3548Y-4.1448
X5.4098Y-4.0328
X5.4638Y-3.9208
X5.4638Y-4.1448
X5.5178Y-4.0328
X5.5728Y-3.9208
X5.5728Y-4.1448
X5.6278Y-4.0328
X5.6818Y-3.9208
X5.6818Y-4.1448
X5.7358Y-4.0328
X5.7908Y-3.9208
X5.7908Y-4.1448
X5.8448Y-4.0328
X5.8998Y-3.9208
X5.8998Y-4.1448
X5.9538Y-4.0328
X6.0088Y-3.9208
X6.0088Y-4.1448
X6.0618Y-4.0328
X6.1178Y-3.9208
X6.1178Y-4.1448
X6.1708Y-4.0328
X6.2268Y-3.9208
X6.2268Y-4.1448
X6.2798Y-4.0328
X6.3358Y-3.9208
X6.3358Y-4.1448
X6.3878Y-4.0328
X6.4448Y-3.9208
X6.4448Y-4.1448
T4
X4.6228Y-3.4258
X4.6228Y-3.5258
X4.7228Y-3.4258
X4.7228Y-3.5258
X4.8228Y-3.4258
X4.8228Y-3.5258
X4.9228Y-3.4258
X4.9228Y-3.5258
X5.0228Y-3.4258
X5.0228Y-3.5258
X5.1228Y-3.4258
X5.1228Y-3.5258
X5.2228Y-3.4258
X5.2228Y-3.5258
X5.3228Y-3.4258
X5.3228Y-3.5258
X5.4228Y-3.4258
X5.4228Y-3.5258
X5.5228Y-3.4258
X5.5228Y-3.5258
X5.6228Y-3.4258
X5.6228Y-3.5258
X5.7228Y-3.4258
X5.7228Y-3.5258
X5.8228Y-3.4258
X5.8228Y-3.5258
X5.9228Y-3.4258
X5.9228Y-3.5258
X6.0228Y-3.4258
X6.0228Y-3.5258
X6.1228Y-3.4258
X6.1228Y-3.5258
X6.2228Y-3.4258
X6.2228Y-3.5258
X6.3228Y-3.4258
X6.3228Y-3.5258
X6.4228Y-3.4258
X6.4228Y-3.5258
X6.5228Y-3.4258
X6.5228Y-3.5258
T5
X4.3698Y-4.0328
X6.7758Y-4.0328
T0
M30
