G04 #@! TF.FileFunction,Copper,L2,Bot,Signal*
%FSLAX46Y46*%
G04 Gerber Fmt 4.6, Leading zero omitted, Abs format (unit mm)*
G04 Created by KiCad (PCBNEW 4.0.4-stable) date 2016 October 17, Monday 14:50:17*
%MOMM*%
%LPD*%
G01*
G04 APERTURE LIST*
%ADD10C,0.100000*%
%ADD11R,1.524000X2.286000*%
%ADD12O,1.524000X2.286000*%
%ADD13C,0.900000*%
%ADD14C,4.572000*%
%ADD15C,0.914400*%
%ADD16C,0.600000*%
%ADD17C,0.254000*%
G04 APERTURE END LIST*
D10*
D11*
X117419120Y-89809320D03*
D12*
X119959120Y-89809320D03*
X122499120Y-89809320D03*
X125039120Y-89809320D03*
X127579120Y-89809320D03*
X130119120Y-89809320D03*
X132659120Y-89809320D03*
X135199120Y-89809320D03*
X137739120Y-89809320D03*
X140279120Y-89809320D03*
X142819120Y-89809320D03*
X145359120Y-89809320D03*
X147899120Y-89809320D03*
X150439120Y-89809320D03*
X152979120Y-89809320D03*
X155519120Y-89809320D03*
X158059120Y-89809320D03*
X160599120Y-89809320D03*
X163139120Y-89809320D03*
X165679120Y-89809320D03*
X117419120Y-86761320D03*
X119959120Y-86761320D03*
X122499120Y-86761320D03*
X125039120Y-86761320D03*
X127579120Y-86761320D03*
X130119120Y-86761320D03*
X132659120Y-86761320D03*
X135199120Y-86761320D03*
X137739120Y-86761320D03*
X140279120Y-86761320D03*
X142819120Y-86761320D03*
X145359120Y-86761320D03*
X147899120Y-86761320D03*
X150439120Y-86761320D03*
X152979120Y-86761320D03*
X155519120Y-86761320D03*
X158059120Y-86761320D03*
X160599120Y-86761320D03*
X163139120Y-86761320D03*
X165679120Y-86761320D03*
D13*
X129499360Y-77541120D03*
X130769360Y-77541120D03*
X132039360Y-77541120D03*
X133309360Y-77541120D03*
X134579360Y-77541120D03*
X135849360Y-77541120D03*
X137119360Y-77541120D03*
X138389360Y-77541120D03*
X139659360Y-77541120D03*
X140929360Y-77541120D03*
X142199360Y-77541120D03*
X143469360Y-77541120D03*
X144739360Y-77541120D03*
X146009360Y-77541120D03*
X147279360Y-77541120D03*
X148549360Y-77541120D03*
X149819360Y-77541120D03*
X151089360Y-77541120D03*
X152359360Y-77541120D03*
X153629360Y-77541120D03*
X129499360Y-78811120D03*
X130769360Y-78811120D03*
X132039360Y-78811120D03*
X133309360Y-78811120D03*
X134579360Y-78811120D03*
X135849360Y-78811120D03*
X137119360Y-78811120D03*
X138389360Y-78811120D03*
X139659360Y-78811120D03*
X140929360Y-78811120D03*
X142199360Y-78811120D03*
X143469360Y-78811120D03*
X144739360Y-78811120D03*
X146009360Y-78811120D03*
X147279360Y-78811120D03*
X148549360Y-78811120D03*
X149819360Y-78811120D03*
X151089360Y-78811120D03*
X152359360Y-78811120D03*
X153629360Y-78811120D03*
D14*
X172105320Y-102433120D03*
X110992920Y-102433120D03*
D15*
X163697920Y-99588320D03*
X160929320Y-99588320D03*
X158160720Y-99588320D03*
X155392120Y-99588320D03*
X152623520Y-99588320D03*
X149854920Y-99588320D03*
X147086320Y-99588320D03*
X144317720Y-99588320D03*
X141549120Y-99588320D03*
X138780520Y-99588320D03*
X136011920Y-99588320D03*
X133243320Y-99588320D03*
X130474720Y-99588320D03*
X127706120Y-99588320D03*
X124937520Y-99588320D03*
X122168920Y-99588320D03*
X119400320Y-99588320D03*
X162250120Y-102433120D03*
X152623520Y-105277920D03*
X155392120Y-105277920D03*
X158160720Y-105277920D03*
X149854920Y-105277920D03*
X147086320Y-105277920D03*
X160929320Y-105277920D03*
X163697920Y-105277920D03*
X124937520Y-105277920D03*
X119400320Y-105277920D03*
X122168920Y-105277920D03*
X141549120Y-105277920D03*
X130474720Y-105277920D03*
X144317720Y-105277920D03*
X133243320Y-105277920D03*
X138780520Y-105277920D03*
X136011920Y-105277920D03*
X127706120Y-105277920D03*
X159506920Y-102433120D03*
X156738320Y-102433120D03*
X153969720Y-102433120D03*
X151226520Y-102433120D03*
X148457920Y-102433120D03*
X145689320Y-102433120D03*
X142946120Y-102433120D03*
X140152120Y-102433120D03*
X137408920Y-102433120D03*
X134640320Y-102433120D03*
X131871720Y-102433120D03*
X129128520Y-102433120D03*
X126359920Y-102433120D03*
X123591320Y-102433120D03*
X120848120Y-102433120D03*
D16*
X113515140Y-93619320D03*
X169583100Y-93619320D03*
D17*
G36*
X175256120Y-109978120D02*
X107842120Y-109978120D01*
X107842120Y-105469068D01*
X118434953Y-105469068D01*
X118581586Y-105823947D01*
X118852864Y-106095699D01*
X119207488Y-106242952D01*
X119591468Y-106243287D01*
X119946347Y-106096654D01*
X120218099Y-105825376D01*
X120365352Y-105470752D01*
X120365353Y-105469068D01*
X121203553Y-105469068D01*
X121350186Y-105823947D01*
X121621464Y-106095699D01*
X121976088Y-106242952D01*
X122360068Y-106243287D01*
X122714947Y-106096654D01*
X122986699Y-105825376D01*
X123133952Y-105470752D01*
X123133953Y-105469068D01*
X123972153Y-105469068D01*
X124118786Y-105823947D01*
X124390064Y-106095699D01*
X124744688Y-106242952D01*
X125128668Y-106243287D01*
X125483547Y-106096654D01*
X125755299Y-105825376D01*
X125902552Y-105470752D01*
X125902553Y-105469068D01*
X126740753Y-105469068D01*
X126887386Y-105823947D01*
X127158664Y-106095699D01*
X127513288Y-106242952D01*
X127897268Y-106243287D01*
X128252147Y-106096654D01*
X128523899Y-105825376D01*
X128671152Y-105470752D01*
X128671153Y-105469068D01*
X129509353Y-105469068D01*
X129655986Y-105823947D01*
X129927264Y-106095699D01*
X130281888Y-106242952D01*
X130665868Y-106243287D01*
X131020747Y-106096654D01*
X131292499Y-105825376D01*
X131439752Y-105470752D01*
X131439753Y-105469068D01*
X132277953Y-105469068D01*
X132424586Y-105823947D01*
X132695864Y-106095699D01*
X133050488Y-106242952D01*
X133434468Y-106243287D01*
X133789347Y-106096654D01*
X134061099Y-105825376D01*
X134208352Y-105470752D01*
X134208353Y-105469068D01*
X135046553Y-105469068D01*
X135193186Y-105823947D01*
X135464464Y-106095699D01*
X135819088Y-106242952D01*
X136203068Y-106243287D01*
X136557947Y-106096654D01*
X136829699Y-105825376D01*
X136976952Y-105470752D01*
X136976953Y-105469068D01*
X137815153Y-105469068D01*
X137961786Y-105823947D01*
X138233064Y-106095699D01*
X138587688Y-106242952D01*
X138971668Y-106243287D01*
X139326547Y-106096654D01*
X139598299Y-105825376D01*
X139745552Y-105470752D01*
X139745553Y-105469068D01*
X143352353Y-105469068D01*
X143498986Y-105823947D01*
X143770264Y-106095699D01*
X144124888Y-106242952D01*
X144508868Y-106243287D01*
X144863747Y-106096654D01*
X145135499Y-105825376D01*
X145282752Y-105470752D01*
X145282753Y-105469068D01*
X146120953Y-105469068D01*
X146267586Y-105823947D01*
X146538864Y-106095699D01*
X146893488Y-106242952D01*
X147277468Y-106243287D01*
X147632347Y-106096654D01*
X147904099Y-105825376D01*
X148051352Y-105470752D01*
X148051353Y-105469068D01*
X148889553Y-105469068D01*
X149036186Y-105823947D01*
X149307464Y-106095699D01*
X149662088Y-106242952D01*
X150046068Y-106243287D01*
X150400947Y-106096654D01*
X150672699Y-105825376D01*
X150819952Y-105470752D01*
X150819953Y-105469068D01*
X151658153Y-105469068D01*
X151804786Y-105823947D01*
X152076064Y-106095699D01*
X152430688Y-106242952D01*
X152814668Y-106243287D01*
X153169547Y-106096654D01*
X153441299Y-105825376D01*
X153588552Y-105470752D01*
X153588553Y-105469068D01*
X154426753Y-105469068D01*
X154573386Y-105823947D01*
X154844664Y-106095699D01*
X155199288Y-106242952D01*
X155583268Y-106243287D01*
X155938147Y-106096654D01*
X156209899Y-105825376D01*
X156357152Y-105470752D01*
X156357153Y-105469068D01*
X157195353Y-105469068D01*
X157341986Y-105823947D01*
X157613264Y-106095699D01*
X157967888Y-106242952D01*
X158351868Y-106243287D01*
X158706747Y-106096654D01*
X158978499Y-105825376D01*
X159125752Y-105470752D01*
X159125753Y-105469068D01*
X159963953Y-105469068D01*
X160110586Y-105823947D01*
X160381864Y-106095699D01*
X160736488Y-106242952D01*
X161120468Y-106243287D01*
X161475347Y-106096654D01*
X161747099Y-105825376D01*
X161894352Y-105470752D01*
X161894353Y-105469068D01*
X162732553Y-105469068D01*
X162879186Y-105823947D01*
X163150464Y-106095699D01*
X163505088Y-106242952D01*
X163889068Y-106243287D01*
X164243947Y-106096654D01*
X164515699Y-105825376D01*
X164662952Y-105470752D01*
X164663287Y-105086772D01*
X164516654Y-104731893D01*
X164245376Y-104460141D01*
X163890752Y-104312888D01*
X163506772Y-104312553D01*
X163151893Y-104459186D01*
X162880141Y-104730464D01*
X162732888Y-105085088D01*
X162732553Y-105469068D01*
X161894353Y-105469068D01*
X161894687Y-105086772D01*
X161748054Y-104731893D01*
X161476776Y-104460141D01*
X161122152Y-104312888D01*
X160738172Y-104312553D01*
X160383293Y-104459186D01*
X160111541Y-104730464D01*
X159964288Y-105085088D01*
X159963953Y-105469068D01*
X159125753Y-105469068D01*
X159126087Y-105086772D01*
X158979454Y-104731893D01*
X158708176Y-104460141D01*
X158353552Y-104312888D01*
X157969572Y-104312553D01*
X157614693Y-104459186D01*
X157342941Y-104730464D01*
X157195688Y-105085088D01*
X157195353Y-105469068D01*
X156357153Y-105469068D01*
X156357487Y-105086772D01*
X156210854Y-104731893D01*
X155939576Y-104460141D01*
X155584952Y-104312888D01*
X155200972Y-104312553D01*
X154846093Y-104459186D01*
X154574341Y-104730464D01*
X154427088Y-105085088D01*
X154426753Y-105469068D01*
X153588553Y-105469068D01*
X153588887Y-105086772D01*
X153442254Y-104731893D01*
X153170976Y-104460141D01*
X152816352Y-104312888D01*
X152432372Y-104312553D01*
X152077493Y-104459186D01*
X151805741Y-104730464D01*
X151658488Y-105085088D01*
X151658153Y-105469068D01*
X150819953Y-105469068D01*
X150820287Y-105086772D01*
X150673654Y-104731893D01*
X150402376Y-104460141D01*
X150047752Y-104312888D01*
X149663772Y-104312553D01*
X149308893Y-104459186D01*
X149037141Y-104730464D01*
X148889888Y-105085088D01*
X148889553Y-105469068D01*
X148051353Y-105469068D01*
X148051687Y-105086772D01*
X147905054Y-104731893D01*
X147633776Y-104460141D01*
X147279152Y-104312888D01*
X146895172Y-104312553D01*
X146540293Y-104459186D01*
X146268541Y-104730464D01*
X146121288Y-105085088D01*
X146120953Y-105469068D01*
X145282753Y-105469068D01*
X145283087Y-105086772D01*
X145136454Y-104731893D01*
X144865176Y-104460141D01*
X144510552Y-104312888D01*
X144126572Y-104312553D01*
X143771693Y-104459186D01*
X143499941Y-104730464D01*
X143352688Y-105085088D01*
X143352353Y-105469068D01*
X139745553Y-105469068D01*
X139745887Y-105086772D01*
X139599254Y-104731893D01*
X139327976Y-104460141D01*
X138973352Y-104312888D01*
X138589372Y-104312553D01*
X138234493Y-104459186D01*
X137962741Y-104730464D01*
X137815488Y-105085088D01*
X137815153Y-105469068D01*
X136976953Y-105469068D01*
X136977287Y-105086772D01*
X136830654Y-104731893D01*
X136559376Y-104460141D01*
X136204752Y-104312888D01*
X135820772Y-104312553D01*
X135465893Y-104459186D01*
X135194141Y-104730464D01*
X135046888Y-105085088D01*
X135046553Y-105469068D01*
X134208353Y-105469068D01*
X134208687Y-105086772D01*
X134062054Y-104731893D01*
X133790776Y-104460141D01*
X133436152Y-104312888D01*
X133052172Y-104312553D01*
X132697293Y-104459186D01*
X132425541Y-104730464D01*
X132278288Y-105085088D01*
X132277953Y-105469068D01*
X131439753Y-105469068D01*
X131440087Y-105086772D01*
X131293454Y-104731893D01*
X131022176Y-104460141D01*
X130667552Y-104312888D01*
X130283572Y-104312553D01*
X129928693Y-104459186D01*
X129656941Y-104730464D01*
X129509688Y-105085088D01*
X129509353Y-105469068D01*
X128671153Y-105469068D01*
X128671487Y-105086772D01*
X128524854Y-104731893D01*
X128253576Y-104460141D01*
X127898952Y-104312888D01*
X127514972Y-104312553D01*
X127160093Y-104459186D01*
X126888341Y-104730464D01*
X126741088Y-105085088D01*
X126740753Y-105469068D01*
X125902553Y-105469068D01*
X125902887Y-105086772D01*
X125756254Y-104731893D01*
X125484976Y-104460141D01*
X125130352Y-104312888D01*
X124746372Y-104312553D01*
X124391493Y-104459186D01*
X124119741Y-104730464D01*
X123972488Y-105085088D01*
X123972153Y-105469068D01*
X123133953Y-105469068D01*
X123134287Y-105086772D01*
X122987654Y-104731893D01*
X122716376Y-104460141D01*
X122361752Y-104312888D01*
X121977772Y-104312553D01*
X121622893Y-104459186D01*
X121351141Y-104730464D01*
X121203888Y-105085088D01*
X121203553Y-105469068D01*
X120365353Y-105469068D01*
X120365687Y-105086772D01*
X120219054Y-104731893D01*
X119947776Y-104460141D01*
X119593152Y-104312888D01*
X119209172Y-104312553D01*
X118854293Y-104459186D01*
X118582541Y-104730464D01*
X118435288Y-105085088D01*
X118434953Y-105469068D01*
X107842120Y-105469068D01*
X107842120Y-102986443D01*
X108198436Y-102986443D01*
X108622901Y-104013726D01*
X109408180Y-104800377D01*
X110434721Y-105226634D01*
X111546243Y-105227604D01*
X112573526Y-104803139D01*
X113360177Y-104017860D01*
X113786434Y-102991319D01*
X113786438Y-102986443D01*
X169310836Y-102986443D01*
X169735301Y-104013726D01*
X170520580Y-104800377D01*
X171547121Y-105226634D01*
X172658643Y-105227604D01*
X173685926Y-104803139D01*
X174472577Y-104017860D01*
X174898834Y-102991319D01*
X174899804Y-101879797D01*
X174475339Y-100852514D01*
X173690060Y-100065863D01*
X172663519Y-99639606D01*
X171551997Y-99638636D01*
X170524714Y-100063101D01*
X169738063Y-100848380D01*
X169311806Y-101874921D01*
X169310836Y-102986443D01*
X113786438Y-102986443D01*
X113787404Y-101879797D01*
X113362939Y-100852514D01*
X112577660Y-100065863D01*
X111887945Y-99779468D01*
X118434953Y-99779468D01*
X118581586Y-100134347D01*
X118852864Y-100406099D01*
X119207488Y-100553352D01*
X119591468Y-100553687D01*
X119946347Y-100407054D01*
X120218099Y-100135776D01*
X120365352Y-99781152D01*
X120365353Y-99779468D01*
X121203553Y-99779468D01*
X121350186Y-100134347D01*
X121621464Y-100406099D01*
X121976088Y-100553352D01*
X122360068Y-100553687D01*
X122714947Y-100407054D01*
X122986699Y-100135776D01*
X123133952Y-99781152D01*
X123133953Y-99779468D01*
X123972153Y-99779468D01*
X124118786Y-100134347D01*
X124390064Y-100406099D01*
X124744688Y-100553352D01*
X125128668Y-100553687D01*
X125483547Y-100407054D01*
X125755299Y-100135776D01*
X125902552Y-99781152D01*
X125902553Y-99779468D01*
X126740753Y-99779468D01*
X126887386Y-100134347D01*
X127158664Y-100406099D01*
X127513288Y-100553352D01*
X127897268Y-100553687D01*
X128252147Y-100407054D01*
X128523899Y-100135776D01*
X128671152Y-99781152D01*
X128671153Y-99779468D01*
X129509353Y-99779468D01*
X129655986Y-100134347D01*
X129927264Y-100406099D01*
X130281888Y-100553352D01*
X130665868Y-100553687D01*
X131020747Y-100407054D01*
X131292499Y-100135776D01*
X131439752Y-99781152D01*
X131439753Y-99779468D01*
X132277953Y-99779468D01*
X132424586Y-100134347D01*
X132695864Y-100406099D01*
X133050488Y-100553352D01*
X133434468Y-100553687D01*
X133789347Y-100407054D01*
X134061099Y-100135776D01*
X134208352Y-99781152D01*
X134208353Y-99779468D01*
X135046553Y-99779468D01*
X135193186Y-100134347D01*
X135464464Y-100406099D01*
X135819088Y-100553352D01*
X136203068Y-100553687D01*
X136557947Y-100407054D01*
X136829699Y-100135776D01*
X136976952Y-99781152D01*
X136976953Y-99779468D01*
X137815153Y-99779468D01*
X137961786Y-100134347D01*
X138233064Y-100406099D01*
X138587688Y-100553352D01*
X138971668Y-100553687D01*
X139326547Y-100407054D01*
X139598299Y-100135776D01*
X139745552Y-99781152D01*
X139745553Y-99779468D01*
X143352353Y-99779468D01*
X143498986Y-100134347D01*
X143770264Y-100406099D01*
X144124888Y-100553352D01*
X144508868Y-100553687D01*
X144863747Y-100407054D01*
X145135499Y-100135776D01*
X145282752Y-99781152D01*
X145282753Y-99779468D01*
X146120953Y-99779468D01*
X146267586Y-100134347D01*
X146538864Y-100406099D01*
X146893488Y-100553352D01*
X147277468Y-100553687D01*
X147632347Y-100407054D01*
X147904099Y-100135776D01*
X148051352Y-99781152D01*
X148051353Y-99779468D01*
X148889553Y-99779468D01*
X149036186Y-100134347D01*
X149307464Y-100406099D01*
X149662088Y-100553352D01*
X150046068Y-100553687D01*
X150400947Y-100407054D01*
X150672699Y-100135776D01*
X150819952Y-99781152D01*
X150819953Y-99779468D01*
X151658153Y-99779468D01*
X151804786Y-100134347D01*
X152076064Y-100406099D01*
X152430688Y-100553352D01*
X152814668Y-100553687D01*
X153169547Y-100407054D01*
X153441299Y-100135776D01*
X153588552Y-99781152D01*
X153588553Y-99779468D01*
X154426753Y-99779468D01*
X154573386Y-100134347D01*
X154844664Y-100406099D01*
X155199288Y-100553352D01*
X155583268Y-100553687D01*
X155938147Y-100407054D01*
X156209899Y-100135776D01*
X156357152Y-99781152D01*
X156357153Y-99779468D01*
X157195353Y-99779468D01*
X157341986Y-100134347D01*
X157613264Y-100406099D01*
X157967888Y-100553352D01*
X158351868Y-100553687D01*
X158706747Y-100407054D01*
X158978499Y-100135776D01*
X159125752Y-99781152D01*
X159125753Y-99779468D01*
X159963953Y-99779468D01*
X160110586Y-100134347D01*
X160381864Y-100406099D01*
X160736488Y-100553352D01*
X161120468Y-100553687D01*
X161475347Y-100407054D01*
X161747099Y-100135776D01*
X161894352Y-99781152D01*
X161894353Y-99779468D01*
X162732553Y-99779468D01*
X162879186Y-100134347D01*
X163150464Y-100406099D01*
X163505088Y-100553352D01*
X163889068Y-100553687D01*
X164243947Y-100407054D01*
X164515699Y-100135776D01*
X164662952Y-99781152D01*
X164663287Y-99397172D01*
X164516654Y-99042293D01*
X164245376Y-98770541D01*
X163890752Y-98623288D01*
X163506772Y-98622953D01*
X163151893Y-98769586D01*
X162880141Y-99040864D01*
X162732888Y-99395488D01*
X162732553Y-99779468D01*
X161894353Y-99779468D01*
X161894687Y-99397172D01*
X161748054Y-99042293D01*
X161476776Y-98770541D01*
X161122152Y-98623288D01*
X160738172Y-98622953D01*
X160383293Y-98769586D01*
X160111541Y-99040864D01*
X159964288Y-99395488D01*
X159963953Y-99779468D01*
X159125753Y-99779468D01*
X159126087Y-99397172D01*
X158979454Y-99042293D01*
X158708176Y-98770541D01*
X158353552Y-98623288D01*
X157969572Y-98622953D01*
X157614693Y-98769586D01*
X157342941Y-99040864D01*
X157195688Y-99395488D01*
X157195353Y-99779468D01*
X156357153Y-99779468D01*
X156357487Y-99397172D01*
X156210854Y-99042293D01*
X155939576Y-98770541D01*
X155584952Y-98623288D01*
X155200972Y-98622953D01*
X154846093Y-98769586D01*
X154574341Y-99040864D01*
X154427088Y-99395488D01*
X154426753Y-99779468D01*
X153588553Y-99779468D01*
X153588887Y-99397172D01*
X153442254Y-99042293D01*
X153170976Y-98770541D01*
X152816352Y-98623288D01*
X152432372Y-98622953D01*
X152077493Y-98769586D01*
X151805741Y-99040864D01*
X151658488Y-99395488D01*
X151658153Y-99779468D01*
X150819953Y-99779468D01*
X150820287Y-99397172D01*
X150673654Y-99042293D01*
X150402376Y-98770541D01*
X150047752Y-98623288D01*
X149663772Y-98622953D01*
X149308893Y-98769586D01*
X149037141Y-99040864D01*
X148889888Y-99395488D01*
X148889553Y-99779468D01*
X148051353Y-99779468D01*
X148051687Y-99397172D01*
X147905054Y-99042293D01*
X147633776Y-98770541D01*
X147279152Y-98623288D01*
X146895172Y-98622953D01*
X146540293Y-98769586D01*
X146268541Y-99040864D01*
X146121288Y-99395488D01*
X146120953Y-99779468D01*
X145282753Y-99779468D01*
X145283087Y-99397172D01*
X145136454Y-99042293D01*
X144865176Y-98770541D01*
X144510552Y-98623288D01*
X144126572Y-98622953D01*
X143771693Y-98769586D01*
X143499941Y-99040864D01*
X143352688Y-99395488D01*
X143352353Y-99779468D01*
X139745553Y-99779468D01*
X139745887Y-99397172D01*
X139599254Y-99042293D01*
X139327976Y-98770541D01*
X138973352Y-98623288D01*
X138589372Y-98622953D01*
X138234493Y-98769586D01*
X137962741Y-99040864D01*
X137815488Y-99395488D01*
X137815153Y-99779468D01*
X136976953Y-99779468D01*
X136977287Y-99397172D01*
X136830654Y-99042293D01*
X136559376Y-98770541D01*
X136204752Y-98623288D01*
X135820772Y-98622953D01*
X135465893Y-98769586D01*
X135194141Y-99040864D01*
X135046888Y-99395488D01*
X135046553Y-99779468D01*
X134208353Y-99779468D01*
X134208687Y-99397172D01*
X134062054Y-99042293D01*
X133790776Y-98770541D01*
X133436152Y-98623288D01*
X133052172Y-98622953D01*
X132697293Y-98769586D01*
X132425541Y-99040864D01*
X132278288Y-99395488D01*
X132277953Y-99779468D01*
X131439753Y-99779468D01*
X131440087Y-99397172D01*
X131293454Y-99042293D01*
X131022176Y-98770541D01*
X130667552Y-98623288D01*
X130283572Y-98622953D01*
X129928693Y-98769586D01*
X129656941Y-99040864D01*
X129509688Y-99395488D01*
X129509353Y-99779468D01*
X128671153Y-99779468D01*
X128671487Y-99397172D01*
X128524854Y-99042293D01*
X128253576Y-98770541D01*
X127898952Y-98623288D01*
X127514972Y-98622953D01*
X127160093Y-98769586D01*
X126888341Y-99040864D01*
X126741088Y-99395488D01*
X126740753Y-99779468D01*
X125902553Y-99779468D01*
X125902887Y-99397172D01*
X125756254Y-99042293D01*
X125484976Y-98770541D01*
X125130352Y-98623288D01*
X124746372Y-98622953D01*
X124391493Y-98769586D01*
X124119741Y-99040864D01*
X123972488Y-99395488D01*
X123972153Y-99779468D01*
X123133953Y-99779468D01*
X123134287Y-99397172D01*
X122987654Y-99042293D01*
X122716376Y-98770541D01*
X122361752Y-98623288D01*
X121977772Y-98622953D01*
X121622893Y-98769586D01*
X121351141Y-99040864D01*
X121203888Y-99395488D01*
X121203553Y-99779468D01*
X120365353Y-99779468D01*
X120365687Y-99397172D01*
X120219054Y-99042293D01*
X119947776Y-98770541D01*
X119593152Y-98623288D01*
X119209172Y-98622953D01*
X118854293Y-98769586D01*
X118582541Y-99040864D01*
X118435288Y-99395488D01*
X118434953Y-99779468D01*
X111887945Y-99779468D01*
X111551119Y-99639606D01*
X110439597Y-99638636D01*
X109412314Y-100063101D01*
X108625663Y-100848380D01*
X108199406Y-101874921D01*
X108198436Y-102986443D01*
X107842120Y-102986443D01*
X107842120Y-88666320D01*
X116139168Y-88666320D01*
X116139168Y-90952320D01*
X116174590Y-91140573D01*
X116285848Y-91313473D01*
X116455608Y-91429465D01*
X116657120Y-91470272D01*
X118181120Y-91470272D01*
X118369373Y-91434850D01*
X118542273Y-91323592D01*
X118658265Y-91153832D01*
X118699072Y-90952320D01*
X118699072Y-90272697D01*
X118785793Y-90708673D01*
X119061094Y-91120691D01*
X119473112Y-91395992D01*
X119959120Y-91492665D01*
X120445128Y-91395992D01*
X120857146Y-91120691D01*
X121132447Y-90708673D01*
X121229120Y-90222665D01*
X121229120Y-89395975D01*
X121132447Y-88909967D01*
X120857146Y-88497949D01*
X120538923Y-88285320D01*
X120857146Y-88072691D01*
X121132447Y-87660673D01*
X121229120Y-87174665D01*
X121229120Y-86347975D01*
X123769120Y-86347975D01*
X123769120Y-87174665D01*
X123865793Y-87660673D01*
X124141094Y-88072691D01*
X124459317Y-88285320D01*
X124141094Y-88497949D01*
X123865793Y-88909967D01*
X123769120Y-89395975D01*
X123769120Y-90222665D01*
X123865793Y-90708673D01*
X124141094Y-91120691D01*
X124553112Y-91395992D01*
X125039120Y-91492665D01*
X125525128Y-91395992D01*
X125937146Y-91120691D01*
X126212447Y-90708673D01*
X126309120Y-90222665D01*
X126405793Y-90708673D01*
X126681094Y-91120691D01*
X127093112Y-91395992D01*
X127579120Y-91492665D01*
X128065128Y-91395992D01*
X128477146Y-91120691D01*
X128752447Y-90708673D01*
X128849120Y-90222665D01*
X128945793Y-90708673D01*
X129221094Y-91120691D01*
X129633112Y-91395992D01*
X130119120Y-91492665D01*
X130605128Y-91395992D01*
X131017146Y-91120691D01*
X131292447Y-90708673D01*
X131389120Y-90222665D01*
X131389120Y-89395975D01*
X131292447Y-88909967D01*
X131017146Y-88497949D01*
X130698923Y-88285320D01*
X131017146Y-88072691D01*
X131292447Y-87660673D01*
X131389120Y-87174665D01*
X131389120Y-86347975D01*
X133929120Y-86347975D01*
X133929120Y-87174665D01*
X134025793Y-87660673D01*
X134301094Y-88072691D01*
X134619317Y-88285320D01*
X134301094Y-88497949D01*
X134025793Y-88909967D01*
X133929120Y-89395975D01*
X133929120Y-90222665D01*
X134025793Y-90708673D01*
X134301094Y-91120691D01*
X134713112Y-91395992D01*
X135199120Y-91492665D01*
X135685128Y-91395992D01*
X136097146Y-91120691D01*
X136372447Y-90708673D01*
X136469120Y-90222665D01*
X136565793Y-90708673D01*
X136841094Y-91120691D01*
X137253112Y-91395992D01*
X137739120Y-91492665D01*
X138225128Y-91395992D01*
X138637146Y-91120691D01*
X138912447Y-90708673D01*
X139009120Y-90222665D01*
X139105793Y-90708673D01*
X139381094Y-91120691D01*
X139793112Y-91395992D01*
X140279120Y-91492665D01*
X140765128Y-91395992D01*
X141177146Y-91120691D01*
X141452447Y-90708673D01*
X141549120Y-90222665D01*
X141645793Y-90708673D01*
X141921094Y-91120691D01*
X142333112Y-91395992D01*
X142819120Y-91492665D01*
X143305128Y-91395992D01*
X143717146Y-91120691D01*
X143992447Y-90708673D01*
X144089120Y-90222665D01*
X144185793Y-90708673D01*
X144461094Y-91120691D01*
X144873112Y-91395992D01*
X145359120Y-91492665D01*
X145845128Y-91395992D01*
X146257146Y-91120691D01*
X146532447Y-90708673D01*
X146629120Y-90222665D01*
X146725793Y-90708673D01*
X147001094Y-91120691D01*
X147413112Y-91395992D01*
X147899120Y-91492665D01*
X148385128Y-91395992D01*
X148797146Y-91120691D01*
X149072447Y-90708673D01*
X149169120Y-90222665D01*
X149169120Y-89395975D01*
X149072447Y-88909967D01*
X148797146Y-88497949D01*
X148478923Y-88285320D01*
X148797146Y-88072691D01*
X149072447Y-87660673D01*
X149169120Y-87174665D01*
X149169120Y-86347975D01*
X151709120Y-86347975D01*
X151709120Y-87174665D01*
X151805793Y-87660673D01*
X152081094Y-88072691D01*
X152399317Y-88285320D01*
X152081094Y-88497949D01*
X151805793Y-88909967D01*
X151709120Y-89395975D01*
X151709120Y-90222665D01*
X151805793Y-90708673D01*
X152081094Y-91120691D01*
X152493112Y-91395992D01*
X152979120Y-91492665D01*
X153465128Y-91395992D01*
X153877146Y-91120691D01*
X154152447Y-90708673D01*
X154249120Y-90222665D01*
X154345793Y-90708673D01*
X154621094Y-91120691D01*
X155033112Y-91395992D01*
X155519120Y-91492665D01*
X156005128Y-91395992D01*
X156417146Y-91120691D01*
X156692447Y-90708673D01*
X156789120Y-90222665D01*
X156885793Y-90708673D01*
X157161094Y-91120691D01*
X157573112Y-91395992D01*
X158059120Y-91492665D01*
X158545128Y-91395992D01*
X158957146Y-91120691D01*
X159232447Y-90708673D01*
X159329120Y-90222665D01*
X159329120Y-89395975D01*
X159232447Y-88909967D01*
X158957146Y-88497949D01*
X158638923Y-88285320D01*
X158957146Y-88072691D01*
X159232447Y-87660673D01*
X159329120Y-87174665D01*
X159329120Y-86347975D01*
X161869120Y-86347975D01*
X161869120Y-87174665D01*
X161965793Y-87660673D01*
X162241094Y-88072691D01*
X162559317Y-88285320D01*
X162241094Y-88497949D01*
X161965793Y-88909967D01*
X161869120Y-89395975D01*
X161869120Y-90222665D01*
X161965793Y-90708673D01*
X162241094Y-91120691D01*
X162653112Y-91395992D01*
X163139120Y-91492665D01*
X163625128Y-91395992D01*
X164037146Y-91120691D01*
X164312447Y-90708673D01*
X164409120Y-90222665D01*
X164505793Y-90708673D01*
X164781094Y-91120691D01*
X165193112Y-91395992D01*
X165679120Y-91492665D01*
X166165128Y-91395992D01*
X166577146Y-91120691D01*
X166852447Y-90708673D01*
X166949120Y-90222665D01*
X166949120Y-89395975D01*
X166852447Y-88909967D01*
X166577146Y-88497949D01*
X166258923Y-88285320D01*
X166577146Y-88072691D01*
X166852447Y-87660673D01*
X166949120Y-87174665D01*
X166949120Y-86347975D01*
X166852447Y-85861967D01*
X166577146Y-85449949D01*
X166165128Y-85174648D01*
X165679120Y-85077975D01*
X165193112Y-85174648D01*
X164781094Y-85449949D01*
X164505793Y-85861967D01*
X164409120Y-86347975D01*
X164312447Y-85861967D01*
X164037146Y-85449949D01*
X163625128Y-85174648D01*
X163139120Y-85077975D01*
X162653112Y-85174648D01*
X162241094Y-85449949D01*
X161965793Y-85861967D01*
X161869120Y-86347975D01*
X159329120Y-86347975D01*
X159232447Y-85861967D01*
X158957146Y-85449949D01*
X158545128Y-85174648D01*
X158059120Y-85077975D01*
X157573112Y-85174648D01*
X157161094Y-85449949D01*
X156885793Y-85861967D01*
X156789120Y-86347975D01*
X156692447Y-85861967D01*
X156417146Y-85449949D01*
X156005128Y-85174648D01*
X155519120Y-85077975D01*
X155033112Y-85174648D01*
X154621094Y-85449949D01*
X154345793Y-85861967D01*
X154249120Y-86347975D01*
X154152447Y-85861967D01*
X153877146Y-85449949D01*
X153465128Y-85174648D01*
X152979120Y-85077975D01*
X152493112Y-85174648D01*
X152081094Y-85449949D01*
X151805793Y-85861967D01*
X151709120Y-86347975D01*
X149169120Y-86347975D01*
X149072447Y-85861967D01*
X148797146Y-85449949D01*
X148385128Y-85174648D01*
X147899120Y-85077975D01*
X147413112Y-85174648D01*
X147001094Y-85449949D01*
X146725793Y-85861967D01*
X146629120Y-86347975D01*
X146532447Y-85861967D01*
X146257146Y-85449949D01*
X145845128Y-85174648D01*
X145359120Y-85077975D01*
X144873112Y-85174648D01*
X144461094Y-85449949D01*
X144185793Y-85861967D01*
X144089120Y-86347975D01*
X143992447Y-85861967D01*
X143717146Y-85449949D01*
X143305128Y-85174648D01*
X142819120Y-85077975D01*
X142333112Y-85174648D01*
X141921094Y-85449949D01*
X141645793Y-85861967D01*
X141549120Y-86347975D01*
X141452447Y-85861967D01*
X141177146Y-85449949D01*
X140765128Y-85174648D01*
X140279120Y-85077975D01*
X139793112Y-85174648D01*
X139381094Y-85449949D01*
X139105793Y-85861967D01*
X139009120Y-86347975D01*
X138912447Y-85861967D01*
X138637146Y-85449949D01*
X138225128Y-85174648D01*
X137739120Y-85077975D01*
X137253112Y-85174648D01*
X136841094Y-85449949D01*
X136565793Y-85861967D01*
X136469120Y-86347975D01*
X136372447Y-85861967D01*
X136097146Y-85449949D01*
X135685128Y-85174648D01*
X135199120Y-85077975D01*
X134713112Y-85174648D01*
X134301094Y-85449949D01*
X134025793Y-85861967D01*
X133929120Y-86347975D01*
X131389120Y-86347975D01*
X131292447Y-85861967D01*
X131017146Y-85449949D01*
X130605128Y-85174648D01*
X130119120Y-85077975D01*
X129633112Y-85174648D01*
X129221094Y-85449949D01*
X128945793Y-85861967D01*
X128849120Y-86347975D01*
X128752447Y-85861967D01*
X128477146Y-85449949D01*
X128065128Y-85174648D01*
X127579120Y-85077975D01*
X127093112Y-85174648D01*
X126681094Y-85449949D01*
X126405793Y-85861967D01*
X126309120Y-86347975D01*
X126212447Y-85861967D01*
X125937146Y-85449949D01*
X125525128Y-85174648D01*
X125039120Y-85077975D01*
X124553112Y-85174648D01*
X124141094Y-85449949D01*
X123865793Y-85861967D01*
X123769120Y-86347975D01*
X121229120Y-86347975D01*
X121132447Y-85861967D01*
X120857146Y-85449949D01*
X120445128Y-85174648D01*
X119959120Y-85077975D01*
X119473112Y-85174648D01*
X119061094Y-85449949D01*
X118785793Y-85861967D01*
X118689120Y-86347975D01*
X118592447Y-85861967D01*
X118317146Y-85449949D01*
X117905128Y-85174648D01*
X117419120Y-85077975D01*
X116933112Y-85174648D01*
X116521094Y-85449949D01*
X116245793Y-85861967D01*
X116149120Y-86347975D01*
X116149120Y-87174665D01*
X116245793Y-87660673D01*
X116521094Y-88072691D01*
X116639355Y-88151711D01*
X116468867Y-88183790D01*
X116295967Y-88295048D01*
X116179975Y-88464808D01*
X116139168Y-88666320D01*
X107842120Y-88666320D01*
X107842120Y-77730842D01*
X128541194Y-77730842D01*
X128686734Y-78083074D01*
X128779544Y-78176046D01*
X128687681Y-78267748D01*
X128541527Y-78619726D01*
X128541194Y-79000842D01*
X128686734Y-79353074D01*
X128955988Y-79622799D01*
X129307966Y-79768953D01*
X129689082Y-79769286D01*
X130041314Y-79623746D01*
X130134286Y-79530936D01*
X130225988Y-79622799D01*
X130577966Y-79768953D01*
X130959082Y-79769286D01*
X131311314Y-79623746D01*
X131581039Y-79354492D01*
X131727193Y-79002514D01*
X131727526Y-78621398D01*
X131581986Y-78269166D01*
X131489176Y-78176194D01*
X131581039Y-78084492D01*
X131727193Y-77732514D01*
X131727194Y-77730842D01*
X132351194Y-77730842D01*
X132496734Y-78083074D01*
X132589544Y-78176046D01*
X132497681Y-78267748D01*
X132351527Y-78619726D01*
X132351194Y-79000842D01*
X132496734Y-79353074D01*
X132765988Y-79622799D01*
X133117966Y-79768953D01*
X133499082Y-79769286D01*
X133851314Y-79623746D01*
X133944286Y-79530936D01*
X134035988Y-79622799D01*
X134387966Y-79768953D01*
X134769082Y-79769286D01*
X135121314Y-79623746D01*
X135214286Y-79530936D01*
X135305988Y-79622799D01*
X135657966Y-79768953D01*
X136039082Y-79769286D01*
X136391314Y-79623746D01*
X136661039Y-79354492D01*
X136807193Y-79002514D01*
X136807526Y-78621398D01*
X136661986Y-78269166D01*
X136569176Y-78176194D01*
X136661039Y-78084492D01*
X136807193Y-77732514D01*
X136807194Y-77730842D01*
X137431194Y-77730842D01*
X137576734Y-78083074D01*
X137669544Y-78176046D01*
X137577681Y-78267748D01*
X137431527Y-78619726D01*
X137431194Y-79000842D01*
X137576734Y-79353074D01*
X137845988Y-79622799D01*
X138197966Y-79768953D01*
X138579082Y-79769286D01*
X138931314Y-79623746D01*
X139024286Y-79530936D01*
X139115988Y-79622799D01*
X139467966Y-79768953D01*
X139849082Y-79769286D01*
X140201314Y-79623746D01*
X140294286Y-79530936D01*
X140385988Y-79622799D01*
X140737966Y-79768953D01*
X141119082Y-79769286D01*
X141471314Y-79623746D01*
X141564286Y-79530936D01*
X141655988Y-79622799D01*
X142007966Y-79768953D01*
X142389082Y-79769286D01*
X142741314Y-79623746D01*
X142834286Y-79530936D01*
X142925988Y-79622799D01*
X143277966Y-79768953D01*
X143659082Y-79769286D01*
X144011314Y-79623746D01*
X144104286Y-79530936D01*
X144195988Y-79622799D01*
X144547966Y-79768953D01*
X144929082Y-79769286D01*
X145281314Y-79623746D01*
X145551039Y-79354492D01*
X145697193Y-79002514D01*
X145697526Y-78621398D01*
X145551986Y-78269166D01*
X145459176Y-78176194D01*
X145551039Y-78084492D01*
X145697193Y-77732514D01*
X145697194Y-77730842D01*
X146321194Y-77730842D01*
X146466734Y-78083074D01*
X146559544Y-78176046D01*
X146467681Y-78267748D01*
X146321527Y-78619726D01*
X146321194Y-79000842D01*
X146466734Y-79353074D01*
X146735988Y-79622799D01*
X147087966Y-79768953D01*
X147469082Y-79769286D01*
X147821314Y-79623746D01*
X147914286Y-79530936D01*
X148005988Y-79622799D01*
X148357966Y-79768953D01*
X148739082Y-79769286D01*
X149091314Y-79623746D01*
X149184286Y-79530936D01*
X149275988Y-79622799D01*
X149627966Y-79768953D01*
X150009082Y-79769286D01*
X150361314Y-79623746D01*
X150631039Y-79354492D01*
X150777193Y-79002514D01*
X150777526Y-78621398D01*
X150631986Y-78269166D01*
X150539176Y-78176194D01*
X150631039Y-78084492D01*
X150777193Y-77732514D01*
X150777194Y-77730842D01*
X151401194Y-77730842D01*
X151546734Y-78083074D01*
X151639544Y-78176046D01*
X151547681Y-78267748D01*
X151401527Y-78619726D01*
X151401194Y-79000842D01*
X151546734Y-79353074D01*
X151815988Y-79622799D01*
X152167966Y-79768953D01*
X152549082Y-79769286D01*
X152901314Y-79623746D01*
X152994286Y-79530936D01*
X153085988Y-79622799D01*
X153437966Y-79768953D01*
X153819082Y-79769286D01*
X154171314Y-79623746D01*
X154441039Y-79354492D01*
X154587193Y-79002514D01*
X154587526Y-78621398D01*
X154441986Y-78269166D01*
X154349176Y-78176194D01*
X154441039Y-78084492D01*
X154587193Y-77732514D01*
X154587526Y-77351398D01*
X154441986Y-76999166D01*
X154172732Y-76729441D01*
X153820754Y-76583287D01*
X153439638Y-76582954D01*
X153087406Y-76728494D01*
X152994434Y-76821304D01*
X152902732Y-76729441D01*
X152550754Y-76583287D01*
X152169638Y-76582954D01*
X151817406Y-76728494D01*
X151547681Y-76997748D01*
X151401527Y-77349726D01*
X151401194Y-77730842D01*
X150777194Y-77730842D01*
X150777526Y-77351398D01*
X150631986Y-76999166D01*
X150362732Y-76729441D01*
X150010754Y-76583287D01*
X149629638Y-76582954D01*
X149277406Y-76728494D01*
X149184434Y-76821304D01*
X149092732Y-76729441D01*
X148740754Y-76583287D01*
X148359638Y-76582954D01*
X148007406Y-76728494D01*
X147914434Y-76821304D01*
X147822732Y-76729441D01*
X147470754Y-76583287D01*
X147089638Y-76582954D01*
X146737406Y-76728494D01*
X146467681Y-76997748D01*
X146321527Y-77349726D01*
X146321194Y-77730842D01*
X145697194Y-77730842D01*
X145697526Y-77351398D01*
X145551986Y-76999166D01*
X145282732Y-76729441D01*
X144930754Y-76583287D01*
X144549638Y-76582954D01*
X144197406Y-76728494D01*
X144104434Y-76821304D01*
X144012732Y-76729441D01*
X143660754Y-76583287D01*
X143279638Y-76582954D01*
X142927406Y-76728494D01*
X142834434Y-76821304D01*
X142742732Y-76729441D01*
X142390754Y-76583287D01*
X142009638Y-76582954D01*
X141657406Y-76728494D01*
X141564434Y-76821304D01*
X141472732Y-76729441D01*
X141120754Y-76583287D01*
X140739638Y-76582954D01*
X140387406Y-76728494D01*
X140294434Y-76821304D01*
X140202732Y-76729441D01*
X139850754Y-76583287D01*
X139469638Y-76582954D01*
X139117406Y-76728494D01*
X139024434Y-76821304D01*
X138932732Y-76729441D01*
X138580754Y-76583287D01*
X138199638Y-76582954D01*
X137847406Y-76728494D01*
X137577681Y-76997748D01*
X137431527Y-77349726D01*
X137431194Y-77730842D01*
X136807194Y-77730842D01*
X136807526Y-77351398D01*
X136661986Y-76999166D01*
X136392732Y-76729441D01*
X136040754Y-76583287D01*
X135659638Y-76582954D01*
X135307406Y-76728494D01*
X135214434Y-76821304D01*
X135122732Y-76729441D01*
X134770754Y-76583287D01*
X134389638Y-76582954D01*
X134037406Y-76728494D01*
X133944434Y-76821304D01*
X133852732Y-76729441D01*
X133500754Y-76583287D01*
X133119638Y-76582954D01*
X132767406Y-76728494D01*
X132497681Y-76997748D01*
X132351527Y-77349726D01*
X132351194Y-77730842D01*
X131727194Y-77730842D01*
X131727526Y-77351398D01*
X131581986Y-76999166D01*
X131312732Y-76729441D01*
X130960754Y-76583287D01*
X130579638Y-76582954D01*
X130227406Y-76728494D01*
X130134434Y-76821304D01*
X130042732Y-76729441D01*
X129690754Y-76583287D01*
X129309638Y-76582954D01*
X128957406Y-76728494D01*
X128687681Y-76997748D01*
X128541527Y-77349726D01*
X128541194Y-77730842D01*
X107842120Y-77730842D01*
X107842120Y-75584120D01*
X175256120Y-75584120D01*
X175256120Y-109978120D01*
X175256120Y-109978120D01*
G37*
X175256120Y-109978120D02*
X107842120Y-109978120D01*
X107842120Y-105469068D01*
X118434953Y-105469068D01*
X118581586Y-105823947D01*
X118852864Y-106095699D01*
X119207488Y-106242952D01*
X119591468Y-106243287D01*
X119946347Y-106096654D01*
X120218099Y-105825376D01*
X120365352Y-105470752D01*
X120365353Y-105469068D01*
X121203553Y-105469068D01*
X121350186Y-105823947D01*
X121621464Y-106095699D01*
X121976088Y-106242952D01*
X122360068Y-106243287D01*
X122714947Y-106096654D01*
X122986699Y-105825376D01*
X123133952Y-105470752D01*
X123133953Y-105469068D01*
X123972153Y-105469068D01*
X124118786Y-105823947D01*
X124390064Y-106095699D01*
X124744688Y-106242952D01*
X125128668Y-106243287D01*
X125483547Y-106096654D01*
X125755299Y-105825376D01*
X125902552Y-105470752D01*
X125902553Y-105469068D01*
X126740753Y-105469068D01*
X126887386Y-105823947D01*
X127158664Y-106095699D01*
X127513288Y-106242952D01*
X127897268Y-106243287D01*
X128252147Y-106096654D01*
X128523899Y-105825376D01*
X128671152Y-105470752D01*
X128671153Y-105469068D01*
X129509353Y-105469068D01*
X129655986Y-105823947D01*
X129927264Y-106095699D01*
X130281888Y-106242952D01*
X130665868Y-106243287D01*
X131020747Y-106096654D01*
X131292499Y-105825376D01*
X131439752Y-105470752D01*
X131439753Y-105469068D01*
X132277953Y-105469068D01*
X132424586Y-105823947D01*
X132695864Y-106095699D01*
X133050488Y-106242952D01*
X133434468Y-106243287D01*
X133789347Y-106096654D01*
X134061099Y-105825376D01*
X134208352Y-105470752D01*
X134208353Y-105469068D01*
X135046553Y-105469068D01*
X135193186Y-105823947D01*
X135464464Y-106095699D01*
X135819088Y-106242952D01*
X136203068Y-106243287D01*
X136557947Y-106096654D01*
X136829699Y-105825376D01*
X136976952Y-105470752D01*
X136976953Y-105469068D01*
X137815153Y-105469068D01*
X137961786Y-105823947D01*
X138233064Y-106095699D01*
X138587688Y-106242952D01*
X138971668Y-106243287D01*
X139326547Y-106096654D01*
X139598299Y-105825376D01*
X139745552Y-105470752D01*
X139745553Y-105469068D01*
X143352353Y-105469068D01*
X143498986Y-105823947D01*
X143770264Y-106095699D01*
X144124888Y-106242952D01*
X144508868Y-106243287D01*
X144863747Y-106096654D01*
X145135499Y-105825376D01*
X145282752Y-105470752D01*
X145282753Y-105469068D01*
X146120953Y-105469068D01*
X146267586Y-105823947D01*
X146538864Y-106095699D01*
X146893488Y-106242952D01*
X147277468Y-106243287D01*
X147632347Y-106096654D01*
X147904099Y-105825376D01*
X148051352Y-105470752D01*
X148051353Y-105469068D01*
X148889553Y-105469068D01*
X149036186Y-105823947D01*
X149307464Y-106095699D01*
X149662088Y-106242952D01*
X150046068Y-106243287D01*
X150400947Y-106096654D01*
X150672699Y-105825376D01*
X150819952Y-105470752D01*
X150819953Y-105469068D01*
X151658153Y-105469068D01*
X151804786Y-105823947D01*
X152076064Y-106095699D01*
X152430688Y-106242952D01*
X152814668Y-106243287D01*
X153169547Y-106096654D01*
X153441299Y-105825376D01*
X153588552Y-105470752D01*
X153588553Y-105469068D01*
X154426753Y-105469068D01*
X154573386Y-105823947D01*
X154844664Y-106095699D01*
X155199288Y-106242952D01*
X155583268Y-106243287D01*
X155938147Y-106096654D01*
X156209899Y-105825376D01*
X156357152Y-105470752D01*
X156357153Y-105469068D01*
X157195353Y-105469068D01*
X157341986Y-105823947D01*
X157613264Y-106095699D01*
X157967888Y-106242952D01*
X158351868Y-106243287D01*
X158706747Y-106096654D01*
X158978499Y-105825376D01*
X159125752Y-105470752D01*
X159125753Y-105469068D01*
X159963953Y-105469068D01*
X160110586Y-105823947D01*
X160381864Y-106095699D01*
X160736488Y-106242952D01*
X161120468Y-106243287D01*
X161475347Y-106096654D01*
X161747099Y-105825376D01*
X161894352Y-105470752D01*
X161894353Y-105469068D01*
X162732553Y-105469068D01*
X162879186Y-105823947D01*
X163150464Y-106095699D01*
X163505088Y-106242952D01*
X163889068Y-106243287D01*
X164243947Y-106096654D01*
X164515699Y-105825376D01*
X164662952Y-105470752D01*
X164663287Y-105086772D01*
X164516654Y-104731893D01*
X164245376Y-104460141D01*
X163890752Y-104312888D01*
X163506772Y-104312553D01*
X163151893Y-104459186D01*
X162880141Y-104730464D01*
X162732888Y-105085088D01*
X162732553Y-105469068D01*
X161894353Y-105469068D01*
X161894687Y-105086772D01*
X161748054Y-104731893D01*
X161476776Y-104460141D01*
X161122152Y-104312888D01*
X160738172Y-104312553D01*
X160383293Y-104459186D01*
X160111541Y-104730464D01*
X159964288Y-105085088D01*
X159963953Y-105469068D01*
X159125753Y-105469068D01*
X159126087Y-105086772D01*
X158979454Y-104731893D01*
X158708176Y-104460141D01*
X158353552Y-104312888D01*
X157969572Y-104312553D01*
X157614693Y-104459186D01*
X157342941Y-104730464D01*
X157195688Y-105085088D01*
X157195353Y-105469068D01*
X156357153Y-105469068D01*
X156357487Y-105086772D01*
X156210854Y-104731893D01*
X155939576Y-104460141D01*
X155584952Y-104312888D01*
X155200972Y-104312553D01*
X154846093Y-104459186D01*
X154574341Y-104730464D01*
X154427088Y-105085088D01*
X154426753Y-105469068D01*
X153588553Y-105469068D01*
X153588887Y-105086772D01*
X153442254Y-104731893D01*
X153170976Y-104460141D01*
X152816352Y-104312888D01*
X152432372Y-104312553D01*
X152077493Y-104459186D01*
X151805741Y-104730464D01*
X151658488Y-105085088D01*
X151658153Y-105469068D01*
X150819953Y-105469068D01*
X150820287Y-105086772D01*
X150673654Y-104731893D01*
X150402376Y-104460141D01*
X150047752Y-104312888D01*
X149663772Y-104312553D01*
X149308893Y-104459186D01*
X149037141Y-104730464D01*
X148889888Y-105085088D01*
X148889553Y-105469068D01*
X148051353Y-105469068D01*
X148051687Y-105086772D01*
X147905054Y-104731893D01*
X147633776Y-104460141D01*
X147279152Y-104312888D01*
X146895172Y-104312553D01*
X146540293Y-104459186D01*
X146268541Y-104730464D01*
X146121288Y-105085088D01*
X146120953Y-105469068D01*
X145282753Y-105469068D01*
X145283087Y-105086772D01*
X145136454Y-104731893D01*
X144865176Y-104460141D01*
X144510552Y-104312888D01*
X144126572Y-104312553D01*
X143771693Y-104459186D01*
X143499941Y-104730464D01*
X143352688Y-105085088D01*
X143352353Y-105469068D01*
X139745553Y-105469068D01*
X139745887Y-105086772D01*
X139599254Y-104731893D01*
X139327976Y-104460141D01*
X138973352Y-104312888D01*
X138589372Y-104312553D01*
X138234493Y-104459186D01*
X137962741Y-104730464D01*
X137815488Y-105085088D01*
X137815153Y-105469068D01*
X136976953Y-105469068D01*
X136977287Y-105086772D01*
X136830654Y-104731893D01*
X136559376Y-104460141D01*
X136204752Y-104312888D01*
X135820772Y-104312553D01*
X135465893Y-104459186D01*
X135194141Y-104730464D01*
X135046888Y-105085088D01*
X135046553Y-105469068D01*
X134208353Y-105469068D01*
X134208687Y-105086772D01*
X134062054Y-104731893D01*
X133790776Y-104460141D01*
X133436152Y-104312888D01*
X133052172Y-104312553D01*
X132697293Y-104459186D01*
X132425541Y-104730464D01*
X132278288Y-105085088D01*
X132277953Y-105469068D01*
X131439753Y-105469068D01*
X131440087Y-105086772D01*
X131293454Y-104731893D01*
X131022176Y-104460141D01*
X130667552Y-104312888D01*
X130283572Y-104312553D01*
X129928693Y-104459186D01*
X129656941Y-104730464D01*
X129509688Y-105085088D01*
X129509353Y-105469068D01*
X128671153Y-105469068D01*
X128671487Y-105086772D01*
X128524854Y-104731893D01*
X128253576Y-104460141D01*
X127898952Y-104312888D01*
X127514972Y-104312553D01*
X127160093Y-104459186D01*
X126888341Y-104730464D01*
X126741088Y-105085088D01*
X126740753Y-105469068D01*
X125902553Y-105469068D01*
X125902887Y-105086772D01*
X125756254Y-104731893D01*
X125484976Y-104460141D01*
X125130352Y-104312888D01*
X124746372Y-104312553D01*
X124391493Y-104459186D01*
X124119741Y-104730464D01*
X123972488Y-105085088D01*
X123972153Y-105469068D01*
X123133953Y-105469068D01*
X123134287Y-105086772D01*
X122987654Y-104731893D01*
X122716376Y-104460141D01*
X122361752Y-104312888D01*
X121977772Y-104312553D01*
X121622893Y-104459186D01*
X121351141Y-104730464D01*
X121203888Y-105085088D01*
X121203553Y-105469068D01*
X120365353Y-105469068D01*
X120365687Y-105086772D01*
X120219054Y-104731893D01*
X119947776Y-104460141D01*
X119593152Y-104312888D01*
X119209172Y-104312553D01*
X118854293Y-104459186D01*
X118582541Y-104730464D01*
X118435288Y-105085088D01*
X118434953Y-105469068D01*
X107842120Y-105469068D01*
X107842120Y-102986443D01*
X108198436Y-102986443D01*
X108622901Y-104013726D01*
X109408180Y-104800377D01*
X110434721Y-105226634D01*
X111546243Y-105227604D01*
X112573526Y-104803139D01*
X113360177Y-104017860D01*
X113786434Y-102991319D01*
X113786438Y-102986443D01*
X169310836Y-102986443D01*
X169735301Y-104013726D01*
X170520580Y-104800377D01*
X171547121Y-105226634D01*
X172658643Y-105227604D01*
X173685926Y-104803139D01*
X174472577Y-104017860D01*
X174898834Y-102991319D01*
X174899804Y-101879797D01*
X174475339Y-100852514D01*
X173690060Y-100065863D01*
X172663519Y-99639606D01*
X171551997Y-99638636D01*
X170524714Y-100063101D01*
X169738063Y-100848380D01*
X169311806Y-101874921D01*
X169310836Y-102986443D01*
X113786438Y-102986443D01*
X113787404Y-101879797D01*
X113362939Y-100852514D01*
X112577660Y-100065863D01*
X111887945Y-99779468D01*
X118434953Y-99779468D01*
X118581586Y-100134347D01*
X118852864Y-100406099D01*
X119207488Y-100553352D01*
X119591468Y-100553687D01*
X119946347Y-100407054D01*
X120218099Y-100135776D01*
X120365352Y-99781152D01*
X120365353Y-99779468D01*
X121203553Y-99779468D01*
X121350186Y-100134347D01*
X121621464Y-100406099D01*
X121976088Y-100553352D01*
X122360068Y-100553687D01*
X122714947Y-100407054D01*
X122986699Y-100135776D01*
X123133952Y-99781152D01*
X123133953Y-99779468D01*
X123972153Y-99779468D01*
X124118786Y-100134347D01*
X124390064Y-100406099D01*
X124744688Y-100553352D01*
X125128668Y-100553687D01*
X125483547Y-100407054D01*
X125755299Y-100135776D01*
X125902552Y-99781152D01*
X125902553Y-99779468D01*
X126740753Y-99779468D01*
X126887386Y-100134347D01*
X127158664Y-100406099D01*
X127513288Y-100553352D01*
X127897268Y-100553687D01*
X128252147Y-100407054D01*
X128523899Y-100135776D01*
X128671152Y-99781152D01*
X128671153Y-99779468D01*
X129509353Y-99779468D01*
X129655986Y-100134347D01*
X129927264Y-100406099D01*
X130281888Y-100553352D01*
X130665868Y-100553687D01*
X131020747Y-100407054D01*
X131292499Y-100135776D01*
X131439752Y-99781152D01*
X131439753Y-99779468D01*
X132277953Y-99779468D01*
X132424586Y-100134347D01*
X132695864Y-100406099D01*
X133050488Y-100553352D01*
X133434468Y-100553687D01*
X133789347Y-100407054D01*
X134061099Y-100135776D01*
X134208352Y-99781152D01*
X134208353Y-99779468D01*
X135046553Y-99779468D01*
X135193186Y-100134347D01*
X135464464Y-100406099D01*
X135819088Y-100553352D01*
X136203068Y-100553687D01*
X136557947Y-100407054D01*
X136829699Y-100135776D01*
X136976952Y-99781152D01*
X136976953Y-99779468D01*
X137815153Y-99779468D01*
X137961786Y-100134347D01*
X138233064Y-100406099D01*
X138587688Y-100553352D01*
X138971668Y-100553687D01*
X139326547Y-100407054D01*
X139598299Y-100135776D01*
X139745552Y-99781152D01*
X139745553Y-99779468D01*
X143352353Y-99779468D01*
X143498986Y-100134347D01*
X143770264Y-100406099D01*
X144124888Y-100553352D01*
X144508868Y-100553687D01*
X144863747Y-100407054D01*
X145135499Y-100135776D01*
X145282752Y-99781152D01*
X145282753Y-99779468D01*
X146120953Y-99779468D01*
X146267586Y-100134347D01*
X146538864Y-100406099D01*
X146893488Y-100553352D01*
X147277468Y-100553687D01*
X147632347Y-100407054D01*
X147904099Y-100135776D01*
X148051352Y-99781152D01*
X148051353Y-99779468D01*
X148889553Y-99779468D01*
X149036186Y-100134347D01*
X149307464Y-100406099D01*
X149662088Y-100553352D01*
X150046068Y-100553687D01*
X150400947Y-100407054D01*
X150672699Y-100135776D01*
X150819952Y-99781152D01*
X150819953Y-99779468D01*
X151658153Y-99779468D01*
X151804786Y-100134347D01*
X152076064Y-100406099D01*
X152430688Y-100553352D01*
X152814668Y-100553687D01*
X153169547Y-100407054D01*
X153441299Y-100135776D01*
X153588552Y-99781152D01*
X153588553Y-99779468D01*
X154426753Y-99779468D01*
X154573386Y-100134347D01*
X154844664Y-100406099D01*
X155199288Y-100553352D01*
X155583268Y-100553687D01*
X155938147Y-100407054D01*
X156209899Y-100135776D01*
X156357152Y-99781152D01*
X156357153Y-99779468D01*
X157195353Y-99779468D01*
X157341986Y-100134347D01*
X157613264Y-100406099D01*
X157967888Y-100553352D01*
X158351868Y-100553687D01*
X158706747Y-100407054D01*
X158978499Y-100135776D01*
X159125752Y-99781152D01*
X159125753Y-99779468D01*
X159963953Y-99779468D01*
X160110586Y-100134347D01*
X160381864Y-100406099D01*
X160736488Y-100553352D01*
X161120468Y-100553687D01*
X161475347Y-100407054D01*
X161747099Y-100135776D01*
X161894352Y-99781152D01*
X161894353Y-99779468D01*
X162732553Y-99779468D01*
X162879186Y-100134347D01*
X163150464Y-100406099D01*
X163505088Y-100553352D01*
X163889068Y-100553687D01*
X164243947Y-100407054D01*
X164515699Y-100135776D01*
X164662952Y-99781152D01*
X164663287Y-99397172D01*
X164516654Y-99042293D01*
X164245376Y-98770541D01*
X163890752Y-98623288D01*
X163506772Y-98622953D01*
X163151893Y-98769586D01*
X162880141Y-99040864D01*
X162732888Y-99395488D01*
X162732553Y-99779468D01*
X161894353Y-99779468D01*
X161894687Y-99397172D01*
X161748054Y-99042293D01*
X161476776Y-98770541D01*
X161122152Y-98623288D01*
X160738172Y-98622953D01*
X160383293Y-98769586D01*
X160111541Y-99040864D01*
X159964288Y-99395488D01*
X159963953Y-99779468D01*
X159125753Y-99779468D01*
X159126087Y-99397172D01*
X158979454Y-99042293D01*
X158708176Y-98770541D01*
X158353552Y-98623288D01*
X157969572Y-98622953D01*
X157614693Y-98769586D01*
X157342941Y-99040864D01*
X157195688Y-99395488D01*
X157195353Y-99779468D01*
X156357153Y-99779468D01*
X156357487Y-99397172D01*
X156210854Y-99042293D01*
X155939576Y-98770541D01*
X155584952Y-98623288D01*
X155200972Y-98622953D01*
X154846093Y-98769586D01*
X154574341Y-99040864D01*
X154427088Y-99395488D01*
X154426753Y-99779468D01*
X153588553Y-99779468D01*
X153588887Y-99397172D01*
X153442254Y-99042293D01*
X153170976Y-98770541D01*
X152816352Y-98623288D01*
X152432372Y-98622953D01*
X152077493Y-98769586D01*
X151805741Y-99040864D01*
X151658488Y-99395488D01*
X151658153Y-99779468D01*
X150819953Y-99779468D01*
X150820287Y-99397172D01*
X150673654Y-99042293D01*
X150402376Y-98770541D01*
X150047752Y-98623288D01*
X149663772Y-98622953D01*
X149308893Y-98769586D01*
X149037141Y-99040864D01*
X148889888Y-99395488D01*
X148889553Y-99779468D01*
X148051353Y-99779468D01*
X148051687Y-99397172D01*
X147905054Y-99042293D01*
X147633776Y-98770541D01*
X147279152Y-98623288D01*
X146895172Y-98622953D01*
X146540293Y-98769586D01*
X146268541Y-99040864D01*
X146121288Y-99395488D01*
X146120953Y-99779468D01*
X145282753Y-99779468D01*
X145283087Y-99397172D01*
X145136454Y-99042293D01*
X144865176Y-98770541D01*
X144510552Y-98623288D01*
X144126572Y-98622953D01*
X143771693Y-98769586D01*
X143499941Y-99040864D01*
X143352688Y-99395488D01*
X143352353Y-99779468D01*
X139745553Y-99779468D01*
X139745887Y-99397172D01*
X139599254Y-99042293D01*
X139327976Y-98770541D01*
X138973352Y-98623288D01*
X138589372Y-98622953D01*
X138234493Y-98769586D01*
X137962741Y-99040864D01*
X137815488Y-99395488D01*
X137815153Y-99779468D01*
X136976953Y-99779468D01*
X136977287Y-99397172D01*
X136830654Y-99042293D01*
X136559376Y-98770541D01*
X136204752Y-98623288D01*
X135820772Y-98622953D01*
X135465893Y-98769586D01*
X135194141Y-99040864D01*
X135046888Y-99395488D01*
X135046553Y-99779468D01*
X134208353Y-99779468D01*
X134208687Y-99397172D01*
X134062054Y-99042293D01*
X133790776Y-98770541D01*
X133436152Y-98623288D01*
X133052172Y-98622953D01*
X132697293Y-98769586D01*
X132425541Y-99040864D01*
X132278288Y-99395488D01*
X132277953Y-99779468D01*
X131439753Y-99779468D01*
X131440087Y-99397172D01*
X131293454Y-99042293D01*
X131022176Y-98770541D01*
X130667552Y-98623288D01*
X130283572Y-98622953D01*
X129928693Y-98769586D01*
X129656941Y-99040864D01*
X129509688Y-99395488D01*
X129509353Y-99779468D01*
X128671153Y-99779468D01*
X128671487Y-99397172D01*
X128524854Y-99042293D01*
X128253576Y-98770541D01*
X127898952Y-98623288D01*
X127514972Y-98622953D01*
X127160093Y-98769586D01*
X126888341Y-99040864D01*
X126741088Y-99395488D01*
X126740753Y-99779468D01*
X125902553Y-99779468D01*
X125902887Y-99397172D01*
X125756254Y-99042293D01*
X125484976Y-98770541D01*
X125130352Y-98623288D01*
X124746372Y-98622953D01*
X124391493Y-98769586D01*
X124119741Y-99040864D01*
X123972488Y-99395488D01*
X123972153Y-99779468D01*
X123133953Y-99779468D01*
X123134287Y-99397172D01*
X122987654Y-99042293D01*
X122716376Y-98770541D01*
X122361752Y-98623288D01*
X121977772Y-98622953D01*
X121622893Y-98769586D01*
X121351141Y-99040864D01*
X121203888Y-99395488D01*
X121203553Y-99779468D01*
X120365353Y-99779468D01*
X120365687Y-99397172D01*
X120219054Y-99042293D01*
X119947776Y-98770541D01*
X119593152Y-98623288D01*
X119209172Y-98622953D01*
X118854293Y-98769586D01*
X118582541Y-99040864D01*
X118435288Y-99395488D01*
X118434953Y-99779468D01*
X111887945Y-99779468D01*
X111551119Y-99639606D01*
X110439597Y-99638636D01*
X109412314Y-100063101D01*
X108625663Y-100848380D01*
X108199406Y-101874921D01*
X108198436Y-102986443D01*
X107842120Y-102986443D01*
X107842120Y-88666320D01*
X116139168Y-88666320D01*
X116139168Y-90952320D01*
X116174590Y-91140573D01*
X116285848Y-91313473D01*
X116455608Y-91429465D01*
X116657120Y-91470272D01*
X118181120Y-91470272D01*
X118369373Y-91434850D01*
X118542273Y-91323592D01*
X118658265Y-91153832D01*
X118699072Y-90952320D01*
X118699072Y-90272697D01*
X118785793Y-90708673D01*
X119061094Y-91120691D01*
X119473112Y-91395992D01*
X119959120Y-91492665D01*
X120445128Y-91395992D01*
X120857146Y-91120691D01*
X121132447Y-90708673D01*
X121229120Y-90222665D01*
X121229120Y-89395975D01*
X121132447Y-88909967D01*
X120857146Y-88497949D01*
X120538923Y-88285320D01*
X120857146Y-88072691D01*
X121132447Y-87660673D01*
X121229120Y-87174665D01*
X121229120Y-86347975D01*
X123769120Y-86347975D01*
X123769120Y-87174665D01*
X123865793Y-87660673D01*
X124141094Y-88072691D01*
X124459317Y-88285320D01*
X124141094Y-88497949D01*
X123865793Y-88909967D01*
X123769120Y-89395975D01*
X123769120Y-90222665D01*
X123865793Y-90708673D01*
X124141094Y-91120691D01*
X124553112Y-91395992D01*
X125039120Y-91492665D01*
X125525128Y-91395992D01*
X125937146Y-91120691D01*
X126212447Y-90708673D01*
X126309120Y-90222665D01*
X126405793Y-90708673D01*
X126681094Y-91120691D01*
X127093112Y-91395992D01*
X127579120Y-91492665D01*
X128065128Y-91395992D01*
X128477146Y-91120691D01*
X128752447Y-90708673D01*
X128849120Y-90222665D01*
X128945793Y-90708673D01*
X129221094Y-91120691D01*
X129633112Y-91395992D01*
X130119120Y-91492665D01*
X130605128Y-91395992D01*
X131017146Y-91120691D01*
X131292447Y-90708673D01*
X131389120Y-90222665D01*
X131389120Y-89395975D01*
X131292447Y-88909967D01*
X131017146Y-88497949D01*
X130698923Y-88285320D01*
X131017146Y-88072691D01*
X131292447Y-87660673D01*
X131389120Y-87174665D01*
X131389120Y-86347975D01*
X133929120Y-86347975D01*
X133929120Y-87174665D01*
X134025793Y-87660673D01*
X134301094Y-88072691D01*
X134619317Y-88285320D01*
X134301094Y-88497949D01*
X134025793Y-88909967D01*
X133929120Y-89395975D01*
X133929120Y-90222665D01*
X134025793Y-90708673D01*
X134301094Y-91120691D01*
X134713112Y-91395992D01*
X135199120Y-91492665D01*
X135685128Y-91395992D01*
X136097146Y-91120691D01*
X136372447Y-90708673D01*
X136469120Y-90222665D01*
X136565793Y-90708673D01*
X136841094Y-91120691D01*
X137253112Y-91395992D01*
X137739120Y-91492665D01*
X138225128Y-91395992D01*
X138637146Y-91120691D01*
X138912447Y-90708673D01*
X139009120Y-90222665D01*
X139105793Y-90708673D01*
X139381094Y-91120691D01*
X139793112Y-91395992D01*
X140279120Y-91492665D01*
X140765128Y-91395992D01*
X141177146Y-91120691D01*
X141452447Y-90708673D01*
X141549120Y-90222665D01*
X141645793Y-90708673D01*
X141921094Y-91120691D01*
X142333112Y-91395992D01*
X142819120Y-91492665D01*
X143305128Y-91395992D01*
X143717146Y-91120691D01*
X143992447Y-90708673D01*
X144089120Y-90222665D01*
X144185793Y-90708673D01*
X144461094Y-91120691D01*
X144873112Y-91395992D01*
X145359120Y-91492665D01*
X145845128Y-91395992D01*
X146257146Y-91120691D01*
X146532447Y-90708673D01*
X146629120Y-90222665D01*
X146725793Y-90708673D01*
X147001094Y-91120691D01*
X147413112Y-91395992D01*
X147899120Y-91492665D01*
X148385128Y-91395992D01*
X148797146Y-91120691D01*
X149072447Y-90708673D01*
X149169120Y-90222665D01*
X149169120Y-89395975D01*
X149072447Y-88909967D01*
X148797146Y-88497949D01*
X148478923Y-88285320D01*
X148797146Y-88072691D01*
X149072447Y-87660673D01*
X149169120Y-87174665D01*
X149169120Y-86347975D01*
X151709120Y-86347975D01*
X151709120Y-87174665D01*
X151805793Y-87660673D01*
X152081094Y-88072691D01*
X152399317Y-88285320D01*
X152081094Y-88497949D01*
X151805793Y-88909967D01*
X151709120Y-89395975D01*
X151709120Y-90222665D01*
X151805793Y-90708673D01*
X152081094Y-91120691D01*
X152493112Y-91395992D01*
X152979120Y-91492665D01*
X153465128Y-91395992D01*
X153877146Y-91120691D01*
X154152447Y-90708673D01*
X154249120Y-90222665D01*
X154345793Y-90708673D01*
X154621094Y-91120691D01*
X155033112Y-91395992D01*
X155519120Y-91492665D01*
X156005128Y-91395992D01*
X156417146Y-91120691D01*
X156692447Y-90708673D01*
X156789120Y-90222665D01*
X156885793Y-90708673D01*
X157161094Y-91120691D01*
X157573112Y-91395992D01*
X158059120Y-91492665D01*
X158545128Y-91395992D01*
X158957146Y-91120691D01*
X159232447Y-90708673D01*
X159329120Y-90222665D01*
X159329120Y-89395975D01*
X159232447Y-88909967D01*
X158957146Y-88497949D01*
X158638923Y-88285320D01*
X158957146Y-88072691D01*
X159232447Y-87660673D01*
X159329120Y-87174665D01*
X159329120Y-86347975D01*
X161869120Y-86347975D01*
X161869120Y-87174665D01*
X161965793Y-87660673D01*
X162241094Y-88072691D01*
X162559317Y-88285320D01*
X162241094Y-88497949D01*
X161965793Y-88909967D01*
X161869120Y-89395975D01*
X161869120Y-90222665D01*
X161965793Y-90708673D01*
X162241094Y-91120691D01*
X162653112Y-91395992D01*
X163139120Y-91492665D01*
X163625128Y-91395992D01*
X164037146Y-91120691D01*
X164312447Y-90708673D01*
X164409120Y-90222665D01*
X164505793Y-90708673D01*
X164781094Y-91120691D01*
X165193112Y-91395992D01*
X165679120Y-91492665D01*
X166165128Y-91395992D01*
X166577146Y-91120691D01*
X166852447Y-90708673D01*
X166949120Y-90222665D01*
X166949120Y-89395975D01*
X166852447Y-88909967D01*
X166577146Y-88497949D01*
X166258923Y-88285320D01*
X166577146Y-88072691D01*
X166852447Y-87660673D01*
X166949120Y-87174665D01*
X166949120Y-86347975D01*
X166852447Y-85861967D01*
X166577146Y-85449949D01*
X166165128Y-85174648D01*
X165679120Y-85077975D01*
X165193112Y-85174648D01*
X164781094Y-85449949D01*
X164505793Y-85861967D01*
X164409120Y-86347975D01*
X164312447Y-85861967D01*
X164037146Y-85449949D01*
X163625128Y-85174648D01*
X163139120Y-85077975D01*
X162653112Y-85174648D01*
X162241094Y-85449949D01*
X161965793Y-85861967D01*
X161869120Y-86347975D01*
X159329120Y-86347975D01*
X159232447Y-85861967D01*
X158957146Y-85449949D01*
X158545128Y-85174648D01*
X158059120Y-85077975D01*
X157573112Y-85174648D01*
X157161094Y-85449949D01*
X156885793Y-85861967D01*
X156789120Y-86347975D01*
X156692447Y-85861967D01*
X156417146Y-85449949D01*
X156005128Y-85174648D01*
X155519120Y-85077975D01*
X155033112Y-85174648D01*
X154621094Y-85449949D01*
X154345793Y-85861967D01*
X154249120Y-86347975D01*
X154152447Y-85861967D01*
X153877146Y-85449949D01*
X153465128Y-85174648D01*
X152979120Y-85077975D01*
X152493112Y-85174648D01*
X152081094Y-85449949D01*
X151805793Y-85861967D01*
X151709120Y-86347975D01*
X149169120Y-86347975D01*
X149072447Y-85861967D01*
X148797146Y-85449949D01*
X148385128Y-85174648D01*
X147899120Y-85077975D01*
X147413112Y-85174648D01*
X147001094Y-85449949D01*
X146725793Y-85861967D01*
X146629120Y-86347975D01*
X146532447Y-85861967D01*
X146257146Y-85449949D01*
X145845128Y-85174648D01*
X145359120Y-85077975D01*
X144873112Y-85174648D01*
X144461094Y-85449949D01*
X144185793Y-85861967D01*
X144089120Y-86347975D01*
X143992447Y-85861967D01*
X143717146Y-85449949D01*
X143305128Y-85174648D01*
X142819120Y-85077975D01*
X142333112Y-85174648D01*
X141921094Y-85449949D01*
X141645793Y-85861967D01*
X141549120Y-86347975D01*
X141452447Y-85861967D01*
X141177146Y-85449949D01*
X140765128Y-85174648D01*
X140279120Y-85077975D01*
X139793112Y-85174648D01*
X139381094Y-85449949D01*
X139105793Y-85861967D01*
X139009120Y-86347975D01*
X138912447Y-85861967D01*
X138637146Y-85449949D01*
X138225128Y-85174648D01*
X137739120Y-85077975D01*
X137253112Y-85174648D01*
X136841094Y-85449949D01*
X136565793Y-85861967D01*
X136469120Y-86347975D01*
X136372447Y-85861967D01*
X136097146Y-85449949D01*
X135685128Y-85174648D01*
X135199120Y-85077975D01*
X134713112Y-85174648D01*
X134301094Y-85449949D01*
X134025793Y-85861967D01*
X133929120Y-86347975D01*
X131389120Y-86347975D01*
X131292447Y-85861967D01*
X131017146Y-85449949D01*
X130605128Y-85174648D01*
X130119120Y-85077975D01*
X129633112Y-85174648D01*
X129221094Y-85449949D01*
X128945793Y-85861967D01*
X128849120Y-86347975D01*
X128752447Y-85861967D01*
X128477146Y-85449949D01*
X128065128Y-85174648D01*
X127579120Y-85077975D01*
X127093112Y-85174648D01*
X126681094Y-85449949D01*
X126405793Y-85861967D01*
X126309120Y-86347975D01*
X126212447Y-85861967D01*
X125937146Y-85449949D01*
X125525128Y-85174648D01*
X125039120Y-85077975D01*
X124553112Y-85174648D01*
X124141094Y-85449949D01*
X123865793Y-85861967D01*
X123769120Y-86347975D01*
X121229120Y-86347975D01*
X121132447Y-85861967D01*
X120857146Y-85449949D01*
X120445128Y-85174648D01*
X119959120Y-85077975D01*
X119473112Y-85174648D01*
X119061094Y-85449949D01*
X118785793Y-85861967D01*
X118689120Y-86347975D01*
X118592447Y-85861967D01*
X118317146Y-85449949D01*
X117905128Y-85174648D01*
X117419120Y-85077975D01*
X116933112Y-85174648D01*
X116521094Y-85449949D01*
X116245793Y-85861967D01*
X116149120Y-86347975D01*
X116149120Y-87174665D01*
X116245793Y-87660673D01*
X116521094Y-88072691D01*
X116639355Y-88151711D01*
X116468867Y-88183790D01*
X116295967Y-88295048D01*
X116179975Y-88464808D01*
X116139168Y-88666320D01*
X107842120Y-88666320D01*
X107842120Y-77730842D01*
X128541194Y-77730842D01*
X128686734Y-78083074D01*
X128779544Y-78176046D01*
X128687681Y-78267748D01*
X128541527Y-78619726D01*
X128541194Y-79000842D01*
X128686734Y-79353074D01*
X128955988Y-79622799D01*
X129307966Y-79768953D01*
X129689082Y-79769286D01*
X130041314Y-79623746D01*
X130134286Y-79530936D01*
X130225988Y-79622799D01*
X130577966Y-79768953D01*
X130959082Y-79769286D01*
X131311314Y-79623746D01*
X131581039Y-79354492D01*
X131727193Y-79002514D01*
X131727526Y-78621398D01*
X131581986Y-78269166D01*
X131489176Y-78176194D01*
X131581039Y-78084492D01*
X131727193Y-77732514D01*
X131727194Y-77730842D01*
X132351194Y-77730842D01*
X132496734Y-78083074D01*
X132589544Y-78176046D01*
X132497681Y-78267748D01*
X132351527Y-78619726D01*
X132351194Y-79000842D01*
X132496734Y-79353074D01*
X132765988Y-79622799D01*
X133117966Y-79768953D01*
X133499082Y-79769286D01*
X133851314Y-79623746D01*
X133944286Y-79530936D01*
X134035988Y-79622799D01*
X134387966Y-79768953D01*
X134769082Y-79769286D01*
X135121314Y-79623746D01*
X135214286Y-79530936D01*
X135305988Y-79622799D01*
X135657966Y-79768953D01*
X136039082Y-79769286D01*
X136391314Y-79623746D01*
X136661039Y-79354492D01*
X136807193Y-79002514D01*
X136807526Y-78621398D01*
X136661986Y-78269166D01*
X136569176Y-78176194D01*
X136661039Y-78084492D01*
X136807193Y-77732514D01*
X136807194Y-77730842D01*
X137431194Y-77730842D01*
X137576734Y-78083074D01*
X137669544Y-78176046D01*
X137577681Y-78267748D01*
X137431527Y-78619726D01*
X137431194Y-79000842D01*
X137576734Y-79353074D01*
X137845988Y-79622799D01*
X138197966Y-79768953D01*
X138579082Y-79769286D01*
X138931314Y-79623746D01*
X139024286Y-79530936D01*
X139115988Y-79622799D01*
X139467966Y-79768953D01*
X139849082Y-79769286D01*
X140201314Y-79623746D01*
X140294286Y-79530936D01*
X140385988Y-79622799D01*
X140737966Y-79768953D01*
X141119082Y-79769286D01*
X141471314Y-79623746D01*
X141564286Y-79530936D01*
X141655988Y-79622799D01*
X142007966Y-79768953D01*
X142389082Y-79769286D01*
X142741314Y-79623746D01*
X142834286Y-79530936D01*
X142925988Y-79622799D01*
X143277966Y-79768953D01*
X143659082Y-79769286D01*
X144011314Y-79623746D01*
X144104286Y-79530936D01*
X144195988Y-79622799D01*
X144547966Y-79768953D01*
X144929082Y-79769286D01*
X145281314Y-79623746D01*
X145551039Y-79354492D01*
X145697193Y-79002514D01*
X145697526Y-78621398D01*
X145551986Y-78269166D01*
X145459176Y-78176194D01*
X145551039Y-78084492D01*
X145697193Y-77732514D01*
X145697194Y-77730842D01*
X146321194Y-77730842D01*
X146466734Y-78083074D01*
X146559544Y-78176046D01*
X146467681Y-78267748D01*
X146321527Y-78619726D01*
X146321194Y-79000842D01*
X146466734Y-79353074D01*
X146735988Y-79622799D01*
X147087966Y-79768953D01*
X147469082Y-79769286D01*
X147821314Y-79623746D01*
X147914286Y-79530936D01*
X148005988Y-79622799D01*
X148357966Y-79768953D01*
X148739082Y-79769286D01*
X149091314Y-79623746D01*
X149184286Y-79530936D01*
X149275988Y-79622799D01*
X149627966Y-79768953D01*
X150009082Y-79769286D01*
X150361314Y-79623746D01*
X150631039Y-79354492D01*
X150777193Y-79002514D01*
X150777526Y-78621398D01*
X150631986Y-78269166D01*
X150539176Y-78176194D01*
X150631039Y-78084492D01*
X150777193Y-77732514D01*
X150777194Y-77730842D01*
X151401194Y-77730842D01*
X151546734Y-78083074D01*
X151639544Y-78176046D01*
X151547681Y-78267748D01*
X151401527Y-78619726D01*
X151401194Y-79000842D01*
X151546734Y-79353074D01*
X151815988Y-79622799D01*
X152167966Y-79768953D01*
X152549082Y-79769286D01*
X152901314Y-79623746D01*
X152994286Y-79530936D01*
X153085988Y-79622799D01*
X153437966Y-79768953D01*
X153819082Y-79769286D01*
X154171314Y-79623746D01*
X154441039Y-79354492D01*
X154587193Y-79002514D01*
X154587526Y-78621398D01*
X154441986Y-78269166D01*
X154349176Y-78176194D01*
X154441039Y-78084492D01*
X154587193Y-77732514D01*
X154587526Y-77351398D01*
X154441986Y-76999166D01*
X154172732Y-76729441D01*
X153820754Y-76583287D01*
X153439638Y-76582954D01*
X153087406Y-76728494D01*
X152994434Y-76821304D01*
X152902732Y-76729441D01*
X152550754Y-76583287D01*
X152169638Y-76582954D01*
X151817406Y-76728494D01*
X151547681Y-76997748D01*
X151401527Y-77349726D01*
X151401194Y-77730842D01*
X150777194Y-77730842D01*
X150777526Y-77351398D01*
X150631986Y-76999166D01*
X150362732Y-76729441D01*
X150010754Y-76583287D01*
X149629638Y-76582954D01*
X149277406Y-76728494D01*
X149184434Y-76821304D01*
X149092732Y-76729441D01*
X148740754Y-76583287D01*
X148359638Y-76582954D01*
X148007406Y-76728494D01*
X147914434Y-76821304D01*
X147822732Y-76729441D01*
X147470754Y-76583287D01*
X147089638Y-76582954D01*
X146737406Y-76728494D01*
X146467681Y-76997748D01*
X146321527Y-77349726D01*
X146321194Y-77730842D01*
X145697194Y-77730842D01*
X145697526Y-77351398D01*
X145551986Y-76999166D01*
X145282732Y-76729441D01*
X144930754Y-76583287D01*
X144549638Y-76582954D01*
X144197406Y-76728494D01*
X144104434Y-76821304D01*
X144012732Y-76729441D01*
X143660754Y-76583287D01*
X143279638Y-76582954D01*
X142927406Y-76728494D01*
X142834434Y-76821304D01*
X142742732Y-76729441D01*
X142390754Y-76583287D01*
X142009638Y-76582954D01*
X141657406Y-76728494D01*
X141564434Y-76821304D01*
X141472732Y-76729441D01*
X141120754Y-76583287D01*
X140739638Y-76582954D01*
X140387406Y-76728494D01*
X140294434Y-76821304D01*
X140202732Y-76729441D01*
X139850754Y-76583287D01*
X139469638Y-76582954D01*
X139117406Y-76728494D01*
X139024434Y-76821304D01*
X138932732Y-76729441D01*
X138580754Y-76583287D01*
X138199638Y-76582954D01*
X137847406Y-76728494D01*
X137577681Y-76997748D01*
X137431527Y-77349726D01*
X137431194Y-77730842D01*
X136807194Y-77730842D01*
X136807526Y-77351398D01*
X136661986Y-76999166D01*
X136392732Y-76729441D01*
X136040754Y-76583287D01*
X135659638Y-76582954D01*
X135307406Y-76728494D01*
X135214434Y-76821304D01*
X135122732Y-76729441D01*
X134770754Y-76583287D01*
X134389638Y-76582954D01*
X134037406Y-76728494D01*
X133944434Y-76821304D01*
X133852732Y-76729441D01*
X133500754Y-76583287D01*
X133119638Y-76582954D01*
X132767406Y-76728494D01*
X132497681Y-76997748D01*
X132351527Y-77349726D01*
X132351194Y-77730842D01*
X131727194Y-77730842D01*
X131727526Y-77351398D01*
X131581986Y-76999166D01*
X131312732Y-76729441D01*
X130960754Y-76583287D01*
X130579638Y-76582954D01*
X130227406Y-76728494D01*
X130134434Y-76821304D01*
X130042732Y-76729441D01*
X129690754Y-76583287D01*
X129309638Y-76582954D01*
X128957406Y-76728494D01*
X128687681Y-76997748D01*
X128541527Y-77349726D01*
X128541194Y-77730842D01*
X107842120Y-77730842D01*
X107842120Y-75584120D01*
X175256120Y-75584120D01*
X175256120Y-109978120D01*
M02*
