M48
;DRILL file {KiCad 4.0.4-stable} date 2016 October 17, Monday 14:48:03
;FORMAT={-:-/ absolute / inch / decimal}
FMAT,2
INCH,TZ
T1C0.010
T2C0.012
T3C0.015
T4C0.016
T5C0.017
T6C0.020
T7C0.039
T8C0.047
%
G90
G05
M72
T1
X4.0541Y-4.9702
X4.0541Y-4.9948
X4.0541Y-5.0196
X4.0847Y-4.9702
X4.0847Y-4.9941
X4.0847Y-5.0197
X4.1739Y-5.0087
X4.2289Y-4.7431
X4.2291Y-4.8021
X4.2693Y-4.7045
X4.2874Y-4.9087
X4.3337Y-4.7046
X4.4348Y-5.3978
X4.4357Y-5.1616
X4.4385Y-5.0917
X4.4821Y-4.6921
X4.4945Y-5.1971
X4.5128Y-5.0062
X4.5143Y-5.4179
X4.5213Y-4.7647
X4.5532Y-4.9089
X4.6149Y-3.2743
X4.6791Y-5.3022
X4.6915Y-5.4184
X4.7061Y-5.3022
X4.7254Y-5.3434
X4.7345Y-3.829
X4.7537Y-3.8482
X4.7562Y-5.3434
X4.7621Y-4.802
X4.7897Y-5.3456
X4.7912Y-3.2449
X4.7964Y-5.6027
X4.8167Y-5.3456
X4.8272Y-5.6027
X4.8635Y-3.8913
X4.8827Y-3.9105
X4.8886Y-3.2443
X4.8887Y-5.3921
X4.9195Y-5.3921
X4.9321Y-3.7528
X4.9513Y-3.772
X4.9594Y-5.1618
X4.9603Y-5.3979
X4.9608Y-5.221
X4.9938Y-3.2633
X4.999Y-5.2594
X5.0137Y-3.2308
X5.0408Y-3.2308
X5.0557Y-3.3618
X5.0632Y-3.2221
X5.0734Y-3.2438
X5.0828Y-3.3618
X5.0934Y-3.216
X5.1001Y-3.3218
X5.1243Y-3.2209
X5.131Y-3.2439
X5.1505Y-5.1612
X5.1698Y-3.2257
X5.1968Y-3.2257
X5.2153Y-5.1458
X5.2284Y-3.2447
X5.2413Y-5.122
X5.2518Y-3.2445
X5.2772Y-3.244
X5.2979Y-3.2319
X5.3178Y-4.9702
X5.3219Y-3.2323
X5.3422Y-3.2451
X5.3438Y-5.1218
X5.3631Y-3.2332
X5.3651Y-4.8391
X5.369Y-5.0529
X5.39Y-3.2442
X5.4203Y-5.1467
X5.4542Y-3.2519
X5.5157Y-5.1604
X5.5467Y-4.8009
X5.5799Y-5.0247
X5.7079Y-4.8292
X5.7488Y-4.8699
X5.7572Y-5.0247
X5.7671Y-4.8293
X5.8765Y-4.6454
X5.9175Y-4.829
X5.9259Y-4.9547
X5.9767Y-4.8289
X6.0985Y-4.6661
X6.1295Y-4.8114
X6.1479Y-4.5924
X6.1904Y-4.5007
X6.2271Y-4.8519
X6.2919Y-4.7429
X6.357Y-5.0544
X6.3571Y-4.9954
X6.4205Y-4.6532
X6.4205Y-4.7893
X6.4561Y-4.7508
X6.461Y-4.6918
X6.5039Y-5.0546
X6.5041Y-4.9955
T2
X4.6759Y-3.3045
X5.5235Y-3.3043
T3
X4.4003Y-5.2594
X4.4004Y-5.4956
X4.999Y-5.4955
X5.1506Y-5.2967
X5.5154Y-5.2967
X6.2061Y-5.02
X6.2431Y-5.0594
X6.2432Y-5.02
T4
X3.7422Y-4.4296
X3.7423Y-4.3706
X3.8423Y-4.3704
X3.8424Y-4.4295
X3.942Y-4.4296
X3.9423Y-4.3707
X4.042Y-4.4297
X4.0422Y-4.3705
T5
X3.8099Y-5.1424
X3.9639Y-5.2532
X3.9951Y-5.0084
X3.9996Y-5.5235
X4.139Y-5.6114
X5.9473Y-5.1448
X6.0838Y-5.0594
X6.1366Y-5.5234
X6.2729Y-5.6113
T6
X4.5783Y-5.7777
X4.5783Y-5.8277
X4.6283Y-5.7777
X4.6283Y-5.8277
X4.6783Y-5.7777
X4.6783Y-5.8277
X4.7283Y-5.7777
X4.7283Y-5.8277
X4.7783Y-5.7777
X4.7783Y-5.8277
X4.8283Y-5.7777
X4.8283Y-5.8277
X4.8783Y-5.7777
X4.8783Y-5.8277
X4.9283Y-5.7777
X4.9283Y-5.8277
X4.9783Y-5.7777
X4.9783Y-5.8277
X5.0283Y-5.7777
X5.0283Y-5.8277
X5.0783Y-5.7777
X5.0783Y-5.8277
X5.1283Y-5.7777
X5.1283Y-5.8277
X5.1783Y-5.7777
X5.1783Y-5.8277
X5.2283Y-5.7777
X5.2283Y-5.8277
X5.2783Y-5.7777
X5.2783Y-5.8277
X5.3283Y-5.7777
X5.3283Y-5.8277
X5.3783Y-5.7777
X5.3783Y-5.8277
X5.4283Y-5.7777
X5.4283Y-5.8277
X5.4783Y-5.7777
X5.4783Y-5.8277
X5.5283Y-5.7777
X5.5283Y-5.8277
T7
X4.1282Y-6.0849
X4.1282Y-6.1849
X4.2282Y-6.0849
X4.2282Y-6.1849
X4.3282Y-6.0849
X4.3282Y-6.1849
X4.4282Y-6.0849
X4.4282Y-6.1849
X4.5282Y-6.0849
X4.5282Y-6.1849
X4.6282Y-6.0849
X4.6282Y-6.1849
X4.7282Y-6.0849
X4.7282Y-6.1849
X4.8282Y-6.0849
X4.8282Y-6.1849
X4.9282Y-6.0849
X4.9282Y-6.1849
X5.0282Y-6.0849
X5.0282Y-6.1849
X5.1282Y-6.0849
X5.1282Y-6.1849
X5.2282Y-6.0849
X5.2282Y-6.1849
X5.3282Y-6.0849
X5.3282Y-6.1849
X5.4282Y-6.0849
X5.4282Y-6.1849
X5.5282Y-6.0849
X5.5282Y-6.1849
X5.6282Y-6.0849
X5.6282Y-6.1849
X5.7282Y-6.0849
X5.7282Y-6.1849
X5.8282Y-6.0849
X5.8282Y-6.1849
X5.9282Y-6.0849
X5.9282Y-6.1849
X6.0282Y-6.0849
X6.0282Y-6.1849
T8
X6.4388Y-5.7234
X6.4388Y-5.8234
T0
M30
