G04 #@! TF.FileFunction,Copper,L2,Inr,Signal*
%FSLAX46Y46*%
G04 Gerber Fmt 4.6, Leading zero omitted, Abs format (unit mm)*
G04 Created by KiCad (PCBNEW 4.0.4-stable) date 2016 October 17, Monday 14:47:50*
%MOMM*%
%LPD*%
G01*
G04 APERTURE LIST*
%ADD10C,0.100000*%
%ADD11C,0.150000*%
%ADD12C,0.300000*%
%ADD13C,0.400000*%
%ADD14C,0.900000*%
%ADD15R,2.600000X2.000000*%
%ADD16O,2.600000X2.000000*%
%ADD17R,1.524000X2.286000*%
%ADD18O,1.524000X2.286000*%
%ADD19C,0.508000*%
%ADD20C,0.635000*%
%ADD21C,0.600000*%
%ADD22C,0.889000*%
%ADD23C,0.762000*%
%ADD24C,0.254000*%
G04 APERTURE END LIST*
D10*
D11*
X159400000Y-171900000D02*
X159400000Y-203900000D01*
X267400000Y-203900000D01*
X267400000Y-171900000D01*
X159400000Y-171900000D01*
D10*
D11*
X10000000Y-10000000D02*
X10000000Y-205900000D01*
X269400000Y-205900000D01*
X269400000Y-10000000D01*
X10000000Y-10000000D01*
D10*
D11*
X12000000Y-12000000D02*
X12000000Y-203900000D01*
X267400000Y-203900000D01*
X267400000Y-12000000D01*
X12000000Y-12000000D01*
D10*
D11*
X60000000Y-12000000D02*
X60000000Y-10000000D01*
D10*
D11*
X110000000Y-12000000D02*
X110000000Y-10000000D01*
D10*
D11*
X160000000Y-12000000D02*
X160000000Y-10000000D01*
D10*
D11*
X210000000Y-12000000D02*
X210000000Y-10000000D01*
D10*
D11*
X260000000Y-12000000D02*
X260000000Y-10000000D01*
D10*
D11*
X35990476Y-11588095D02*
X35247619Y-11588095D01*
X35619048Y-11588095D02*
X35619048Y-10288095D01*
X35495238Y-10473810D01*
X35371429Y-10597619D01*
X35247619Y-10659524D01*
D10*
D11*
X85247619Y-10411905D02*
X85309524Y-10350000D01*
X85433333Y-10288095D01*
X85742857Y-10288095D01*
X85866667Y-10350000D01*
X85928571Y-10411905D01*
X85990476Y-10535714D01*
X85990476Y-10659524D01*
X85928571Y-10845238D01*
X85185714Y-11588095D01*
X85990476Y-11588095D01*
D10*
D11*
X135185714Y-10288095D02*
X135990476Y-10288095D01*
X135557143Y-10783333D01*
X135742857Y-10783333D01*
X135866667Y-10845238D01*
X135928571Y-10907143D01*
X135990476Y-11030952D01*
X135990476Y-11340476D01*
X135928571Y-11464286D01*
X135866667Y-11526190D01*
X135742857Y-11588095D01*
X135371429Y-11588095D01*
X135247619Y-11526190D01*
X135185714Y-11464286D01*
D10*
D11*
X185866667Y-10721429D02*
X185866667Y-11588095D01*
X185557143Y-10226190D02*
X185247619Y-11154762D01*
X186052381Y-11154762D01*
D10*
D11*
X235928571Y-10288095D02*
X235309524Y-10288095D01*
X235247619Y-10907143D01*
X235309524Y-10845238D01*
X235433333Y-10783333D01*
X235742857Y-10783333D01*
X235866667Y-10845238D01*
X235928571Y-10907143D01*
X235990476Y-11030952D01*
X235990476Y-11340476D01*
X235928571Y-11464286D01*
X235866667Y-11526190D01*
X235742857Y-11588095D01*
X235433333Y-11588095D01*
X235309524Y-11526190D01*
X235247619Y-11464286D01*
D10*
D11*
X60000000Y-203900000D02*
X60000000Y-205900000D01*
D10*
D11*
X110000000Y-203900000D02*
X110000000Y-205900000D01*
D10*
D11*
X160000000Y-203900000D02*
X160000000Y-205900000D01*
D10*
D11*
X210000000Y-203900000D02*
X210000000Y-205900000D01*
D10*
D11*
X260000000Y-203900000D02*
X260000000Y-205900000D01*
D10*
D11*
X35990476Y-205488095D02*
X35247619Y-205488095D01*
X35619048Y-205488095D02*
X35619048Y-204188095D01*
X35495238Y-204373810D01*
X35371429Y-204497619D01*
X35247619Y-204559524D01*
D10*
D11*
X85247619Y-204311905D02*
X85309524Y-204250000D01*
X85433333Y-204188095D01*
X85742857Y-204188095D01*
X85866667Y-204250000D01*
X85928571Y-204311905D01*
X85990476Y-204435714D01*
X85990476Y-204559524D01*
X85928571Y-204745238D01*
X85185714Y-205488095D01*
X85990476Y-205488095D01*
D10*
D11*
X135185714Y-204188095D02*
X135990476Y-204188095D01*
X135557143Y-204683333D01*
X135742857Y-204683333D01*
X135866667Y-204745238D01*
X135928571Y-204807143D01*
X135990476Y-204930952D01*
X135990476Y-205240476D01*
X135928571Y-205364286D01*
X135866667Y-205426190D01*
X135742857Y-205488095D01*
X135371429Y-205488095D01*
X135247619Y-205426190D01*
X135185714Y-205364286D01*
D10*
D11*
X185866667Y-204621429D02*
X185866667Y-205488095D01*
X185557143Y-204126190D02*
X185247619Y-205054762D01*
X186052381Y-205054762D01*
D10*
D11*
X235928571Y-204188095D02*
X235309524Y-204188095D01*
X235247619Y-204807143D01*
X235309524Y-204745238D01*
X235433333Y-204683333D01*
X235742857Y-204683333D01*
X235866667Y-204745238D01*
X235928571Y-204807143D01*
X235990476Y-204930952D01*
X235990476Y-205240476D01*
X235928571Y-205364286D01*
X235866667Y-205426190D01*
X235742857Y-205488095D01*
X235433333Y-205488095D01*
X235309524Y-205426190D01*
X235247619Y-205364286D01*
D10*
D11*
X10000000Y-60000000D02*
X12000000Y-60000000D01*
D10*
D11*
X10000000Y-110000000D02*
X12000000Y-110000000D01*
D10*
D11*
X10000000Y-160000000D02*
X12000000Y-160000000D01*
D10*
D11*
X10690476Y-35216667D02*
X11309524Y-35216667D01*
X10566667Y-35588095D02*
X11000000Y-34288095D01*
X11433333Y-35588095D01*
D10*
D11*
X11092857Y-84907143D02*
X11278571Y-84969048D01*
X11340476Y-85030952D01*
X11402381Y-85154762D01*
X11402381Y-85340476D01*
X11340476Y-85464286D01*
X11278571Y-85526190D01*
X11154762Y-85588095D01*
X10659524Y-85588095D01*
X10659524Y-84288095D01*
X11092857Y-84288095D01*
X11216667Y-84350000D01*
X11278571Y-84411905D01*
X11340476Y-84535714D01*
X11340476Y-84659524D01*
X11278571Y-84783333D01*
X11216667Y-84845238D01*
X11092857Y-84907143D01*
X10659524Y-84907143D01*
D10*
D11*
X11402381Y-135464286D02*
X11340476Y-135526190D01*
X11154762Y-135588095D01*
X11030952Y-135588095D01*
X10845238Y-135526190D01*
X10721429Y-135402381D01*
X10659524Y-135278571D01*
X10597619Y-135030952D01*
X10597619Y-134845238D01*
X10659524Y-134597619D01*
X10721429Y-134473810D01*
X10845238Y-134350000D01*
X11030952Y-134288095D01*
X11154762Y-134288095D01*
X11340476Y-134350000D01*
X11402381Y-134411905D01*
D10*
D11*
X10659524Y-185588095D02*
X10659524Y-184288095D01*
X10969048Y-184288095D01*
X11154762Y-184350000D01*
X11278571Y-184473810D01*
X11340476Y-184597619D01*
X11402381Y-184845238D01*
X11402381Y-185030952D01*
X11340476Y-185278571D01*
X11278571Y-185402381D01*
X11154762Y-185526190D01*
X10969048Y-185588095D01*
X10659524Y-185588095D01*
D10*
D11*
X269400000Y-60000000D02*
X267400000Y-60000000D01*
D10*
D11*
X269400000Y-110000000D02*
X267400000Y-110000000D01*
D10*
D11*
X269400000Y-160000000D02*
X267400000Y-160000000D01*
D10*
D11*
X268090476Y-35216667D02*
X268709524Y-35216667D01*
X267966667Y-35588095D02*
X268400000Y-34288095D01*
X268833333Y-35588095D01*
D10*
D11*
X268492857Y-84907143D02*
X268678571Y-84969048D01*
X268740476Y-85030952D01*
X268802381Y-85154762D01*
X268802381Y-85340476D01*
X268740476Y-85464286D01*
X268678571Y-85526190D01*
X268554762Y-85588095D01*
X268059524Y-85588095D01*
X268059524Y-84288095D01*
X268492857Y-84288095D01*
X268616667Y-84350000D01*
X268678571Y-84411905D01*
X268740476Y-84535714D01*
X268740476Y-84659524D01*
X268678571Y-84783333D01*
X268616667Y-84845238D01*
X268492857Y-84907143D01*
X268059524Y-84907143D01*
D10*
D11*
X268802381Y-135464286D02*
X268740476Y-135526190D01*
X268554762Y-135588095D01*
X268430952Y-135588095D01*
X268245238Y-135526190D01*
X268121429Y-135402381D01*
X268059524Y-135278571D01*
X267997619Y-135030952D01*
X267997619Y-134845238D01*
X268059524Y-134597619D01*
X268121429Y-134473810D01*
X268245238Y-134350000D01*
X268430952Y-134288095D01*
X268554762Y-134288095D01*
X268740476Y-134350000D01*
X268802381Y-134411905D01*
D10*
D11*
X268059524Y-185588095D02*
X268059524Y-184288095D01*
X268369048Y-184288095D01*
X268554762Y-184350000D01*
X268678571Y-184473810D01*
X268740476Y-184597619D01*
X268802381Y-184845238D01*
X268802381Y-185030952D01*
X268740476Y-185278571D01*
X268678571Y-185402381D01*
X268554762Y-185526190D01*
X268369048Y-185588095D01*
X268059524Y-185588095D01*
D10*
D11*
X182757143Y-199678571D02*
X182757143Y-198178571D01*
X183114286Y-198178571D01*
X183328571Y-198250000D01*
X183471429Y-198392857D01*
X183542857Y-198535714D01*
X183614286Y-198821429D01*
X183614286Y-199035714D01*
X183542857Y-199321429D01*
X183471429Y-199464286D01*
X183328571Y-199607143D01*
X183114286Y-199678571D01*
X182757143Y-199678571D01*
X184900000Y-199678571D02*
X184900000Y-198892857D01*
X184828571Y-198750000D01*
X184685714Y-198678571D01*
X184400000Y-198678571D01*
X184257143Y-198750000D01*
X184900000Y-199607143D02*
X184757143Y-199678571D01*
X184400000Y-199678571D01*
X184257143Y-199607143D01*
X184185714Y-199464286D01*
X184185714Y-199321429D01*
X184257143Y-199178571D01*
X184400000Y-199107143D01*
X184757143Y-199107143D01*
X184900000Y-199035714D01*
X185400000Y-198678571D02*
X185971429Y-198678571D01*
X185614286Y-198178571D02*
X185614286Y-199464286D01*
X185685714Y-199607143D01*
X185828572Y-199678571D01*
X185971429Y-199678571D01*
X187042857Y-199607143D02*
X186900000Y-199678571D01*
X186614286Y-199678571D01*
X186471429Y-199607143D01*
X186400000Y-199464286D01*
X186400000Y-198892857D01*
X186471429Y-198750000D01*
X186614286Y-198678571D01*
X186900000Y-198678571D01*
X187042857Y-198750000D01*
X187114286Y-198892857D01*
X187114286Y-199035714D01*
X186400000Y-199178571D01*
X187757143Y-199535714D02*
X187828571Y-199607143D01*
X187757143Y-199678571D01*
X187685714Y-199607143D01*
X187757143Y-199535714D01*
X187757143Y-199678571D01*
X187757143Y-198750000D02*
X187828571Y-198821429D01*
X187757143Y-198892857D01*
X187685714Y-198821429D01*
X187757143Y-198750000D01*
X187757143Y-198892857D01*
X189542857Y-198321429D02*
X189614286Y-198250000D01*
X189757143Y-198178571D01*
X190114286Y-198178571D01*
X190257143Y-198250000D01*
X190328572Y-198321429D01*
X190400000Y-198464286D01*
X190400000Y-198607143D01*
X190328572Y-198821429D01*
X189471429Y-199678571D01*
X190400000Y-199678571D01*
X191328571Y-198178571D02*
X191471428Y-198178571D01*
X191614285Y-198250000D01*
X191685714Y-198321429D01*
X191757143Y-198464286D01*
X191828571Y-198750000D01*
X191828571Y-199107143D01*
X191757143Y-199392857D01*
X191685714Y-199535714D01*
X191614285Y-199607143D01*
X191471428Y-199678571D01*
X191328571Y-199678571D01*
X191185714Y-199607143D01*
X191114285Y-199535714D01*
X191042857Y-199392857D01*
X190971428Y-199107143D01*
X190971428Y-198750000D01*
X191042857Y-198464286D01*
X191114285Y-198321429D01*
X191185714Y-198250000D01*
X191328571Y-198178571D01*
X193257142Y-199678571D02*
X192399999Y-199678571D01*
X192828571Y-199678571D02*
X192828571Y-198178571D01*
X192685714Y-198392857D01*
X192542856Y-198535714D01*
X192399999Y-198607143D01*
X194542856Y-198178571D02*
X194257142Y-198178571D01*
X194114285Y-198250000D01*
X194042856Y-198321429D01*
X193899999Y-198535714D01*
X193828570Y-198821429D01*
X193828570Y-199392857D01*
X193899999Y-199535714D01*
X193971427Y-199607143D01*
X194114285Y-199678571D01*
X194399999Y-199678571D01*
X194542856Y-199607143D01*
X194614285Y-199535714D01*
X194685713Y-199392857D01*
X194685713Y-199035714D01*
X194614285Y-198892857D01*
X194542856Y-198821429D01*
X194399999Y-198750000D01*
X194114285Y-198750000D01*
X193971427Y-198821429D01*
X193899999Y-198892857D01*
X193828570Y-199035714D01*
X195328570Y-199107143D02*
X196471427Y-199107143D01*
X197971427Y-199678571D02*
X197114284Y-199678571D01*
X197542856Y-199678571D02*
X197542856Y-198178571D01*
X197399999Y-198392857D01*
X197257141Y-198535714D01*
X197114284Y-198607143D01*
X198899998Y-198178571D02*
X199042855Y-198178571D01*
X199185712Y-198250000D01*
X199257141Y-198321429D01*
X199328570Y-198464286D01*
X199399998Y-198750000D01*
X199399998Y-199107143D01*
X199328570Y-199392857D01*
X199257141Y-199535714D01*
X199185712Y-199607143D01*
X199042855Y-199678571D01*
X198899998Y-199678571D01*
X198757141Y-199607143D01*
X198685712Y-199535714D01*
X198614284Y-199392857D01*
X198542855Y-199107143D01*
X198542855Y-198750000D01*
X198614284Y-198464286D01*
X198685712Y-198321429D01*
X198757141Y-198250000D01*
X198899998Y-198178571D01*
X200042855Y-199107143D02*
X201185712Y-199107143D01*
X202685712Y-199678571D02*
X201828569Y-199678571D01*
X202257141Y-199678571D02*
X202257141Y-198178571D01*
X202114284Y-198392857D01*
X201971426Y-198535714D01*
X201828569Y-198607143D01*
X204114283Y-199678571D02*
X203257140Y-199678571D01*
X203685712Y-199678571D02*
X203685712Y-198178571D01*
X203542855Y-198392857D01*
X203399997Y-198535714D01*
X203257140Y-198607143D01*
D10*
D11*
X159400000Y-200400000D02*
X267400000Y-200400000D01*
D10*
D11*
X160757143Y-202478571D02*
X160757143Y-200978571D01*
X161614286Y-202478571D02*
X160971429Y-201621429D01*
X161614286Y-200978571D02*
X160757143Y-201835714D01*
X162257143Y-202478571D02*
X162257143Y-201478571D01*
X162257143Y-200978571D02*
X162185714Y-201050000D01*
X162257143Y-201121429D01*
X162328571Y-201050000D01*
X162257143Y-200978571D01*
X162257143Y-201121429D01*
X163828572Y-202335714D02*
X163757143Y-202407143D01*
X163542857Y-202478571D01*
X163400000Y-202478571D01*
X163185715Y-202407143D01*
X163042857Y-202264286D01*
X162971429Y-202121429D01*
X162900000Y-201835714D01*
X162900000Y-201621429D01*
X162971429Y-201335714D01*
X163042857Y-201192857D01*
X163185715Y-201050000D01*
X163400000Y-200978571D01*
X163542857Y-200978571D01*
X163757143Y-201050000D01*
X163828572Y-201121429D01*
X165114286Y-202478571D02*
X165114286Y-201692857D01*
X165042857Y-201550000D01*
X164900000Y-201478571D01*
X164614286Y-201478571D01*
X164471429Y-201550000D01*
X165114286Y-202407143D02*
X164971429Y-202478571D01*
X164614286Y-202478571D01*
X164471429Y-202407143D01*
X164400000Y-202264286D01*
X164400000Y-202121429D01*
X164471429Y-201978571D01*
X164614286Y-201907143D01*
X164971429Y-201907143D01*
X165114286Y-201835714D01*
X166471429Y-202478571D02*
X166471429Y-200978571D01*
X166471429Y-202407143D02*
X166328572Y-202478571D01*
X166042858Y-202478571D01*
X165900000Y-202407143D01*
X165828572Y-202335714D01*
X165757143Y-202192857D01*
X165757143Y-201764286D01*
X165828572Y-201621429D01*
X165900000Y-201550000D01*
X166042858Y-201478571D01*
X166328572Y-201478571D01*
X166471429Y-201550000D01*
X168328572Y-201692857D02*
X168828572Y-201692857D01*
X169042858Y-202478571D02*
X168328572Y-202478571D01*
X168328572Y-200978571D01*
X169042858Y-200978571D01*
X169685715Y-202335714D02*
X169757143Y-202407143D01*
X169685715Y-202478571D01*
X169614286Y-202407143D01*
X169685715Y-202335714D01*
X169685715Y-202478571D01*
X170400001Y-202478571D02*
X170400001Y-200978571D01*
X170757144Y-200978571D01*
X170971429Y-201050000D01*
X171114287Y-201192857D01*
X171185715Y-201335714D01*
X171257144Y-201621429D01*
X171257144Y-201835714D01*
X171185715Y-202121429D01*
X171114287Y-202264286D01*
X170971429Y-202407143D01*
X170757144Y-202478571D01*
X170400001Y-202478571D01*
X171900001Y-202335714D02*
X171971429Y-202407143D01*
X171900001Y-202478571D01*
X171828572Y-202407143D01*
X171900001Y-202335714D01*
X171900001Y-202478571D01*
X172542858Y-202050000D02*
X173257144Y-202050000D01*
X172400001Y-202478571D02*
X172900001Y-200978571D01*
X173400001Y-202478571D01*
X173900001Y-202335714D02*
X173971429Y-202407143D01*
X173900001Y-202478571D01*
X173828572Y-202407143D01*
X173900001Y-202335714D01*
X173900001Y-202478571D01*
X176900001Y-202478571D02*
X176900001Y-200978571D01*
X177042858Y-201907143D02*
X177471429Y-202478571D01*
X177471429Y-201478571D02*
X176900001Y-202050000D01*
X178114287Y-202478571D02*
X178114287Y-201478571D01*
X178114287Y-200978571D02*
X178042858Y-201050000D01*
X178114287Y-201121429D01*
X178185715Y-201050000D01*
X178114287Y-200978571D01*
X178114287Y-201121429D01*
X179471430Y-202407143D02*
X179328573Y-202478571D01*
X179042859Y-202478571D01*
X178900001Y-202407143D01*
X178828573Y-202335714D01*
X178757144Y-202192857D01*
X178757144Y-201764286D01*
X178828573Y-201621429D01*
X178900001Y-201550000D01*
X179042859Y-201478571D01*
X179328573Y-201478571D01*
X179471430Y-201550000D01*
X180757144Y-202478571D02*
X180757144Y-201692857D01*
X180685715Y-201550000D01*
X180542858Y-201478571D01*
X180257144Y-201478571D01*
X180114287Y-201550000D01*
X180757144Y-202407143D02*
X180614287Y-202478571D01*
X180257144Y-202478571D01*
X180114287Y-202407143D01*
X180042858Y-202264286D01*
X180042858Y-202121429D01*
X180114287Y-201978571D01*
X180257144Y-201907143D01*
X180614287Y-201907143D01*
X180757144Y-201835714D01*
X182114287Y-202478571D02*
X182114287Y-200978571D01*
X182114287Y-202407143D02*
X181971430Y-202478571D01*
X181685716Y-202478571D01*
X181542858Y-202407143D01*
X181471430Y-202335714D01*
X181400001Y-202192857D01*
X181400001Y-201764286D01*
X181471430Y-201621429D01*
X181542858Y-201550000D01*
X181685716Y-201478571D01*
X181971430Y-201478571D01*
X182114287Y-201550000D01*
X184614287Y-201478571D02*
X184614287Y-202478571D01*
X184257144Y-200907143D02*
X183900001Y-201978571D01*
X184828573Y-201978571D01*
X185400001Y-202335714D02*
X185471429Y-202407143D01*
X185400001Y-202478571D01*
X185328572Y-202407143D01*
X185400001Y-202335714D01*
X185400001Y-202478571D01*
X186400001Y-200978571D02*
X186542858Y-200978571D01*
X186685715Y-201050000D01*
X186757144Y-201121429D01*
X186828573Y-201264286D01*
X186900001Y-201550000D01*
X186900001Y-201907143D01*
X186828573Y-202192857D01*
X186757144Y-202335714D01*
X186685715Y-202407143D01*
X186542858Y-202478571D01*
X186400001Y-202478571D01*
X186257144Y-202407143D01*
X186185715Y-202335714D01*
X186114287Y-202192857D01*
X186042858Y-201907143D01*
X186042858Y-201550000D01*
X186114287Y-201264286D01*
X186185715Y-201121429D01*
X186257144Y-201050000D01*
X186400001Y-200978571D01*
X187542858Y-202335714D02*
X187614286Y-202407143D01*
X187542858Y-202478571D01*
X187471429Y-202407143D01*
X187542858Y-202335714D01*
X187542858Y-202478571D01*
X188900001Y-201478571D02*
X188900001Y-202478571D01*
X188542858Y-200907143D02*
X188185715Y-201978571D01*
X189114287Y-201978571D01*
X189685715Y-201907143D02*
X190828572Y-201907143D01*
X191471429Y-202407143D02*
X191614286Y-202478571D01*
X191900001Y-202478571D01*
X192042858Y-202407143D01*
X192114286Y-202264286D01*
X192114286Y-202192857D01*
X192042858Y-202050000D01*
X191900001Y-201978571D01*
X191685715Y-201978571D01*
X191542858Y-201907143D01*
X191471429Y-201764286D01*
X191471429Y-201692857D01*
X191542858Y-201550000D01*
X191685715Y-201478571D01*
X191900001Y-201478571D01*
X192042858Y-201550000D01*
X192542858Y-201478571D02*
X193114287Y-201478571D01*
X192757144Y-200978571D02*
X192757144Y-202264286D01*
X192828572Y-202407143D01*
X192971430Y-202478571D01*
X193114287Y-202478571D01*
X194257144Y-202478571D02*
X194257144Y-201692857D01*
X194185715Y-201550000D01*
X194042858Y-201478571D01*
X193757144Y-201478571D01*
X193614287Y-201550000D01*
X194257144Y-202407143D02*
X194114287Y-202478571D01*
X193757144Y-202478571D01*
X193614287Y-202407143D01*
X193542858Y-202264286D01*
X193542858Y-202121429D01*
X193614287Y-201978571D01*
X193757144Y-201907143D01*
X194114287Y-201907143D01*
X194257144Y-201835714D01*
X194971430Y-202478571D02*
X194971430Y-200978571D01*
X194971430Y-201550000D02*
X195114287Y-201478571D01*
X195400001Y-201478571D01*
X195542858Y-201550000D01*
X195614287Y-201621429D01*
X195685716Y-201764286D01*
X195685716Y-202192857D01*
X195614287Y-202335714D01*
X195542858Y-202407143D01*
X195400001Y-202478571D01*
X195114287Y-202478571D01*
X194971430Y-202407143D01*
X196542859Y-202478571D02*
X196400001Y-202407143D01*
X196328573Y-202264286D01*
X196328573Y-200978571D01*
X197685715Y-202407143D02*
X197542858Y-202478571D01*
X197257144Y-202478571D01*
X197114287Y-202407143D01*
X197042858Y-202264286D01*
X197042858Y-201692857D01*
X197114287Y-201550000D01*
X197257144Y-201478571D01*
X197542858Y-201478571D01*
X197685715Y-201550000D01*
X197757144Y-201692857D01*
X197757144Y-201835714D01*
X197042858Y-201978571D01*
D10*
D11*
X159400000Y-197400000D02*
X267400000Y-197400000D01*
D10*
D12*
X246614286Y-199678571D02*
X246114286Y-198964286D01*
X245757143Y-199678571D02*
X245757143Y-198178571D01*
X246328571Y-198178571D01*
X246471429Y-198250000D01*
X246542857Y-198321429D01*
X246614286Y-198464286D01*
X246614286Y-198678571D01*
X246542857Y-198821429D01*
X246471429Y-198892857D01*
X246328571Y-198964286D01*
X245757143Y-198964286D01*
X247828571Y-199607143D02*
X247685714Y-199678571D01*
X247400000Y-199678571D01*
X247257143Y-199607143D01*
X247185714Y-199464286D01*
X247185714Y-198892857D01*
X247257143Y-198750000D01*
X247400000Y-198678571D01*
X247685714Y-198678571D01*
X247828571Y-198750000D01*
X247900000Y-198892857D01*
X247900000Y-199035714D01*
X247185714Y-199178571D01*
X248400000Y-198678571D02*
X248757143Y-199678571D01*
X249114285Y-198678571D01*
X249685714Y-199535714D02*
X249757142Y-199607143D01*
X249685714Y-199678571D01*
X249614285Y-199607143D01*
X249685714Y-199535714D01*
X249685714Y-199678571D01*
X249685714Y-198750000D02*
X249757142Y-198821429D01*
X249685714Y-198892857D01*
X249614285Y-198821429D01*
X249685714Y-198750000D01*
X249685714Y-198892857D01*
X251328571Y-198178571D02*
X251828571Y-199678571D01*
X252328571Y-198178571D01*
X253614285Y-199678571D02*
X252757142Y-199678571D01*
X253185714Y-199678571D02*
X253185714Y-198178571D01*
X253042857Y-198392857D01*
X252899999Y-198535714D01*
X252757142Y-198607143D01*
D10*
D11*
X160685714Y-199607143D02*
X160900000Y-199678571D01*
X161257143Y-199678571D01*
X161400000Y-199607143D01*
X161471429Y-199535714D01*
X161542857Y-199392857D01*
X161542857Y-199250000D01*
X161471429Y-199107143D01*
X161400000Y-199035714D01*
X161257143Y-198964286D01*
X160971429Y-198892857D01*
X160828571Y-198821429D01*
X160757143Y-198750000D01*
X160685714Y-198607143D01*
X160685714Y-198464286D01*
X160757143Y-198321429D01*
X160828571Y-198250000D01*
X160971429Y-198178571D01*
X161328571Y-198178571D01*
X161542857Y-198250000D01*
X162185714Y-199678571D02*
X162185714Y-198678571D01*
X162185714Y-198178571D02*
X162114285Y-198250000D01*
X162185714Y-198321429D01*
X162257142Y-198250000D01*
X162185714Y-198178571D01*
X162185714Y-198321429D01*
X162757143Y-198678571D02*
X163542857Y-198678571D01*
X162757143Y-199678571D01*
X163542857Y-199678571D01*
X164685714Y-199607143D02*
X164542857Y-199678571D01*
X164257143Y-199678571D01*
X164114286Y-199607143D01*
X164042857Y-199464286D01*
X164042857Y-198892857D01*
X164114286Y-198750000D01*
X164257143Y-198678571D01*
X164542857Y-198678571D01*
X164685714Y-198750000D01*
X164757143Y-198892857D01*
X164757143Y-199035714D01*
X164042857Y-199178571D01*
X165400000Y-199535714D02*
X165471428Y-199607143D01*
X165400000Y-199678571D01*
X165328571Y-199607143D01*
X165400000Y-199535714D01*
X165400000Y-199678571D01*
X165400000Y-198750000D02*
X165471428Y-198821429D01*
X165400000Y-198892857D01*
X165328571Y-198821429D01*
X165400000Y-198750000D01*
X165400000Y-198892857D01*
X167257143Y-198178571D02*
X167257143Y-199392857D01*
X167328571Y-199535714D01*
X167400000Y-199607143D01*
X167542857Y-199678571D01*
X167828571Y-199678571D01*
X167971429Y-199607143D01*
X168042857Y-199535714D01*
X168114286Y-199392857D01*
X168114286Y-198178571D01*
X168757143Y-199607143D02*
X168971429Y-199678571D01*
X169328572Y-199678571D01*
X169471429Y-199607143D01*
X169542858Y-199535714D01*
X169614286Y-199392857D01*
X169614286Y-199250000D01*
X169542858Y-199107143D01*
X169471429Y-199035714D01*
X169328572Y-198964286D01*
X169042858Y-198892857D01*
X168900000Y-198821429D01*
X168828572Y-198750000D01*
X168757143Y-198607143D01*
X168757143Y-198464286D01*
X168828572Y-198321429D01*
X168900000Y-198250000D01*
X169042858Y-198178571D01*
X169400000Y-198178571D01*
X169614286Y-198250000D01*
X170971429Y-199678571D02*
X170257143Y-199678571D01*
X170257143Y-198178571D01*
X172042857Y-199607143D02*
X171900000Y-199678571D01*
X171614286Y-199678571D01*
X171471429Y-199607143D01*
X171400000Y-199464286D01*
X171400000Y-198892857D01*
X171471429Y-198750000D01*
X171614286Y-198678571D01*
X171900000Y-198678571D01*
X172042857Y-198750000D01*
X172114286Y-198892857D01*
X172114286Y-199035714D01*
X171400000Y-199178571D01*
X172542857Y-198678571D02*
X173114286Y-198678571D01*
X172757143Y-198178571D02*
X172757143Y-199464286D01*
X172828571Y-199607143D01*
X172971429Y-199678571D01*
X173114286Y-199678571D01*
X173400000Y-198678571D02*
X173971429Y-198678571D01*
X173614286Y-198178571D02*
X173614286Y-199464286D01*
X173685714Y-199607143D01*
X173828572Y-199678571D01*
X173971429Y-199678571D01*
X175042857Y-199607143D02*
X174900000Y-199678571D01*
X174614286Y-199678571D01*
X174471429Y-199607143D01*
X174400000Y-199464286D01*
X174400000Y-198892857D01*
X174471429Y-198750000D01*
X174614286Y-198678571D01*
X174900000Y-198678571D01*
X175042857Y-198750000D01*
X175114286Y-198892857D01*
X175114286Y-199035714D01*
X174400000Y-199178571D01*
X175757143Y-199678571D02*
X175757143Y-198678571D01*
X175757143Y-198964286D02*
X175828571Y-198821429D01*
X175900000Y-198750000D01*
X176042857Y-198678571D01*
X176185714Y-198678571D01*
D10*
D11*
X245757143Y-202478571D02*
X245757143Y-200978571D01*
X247114286Y-202478571D02*
X247114286Y-200978571D01*
X247114286Y-202407143D02*
X246971429Y-202478571D01*
X246685715Y-202478571D01*
X246542857Y-202407143D01*
X246471429Y-202335714D01*
X246400000Y-202192857D01*
X246400000Y-201764286D01*
X246471429Y-201621429D01*
X246542857Y-201550000D01*
X246685715Y-201478571D01*
X246971429Y-201478571D01*
X247114286Y-201550000D01*
X247828572Y-202335714D02*
X247900000Y-202407143D01*
X247828572Y-202478571D01*
X247757143Y-202407143D01*
X247828572Y-202335714D01*
X247828572Y-202478571D01*
X247828572Y-201550000D02*
X247900000Y-201621429D01*
X247828572Y-201692857D01*
X247757143Y-201621429D01*
X247828572Y-201550000D01*
X247828572Y-201692857D01*
X250471429Y-202478571D02*
X249614286Y-202478571D01*
X250042858Y-202478571D02*
X250042858Y-200978571D01*
X249900001Y-201192857D01*
X249757143Y-201335714D01*
X249614286Y-201407143D01*
X252185714Y-200907143D02*
X250900000Y-202835714D01*
X253471429Y-202478571D02*
X252614286Y-202478571D01*
X253042858Y-202478571D02*
X253042858Y-200978571D01*
X252900001Y-201192857D01*
X252757143Y-201335714D01*
X252614286Y-201407143D01*
D10*
D11*
X159400000Y-193400000D02*
X267400000Y-193400000D01*
D10*
D13*
X160852381Y-194104762D02*
X161995238Y-194104762D01*
X161173810Y-196104762D02*
X161423810Y-194104762D01*
X162411905Y-196104762D02*
X162578571Y-194771429D01*
X162661905Y-194104762D02*
X162554762Y-194200000D01*
X162638095Y-194295238D01*
X162745239Y-194200000D01*
X162661905Y-194104762D01*
X162638095Y-194295238D01*
X163245238Y-194771429D02*
X164007143Y-194771429D01*
X163614286Y-194104762D02*
X163400000Y-195819048D01*
X163471430Y-196009524D01*
X163650001Y-196104762D01*
X163840477Y-196104762D01*
X164792858Y-196104762D02*
X164614287Y-196009524D01*
X164542857Y-195819048D01*
X164757143Y-194104762D01*
X166328572Y-196009524D02*
X166126191Y-196104762D01*
X165745239Y-196104762D01*
X165566667Y-196009524D01*
X165495238Y-195819048D01*
X165590476Y-195057143D01*
X165709524Y-194866667D01*
X165911905Y-194771429D01*
X166292857Y-194771429D01*
X166471429Y-194866667D01*
X166542857Y-195057143D01*
X166519048Y-195247619D01*
X165542857Y-195438095D01*
X167292857Y-195914286D02*
X167376192Y-196009524D01*
X167269048Y-196104762D01*
X167185715Y-196009524D01*
X167292857Y-195914286D01*
X167269048Y-196104762D01*
X167423810Y-194866667D02*
X167507144Y-194961905D01*
X167400000Y-195057143D01*
X167316667Y-194961905D01*
X167423810Y-194866667D01*
X167400000Y-195057143D01*
X169745239Y-196104762D02*
X169995239Y-194104762D01*
X170483334Y-195533333D01*
X171328573Y-194104762D01*
X171078573Y-196104762D01*
X172030953Y-196104762D02*
X172280953Y-194104762D01*
X173614287Y-194104762D02*
X173995239Y-194104762D01*
X174173810Y-194200000D01*
X174340478Y-194390476D01*
X174388096Y-194771429D01*
X174304763Y-195438095D01*
X174161906Y-195819048D01*
X173947620Y-196009524D01*
X173745239Y-196104762D01*
X173364287Y-196104762D01*
X173185716Y-196009524D01*
X173019048Y-195819048D01*
X172971429Y-195438095D01*
X173054762Y-194771429D01*
X173197620Y-194390476D01*
X173411906Y-194200000D01*
X173614287Y-194104762D01*
X175078572Y-196104762D02*
X175328572Y-194104762D01*
X175816667Y-195533333D01*
X176661906Y-194104762D01*
X176411906Y-196104762D01*
X177280953Y-196009524D02*
X177554763Y-196104762D01*
X178030953Y-196104762D01*
X178233334Y-196009524D01*
X178340476Y-195914286D01*
X178459525Y-195723810D01*
X178483334Y-195533333D01*
X178411905Y-195342857D01*
X178328572Y-195247619D01*
X178150000Y-195152381D01*
X177780953Y-195057143D01*
X177602382Y-194961905D01*
X177519048Y-194866667D01*
X177447619Y-194676190D01*
X177471429Y-194485714D01*
X177590476Y-194295238D01*
X177697620Y-194200000D01*
X177900001Y-194104762D01*
X178376191Y-194104762D01*
X178650001Y-194200000D01*
X179245238Y-195533333D02*
X180197619Y-195533333D01*
X178983334Y-196104762D02*
X179900001Y-194104762D01*
X180316668Y-196104762D01*
X182507144Y-196104762D02*
X182757144Y-194104762D01*
X182661906Y-194866667D02*
X182864287Y-194771429D01*
X183245239Y-194771429D01*
X183423811Y-194866667D01*
X183507144Y-194961905D01*
X183578572Y-195152381D01*
X183507144Y-195723810D01*
X183388096Y-195914286D01*
X183280954Y-196009524D01*
X183078573Y-196104762D01*
X182697621Y-196104762D01*
X182519049Y-196009524D01*
X184602383Y-196104762D02*
X184423812Y-196009524D01*
X184340477Y-195914286D01*
X184269049Y-195723810D01*
X184340477Y-195152381D01*
X184459525Y-194961905D01*
X184566669Y-194866667D01*
X184769049Y-194771429D01*
X185054763Y-194771429D01*
X185233335Y-194866667D01*
X185316668Y-194961905D01*
X185388096Y-195152381D01*
X185316668Y-195723810D01*
X185197620Y-195914286D01*
X185090478Y-196009524D01*
X184888097Y-196104762D01*
X184602383Y-196104762D01*
X186292858Y-194771429D02*
X186126192Y-196104762D01*
X186269049Y-194961905D02*
X186376193Y-194866667D01*
X186578573Y-194771429D01*
X186864287Y-194771429D01*
X187042859Y-194866667D01*
X187114287Y-195057143D01*
X186983335Y-196104762D01*
X188792859Y-196104762D02*
X189042859Y-194104762D01*
X188804764Y-196009524D02*
X188602383Y-196104762D01*
X188221431Y-196104762D01*
X188042860Y-196009524D01*
X187959525Y-195914286D01*
X187888097Y-195723810D01*
X187959525Y-195152381D01*
X188078573Y-194961905D01*
X188185717Y-194866667D01*
X188388097Y-194771429D01*
X188769049Y-194771429D01*
X188947621Y-194866667D01*
X189745240Y-196104762D02*
X189911906Y-194771429D01*
X189995240Y-194104762D02*
X189888097Y-194200000D01*
X189971430Y-194295238D01*
X190078574Y-194200000D01*
X189995240Y-194104762D01*
X189971430Y-194295238D01*
X190864287Y-194771429D02*
X190697621Y-196104762D01*
X190840478Y-194961905D02*
X190947622Y-194866667D01*
X191150002Y-194771429D01*
X191435716Y-194771429D01*
X191614288Y-194866667D01*
X191685716Y-195057143D01*
X191554764Y-196104762D01*
X193530954Y-194771429D02*
X193328573Y-196390476D01*
X193209526Y-196580952D01*
X193102383Y-196676190D01*
X192900002Y-196771429D01*
X192614288Y-196771429D01*
X192435716Y-196676190D01*
X193376193Y-196009524D02*
X193173812Y-196104762D01*
X192792860Y-196104762D01*
X192614289Y-196009524D01*
X192530954Y-195914286D01*
X192459526Y-195723810D01*
X192530954Y-195152381D01*
X192650002Y-194961905D01*
X192757146Y-194866667D01*
X192959526Y-194771429D01*
X193340478Y-194771429D01*
X193519050Y-194866667D01*
X195840479Y-196104762D02*
X196090479Y-194104762D01*
X195995241Y-194866667D02*
X196197622Y-194771429D01*
X196578574Y-194771429D01*
X196757146Y-194866667D01*
X196840479Y-194961905D01*
X196911907Y-195152381D01*
X196840479Y-195723810D01*
X196721431Y-195914286D01*
X196614289Y-196009524D01*
X196411908Y-196104762D01*
X196030956Y-196104762D01*
X195852384Y-196009524D01*
X197935718Y-196104762D02*
X197757147Y-196009524D01*
X197673812Y-195914286D01*
X197602384Y-195723810D01*
X197673812Y-195152381D01*
X197792860Y-194961905D01*
X197900004Y-194866667D01*
X198102384Y-194771429D01*
X198388098Y-194771429D01*
X198566670Y-194866667D01*
X198650003Y-194961905D01*
X198721431Y-195152381D01*
X198650003Y-195723810D01*
X198530955Y-195914286D01*
X198423813Y-196009524D01*
X198221432Y-196104762D01*
X197935718Y-196104762D01*
X200316670Y-196104762D02*
X200447622Y-195057143D01*
X200376194Y-194866667D01*
X200197622Y-194771429D01*
X199816670Y-194771429D01*
X199614289Y-194866667D01*
X200328575Y-196009524D02*
X200126194Y-196104762D01*
X199650004Y-196104762D01*
X199471432Y-196009524D01*
X199400003Y-195819048D01*
X199423813Y-195628571D01*
X199542860Y-195438095D01*
X199745242Y-195342857D01*
X200221432Y-195342857D01*
X200423813Y-195247619D01*
X201269051Y-196104762D02*
X201435717Y-194771429D01*
X201388098Y-195152381D02*
X201507147Y-194961905D01*
X201614290Y-194866667D01*
X201816670Y-194771429D01*
X202007146Y-194771429D01*
X203364289Y-196104762D02*
X203614289Y-194104762D01*
X203376194Y-196009524D02*
X203173813Y-196104762D01*
X202792861Y-196104762D01*
X202614290Y-196009524D01*
X202530955Y-195914286D01*
X202459527Y-195723810D01*
X202530955Y-195152381D01*
X202650003Y-194961905D01*
X202757147Y-194866667D01*
X202959527Y-194771429D01*
X203340479Y-194771429D01*
X203519051Y-194866667D01*
D10*
D11*
X161257143Y-191492857D02*
X160757143Y-191492857D01*
X160757143Y-192278571D02*
X160757143Y-190778571D01*
X161471429Y-190778571D01*
X162042857Y-192278571D02*
X162042857Y-191278571D01*
X162042857Y-190778571D02*
X161971428Y-190850000D01*
X162042857Y-190921429D01*
X162114285Y-190850000D01*
X162042857Y-190778571D01*
X162042857Y-190921429D01*
X162971429Y-192278571D02*
X162828571Y-192207143D01*
X162757143Y-192064286D01*
X162757143Y-190778571D01*
X164114285Y-192207143D02*
X163971428Y-192278571D01*
X163685714Y-192278571D01*
X163542857Y-192207143D01*
X163471428Y-192064286D01*
X163471428Y-191492857D01*
X163542857Y-191350000D01*
X163685714Y-191278571D01*
X163971428Y-191278571D01*
X164114285Y-191350000D01*
X164185714Y-191492857D01*
X164185714Y-191635714D01*
X163471428Y-191778571D01*
X164828571Y-192135714D02*
X164899999Y-192207143D01*
X164828571Y-192278571D01*
X164757142Y-192207143D01*
X164828571Y-192135714D01*
X164828571Y-192278571D01*
X164828571Y-191350000D02*
X164899999Y-191421429D01*
X164828571Y-191492857D01*
X164757142Y-191421429D01*
X164828571Y-191350000D01*
X164828571Y-191492857D01*
X166542857Y-191278571D02*
X166900000Y-192278571D01*
X167257142Y-191278571D01*
X168471428Y-192207143D02*
X168328571Y-192278571D01*
X168042857Y-192278571D01*
X167899999Y-192207143D01*
X167828571Y-192135714D01*
X167757142Y-191992857D01*
X167757142Y-191564286D01*
X167828571Y-191421429D01*
X167899999Y-191350000D01*
X168042857Y-191278571D01*
X168328571Y-191278571D01*
X168471428Y-191350000D01*
X168757142Y-192421429D02*
X169899999Y-192421429D01*
X170257142Y-192278571D02*
X170257142Y-190778571D01*
X170257142Y-191350000D02*
X170399999Y-191278571D01*
X170685713Y-191278571D01*
X170828570Y-191350000D01*
X170899999Y-191421429D01*
X170971428Y-191564286D01*
X170971428Y-191992857D01*
X170899999Y-192135714D01*
X170828570Y-192207143D01*
X170685713Y-192278571D01*
X170399999Y-192278571D01*
X170257142Y-192207143D01*
X171828571Y-192278571D02*
X171685713Y-192207143D01*
X171614285Y-192135714D01*
X171542856Y-191992857D01*
X171542856Y-191564286D01*
X171614285Y-191421429D01*
X171685713Y-191350000D01*
X171828571Y-191278571D01*
X172042856Y-191278571D01*
X172185713Y-191350000D01*
X172257142Y-191421429D01*
X172328571Y-191564286D01*
X172328571Y-191992857D01*
X172257142Y-192135714D01*
X172185713Y-192207143D01*
X172042856Y-192278571D01*
X171828571Y-192278571D01*
X173614285Y-192278571D02*
X173614285Y-191492857D01*
X173542856Y-191350000D01*
X173399999Y-191278571D01*
X173114285Y-191278571D01*
X172971428Y-191350000D01*
X173614285Y-192207143D02*
X173471428Y-192278571D01*
X173114285Y-192278571D01*
X172971428Y-192207143D01*
X172899999Y-192064286D01*
X172899999Y-191921429D01*
X172971428Y-191778571D01*
X173114285Y-191707143D01*
X173471428Y-191707143D01*
X173614285Y-191635714D01*
X174328571Y-192278571D02*
X174328571Y-191278571D01*
X174328571Y-191564286D02*
X174399999Y-191421429D01*
X174471428Y-191350000D01*
X174614285Y-191278571D01*
X174757142Y-191278571D01*
X175899999Y-192278571D02*
X175899999Y-190778571D01*
X175899999Y-192207143D02*
X175757142Y-192278571D01*
X175471428Y-192278571D01*
X175328570Y-192207143D01*
X175257142Y-192135714D01*
X175185713Y-191992857D01*
X175185713Y-191564286D01*
X175257142Y-191421429D01*
X175328570Y-191350000D01*
X175471428Y-191278571D01*
X175757142Y-191278571D01*
X175899999Y-191350000D01*
X176614285Y-192135714D02*
X176685713Y-192207143D01*
X176614285Y-192278571D01*
X176542856Y-192207143D01*
X176614285Y-192135714D01*
X176614285Y-192278571D01*
X177328571Y-192278571D02*
X177328571Y-190778571D01*
X177471428Y-191707143D02*
X177899999Y-192278571D01*
X177899999Y-191278571D02*
X177328571Y-191850000D01*
X178542857Y-192278571D02*
X178542857Y-191278571D01*
X178542857Y-190778571D02*
X178471428Y-190850000D01*
X178542857Y-190921429D01*
X178614285Y-190850000D01*
X178542857Y-190778571D01*
X178542857Y-190921429D01*
X179900000Y-192207143D02*
X179757143Y-192278571D01*
X179471429Y-192278571D01*
X179328571Y-192207143D01*
X179257143Y-192135714D01*
X179185714Y-191992857D01*
X179185714Y-191564286D01*
X179257143Y-191421429D01*
X179328571Y-191350000D01*
X179471429Y-191278571D01*
X179757143Y-191278571D01*
X179900000Y-191350000D01*
X181185714Y-192278571D02*
X181185714Y-191492857D01*
X181114285Y-191350000D01*
X180971428Y-191278571D01*
X180685714Y-191278571D01*
X180542857Y-191350000D01*
X181185714Y-192207143D02*
X181042857Y-192278571D01*
X180685714Y-192278571D01*
X180542857Y-192207143D01*
X180471428Y-192064286D01*
X180471428Y-191921429D01*
X180542857Y-191778571D01*
X180685714Y-191707143D01*
X181042857Y-191707143D01*
X181185714Y-191635714D01*
X182542857Y-192278571D02*
X182542857Y-190778571D01*
X182542857Y-192207143D02*
X182400000Y-192278571D01*
X182114286Y-192278571D01*
X181971428Y-192207143D01*
X181900000Y-192135714D01*
X181828571Y-191992857D01*
X181828571Y-191564286D01*
X181900000Y-191421429D01*
X181971428Y-191350000D01*
X182114286Y-191278571D01*
X182400000Y-191278571D01*
X182542857Y-191350000D01*
X182900000Y-192421429D02*
X184042857Y-192421429D01*
X184400000Y-191278571D02*
X184400000Y-192778571D01*
X184400000Y-191350000D02*
X184542857Y-191278571D01*
X184828571Y-191278571D01*
X184971428Y-191350000D01*
X185042857Y-191421429D01*
X185114286Y-191564286D01*
X185114286Y-191992857D01*
X185042857Y-192135714D01*
X184971428Y-192207143D01*
X184828571Y-192278571D01*
X184542857Y-192278571D01*
X184400000Y-192207143D01*
X186400000Y-192207143D02*
X186257143Y-192278571D01*
X185971429Y-192278571D01*
X185828571Y-192207143D01*
X185757143Y-192135714D01*
X185685714Y-191992857D01*
X185685714Y-191564286D01*
X185757143Y-191421429D01*
X185828571Y-191350000D01*
X185971429Y-191278571D01*
X186257143Y-191278571D01*
X186400000Y-191350000D01*
X187042857Y-192278571D02*
X187042857Y-190778571D01*
X187042857Y-191350000D02*
X187185714Y-191278571D01*
X187471428Y-191278571D01*
X187614285Y-191350000D01*
X187685714Y-191421429D01*
X187757143Y-191564286D01*
X187757143Y-191992857D01*
X187685714Y-192135714D01*
X187614285Y-192207143D01*
X187471428Y-192278571D01*
X187185714Y-192278571D01*
X187042857Y-192207143D01*
D10*
D11*
X159400000Y-187400000D02*
X267400000Y-187400000D01*
D10*
D11*
X160685714Y-189507143D02*
X160900000Y-189578571D01*
X161257143Y-189578571D01*
X161400000Y-189507143D01*
X161471429Y-189435714D01*
X161542857Y-189292857D01*
X161542857Y-189150000D01*
X161471429Y-189007143D01*
X161400000Y-188935714D01*
X161257143Y-188864286D01*
X160971429Y-188792857D01*
X160828571Y-188721429D01*
X160757143Y-188650000D01*
X160685714Y-188507143D01*
X160685714Y-188364286D01*
X160757143Y-188221429D01*
X160828571Y-188150000D01*
X160971429Y-188078571D01*
X161328571Y-188078571D01*
X161542857Y-188150000D01*
X162185714Y-189578571D02*
X162185714Y-188078571D01*
X162828571Y-189578571D02*
X162828571Y-188792857D01*
X162757142Y-188650000D01*
X162614285Y-188578571D01*
X162400000Y-188578571D01*
X162257142Y-188650000D01*
X162185714Y-188721429D01*
X164114285Y-189507143D02*
X163971428Y-189578571D01*
X163685714Y-189578571D01*
X163542857Y-189507143D01*
X163471428Y-189364286D01*
X163471428Y-188792857D01*
X163542857Y-188650000D01*
X163685714Y-188578571D01*
X163971428Y-188578571D01*
X164114285Y-188650000D01*
X164185714Y-188792857D01*
X164185714Y-188935714D01*
X163471428Y-189078571D01*
X165399999Y-189507143D02*
X165257142Y-189578571D01*
X164971428Y-189578571D01*
X164828571Y-189507143D01*
X164757142Y-189364286D01*
X164757142Y-188792857D01*
X164828571Y-188650000D01*
X164971428Y-188578571D01*
X165257142Y-188578571D01*
X165399999Y-188650000D01*
X165471428Y-188792857D01*
X165471428Y-188935714D01*
X164757142Y-189078571D01*
X165899999Y-188578571D02*
X166471428Y-188578571D01*
X166114285Y-188078571D02*
X166114285Y-189364286D01*
X166185713Y-189507143D01*
X166328571Y-189578571D01*
X166471428Y-189578571D01*
X166971428Y-189435714D02*
X167042856Y-189507143D01*
X166971428Y-189578571D01*
X166899999Y-189507143D01*
X166971428Y-189435714D01*
X166971428Y-189578571D01*
X166971428Y-188650000D02*
X167042856Y-188721429D01*
X166971428Y-188792857D01*
X166899999Y-188721429D01*
X166971428Y-188650000D01*
X166971428Y-188792857D01*
D10*
D12*
X161471429Y-186578571D02*
X160757143Y-186578571D01*
X160757143Y-185078571D01*
X162471429Y-185792857D02*
X162685715Y-185864286D01*
X162757143Y-185935714D01*
X162828572Y-186078571D01*
X162828572Y-186292857D01*
X162757143Y-186435714D01*
X162685715Y-186507143D01*
X162542857Y-186578571D01*
X161971429Y-186578571D01*
X161971429Y-185078571D01*
X162471429Y-185078571D01*
X162614286Y-185150000D01*
X162685715Y-185221429D01*
X162757143Y-185364286D01*
X162757143Y-185507143D01*
X162685715Y-185650000D01*
X162614286Y-185721429D01*
X162471429Y-185792857D01*
X161971429Y-185792857D01*
X163471429Y-186578571D02*
X163471429Y-185078571D01*
X164328572Y-186578571D01*
X164328572Y-185078571D01*
X165757144Y-186578571D02*
X165042858Y-186578571D01*
X165042858Y-185078571D01*
D10*
D11*
X179400000Y-197400000D02*
X179400000Y-200400000D01*
D10*
D11*
X243400000Y-197400000D02*
X243400000Y-203900000D01*
D14*
X140418820Y-148023580D03*
X139148820Y-148023580D03*
X137878820Y-148023580D03*
X136608820Y-148023580D03*
X135338820Y-148023580D03*
X134068820Y-148023580D03*
X132798820Y-148023580D03*
X131528820Y-148023580D03*
X130258820Y-148023580D03*
X128988820Y-148023580D03*
X127718820Y-148023580D03*
X126448820Y-148023580D03*
X125178820Y-148023580D03*
X123908820Y-148023580D03*
X122638820Y-148023580D03*
X121368820Y-148023580D03*
X120098820Y-148023580D03*
X118828820Y-148023580D03*
X117558820Y-148023580D03*
X116288820Y-148023580D03*
X140418820Y-146753580D03*
X139148820Y-146753580D03*
X137878820Y-146753580D03*
X136608820Y-146753580D03*
X135338820Y-146753580D03*
X134068820Y-146753580D03*
X132798820Y-146753580D03*
X131528820Y-146753580D03*
X130258820Y-146753580D03*
X128988820Y-146753580D03*
X127718820Y-146753580D03*
X126448820Y-146753580D03*
X125178820Y-146753580D03*
X123908820Y-146753580D03*
X122638820Y-146753580D03*
X121368820Y-146753580D03*
X120098820Y-146753580D03*
X118828820Y-146753580D03*
X117558820Y-146753580D03*
X116288820Y-146753580D03*
D15*
X163545520Y-147914360D03*
D16*
X163545520Y-145374360D03*
D17*
X153116280Y-154302460D03*
D18*
X150576280Y-154302460D03*
X148036280Y-154302460D03*
X145496280Y-154302460D03*
X142956280Y-154302460D03*
X140416280Y-154302460D03*
X137876280Y-154302460D03*
X135336280Y-154302460D03*
X132796280Y-154302460D03*
X130256280Y-154302460D03*
X127716280Y-154302460D03*
X125176280Y-154302460D03*
X122636280Y-154302460D03*
X120096280Y-154302460D03*
X117556280Y-154302460D03*
X115016280Y-154302460D03*
X112476280Y-154302460D03*
X109936280Y-154302460D03*
X107396280Y-154302460D03*
X104856280Y-154302460D03*
X153116280Y-157350460D03*
X150576280Y-157350460D03*
X148036280Y-157350460D03*
X145496280Y-157350460D03*
X142956280Y-157350460D03*
X140416280Y-157350460D03*
X137876280Y-157350460D03*
X135336280Y-157350460D03*
X132796280Y-157350460D03*
X130256280Y-157350460D03*
X127716280Y-157350460D03*
X125176280Y-157350460D03*
X122636280Y-157350460D03*
X120096280Y-157350460D03*
X117556280Y-157350460D03*
X115016280Y-157350460D03*
X112476280Y-157350460D03*
X109936280Y-157350460D03*
X107396280Y-157350460D03*
X104856280Y-157350460D03*
D19*
X154901900Y-118519300D03*
X156156660Y-116646960D03*
X117218460Y-83167220D03*
X108899960Y-124680980D03*
X113845340Y-119179340D03*
X134040880Y-82397600D03*
X137675620Y-130726180D03*
X136273540Y-122913140D03*
X136222629Y-82124258D03*
X135692535Y-82425280D03*
X135072120Y-126243080D03*
X136372600Y-128343660D03*
X134567147Y-82089936D03*
X135176658Y-82100495D03*
X132468620Y-130703320D03*
X159814260Y-120469660D03*
X140886180Y-121942860D03*
X120957340Y-121970800D03*
D20*
X118767860Y-83934300D03*
X140296900Y-83929220D03*
D19*
X129542540Y-84373720D03*
D21*
X102671880Y-111010700D03*
X100134420Y-111015780D03*
X97594420Y-111008160D03*
X95054420Y-111013240D03*
D19*
X114841020Y-121023380D03*
X114625120Y-127157480D03*
X161467800Y-128381760D03*
X165199060Y-128386840D03*
X107414060Y-120474740D03*
X108440220Y-119494300D03*
X163984940Y-120670320D03*
X163080700Y-121648220D03*
X135732520Y-130093720D03*
X133129020Y-130098800D03*
X110075980Y-119496840D03*
X112737900Y-129329180D03*
X106017060Y-127220980D03*
X155689300Y-122209560D03*
X149263100Y-117993160D03*
X151808180Y-122654060D03*
X146484340Y-122664220D03*
X146232880Y-127627380D03*
X150517860Y-125849380D03*
X125991620Y-137106660D03*
X119164100Y-137627360D03*
X125968760Y-131109720D03*
X112666780Y-131104640D03*
X114160300Y-132006340D03*
X112643920Y-137104120D03*
X140098780Y-131074160D03*
X130822700Y-131094480D03*
D22*
X154528520Y-128508760D03*
X151061420Y-130677920D03*
X155869640Y-140294360D03*
X159331660Y-142527020D03*
X101475540Y-127213360D03*
X96771460Y-130616960D03*
X100683060Y-133431280D03*
X101589840Y-140296900D03*
X105130600Y-142529560D03*
D19*
X115651280Y-124686060D03*
X165204140Y-126885700D03*
X161470340Y-126883160D03*
X107419140Y-121973340D03*
X163080700Y-118191280D03*
X164109400Y-119171720D03*
X126974600Y-133588760D03*
X126004320Y-132613400D03*
D23*
X157634940Y-127508000D03*
X158577280Y-127508000D03*
D19*
X114663220Y-137614660D03*
X158168340Y-123238260D03*
X157236160Y-114317780D03*
D23*
X158574740Y-128508760D03*
D19*
X150304500Y-122656600D03*
X144980660Y-122661680D03*
X146019520Y-123695460D03*
X141729460Y-127627380D03*
D23*
X126974600Y-139585700D03*
X111770160Y-139588240D03*
X111767620Y-133588760D03*
X140091160Y-134536180D03*
X130825240Y-134536180D03*
D19*
X129372006Y-81686295D03*
X133395720Y-82410300D03*
X132801360Y-82415380D03*
X136906000Y-82402680D03*
X138536680Y-82598260D03*
X126842520Y-82887820D03*
X124170440Y-82405220D03*
X121696480Y-82420460D03*
D21*
X95051880Y-112511840D03*
X97596960Y-112509300D03*
X100126800Y-112511840D03*
X102666800Y-112514380D03*
D19*
X103751380Y-127500380D03*
X103751380Y-126850140D03*
X103751380Y-126243080D03*
X102974140Y-126243080D03*
X102974140Y-126867920D03*
X102974140Y-127497840D03*
X127347730Y-82061218D03*
X121657280Y-135778240D03*
X128035730Y-82061218D03*
X122345280Y-135778240D03*
X122609720Y-142308580D03*
X124174140Y-136959340D03*
X120806320Y-135722360D03*
X121829720Y-142308580D03*
X124954140Y-136959340D03*
X120026320Y-135722360D03*
X130327400Y-82395060D03*
X125275936Y-95321716D03*
X130157232Y-81809691D03*
X125762424Y-95808204D03*
X131999681Y-81932276D03*
X124019774Y-99326104D03*
X131311681Y-81932276D03*
X123533286Y-98839616D03*
X128865244Y-82392513D03*
X128414739Y-85389720D03*
X120256756Y-97256756D03*
X118848040Y-134675880D03*
X128604377Y-81841548D03*
X129102739Y-85389720D03*
X120743244Y-97743244D03*
X119536040Y-134675880D03*
D24*
G36*
X167186540Y-159536060D02*
X91898540Y-159536060D01*
X91898540Y-156803525D01*
X92252481Y-156803525D01*
X92707785Y-157905446D01*
X93550119Y-158749252D01*
X94651244Y-159206479D01*
X95843525Y-159207519D01*
X96945446Y-158752215D01*
X97789252Y-157909881D01*
X98246479Y-156808756D01*
X98247519Y-155616475D01*
X97792215Y-154514554D01*
X97170351Y-153891603D01*
X103713280Y-153891603D01*
X103713280Y-154713317D01*
X103800286Y-155150724D01*
X104048057Y-155521540D01*
X104418873Y-155769311D01*
X104706179Y-155826460D01*
X104418873Y-155883609D01*
X104048057Y-156131380D01*
X103800286Y-156502196D01*
X103713280Y-156939603D01*
X103713280Y-157761317D01*
X103800286Y-158198724D01*
X104048057Y-158569540D01*
X104418873Y-158817311D01*
X104856280Y-158904317D01*
X105293687Y-158817311D01*
X105664503Y-158569540D01*
X105912274Y-158198724D01*
X105999280Y-157761317D01*
X105999280Y-156939603D01*
X105912274Y-156502196D01*
X105664503Y-156131380D01*
X105293687Y-155883609D01*
X105006381Y-155826460D01*
X105293687Y-155769311D01*
X105664503Y-155521540D01*
X105912274Y-155150724D01*
X105999280Y-154713317D01*
X105999280Y-153891603D01*
X106253280Y-153891603D01*
X106253280Y-154713317D01*
X106340286Y-155150724D01*
X106588057Y-155521540D01*
X106958873Y-155769311D01*
X107246179Y-155826460D01*
X106958873Y-155883609D01*
X106588057Y-156131380D01*
X106340286Y-156502196D01*
X106253280Y-156939603D01*
X106253280Y-157761317D01*
X106340286Y-158198724D01*
X106588057Y-158569540D01*
X106958873Y-158817311D01*
X107396280Y-158904317D01*
X107833687Y-158817311D01*
X108204503Y-158569540D01*
X108452274Y-158198724D01*
X108539280Y-157761317D01*
X108539280Y-156939603D01*
X108452274Y-156502196D01*
X108204503Y-156131380D01*
X107833687Y-155883609D01*
X107546381Y-155826460D01*
X107833687Y-155769311D01*
X108204503Y-155521540D01*
X108452274Y-155150724D01*
X108539280Y-154713317D01*
X108539280Y-153891603D01*
X111333280Y-153891603D01*
X111333280Y-154713317D01*
X111420286Y-155150724D01*
X111668057Y-155521540D01*
X112038873Y-155769311D01*
X112326179Y-155826460D01*
X112038873Y-155883609D01*
X111668057Y-156131380D01*
X111420286Y-156502196D01*
X111333280Y-156939603D01*
X111333280Y-157761317D01*
X111420286Y-158198724D01*
X111668057Y-158569540D01*
X112038873Y-158817311D01*
X112476280Y-158904317D01*
X112913687Y-158817311D01*
X113284503Y-158569540D01*
X113532274Y-158198724D01*
X113619280Y-157761317D01*
X113619280Y-156939603D01*
X113532274Y-156502196D01*
X113284503Y-156131380D01*
X112913687Y-155883609D01*
X112626381Y-155826460D01*
X112913687Y-155769311D01*
X113284503Y-155521540D01*
X113532274Y-155150724D01*
X113619280Y-154713317D01*
X113619280Y-153891603D01*
X113873280Y-153891603D01*
X113873280Y-154713317D01*
X113960286Y-155150724D01*
X114208057Y-155521540D01*
X114578873Y-155769311D01*
X114866179Y-155826460D01*
X114578873Y-155883609D01*
X114208057Y-156131380D01*
X113960286Y-156502196D01*
X113873280Y-156939603D01*
X113873280Y-157761317D01*
X113960286Y-158198724D01*
X114208057Y-158569540D01*
X114578873Y-158817311D01*
X115016280Y-158904317D01*
X115453687Y-158817311D01*
X115824503Y-158569540D01*
X116072274Y-158198724D01*
X116159280Y-157761317D01*
X116159280Y-156939603D01*
X116072274Y-156502196D01*
X115824503Y-156131380D01*
X115453687Y-155883609D01*
X115166381Y-155826460D01*
X115453687Y-155769311D01*
X115824503Y-155521540D01*
X116072274Y-155150724D01*
X116159280Y-154713317D01*
X116159280Y-153891603D01*
X116413280Y-153891603D01*
X116413280Y-154713317D01*
X116500286Y-155150724D01*
X116748057Y-155521540D01*
X117118873Y-155769311D01*
X117406179Y-155826460D01*
X117118873Y-155883609D01*
X116748057Y-156131380D01*
X116500286Y-156502196D01*
X116413280Y-156939603D01*
X116413280Y-157761317D01*
X116500286Y-158198724D01*
X116748057Y-158569540D01*
X117118873Y-158817311D01*
X117556280Y-158904317D01*
X117993687Y-158817311D01*
X118364503Y-158569540D01*
X118612274Y-158198724D01*
X118699280Y-157761317D01*
X118699280Y-156939603D01*
X118612274Y-156502196D01*
X118364503Y-156131380D01*
X117993687Y-155883609D01*
X117706381Y-155826460D01*
X117993687Y-155769311D01*
X118364503Y-155521540D01*
X118612274Y-155150724D01*
X118699280Y-154713317D01*
X118699280Y-153891603D01*
X121493280Y-153891603D01*
X121493280Y-154713317D01*
X121580286Y-155150724D01*
X121828057Y-155521540D01*
X122198873Y-155769311D01*
X122486179Y-155826460D01*
X122198873Y-155883609D01*
X121828057Y-156131380D01*
X121580286Y-156502196D01*
X121493280Y-156939603D01*
X121493280Y-157761317D01*
X121580286Y-158198724D01*
X121828057Y-158569540D01*
X122198873Y-158817311D01*
X122636280Y-158904317D01*
X123073687Y-158817311D01*
X123444503Y-158569540D01*
X123692274Y-158198724D01*
X123779280Y-157761317D01*
X123779280Y-156939603D01*
X123692274Y-156502196D01*
X123444503Y-156131380D01*
X123073687Y-155883609D01*
X122786381Y-155826460D01*
X123073687Y-155769311D01*
X123444503Y-155521540D01*
X123692274Y-155150724D01*
X123779280Y-154713317D01*
X123779280Y-153891603D01*
X124033280Y-153891603D01*
X124033280Y-154713317D01*
X124120286Y-155150724D01*
X124368057Y-155521540D01*
X124738873Y-155769311D01*
X125026179Y-155826460D01*
X124738873Y-155883609D01*
X124368057Y-156131380D01*
X124120286Y-156502196D01*
X124033280Y-156939603D01*
X124033280Y-157761317D01*
X124120286Y-158198724D01*
X124368057Y-158569540D01*
X124738873Y-158817311D01*
X125176280Y-158904317D01*
X125613687Y-158817311D01*
X125984503Y-158569540D01*
X126232274Y-158198724D01*
X126319280Y-157761317D01*
X126319280Y-156939603D01*
X126232274Y-156502196D01*
X125984503Y-156131380D01*
X125613687Y-155883609D01*
X125326381Y-155826460D01*
X125613687Y-155769311D01*
X125984503Y-155521540D01*
X126232274Y-155150724D01*
X126319280Y-154713317D01*
X126319280Y-153891603D01*
X126573280Y-153891603D01*
X126573280Y-154713317D01*
X126660286Y-155150724D01*
X126908057Y-155521540D01*
X127278873Y-155769311D01*
X127566179Y-155826460D01*
X127278873Y-155883609D01*
X126908057Y-156131380D01*
X126660286Y-156502196D01*
X126573280Y-156939603D01*
X126573280Y-157761317D01*
X126660286Y-158198724D01*
X126908057Y-158569540D01*
X127278873Y-158817311D01*
X127716280Y-158904317D01*
X128153687Y-158817311D01*
X128524503Y-158569540D01*
X128772274Y-158198724D01*
X128859280Y-157761317D01*
X128859280Y-156939603D01*
X128772274Y-156502196D01*
X128524503Y-156131380D01*
X128153687Y-155883609D01*
X127866381Y-155826460D01*
X128153687Y-155769311D01*
X128524503Y-155521540D01*
X128772274Y-155150724D01*
X128859280Y-154713317D01*
X128859280Y-153891603D01*
X129113280Y-153891603D01*
X129113280Y-154713317D01*
X129200286Y-155150724D01*
X129448057Y-155521540D01*
X129818873Y-155769311D01*
X130106179Y-155826460D01*
X129818873Y-155883609D01*
X129448057Y-156131380D01*
X129200286Y-156502196D01*
X129113280Y-156939603D01*
X129113280Y-157761317D01*
X129200286Y-158198724D01*
X129448057Y-158569540D01*
X129818873Y-158817311D01*
X130256280Y-158904317D01*
X130693687Y-158817311D01*
X131064503Y-158569540D01*
X131312274Y-158198724D01*
X131399280Y-157761317D01*
X131399280Y-156939603D01*
X131312274Y-156502196D01*
X131064503Y-156131380D01*
X130693687Y-155883609D01*
X130406381Y-155826460D01*
X130693687Y-155769311D01*
X131064503Y-155521540D01*
X131312274Y-155150724D01*
X131399280Y-154713317D01*
X131399280Y-153891603D01*
X131653280Y-153891603D01*
X131653280Y-154713317D01*
X131740286Y-155150724D01*
X131988057Y-155521540D01*
X132358873Y-155769311D01*
X132646179Y-155826460D01*
X132358873Y-155883609D01*
X131988057Y-156131380D01*
X131740286Y-156502196D01*
X131653280Y-156939603D01*
X131653280Y-157761317D01*
X131740286Y-158198724D01*
X131988057Y-158569540D01*
X132358873Y-158817311D01*
X132796280Y-158904317D01*
X133233687Y-158817311D01*
X133604503Y-158569540D01*
X133852274Y-158198724D01*
X133939280Y-157761317D01*
X133939280Y-156939603D01*
X133852274Y-156502196D01*
X133604503Y-156131380D01*
X133233687Y-155883609D01*
X132946381Y-155826460D01*
X133233687Y-155769311D01*
X133604503Y-155521540D01*
X133852274Y-155150724D01*
X133939280Y-154713317D01*
X133939280Y-153891603D01*
X134193280Y-153891603D01*
X134193280Y-154713317D01*
X134280286Y-155150724D01*
X134528057Y-155521540D01*
X134898873Y-155769311D01*
X135186179Y-155826460D01*
X134898873Y-155883609D01*
X134528057Y-156131380D01*
X134280286Y-156502196D01*
X134193280Y-156939603D01*
X134193280Y-157761317D01*
X134280286Y-158198724D01*
X134528057Y-158569540D01*
X134898873Y-158817311D01*
X135336280Y-158904317D01*
X135773687Y-158817311D01*
X136144503Y-158569540D01*
X136392274Y-158198724D01*
X136479280Y-157761317D01*
X136479280Y-156939603D01*
X136392274Y-156502196D01*
X136144503Y-156131380D01*
X135773687Y-155883609D01*
X135486381Y-155826460D01*
X135773687Y-155769311D01*
X136144503Y-155521540D01*
X136392274Y-155150724D01*
X136479280Y-154713317D01*
X136479280Y-153891603D01*
X139273280Y-153891603D01*
X139273280Y-154713317D01*
X139360286Y-155150724D01*
X139608057Y-155521540D01*
X139978873Y-155769311D01*
X140266179Y-155826460D01*
X139978873Y-155883609D01*
X139608057Y-156131380D01*
X139360286Y-156502196D01*
X139273280Y-156939603D01*
X139273280Y-157761317D01*
X139360286Y-158198724D01*
X139608057Y-158569540D01*
X139978873Y-158817311D01*
X140416280Y-158904317D01*
X140853687Y-158817311D01*
X141224503Y-158569540D01*
X141472274Y-158198724D01*
X141559280Y-157761317D01*
X141559280Y-156939603D01*
X141472274Y-156502196D01*
X141224503Y-156131380D01*
X140853687Y-155883609D01*
X140566381Y-155826460D01*
X140853687Y-155769311D01*
X141224503Y-155521540D01*
X141472274Y-155150724D01*
X141559280Y-154713317D01*
X141559280Y-153891603D01*
X141813280Y-153891603D01*
X141813280Y-154713317D01*
X141900286Y-155150724D01*
X142148057Y-155521540D01*
X142518873Y-155769311D01*
X142806179Y-155826460D01*
X142518873Y-155883609D01*
X142148057Y-156131380D01*
X141900286Y-156502196D01*
X141813280Y-156939603D01*
X141813280Y-157761317D01*
X141900286Y-158198724D01*
X142148057Y-158569540D01*
X142518873Y-158817311D01*
X142956280Y-158904317D01*
X143393687Y-158817311D01*
X143764503Y-158569540D01*
X144012274Y-158198724D01*
X144099280Y-157761317D01*
X144099280Y-156939603D01*
X144012274Y-156502196D01*
X143764503Y-156131380D01*
X143393687Y-155883609D01*
X143106381Y-155826460D01*
X143393687Y-155769311D01*
X143764503Y-155521540D01*
X144012274Y-155150724D01*
X144099280Y-154713317D01*
X144099280Y-153891603D01*
X144353280Y-153891603D01*
X144353280Y-154713317D01*
X144440286Y-155150724D01*
X144688057Y-155521540D01*
X145058873Y-155769311D01*
X145346179Y-155826460D01*
X145058873Y-155883609D01*
X144688057Y-156131380D01*
X144440286Y-156502196D01*
X144353280Y-156939603D01*
X144353280Y-157761317D01*
X144440286Y-158198724D01*
X144688057Y-158569540D01*
X145058873Y-158817311D01*
X145496280Y-158904317D01*
X145933687Y-158817311D01*
X146304503Y-158569540D01*
X146552274Y-158198724D01*
X146639280Y-157761317D01*
X146639280Y-156939603D01*
X146552274Y-156502196D01*
X146304503Y-156131380D01*
X145933687Y-155883609D01*
X145646381Y-155826460D01*
X145933687Y-155769311D01*
X146304503Y-155521540D01*
X146552274Y-155150724D01*
X146639280Y-154713317D01*
X146639280Y-153891603D01*
X149433280Y-153891603D01*
X149433280Y-154713317D01*
X149520286Y-155150724D01*
X149768057Y-155521540D01*
X150138873Y-155769311D01*
X150426179Y-155826460D01*
X150138873Y-155883609D01*
X149768057Y-156131380D01*
X149520286Y-156502196D01*
X149433280Y-156939603D01*
X149433280Y-157761317D01*
X149520286Y-158198724D01*
X149768057Y-158569540D01*
X150138873Y-158817311D01*
X150576280Y-158904317D01*
X151013687Y-158817311D01*
X151384503Y-158569540D01*
X151632274Y-158198724D01*
X151719280Y-157761317D01*
X151719280Y-156939603D01*
X151632274Y-156502196D01*
X151384503Y-156131380D01*
X151013687Y-155883609D01*
X150726381Y-155826460D01*
X151013687Y-155769311D01*
X151384503Y-155521540D01*
X151632274Y-155150724D01*
X151719280Y-154713317D01*
X151719280Y-153891603D01*
X151632274Y-153454196D01*
X151435338Y-153159460D01*
X151965816Y-153159460D01*
X151965816Y-155445460D01*
X151992383Y-155586650D01*
X152075826Y-155716325D01*
X152203146Y-155803319D01*
X152354280Y-155833924D01*
X152928655Y-155833924D01*
X152678873Y-155883609D01*
X152308057Y-156131380D01*
X152060286Y-156502196D01*
X151973280Y-156939603D01*
X151973280Y-157761317D01*
X152060286Y-158198724D01*
X152308057Y-158569540D01*
X152678873Y-158817311D01*
X153116280Y-158904317D01*
X153553687Y-158817311D01*
X153924503Y-158569540D01*
X154172274Y-158198724D01*
X154259280Y-157761317D01*
X154259280Y-156939603D01*
X154232213Y-156803525D01*
X160832481Y-156803525D01*
X161287785Y-157905446D01*
X162130119Y-158749252D01*
X163231244Y-159206479D01*
X164423525Y-159207519D01*
X165525446Y-158752215D01*
X166369252Y-157909881D01*
X166826479Y-156808756D01*
X166827519Y-155616475D01*
X166372215Y-154514554D01*
X165529881Y-153670748D01*
X164428756Y-153213521D01*
X163236475Y-153212481D01*
X162134554Y-153667785D01*
X161290748Y-154510119D01*
X160833521Y-155611244D01*
X160832481Y-156803525D01*
X154232213Y-156803525D01*
X154172274Y-156502196D01*
X153924503Y-156131380D01*
X153553687Y-155883609D01*
X153303905Y-155833924D01*
X153878280Y-155833924D01*
X154019470Y-155807357D01*
X154149145Y-155723914D01*
X154236139Y-155596594D01*
X154266744Y-155445460D01*
X154266744Y-153159460D01*
X154240177Y-153018270D01*
X154156734Y-152888595D01*
X154029414Y-152801601D01*
X153878280Y-152770996D01*
X152354280Y-152770996D01*
X152213090Y-152797563D01*
X152083415Y-152881006D01*
X151996421Y-153008326D01*
X151965816Y-153159460D01*
X151435338Y-153159460D01*
X151384503Y-153083380D01*
X151013687Y-152835609D01*
X150576280Y-152748603D01*
X150138873Y-152835609D01*
X149768057Y-153083380D01*
X149520286Y-153454196D01*
X149433280Y-153891603D01*
X146639280Y-153891603D01*
X146552274Y-153454196D01*
X146304503Y-153083380D01*
X145933687Y-152835609D01*
X145496280Y-152748603D01*
X145058873Y-152835609D01*
X144688057Y-153083380D01*
X144440286Y-153454196D01*
X144353280Y-153891603D01*
X144099280Y-153891603D01*
X144012274Y-153454196D01*
X143764503Y-153083380D01*
X143393687Y-152835609D01*
X142956280Y-152748603D01*
X142518873Y-152835609D01*
X142148057Y-153083380D01*
X141900286Y-153454196D01*
X141813280Y-153891603D01*
X141559280Y-153891603D01*
X141472274Y-153454196D01*
X141224503Y-153083380D01*
X140853687Y-152835609D01*
X140416280Y-152748603D01*
X139978873Y-152835609D01*
X139608057Y-153083380D01*
X139360286Y-153454196D01*
X139273280Y-153891603D01*
X136479280Y-153891603D01*
X136392274Y-153454196D01*
X136144503Y-153083380D01*
X135773687Y-152835609D01*
X135336280Y-152748603D01*
X134898873Y-152835609D01*
X134528057Y-153083380D01*
X134280286Y-153454196D01*
X134193280Y-153891603D01*
X133939280Y-153891603D01*
X133852274Y-153454196D01*
X133604503Y-153083380D01*
X133233687Y-152835609D01*
X132796280Y-152748603D01*
X132358873Y-152835609D01*
X131988057Y-153083380D01*
X131740286Y-153454196D01*
X131653280Y-153891603D01*
X131399280Y-153891603D01*
X131312274Y-153454196D01*
X131064503Y-153083380D01*
X130693687Y-152835609D01*
X130256280Y-152748603D01*
X129818873Y-152835609D01*
X129448057Y-153083380D01*
X129200286Y-153454196D01*
X129113280Y-153891603D01*
X128859280Y-153891603D01*
X128772274Y-153454196D01*
X128524503Y-153083380D01*
X128153687Y-152835609D01*
X127716280Y-152748603D01*
X127278873Y-152835609D01*
X126908057Y-153083380D01*
X126660286Y-153454196D01*
X126573280Y-153891603D01*
X126319280Y-153891603D01*
X126232274Y-153454196D01*
X125984503Y-153083380D01*
X125613687Y-152835609D01*
X125176280Y-152748603D01*
X124738873Y-152835609D01*
X124368057Y-153083380D01*
X124120286Y-153454196D01*
X124033280Y-153891603D01*
X123779280Y-153891603D01*
X123692274Y-153454196D01*
X123444503Y-153083380D01*
X123073687Y-152835609D01*
X122636280Y-152748603D01*
X122198873Y-152835609D01*
X121828057Y-153083380D01*
X121580286Y-153454196D01*
X121493280Y-153891603D01*
X118699280Y-153891603D01*
X118612274Y-153454196D01*
X118364503Y-153083380D01*
X117993687Y-152835609D01*
X117556280Y-152748603D01*
X117118873Y-152835609D01*
X116748057Y-153083380D01*
X116500286Y-153454196D01*
X116413280Y-153891603D01*
X116159280Y-153891603D01*
X116072274Y-153454196D01*
X115824503Y-153083380D01*
X115453687Y-152835609D01*
X115016280Y-152748603D01*
X114578873Y-152835609D01*
X114208057Y-153083380D01*
X113960286Y-153454196D01*
X113873280Y-153891603D01*
X113619280Y-153891603D01*
X113532274Y-153454196D01*
X113284503Y-153083380D01*
X112913687Y-152835609D01*
X112476280Y-152748603D01*
X112038873Y-152835609D01*
X111668057Y-153083380D01*
X111420286Y-153454196D01*
X111333280Y-153891603D01*
X108539280Y-153891603D01*
X108452274Y-153454196D01*
X108204503Y-153083380D01*
X107833687Y-152835609D01*
X107396280Y-152748603D01*
X106958873Y-152835609D01*
X106588057Y-153083380D01*
X106340286Y-153454196D01*
X106253280Y-153891603D01*
X105999280Y-153891603D01*
X105912274Y-153454196D01*
X105664503Y-153083380D01*
X105293687Y-152835609D01*
X104856280Y-152748603D01*
X104418873Y-152835609D01*
X104048057Y-153083380D01*
X103800286Y-153454196D01*
X103713280Y-153891603D01*
X97170351Y-153891603D01*
X96949881Y-153670748D01*
X95848756Y-153213521D01*
X94656475Y-153212481D01*
X93554554Y-153667785D01*
X92710748Y-154510119D01*
X92253521Y-155611244D01*
X92252481Y-156803525D01*
X91898540Y-156803525D01*
X91898540Y-146918151D01*
X115457676Y-146918151D01*
X115583922Y-147223689D01*
X115748608Y-147388663D01*
X115584743Y-147552242D01*
X115457965Y-147857559D01*
X115457676Y-148188151D01*
X115583922Y-148493689D01*
X115817482Y-148727657D01*
X116122799Y-148854435D01*
X116453391Y-148854724D01*
X116758929Y-148728478D01*
X116923903Y-148563792D01*
X117087482Y-148727657D01*
X117392799Y-148854435D01*
X117723391Y-148854724D01*
X118028929Y-148728478D01*
X118262897Y-148494918D01*
X118389675Y-148189601D01*
X118389964Y-147859009D01*
X118263718Y-147553471D01*
X118099032Y-147388497D01*
X118262897Y-147224918D01*
X118389675Y-146919601D01*
X118389676Y-146918151D01*
X119267676Y-146918151D01*
X119393922Y-147223689D01*
X119558608Y-147388663D01*
X119394743Y-147552242D01*
X119267965Y-147857559D01*
X119267676Y-148188151D01*
X119393922Y-148493689D01*
X119627482Y-148727657D01*
X119932799Y-148854435D01*
X120263391Y-148854724D01*
X120568929Y-148728478D01*
X120733903Y-148563792D01*
X120897482Y-148727657D01*
X121202799Y-148854435D01*
X121533391Y-148854724D01*
X121838929Y-148728478D01*
X122003903Y-148563792D01*
X122167482Y-148727657D01*
X122472799Y-148854435D01*
X122803391Y-148854724D01*
X123108929Y-148728478D01*
X123342897Y-148494918D01*
X123469675Y-148189601D01*
X123469964Y-147859009D01*
X123343718Y-147553471D01*
X123179032Y-147388497D01*
X123342897Y-147224918D01*
X123469675Y-146919601D01*
X123469676Y-146918151D01*
X124347676Y-146918151D01*
X124473922Y-147223689D01*
X124638608Y-147388663D01*
X124474743Y-147552242D01*
X124347965Y-147857559D01*
X124347676Y-148188151D01*
X124473922Y-148493689D01*
X124707482Y-148727657D01*
X125012799Y-148854435D01*
X125343391Y-148854724D01*
X125648929Y-148728478D01*
X125813903Y-148563792D01*
X125977482Y-148727657D01*
X126282799Y-148854435D01*
X126613391Y-148854724D01*
X126918929Y-148728478D01*
X127083903Y-148563792D01*
X127247482Y-148727657D01*
X127552799Y-148854435D01*
X127883391Y-148854724D01*
X128188929Y-148728478D01*
X128353903Y-148563792D01*
X128517482Y-148727657D01*
X128822799Y-148854435D01*
X129153391Y-148854724D01*
X129458929Y-148728478D01*
X129623903Y-148563792D01*
X129787482Y-148727657D01*
X130092799Y-148854435D01*
X130423391Y-148854724D01*
X130728929Y-148728478D01*
X130893903Y-148563792D01*
X131057482Y-148727657D01*
X131362799Y-148854435D01*
X131693391Y-148854724D01*
X131998929Y-148728478D01*
X132232897Y-148494918D01*
X132359675Y-148189601D01*
X132359964Y-147859009D01*
X132233718Y-147553471D01*
X132069032Y-147388497D01*
X132232897Y-147224918D01*
X132359675Y-146919601D01*
X132359676Y-146918151D01*
X133237676Y-146918151D01*
X133363922Y-147223689D01*
X133528608Y-147388663D01*
X133364743Y-147552242D01*
X133237965Y-147857559D01*
X133237676Y-148188151D01*
X133363922Y-148493689D01*
X133597482Y-148727657D01*
X133902799Y-148854435D01*
X134233391Y-148854724D01*
X134538929Y-148728478D01*
X134703903Y-148563792D01*
X134867482Y-148727657D01*
X135172799Y-148854435D01*
X135503391Y-148854724D01*
X135808929Y-148728478D01*
X135973903Y-148563792D01*
X136137482Y-148727657D01*
X136442799Y-148854435D01*
X136773391Y-148854724D01*
X137078929Y-148728478D01*
X137312897Y-148494918D01*
X137439675Y-148189601D01*
X137439964Y-147859009D01*
X137313718Y-147553471D01*
X137149032Y-147388497D01*
X137312897Y-147224918D01*
X137439675Y-146919601D01*
X137439676Y-146918151D01*
X138317676Y-146918151D01*
X138443922Y-147223689D01*
X138608608Y-147388663D01*
X138444743Y-147552242D01*
X138317965Y-147857559D01*
X138317676Y-148188151D01*
X138443922Y-148493689D01*
X138677482Y-148727657D01*
X138982799Y-148854435D01*
X139313391Y-148854724D01*
X139618929Y-148728478D01*
X139783903Y-148563792D01*
X139947482Y-148727657D01*
X140252799Y-148854435D01*
X140583391Y-148854724D01*
X140888929Y-148728478D01*
X141122897Y-148494918D01*
X141249675Y-148189601D01*
X141249964Y-147859009D01*
X141123718Y-147553471D01*
X140959032Y-147388497D01*
X141122897Y-147224918D01*
X141249675Y-146919601D01*
X141249964Y-146589009D01*
X141123718Y-146283471D01*
X140890158Y-146049503D01*
X140584841Y-145922725D01*
X140254249Y-145922436D01*
X139948711Y-146048682D01*
X139783737Y-146213368D01*
X139620158Y-146049503D01*
X139314841Y-145922725D01*
X138984249Y-145922436D01*
X138678711Y-146048682D01*
X138444743Y-146282242D01*
X138317965Y-146587559D01*
X138317676Y-146918151D01*
X137439676Y-146918151D01*
X137439964Y-146589009D01*
X137313718Y-146283471D01*
X137080158Y-146049503D01*
X136774841Y-145922725D01*
X136444249Y-145922436D01*
X136138711Y-146048682D01*
X135973737Y-146213368D01*
X135810158Y-146049503D01*
X135504841Y-145922725D01*
X135174249Y-145922436D01*
X134868711Y-146048682D01*
X134703737Y-146213368D01*
X134540158Y-146049503D01*
X134234841Y-145922725D01*
X133904249Y-145922436D01*
X133598711Y-146048682D01*
X133364743Y-146282242D01*
X133237965Y-146587559D01*
X133237676Y-146918151D01*
X132359676Y-146918151D01*
X132359964Y-146589009D01*
X132233718Y-146283471D01*
X132000158Y-146049503D01*
X131694841Y-145922725D01*
X131364249Y-145922436D01*
X131058711Y-146048682D01*
X130893737Y-146213368D01*
X130730158Y-146049503D01*
X130424841Y-145922725D01*
X130094249Y-145922436D01*
X129788711Y-146048682D01*
X129623737Y-146213368D01*
X129460158Y-146049503D01*
X129154841Y-145922725D01*
X128824249Y-145922436D01*
X128518711Y-146048682D01*
X128353737Y-146213368D01*
X128190158Y-146049503D01*
X127884841Y-145922725D01*
X127554249Y-145922436D01*
X127248711Y-146048682D01*
X127083737Y-146213368D01*
X126920158Y-146049503D01*
X126614841Y-145922725D01*
X126284249Y-145922436D01*
X125978711Y-146048682D01*
X125813737Y-146213368D01*
X125650158Y-146049503D01*
X125344841Y-145922725D01*
X125014249Y-145922436D01*
X124708711Y-146048682D01*
X124474743Y-146282242D01*
X124347965Y-146587559D01*
X124347676Y-146918151D01*
X123469676Y-146918151D01*
X123469964Y-146589009D01*
X123343718Y-146283471D01*
X123110158Y-146049503D01*
X122804841Y-145922725D01*
X122474249Y-145922436D01*
X122168711Y-146048682D01*
X122003737Y-146213368D01*
X121840158Y-146049503D01*
X121534841Y-145922725D01*
X121204249Y-145922436D01*
X120898711Y-146048682D01*
X120733737Y-146213368D01*
X120570158Y-146049503D01*
X120264841Y-145922725D01*
X119934249Y-145922436D01*
X119628711Y-146048682D01*
X119394743Y-146282242D01*
X119267965Y-146587559D01*
X119267676Y-146918151D01*
X118389676Y-146918151D01*
X118389964Y-146589009D01*
X118263718Y-146283471D01*
X118030158Y-146049503D01*
X117724841Y-145922725D01*
X117394249Y-145922436D01*
X117088711Y-146048682D01*
X116923737Y-146213368D01*
X116760158Y-146049503D01*
X116454841Y-145922725D01*
X116124249Y-145922436D01*
X115818711Y-146048682D01*
X115584743Y-146282242D01*
X115457965Y-146587559D01*
X115457676Y-146918151D01*
X91898540Y-146918151D01*
X91898540Y-142434335D01*
X121194610Y-142434335D01*
X121291080Y-142667808D01*
X121469552Y-142846593D01*
X121702857Y-142943469D01*
X121955475Y-142943690D01*
X122188948Y-142847220D01*
X122219617Y-142816605D01*
X122249552Y-142846593D01*
X122482857Y-142943469D01*
X122735475Y-142943690D01*
X122968948Y-142847220D01*
X123147733Y-142668748D01*
X123244609Y-142435443D01*
X123244830Y-142182825D01*
X123148360Y-141949352D01*
X122969888Y-141770567D01*
X122736583Y-141673691D01*
X122483965Y-141673470D01*
X122250492Y-141769940D01*
X122219823Y-141800555D01*
X122189888Y-141770567D01*
X121956583Y-141673691D01*
X121703965Y-141673470D01*
X121470492Y-141769940D01*
X121291707Y-141948412D01*
X121194831Y-142181717D01*
X121194610Y-142434335D01*
X91898540Y-142434335D01*
X91898540Y-139739146D01*
X111008028Y-139739146D01*
X111123792Y-140019314D01*
X111337958Y-140233855D01*
X111617924Y-140350107D01*
X111921066Y-140350372D01*
X112201234Y-140234608D01*
X112415775Y-140020442D01*
X112532027Y-139740476D01*
X112532030Y-139736606D01*
X126212468Y-139736606D01*
X126328232Y-140016774D01*
X126542398Y-140231315D01*
X126822364Y-140347567D01*
X127125506Y-140347832D01*
X127405674Y-140232068D01*
X127620215Y-140017902D01*
X127736467Y-139737936D01*
X127736732Y-139434794D01*
X127620968Y-139154626D01*
X127406802Y-138940085D01*
X127126836Y-138823833D01*
X126823694Y-138823568D01*
X126543526Y-138939332D01*
X126328985Y-139153498D01*
X126212733Y-139433464D01*
X126212468Y-139736606D01*
X112532030Y-139736606D01*
X112532292Y-139437334D01*
X112416528Y-139157166D01*
X112202362Y-138942625D01*
X111922396Y-138826373D01*
X111619254Y-138826108D01*
X111339086Y-138941872D01*
X111124545Y-139156038D01*
X111008293Y-139436004D01*
X111008028Y-139739146D01*
X91898540Y-139739146D01*
X91898540Y-137740415D01*
X114028110Y-137740415D01*
X114124580Y-137973888D01*
X114303052Y-138152673D01*
X114536357Y-138249549D01*
X114788975Y-138249770D01*
X115022448Y-138153300D01*
X115201233Y-137974828D01*
X115298109Y-137741523D01*
X115298330Y-137488905D01*
X115201860Y-137255432D01*
X115031822Y-137085095D01*
X123539030Y-137085095D01*
X123635500Y-137318568D01*
X123813972Y-137497353D01*
X124047277Y-137594229D01*
X124299895Y-137594450D01*
X124533368Y-137497980D01*
X124564037Y-137467365D01*
X124593972Y-137497353D01*
X124827277Y-137594229D01*
X125079895Y-137594450D01*
X125313368Y-137497980D01*
X125492153Y-137319508D01*
X125589029Y-137086203D01*
X125589250Y-136833585D01*
X125492780Y-136600112D01*
X125314308Y-136421327D01*
X125081003Y-136324451D01*
X124828385Y-136324230D01*
X124594912Y-136420700D01*
X124564243Y-136451315D01*
X124534308Y-136421327D01*
X124301003Y-136324451D01*
X124048385Y-136324230D01*
X123814912Y-136420700D01*
X123636127Y-136599172D01*
X123539251Y-136832477D01*
X123539030Y-137085095D01*
X115031822Y-137085095D01*
X115023388Y-137076647D01*
X114790083Y-136979771D01*
X114537465Y-136979550D01*
X114303992Y-137076020D01*
X114125207Y-137254492D01*
X114028331Y-137487797D01*
X114028110Y-137740415D01*
X91898540Y-137740415D01*
X91898540Y-134801635D01*
X118212930Y-134801635D01*
X118309400Y-135035108D01*
X118487872Y-135213893D01*
X118721177Y-135310769D01*
X118973795Y-135310990D01*
X119192288Y-135220710D01*
X119409177Y-135310769D01*
X119539706Y-135310883D01*
X119488307Y-135362192D01*
X119391431Y-135595497D01*
X119391210Y-135848115D01*
X119487680Y-136081588D01*
X119666152Y-136260373D01*
X119899457Y-136357249D01*
X120152075Y-136357470D01*
X120385548Y-136261000D01*
X120416217Y-136230385D01*
X120446152Y-136260373D01*
X120679457Y-136357249D01*
X120932075Y-136357470D01*
X121165548Y-136261000D01*
X121203819Y-136222796D01*
X121297112Y-136316253D01*
X121530417Y-136413129D01*
X121783035Y-136413350D01*
X122001528Y-136323070D01*
X122218417Y-136413129D01*
X122471035Y-136413350D01*
X122704508Y-136316880D01*
X122883293Y-136138408D01*
X122980169Y-135905103D01*
X122980390Y-135652485D01*
X122883920Y-135419012D01*
X122705448Y-135240227D01*
X122472143Y-135143351D01*
X122219525Y-135143130D01*
X122001032Y-135233410D01*
X121784143Y-135143351D01*
X121531525Y-135143130D01*
X121298052Y-135239600D01*
X121259781Y-135277804D01*
X121166488Y-135184347D01*
X120933183Y-135087471D01*
X120680565Y-135087250D01*
X120447092Y-135183720D01*
X120416423Y-135214335D01*
X120386488Y-135184347D01*
X120153183Y-135087471D01*
X120022654Y-135087357D01*
X120074053Y-135036048D01*
X120170929Y-134802743D01*
X120171030Y-134687086D01*
X130063108Y-134687086D01*
X130178872Y-134967254D01*
X130393038Y-135181795D01*
X130673004Y-135298047D01*
X130976146Y-135298312D01*
X131256314Y-135182548D01*
X131470855Y-134968382D01*
X131587107Y-134688416D01*
X131587108Y-134687086D01*
X139329028Y-134687086D01*
X139444792Y-134967254D01*
X139658958Y-135181795D01*
X139938924Y-135298047D01*
X140242066Y-135298312D01*
X140522234Y-135182548D01*
X140736775Y-134968382D01*
X140853027Y-134688416D01*
X140853292Y-134385274D01*
X140737528Y-134105106D01*
X140523362Y-133890565D01*
X140243396Y-133774313D01*
X139940254Y-133774048D01*
X139660086Y-133889812D01*
X139445545Y-134103978D01*
X139329293Y-134383944D01*
X139329028Y-134687086D01*
X131587108Y-134687086D01*
X131587372Y-134385274D01*
X131471608Y-134105106D01*
X131257442Y-133890565D01*
X130977476Y-133774313D01*
X130674334Y-133774048D01*
X130394166Y-133889812D01*
X130179625Y-134103978D01*
X130063373Y-134383944D01*
X130063108Y-134687086D01*
X120171030Y-134687086D01*
X120171150Y-134550125D01*
X120074680Y-134316652D01*
X119896208Y-134137867D01*
X119662903Y-134040991D01*
X119410285Y-134040770D01*
X119191792Y-134131050D01*
X118974903Y-134040991D01*
X118722285Y-134040770D01*
X118488812Y-134137240D01*
X118310027Y-134315712D01*
X118213151Y-134549017D01*
X118212930Y-134801635D01*
X91898540Y-134801635D01*
X91898540Y-133739666D01*
X111005488Y-133739666D01*
X111121252Y-134019834D01*
X111335418Y-134234375D01*
X111615384Y-134350627D01*
X111918526Y-134350892D01*
X112198694Y-134235128D01*
X112413235Y-134020962D01*
X112529487Y-133740996D01*
X112529510Y-133714515D01*
X126339490Y-133714515D01*
X126435960Y-133947988D01*
X126614432Y-134126773D01*
X126847737Y-134223649D01*
X127100355Y-134223870D01*
X127333828Y-134127400D01*
X127512613Y-133948928D01*
X127609489Y-133715623D01*
X127609710Y-133463005D01*
X127513240Y-133229532D01*
X127334768Y-133050747D01*
X127101463Y-132953871D01*
X126848845Y-132953650D01*
X126615372Y-133050120D01*
X126436587Y-133228592D01*
X126339711Y-133461897D01*
X126339490Y-133714515D01*
X112529510Y-133714515D01*
X112529752Y-133437854D01*
X112413988Y-133157686D01*
X112199822Y-132943145D01*
X111919856Y-132826893D01*
X111616714Y-132826628D01*
X111336546Y-132942392D01*
X111122005Y-133156558D01*
X111005753Y-133436524D01*
X111005488Y-133739666D01*
X91898540Y-133739666D01*
X91898540Y-132739155D01*
X125369210Y-132739155D01*
X125465680Y-132972628D01*
X125644152Y-133151413D01*
X125877457Y-133248289D01*
X126130075Y-133248510D01*
X126363548Y-133152040D01*
X126542333Y-132973568D01*
X126639209Y-132740263D01*
X126639430Y-132487645D01*
X126542960Y-132254172D01*
X126364488Y-132075387D01*
X126131183Y-131978511D01*
X125878565Y-131978290D01*
X125645092Y-132074760D01*
X125466307Y-132253232D01*
X125369431Y-132486537D01*
X125369210Y-132739155D01*
X91898540Y-132739155D01*
X91898540Y-130829075D01*
X131833510Y-130829075D01*
X131929980Y-131062548D01*
X132108452Y-131241333D01*
X132341757Y-131338209D01*
X132594375Y-131338430D01*
X132827848Y-131241960D01*
X133006633Y-131063488D01*
X133094476Y-130851935D01*
X137040510Y-130851935D01*
X137136980Y-131085408D01*
X137315452Y-131264193D01*
X137548757Y-131361069D01*
X137801375Y-131361290D01*
X138034848Y-131264820D01*
X138213633Y-131086348D01*
X138310509Y-130853043D01*
X138310730Y-130600425D01*
X138214260Y-130366952D01*
X138035788Y-130188167D01*
X137802483Y-130091291D01*
X137549865Y-130091070D01*
X137316392Y-130187540D01*
X137137607Y-130366012D01*
X137040731Y-130599317D01*
X137040510Y-130851935D01*
X133094476Y-130851935D01*
X133103509Y-130830183D01*
X133103730Y-130577565D01*
X133007260Y-130344092D01*
X132828788Y-130165307D01*
X132595483Y-130068431D01*
X132342865Y-130068210D01*
X132109392Y-130164680D01*
X131930607Y-130343152D01*
X131833731Y-130576457D01*
X131833510Y-130829075D01*
X91898540Y-130829075D01*
X91898540Y-128469415D01*
X135737490Y-128469415D01*
X135833960Y-128702888D01*
X136012432Y-128881673D01*
X136245737Y-128978549D01*
X136498355Y-128978770D01*
X136731828Y-128882300D01*
X136910613Y-128703828D01*
X137007489Y-128470523D01*
X137007710Y-128217905D01*
X136911240Y-127984432D01*
X136732768Y-127805647D01*
X136606305Y-127753135D01*
X141094350Y-127753135D01*
X141190820Y-127986608D01*
X141369292Y-128165393D01*
X141602597Y-128262269D01*
X141855215Y-128262490D01*
X142088688Y-128166020D01*
X142267473Y-127987548D01*
X142364349Y-127754243D01*
X142364432Y-127658906D01*
X156872808Y-127658906D01*
X156988572Y-127939074D01*
X157202738Y-128153615D01*
X157482704Y-128269867D01*
X157785846Y-128270132D01*
X157861773Y-128238759D01*
X157812873Y-128356524D01*
X157812608Y-128659666D01*
X157928372Y-128939834D01*
X158142538Y-129154375D01*
X158422504Y-129270627D01*
X158725646Y-129270892D01*
X159005814Y-129155128D01*
X159220355Y-128940962D01*
X159336607Y-128660996D01*
X159336872Y-128357854D01*
X159221108Y-128077686D01*
X159153258Y-128009717D01*
X159222895Y-127940202D01*
X159339147Y-127660236D01*
X159339412Y-127357094D01*
X159223648Y-127076926D01*
X159155756Y-127008915D01*
X160835230Y-127008915D01*
X160931700Y-127242388D01*
X161110172Y-127421173D01*
X161343477Y-127518049D01*
X161596095Y-127518270D01*
X161829568Y-127421800D01*
X162008353Y-127243328D01*
X162104634Y-127011455D01*
X164569030Y-127011455D01*
X164665500Y-127244928D01*
X164843972Y-127423713D01*
X165077277Y-127520589D01*
X165329895Y-127520810D01*
X165563368Y-127424340D01*
X165742153Y-127245868D01*
X165839029Y-127012563D01*
X165839250Y-126759945D01*
X165742780Y-126526472D01*
X165564308Y-126347687D01*
X165331003Y-126250811D01*
X165078385Y-126250590D01*
X164844912Y-126347060D01*
X164666127Y-126525532D01*
X164569251Y-126758837D01*
X164569030Y-127011455D01*
X162104634Y-127011455D01*
X162105229Y-127010023D01*
X162105450Y-126757405D01*
X162008980Y-126523932D01*
X161830508Y-126345147D01*
X161597203Y-126248271D01*
X161344585Y-126248050D01*
X161111112Y-126344520D01*
X160932327Y-126522992D01*
X160835451Y-126756297D01*
X160835230Y-127008915D01*
X159155756Y-127008915D01*
X159009482Y-126862385D01*
X158729516Y-126746133D01*
X158426374Y-126745868D01*
X158146206Y-126861632D01*
X158106228Y-126901540D01*
X158067142Y-126862385D01*
X157787176Y-126746133D01*
X157484034Y-126745868D01*
X157203866Y-126861632D01*
X156989325Y-127075798D01*
X156873073Y-127355764D01*
X156872808Y-127658906D01*
X142364432Y-127658906D01*
X142364570Y-127501625D01*
X142268100Y-127268152D01*
X142089628Y-127089367D01*
X141856323Y-126992491D01*
X141603705Y-126992270D01*
X141370232Y-127088740D01*
X141191447Y-127267212D01*
X141094571Y-127500517D01*
X141094350Y-127753135D01*
X136606305Y-127753135D01*
X136499463Y-127708771D01*
X136246845Y-127708550D01*
X136013372Y-127805020D01*
X135834587Y-127983492D01*
X135737711Y-128216797D01*
X135737490Y-128469415D01*
X91898540Y-128469415D01*
X91898540Y-126368835D01*
X102339030Y-126368835D01*
X102416230Y-126555671D01*
X102339251Y-126741057D01*
X102339030Y-126993675D01*
X102417282Y-127183057D01*
X102339251Y-127370977D01*
X102339030Y-127623595D01*
X102435500Y-127857068D01*
X102613972Y-128035853D01*
X102847277Y-128132729D01*
X103099895Y-128132950D01*
X103333368Y-128036480D01*
X103361384Y-128008513D01*
X103391212Y-128038393D01*
X103624517Y-128135269D01*
X103877135Y-128135490D01*
X104110608Y-128039020D01*
X104289393Y-127860548D01*
X104386269Y-127627243D01*
X104386490Y-127374625D01*
X104304030Y-127175058D01*
X104386269Y-126977003D01*
X104386490Y-126724385D01*
X104312973Y-126546461D01*
X104386269Y-126369943D01*
X104386269Y-126368835D01*
X134437010Y-126368835D01*
X134533480Y-126602308D01*
X134711952Y-126781093D01*
X134945257Y-126877969D01*
X135197875Y-126878190D01*
X135431348Y-126781720D01*
X135610133Y-126603248D01*
X135707009Y-126369943D01*
X135707230Y-126117325D01*
X135610760Y-125883852D01*
X135432288Y-125705067D01*
X135198983Y-125608191D01*
X134946365Y-125607970D01*
X134712892Y-125704440D01*
X134534107Y-125882912D01*
X134437231Y-126116217D01*
X134437010Y-126368835D01*
X104386269Y-126368835D01*
X104386490Y-126117325D01*
X104290020Y-125883852D01*
X104111548Y-125705067D01*
X103878243Y-125608191D01*
X103625625Y-125607970D01*
X103392152Y-125704440D01*
X103362866Y-125733675D01*
X103334308Y-125705067D01*
X103101003Y-125608191D01*
X102848385Y-125607970D01*
X102614912Y-125704440D01*
X102436127Y-125882912D01*
X102339251Y-126116217D01*
X102339030Y-126368835D01*
X91898540Y-126368835D01*
X91898540Y-124806735D01*
X108264850Y-124806735D01*
X108361320Y-125040208D01*
X108539792Y-125218993D01*
X108773097Y-125315869D01*
X109025715Y-125316090D01*
X109259188Y-125219620D01*
X109437973Y-125041148D01*
X109533199Y-124811815D01*
X115016170Y-124811815D01*
X115112640Y-125045288D01*
X115291112Y-125224073D01*
X115524417Y-125320949D01*
X115777035Y-125321170D01*
X116010508Y-125224700D01*
X116189293Y-125046228D01*
X116286169Y-124812923D01*
X116286390Y-124560305D01*
X116189920Y-124326832D01*
X116011448Y-124148047D01*
X115778143Y-124051171D01*
X115525525Y-124050950D01*
X115292052Y-124147420D01*
X115113267Y-124325892D01*
X115016391Y-124559197D01*
X115016170Y-124811815D01*
X109533199Y-124811815D01*
X109534849Y-124807843D01*
X109535070Y-124555225D01*
X109438600Y-124321752D01*
X109260128Y-124142967D01*
X109026823Y-124046091D01*
X108774205Y-124045870D01*
X108540732Y-124142340D01*
X108361947Y-124320812D01*
X108265071Y-124554117D01*
X108264850Y-124806735D01*
X91898540Y-124806735D01*
X91898540Y-123821215D01*
X145384410Y-123821215D01*
X145480880Y-124054688D01*
X145659352Y-124233473D01*
X145892657Y-124330349D01*
X146145275Y-124330570D01*
X146378748Y-124234100D01*
X146557533Y-124055628D01*
X146654409Y-123822323D01*
X146654630Y-123569705D01*
X146569640Y-123364015D01*
X157533230Y-123364015D01*
X157629700Y-123597488D01*
X157808172Y-123776273D01*
X158041477Y-123873149D01*
X158294095Y-123873370D01*
X158527568Y-123776900D01*
X158706353Y-123598428D01*
X158803229Y-123365123D01*
X158803450Y-123112505D01*
X158706980Y-122879032D01*
X158528508Y-122700247D01*
X158295203Y-122603371D01*
X158042585Y-122603150D01*
X157809112Y-122699620D01*
X157630327Y-122878092D01*
X157533451Y-123111397D01*
X157533230Y-123364015D01*
X146569640Y-123364015D01*
X146558160Y-123336232D01*
X146379688Y-123157447D01*
X146146383Y-123060571D01*
X145893765Y-123060350D01*
X145660292Y-123156820D01*
X145481507Y-123335292D01*
X145384631Y-123568597D01*
X145384410Y-123821215D01*
X91898540Y-123821215D01*
X91898540Y-123038895D01*
X135638430Y-123038895D01*
X135734900Y-123272368D01*
X135913372Y-123451153D01*
X136146677Y-123548029D01*
X136399295Y-123548250D01*
X136632768Y-123451780D01*
X136811553Y-123273308D01*
X136908429Y-123040003D01*
X136908649Y-122787435D01*
X144345550Y-122787435D01*
X144442020Y-123020908D01*
X144620492Y-123199693D01*
X144853797Y-123296569D01*
X145106415Y-123296790D01*
X145339888Y-123200320D01*
X145518673Y-123021848D01*
X145615549Y-122788543D01*
X145615554Y-122782355D01*
X149669390Y-122782355D01*
X149765860Y-123015828D01*
X149944332Y-123194613D01*
X150177637Y-123291489D01*
X150430255Y-123291710D01*
X150663728Y-123195240D01*
X150842513Y-123016768D01*
X150939389Y-122783463D01*
X150939610Y-122530845D01*
X150843140Y-122297372D01*
X150664668Y-122118587D01*
X150431363Y-122021711D01*
X150178745Y-122021490D01*
X149945272Y-122117960D01*
X149766487Y-122296432D01*
X149669611Y-122529737D01*
X149669390Y-122782355D01*
X145615554Y-122782355D01*
X145615770Y-122535925D01*
X145519300Y-122302452D01*
X145340828Y-122123667D01*
X145107523Y-122026791D01*
X144854905Y-122026570D01*
X144621432Y-122123040D01*
X144442647Y-122301512D01*
X144345771Y-122534817D01*
X144345550Y-122787435D01*
X136908649Y-122787435D01*
X136908650Y-122787385D01*
X136812180Y-122553912D01*
X136633708Y-122375127D01*
X136400403Y-122278251D01*
X136147785Y-122278030D01*
X135914312Y-122374500D01*
X135735527Y-122552972D01*
X135638651Y-122786277D01*
X135638430Y-123038895D01*
X91898540Y-123038895D01*
X91898540Y-122099095D01*
X106784030Y-122099095D01*
X106880500Y-122332568D01*
X107058972Y-122511353D01*
X107292277Y-122608229D01*
X107544895Y-122608450D01*
X107778368Y-122511980D01*
X107957153Y-122333508D01*
X108054029Y-122100203D01*
X108054032Y-122096555D01*
X120322230Y-122096555D01*
X120418700Y-122330028D01*
X120597172Y-122508813D01*
X120830477Y-122605689D01*
X121083095Y-122605910D01*
X121316568Y-122509440D01*
X121495353Y-122330968D01*
X121592229Y-122097663D01*
X121592254Y-122068615D01*
X140251070Y-122068615D01*
X140347540Y-122302088D01*
X140526012Y-122480873D01*
X140759317Y-122577749D01*
X141011935Y-122577970D01*
X141245408Y-122481500D01*
X141424193Y-122303028D01*
X141521069Y-122069723D01*
X141521290Y-121817105D01*
X141424820Y-121583632D01*
X141246348Y-121404847D01*
X141013043Y-121307971D01*
X140760425Y-121307750D01*
X140526952Y-121404220D01*
X140348167Y-121582692D01*
X140251291Y-121815997D01*
X140251070Y-122068615D01*
X121592254Y-122068615D01*
X121592450Y-121845045D01*
X121495980Y-121611572D01*
X121317508Y-121432787D01*
X121084203Y-121335911D01*
X120831585Y-121335690D01*
X120598112Y-121432160D01*
X120419327Y-121610632D01*
X120322451Y-121843937D01*
X120322230Y-122096555D01*
X108054032Y-122096555D01*
X108054250Y-121847585D01*
X107957780Y-121614112D01*
X107779308Y-121435327D01*
X107546003Y-121338451D01*
X107293385Y-121338230D01*
X107059912Y-121434700D01*
X106881127Y-121613172D01*
X106784251Y-121846477D01*
X106784030Y-122099095D01*
X91898540Y-122099095D01*
X91898540Y-120595415D01*
X159179150Y-120595415D01*
X159275620Y-120828888D01*
X159454092Y-121007673D01*
X159687397Y-121104549D01*
X159940015Y-121104770D01*
X160173488Y-121008300D01*
X160352273Y-120829828D01*
X160449149Y-120596523D01*
X160449370Y-120343905D01*
X160352900Y-120110432D01*
X160174428Y-119931647D01*
X159941123Y-119834771D01*
X159688505Y-119834550D01*
X159455032Y-119931020D01*
X159276247Y-120109492D01*
X159179371Y-120342797D01*
X159179150Y-120595415D01*
X91898540Y-120595415D01*
X91898540Y-119305095D01*
X113210230Y-119305095D01*
X113306700Y-119538568D01*
X113485172Y-119717353D01*
X113718477Y-119814229D01*
X113971095Y-119814450D01*
X114204568Y-119717980D01*
X114383353Y-119539508D01*
X114480229Y-119306203D01*
X114480236Y-119297475D01*
X163474290Y-119297475D01*
X163570760Y-119530948D01*
X163749232Y-119709733D01*
X163982537Y-119806609D01*
X164235155Y-119806830D01*
X164468628Y-119710360D01*
X164647413Y-119531888D01*
X164744289Y-119298583D01*
X164744510Y-119045965D01*
X164648040Y-118812492D01*
X164469568Y-118633707D01*
X164236263Y-118536831D01*
X163983645Y-118536610D01*
X163750172Y-118633080D01*
X163571387Y-118811552D01*
X163474511Y-119044857D01*
X163474290Y-119297475D01*
X114480236Y-119297475D01*
X114480450Y-119053585D01*
X114383980Y-118820112D01*
X114209230Y-118645055D01*
X154266790Y-118645055D01*
X154363260Y-118878528D01*
X154541732Y-119057313D01*
X154775037Y-119154189D01*
X155027655Y-119154410D01*
X155261128Y-119057940D01*
X155439913Y-118879468D01*
X155536789Y-118646163D01*
X155537010Y-118393545D01*
X155505397Y-118317035D01*
X162445590Y-118317035D01*
X162542060Y-118550508D01*
X162720532Y-118729293D01*
X162953837Y-118826169D01*
X163206455Y-118826390D01*
X163439928Y-118729920D01*
X163618713Y-118551448D01*
X163715589Y-118318143D01*
X163715810Y-118065525D01*
X163619340Y-117832052D01*
X163440868Y-117653267D01*
X163207563Y-117556391D01*
X162954945Y-117556170D01*
X162721472Y-117652640D01*
X162542687Y-117831112D01*
X162445811Y-118064417D01*
X162445590Y-118317035D01*
X155505397Y-118317035D01*
X155440540Y-118160072D01*
X155262068Y-117981287D01*
X155028763Y-117884411D01*
X154776145Y-117884190D01*
X154542672Y-117980660D01*
X154363887Y-118159132D01*
X154267011Y-118392437D01*
X154266790Y-118645055D01*
X114209230Y-118645055D01*
X114205508Y-118641327D01*
X113972203Y-118544451D01*
X113719585Y-118544230D01*
X113486112Y-118640700D01*
X113307327Y-118819172D01*
X113210451Y-119052477D01*
X113210230Y-119305095D01*
X91898540Y-119305095D01*
X91898540Y-116772715D01*
X155521550Y-116772715D01*
X155618020Y-117006188D01*
X155796492Y-117184973D01*
X156029797Y-117281849D01*
X156282415Y-117282070D01*
X156515888Y-117185600D01*
X156694673Y-117007128D01*
X156791549Y-116773823D01*
X156791770Y-116521205D01*
X156695300Y-116287732D01*
X156516828Y-116108947D01*
X156283523Y-116012071D01*
X156030905Y-116011850D01*
X155797432Y-116108320D01*
X155618647Y-116286792D01*
X155521771Y-116520097D01*
X155521550Y-116772715D01*
X91898540Y-116772715D01*
X91898540Y-114443535D01*
X156601050Y-114443535D01*
X156697520Y-114677008D01*
X156875992Y-114855793D01*
X157109297Y-114952669D01*
X157361915Y-114952890D01*
X157595388Y-114856420D01*
X157774173Y-114677948D01*
X157871049Y-114444643D01*
X157871270Y-114192025D01*
X157774800Y-113958552D01*
X157596328Y-113779767D01*
X157363023Y-113682891D01*
X157110405Y-113682670D01*
X156876932Y-113779140D01*
X156698147Y-113957612D01*
X156601271Y-114190917D01*
X156601050Y-114443535D01*
X91898540Y-114443535D01*
X91898540Y-112646705D01*
X94370762Y-112646705D01*
X94474219Y-112897092D01*
X94665621Y-113088827D01*
X94915826Y-113192722D01*
X95186745Y-113192958D01*
X95437132Y-113089501D01*
X95628867Y-112898099D01*
X95732762Y-112647894D01*
X95732765Y-112644165D01*
X96915842Y-112644165D01*
X97019299Y-112894552D01*
X97210701Y-113086287D01*
X97460906Y-113190182D01*
X97731825Y-113190418D01*
X97982212Y-113086961D01*
X98173947Y-112895559D01*
X98277281Y-112646705D01*
X99445682Y-112646705D01*
X99549139Y-112897092D01*
X99740541Y-113088827D01*
X99990746Y-113192722D01*
X100261665Y-113192958D01*
X100512052Y-113089501D01*
X100703787Y-112898099D01*
X100807121Y-112649245D01*
X101985682Y-112649245D01*
X102089139Y-112899632D01*
X102280541Y-113091367D01*
X102530746Y-113195262D01*
X102801665Y-113195498D01*
X103052052Y-113092041D01*
X103243787Y-112900639D01*
X103347682Y-112650434D01*
X103347918Y-112379515D01*
X103244461Y-112129128D01*
X103053059Y-111937393D01*
X102802854Y-111833498D01*
X102531935Y-111833262D01*
X102281548Y-111936719D01*
X102089813Y-112128121D01*
X101985918Y-112378326D01*
X101985682Y-112649245D01*
X100807121Y-112649245D01*
X100807682Y-112647894D01*
X100807918Y-112376975D01*
X100704461Y-112126588D01*
X100513059Y-111934853D01*
X100262854Y-111830958D01*
X99991935Y-111830722D01*
X99741548Y-111934179D01*
X99549813Y-112125581D01*
X99445918Y-112375786D01*
X99445682Y-112646705D01*
X98277281Y-112646705D01*
X98277842Y-112645354D01*
X98278078Y-112374435D01*
X98174621Y-112124048D01*
X97983219Y-111932313D01*
X97733014Y-111828418D01*
X97462095Y-111828182D01*
X97211708Y-111931639D01*
X97019973Y-112123041D01*
X96916078Y-112373246D01*
X96915842Y-112644165D01*
X95732765Y-112644165D01*
X95732998Y-112376975D01*
X95629541Y-112126588D01*
X95438139Y-111934853D01*
X95187934Y-111830958D01*
X94917015Y-111830722D01*
X94666628Y-111934179D01*
X94474893Y-112125581D01*
X94370998Y-112375786D01*
X94370762Y-112646705D01*
X91898540Y-112646705D01*
X91898540Y-98965371D01*
X122898176Y-98965371D01*
X122994646Y-99198844D01*
X123173118Y-99377629D01*
X123391453Y-99468289D01*
X123481134Y-99685332D01*
X123659606Y-99864117D01*
X123892911Y-99960993D01*
X124145529Y-99961214D01*
X124379002Y-99864744D01*
X124557787Y-99686272D01*
X124654663Y-99452967D01*
X124654884Y-99200349D01*
X124558414Y-98966876D01*
X124379942Y-98788091D01*
X124161607Y-98697431D01*
X124071926Y-98480388D01*
X123893454Y-98301603D01*
X123660149Y-98204727D01*
X123407531Y-98204506D01*
X123174058Y-98300976D01*
X122995273Y-98479448D01*
X122898397Y-98712753D01*
X122898176Y-98965371D01*
X91898540Y-98965371D01*
X91898540Y-97382511D01*
X119621646Y-97382511D01*
X119718116Y-97615984D01*
X119896588Y-97794769D01*
X120114923Y-97885429D01*
X120204604Y-98102472D01*
X120383076Y-98281257D01*
X120616381Y-98378133D01*
X120868999Y-98378354D01*
X121102472Y-98281884D01*
X121281257Y-98103412D01*
X121378133Y-97870107D01*
X121378354Y-97617489D01*
X121281884Y-97384016D01*
X121103412Y-97205231D01*
X120885077Y-97114571D01*
X120795396Y-96897528D01*
X120616924Y-96718743D01*
X120383619Y-96621867D01*
X120131001Y-96621646D01*
X119897528Y-96718116D01*
X119718743Y-96896588D01*
X119621867Y-97129893D01*
X119621646Y-97382511D01*
X91898540Y-97382511D01*
X91898540Y-95447471D01*
X124640826Y-95447471D01*
X124737296Y-95680944D01*
X124915768Y-95859729D01*
X125134103Y-95950389D01*
X125223784Y-96167432D01*
X125402256Y-96346217D01*
X125635561Y-96443093D01*
X125888179Y-96443314D01*
X126121652Y-96346844D01*
X126300437Y-96168372D01*
X126397313Y-95935067D01*
X126397534Y-95682449D01*
X126301064Y-95448976D01*
X126122592Y-95270191D01*
X125904257Y-95179531D01*
X125814576Y-94962488D01*
X125636104Y-94783703D01*
X125402799Y-94686827D01*
X125150181Y-94686606D01*
X124916708Y-94783076D01*
X124737923Y-94961548D01*
X124641047Y-95194853D01*
X124640826Y-95447471D01*
X91898540Y-95447471D01*
X91898540Y-85515475D01*
X127779629Y-85515475D01*
X127876099Y-85748948D01*
X128054571Y-85927733D01*
X128287876Y-86024609D01*
X128540494Y-86024830D01*
X128758987Y-85934550D01*
X128975876Y-86024609D01*
X129228494Y-86024830D01*
X129461967Y-85928360D01*
X129640752Y-85749888D01*
X129737628Y-85516583D01*
X129737849Y-85263965D01*
X129641379Y-85030492D01*
X129462907Y-84851707D01*
X129229602Y-84754831D01*
X128976984Y-84754610D01*
X128758491Y-84844890D01*
X128541602Y-84754831D01*
X128288984Y-84754610D01*
X128055511Y-84851080D01*
X127876726Y-85029552D01*
X127779850Y-85262857D01*
X127779629Y-85515475D01*
X91898540Y-85515475D01*
X91898540Y-83292975D01*
X116583350Y-83292975D01*
X116679820Y-83526448D01*
X116858292Y-83705233D01*
X117091597Y-83802109D01*
X117344215Y-83802330D01*
X117577688Y-83705860D01*
X117756473Y-83527388D01*
X117853349Y-83294083D01*
X117853570Y-83041465D01*
X117757100Y-82807992D01*
X117578628Y-82629207D01*
X117378760Y-82546215D01*
X121061370Y-82546215D01*
X121157840Y-82779688D01*
X121336312Y-82958473D01*
X121569617Y-83055349D01*
X121822235Y-83055570D01*
X122055708Y-82959100D01*
X122234493Y-82780628D01*
X122331369Y-82547323D01*
X122331383Y-82530975D01*
X123535330Y-82530975D01*
X123631800Y-82764448D01*
X123810272Y-82943233D01*
X124043577Y-83040109D01*
X124296195Y-83040330D01*
X124529668Y-82943860D01*
X124708453Y-82765388D01*
X124805329Y-82532083D01*
X124805550Y-82279465D01*
X124709080Y-82045992D01*
X124530608Y-81867207D01*
X124297303Y-81770331D01*
X124044685Y-81770110D01*
X123811212Y-81866580D01*
X123632427Y-82045052D01*
X123535551Y-82278357D01*
X123535330Y-82530975D01*
X122331383Y-82530975D01*
X122331590Y-82294705D01*
X122235120Y-82061232D01*
X122056648Y-81882447D01*
X121823343Y-81785571D01*
X121570725Y-81785350D01*
X121337252Y-81881820D01*
X121158467Y-82060292D01*
X121061591Y-82293597D01*
X121061370Y-82546215D01*
X117378760Y-82546215D01*
X117345323Y-82532331D01*
X117092705Y-82532110D01*
X116859232Y-82628580D01*
X116680447Y-82807052D01*
X116583571Y-83040357D01*
X116583350Y-83292975D01*
X91898540Y-83292975D01*
X91898540Y-60452000D01*
X120269000Y-60452000D01*
X120269000Y-81280000D01*
X120279006Y-81329410D01*
X120307447Y-81371035D01*
X120349841Y-81398315D01*
X120396000Y-81407000D01*
X128140875Y-81407000D01*
X128121548Y-81426293D01*
X127909975Y-81426108D01*
X127691482Y-81516388D01*
X127474593Y-81426329D01*
X127221975Y-81426108D01*
X126988502Y-81522578D01*
X126809717Y-81701050D01*
X126712841Y-81934355D01*
X126712620Y-82186973D01*
X126739791Y-82252730D01*
X126716765Y-82252710D01*
X126483292Y-82349180D01*
X126304507Y-82527652D01*
X126207631Y-82760957D01*
X126207410Y-83013575D01*
X126303880Y-83247048D01*
X126482352Y-83425833D01*
X126715657Y-83522709D01*
X126968275Y-83522930D01*
X127201748Y-83426460D01*
X127380533Y-83247988D01*
X127477409Y-83014683D01*
X127477630Y-82762065D01*
X127450459Y-82696308D01*
X127473485Y-82696328D01*
X127691978Y-82606048D01*
X127908867Y-82696107D01*
X128161485Y-82696328D01*
X128282967Y-82646132D01*
X128326604Y-82751741D01*
X128505076Y-82930526D01*
X128738381Y-83027402D01*
X128990999Y-83027623D01*
X129224472Y-82931153D01*
X129403257Y-82752681D01*
X129500133Y-82519376D01*
X129500307Y-82320353D01*
X129691075Y-82241529D01*
X129699910Y-82250379D01*
X129692511Y-82268197D01*
X129692290Y-82520815D01*
X129788760Y-82754288D01*
X129967232Y-82933073D01*
X130200537Y-83029949D01*
X130453155Y-83030170D01*
X130686628Y-82933700D01*
X130865413Y-82755228D01*
X130962289Y-82521923D01*
X130962330Y-82474781D01*
X131184818Y-82567165D01*
X131437436Y-82567386D01*
X131655929Y-82477106D01*
X131872818Y-82567165D01*
X132125436Y-82567386D01*
X132169563Y-82549153D01*
X132262720Y-82774608D01*
X132441192Y-82953393D01*
X132674497Y-83050269D01*
X132927115Y-83050490D01*
X133104805Y-82977069D01*
X133268857Y-83045189D01*
X133521475Y-83045410D01*
X133733826Y-82957668D01*
X133914017Y-83032489D01*
X134166635Y-83032710D01*
X134400108Y-82936240D01*
X134578893Y-82757768D01*
X134592517Y-82724958D01*
X134692902Y-82725046D01*
X134859308Y-82656288D01*
X135049795Y-82735384D01*
X135133627Y-82735457D01*
X135153895Y-82784508D01*
X135332367Y-82963293D01*
X135565672Y-83060169D01*
X135818290Y-83060390D01*
X136051763Y-82963920D01*
X136230548Y-82785448D01*
X136241416Y-82759274D01*
X136348384Y-82759368D01*
X136363696Y-82753041D01*
X136367360Y-82761908D01*
X136545832Y-82940693D01*
X136779137Y-83037569D01*
X137031755Y-83037790D01*
X137265228Y-82941320D01*
X137444013Y-82762848D01*
X137460137Y-82724015D01*
X137901570Y-82724015D01*
X137998040Y-82957488D01*
X138176512Y-83136273D01*
X138409817Y-83233149D01*
X138662435Y-83233370D01*
X138895908Y-83136900D01*
X139074693Y-82958428D01*
X139171569Y-82725123D01*
X139171790Y-82472505D01*
X139075320Y-82239032D01*
X138896848Y-82060247D01*
X138663543Y-81963371D01*
X138410925Y-81963150D01*
X138177452Y-82059620D01*
X137998667Y-82238092D01*
X137901791Y-82471397D01*
X137901570Y-82724015D01*
X137460137Y-82724015D01*
X137540889Y-82529543D01*
X137541110Y-82276925D01*
X137444640Y-82043452D01*
X137266168Y-81864667D01*
X137032863Y-81767791D01*
X136780245Y-81767570D01*
X136764933Y-81773897D01*
X136761269Y-81765030D01*
X136582797Y-81586245D01*
X136349492Y-81489369D01*
X136096874Y-81489148D01*
X135863401Y-81585618D01*
X135711395Y-81737358D01*
X135536826Y-81562482D01*
X135303521Y-81465606D01*
X135050903Y-81465385D01*
X134884497Y-81534143D01*
X134694010Y-81455047D01*
X134441392Y-81454826D01*
X134207919Y-81551296D01*
X134029134Y-81729768D01*
X134015510Y-81762578D01*
X133915125Y-81762490D01*
X133702774Y-81850232D01*
X133522583Y-81775411D01*
X133269965Y-81775190D01*
X133092275Y-81848611D01*
X132928223Y-81780491D01*
X132675605Y-81780270D01*
X132631478Y-81798503D01*
X132538321Y-81573048D01*
X132372564Y-81407000D01*
X138684000Y-81407000D01*
X138733410Y-81396994D01*
X138775035Y-81368553D01*
X138802315Y-81326159D01*
X138811000Y-81280000D01*
X138811000Y-60452000D01*
X138800994Y-60402590D01*
X138772553Y-60360965D01*
X138730159Y-60333685D01*
X138684000Y-60325000D01*
X120396000Y-60325000D01*
X120346590Y-60335006D01*
X120304965Y-60363447D01*
X120277685Y-60405841D01*
X120269000Y-60452000D01*
X91898540Y-60452000D01*
X91898540Y-37423525D01*
X92252481Y-37423525D01*
X92707785Y-38525446D01*
X93550119Y-39369252D01*
X94651244Y-39826479D01*
X95843525Y-39827519D01*
X96945446Y-39372215D01*
X97789252Y-38529881D01*
X98246479Y-37428756D01*
X98246483Y-37423525D01*
X160832481Y-37423525D01*
X161287785Y-38525446D01*
X162130119Y-39369252D01*
X163231244Y-39826479D01*
X164423525Y-39827519D01*
X165525446Y-39372215D01*
X166369252Y-38529881D01*
X166826479Y-37428756D01*
X166827519Y-36236475D01*
X166372215Y-35134554D01*
X165529881Y-34290748D01*
X164428756Y-33833521D01*
X163236475Y-33832481D01*
X162134554Y-34287785D01*
X161290748Y-35130119D01*
X160833521Y-36231244D01*
X160832481Y-37423525D01*
X98246483Y-37423525D01*
X98247519Y-36236475D01*
X97792215Y-35134554D01*
X96949881Y-34290748D01*
X95848756Y-33833521D01*
X94656475Y-33832481D01*
X93554554Y-34287785D01*
X92710748Y-35130119D01*
X92253521Y-36231244D01*
X92252481Y-37423525D01*
X91898540Y-37423525D01*
X91898540Y-33448060D01*
X167186540Y-33448060D01*
X167186540Y-159536060D01*
X167186540Y-159536060D01*
G37*
X167186540Y-159536060D02*
X91898540Y-159536060D01*
X91898540Y-156803525D01*
X92252481Y-156803525D01*
X92707785Y-157905446D01*
X93550119Y-158749252D01*
X94651244Y-159206479D01*
X95843525Y-159207519D01*
X96945446Y-158752215D01*
X97789252Y-157909881D01*
X98246479Y-156808756D01*
X98247519Y-155616475D01*
X97792215Y-154514554D01*
X97170351Y-153891603D01*
X103713280Y-153891603D01*
X103713280Y-154713317D01*
X103800286Y-155150724D01*
X104048057Y-155521540D01*
X104418873Y-155769311D01*
X104706179Y-155826460D01*
X104418873Y-155883609D01*
X104048057Y-156131380D01*
X103800286Y-156502196D01*
X103713280Y-156939603D01*
X103713280Y-157761317D01*
X103800286Y-158198724D01*
X104048057Y-158569540D01*
X104418873Y-158817311D01*
X104856280Y-158904317D01*
X105293687Y-158817311D01*
X105664503Y-158569540D01*
X105912274Y-158198724D01*
X105999280Y-157761317D01*
X105999280Y-156939603D01*
X105912274Y-156502196D01*
X105664503Y-156131380D01*
X105293687Y-155883609D01*
X105006381Y-155826460D01*
X105293687Y-155769311D01*
X105664503Y-155521540D01*
X105912274Y-155150724D01*
X105999280Y-154713317D01*
X105999280Y-153891603D01*
X106253280Y-153891603D01*
X106253280Y-154713317D01*
X106340286Y-155150724D01*
X106588057Y-155521540D01*
X106958873Y-155769311D01*
X107246179Y-155826460D01*
X106958873Y-155883609D01*
X106588057Y-156131380D01*
X106340286Y-156502196D01*
X106253280Y-156939603D01*
X106253280Y-157761317D01*
X106340286Y-158198724D01*
X106588057Y-158569540D01*
X106958873Y-158817311D01*
X107396280Y-158904317D01*
X107833687Y-158817311D01*
X108204503Y-158569540D01*
X108452274Y-158198724D01*
X108539280Y-157761317D01*
X108539280Y-156939603D01*
X108452274Y-156502196D01*
X108204503Y-156131380D01*
X107833687Y-155883609D01*
X107546381Y-155826460D01*
X107833687Y-155769311D01*
X108204503Y-155521540D01*
X108452274Y-155150724D01*
X108539280Y-154713317D01*
X108539280Y-153891603D01*
X111333280Y-153891603D01*
X111333280Y-154713317D01*
X111420286Y-155150724D01*
X111668057Y-155521540D01*
X112038873Y-155769311D01*
X112326179Y-155826460D01*
X112038873Y-155883609D01*
X111668057Y-156131380D01*
X111420286Y-156502196D01*
X111333280Y-156939603D01*
X111333280Y-157761317D01*
X111420286Y-158198724D01*
X111668057Y-158569540D01*
X112038873Y-158817311D01*
X112476280Y-158904317D01*
X112913687Y-158817311D01*
X113284503Y-158569540D01*
X113532274Y-158198724D01*
X113619280Y-157761317D01*
X113619280Y-156939603D01*
X113532274Y-156502196D01*
X113284503Y-156131380D01*
X112913687Y-155883609D01*
X112626381Y-155826460D01*
X112913687Y-155769311D01*
X113284503Y-155521540D01*
X113532274Y-155150724D01*
X113619280Y-154713317D01*
X113619280Y-153891603D01*
X113873280Y-153891603D01*
X113873280Y-154713317D01*
X113960286Y-155150724D01*
X114208057Y-155521540D01*
X114578873Y-155769311D01*
X114866179Y-155826460D01*
X114578873Y-155883609D01*
X114208057Y-156131380D01*
X113960286Y-156502196D01*
X113873280Y-156939603D01*
X113873280Y-157761317D01*
X113960286Y-158198724D01*
X114208057Y-158569540D01*
X114578873Y-158817311D01*
X115016280Y-158904317D01*
X115453687Y-158817311D01*
X115824503Y-158569540D01*
X116072274Y-158198724D01*
X116159280Y-157761317D01*
X116159280Y-156939603D01*
X116072274Y-156502196D01*
X115824503Y-156131380D01*
X115453687Y-155883609D01*
X115166381Y-155826460D01*
X115453687Y-155769311D01*
X115824503Y-155521540D01*
X116072274Y-155150724D01*
X116159280Y-154713317D01*
X116159280Y-153891603D01*
X116413280Y-153891603D01*
X116413280Y-154713317D01*
X116500286Y-155150724D01*
X116748057Y-155521540D01*
X117118873Y-155769311D01*
X117406179Y-155826460D01*
X117118873Y-155883609D01*
X116748057Y-156131380D01*
X116500286Y-156502196D01*
X116413280Y-156939603D01*
X116413280Y-157761317D01*
X116500286Y-158198724D01*
X116748057Y-158569540D01*
X117118873Y-158817311D01*
X117556280Y-158904317D01*
X117993687Y-158817311D01*
X118364503Y-158569540D01*
X118612274Y-158198724D01*
X118699280Y-157761317D01*
X118699280Y-156939603D01*
X118612274Y-156502196D01*
X118364503Y-156131380D01*
X117993687Y-155883609D01*
X117706381Y-155826460D01*
X117993687Y-155769311D01*
X118364503Y-155521540D01*
X118612274Y-155150724D01*
X118699280Y-154713317D01*
X118699280Y-153891603D01*
X121493280Y-153891603D01*
X121493280Y-154713317D01*
X121580286Y-155150724D01*
X121828057Y-155521540D01*
X122198873Y-155769311D01*
X122486179Y-155826460D01*
X122198873Y-155883609D01*
X121828057Y-156131380D01*
X121580286Y-156502196D01*
X121493280Y-156939603D01*
X121493280Y-157761317D01*
X121580286Y-158198724D01*
X121828057Y-158569540D01*
X122198873Y-158817311D01*
X122636280Y-158904317D01*
X123073687Y-158817311D01*
X123444503Y-158569540D01*
X123692274Y-158198724D01*
X123779280Y-157761317D01*
X123779280Y-156939603D01*
X123692274Y-156502196D01*
X123444503Y-156131380D01*
X123073687Y-155883609D01*
X122786381Y-155826460D01*
X123073687Y-155769311D01*
X123444503Y-155521540D01*
X123692274Y-155150724D01*
X123779280Y-154713317D01*
X123779280Y-153891603D01*
X124033280Y-153891603D01*
X124033280Y-154713317D01*
X124120286Y-155150724D01*
X124368057Y-155521540D01*
X124738873Y-155769311D01*
X125026179Y-155826460D01*
X124738873Y-155883609D01*
X124368057Y-156131380D01*
X124120286Y-156502196D01*
X124033280Y-156939603D01*
X124033280Y-157761317D01*
X124120286Y-158198724D01*
X124368057Y-158569540D01*
X124738873Y-158817311D01*
X125176280Y-158904317D01*
X125613687Y-158817311D01*
X125984503Y-158569540D01*
X126232274Y-158198724D01*
X126319280Y-157761317D01*
X126319280Y-156939603D01*
X126232274Y-156502196D01*
X125984503Y-156131380D01*
X125613687Y-155883609D01*
X125326381Y-155826460D01*
X125613687Y-155769311D01*
X125984503Y-155521540D01*
X126232274Y-155150724D01*
X126319280Y-154713317D01*
X126319280Y-153891603D01*
X126573280Y-153891603D01*
X126573280Y-154713317D01*
X126660286Y-155150724D01*
X126908057Y-155521540D01*
X127278873Y-155769311D01*
X127566179Y-155826460D01*
X127278873Y-155883609D01*
X126908057Y-156131380D01*
X126660286Y-156502196D01*
X126573280Y-156939603D01*
X126573280Y-157761317D01*
X126660286Y-158198724D01*
X126908057Y-158569540D01*
X127278873Y-158817311D01*
X127716280Y-158904317D01*
X128153687Y-158817311D01*
X128524503Y-158569540D01*
X128772274Y-158198724D01*
X128859280Y-157761317D01*
X128859280Y-156939603D01*
X128772274Y-156502196D01*
X128524503Y-156131380D01*
X128153687Y-155883609D01*
X127866381Y-155826460D01*
X128153687Y-155769311D01*
X128524503Y-155521540D01*
X128772274Y-155150724D01*
X128859280Y-154713317D01*
X128859280Y-153891603D01*
X129113280Y-153891603D01*
X129113280Y-154713317D01*
X129200286Y-155150724D01*
X129448057Y-155521540D01*
X129818873Y-155769311D01*
X130106179Y-155826460D01*
X129818873Y-155883609D01*
X129448057Y-156131380D01*
X129200286Y-156502196D01*
X129113280Y-156939603D01*
X129113280Y-157761317D01*
X129200286Y-158198724D01*
X129448057Y-158569540D01*
X129818873Y-158817311D01*
X130256280Y-158904317D01*
X130693687Y-158817311D01*
X131064503Y-158569540D01*
X131312274Y-158198724D01*
X131399280Y-157761317D01*
X131399280Y-156939603D01*
X131312274Y-156502196D01*
X131064503Y-156131380D01*
X130693687Y-155883609D01*
X130406381Y-155826460D01*
X130693687Y-155769311D01*
X131064503Y-155521540D01*
X131312274Y-155150724D01*
X131399280Y-154713317D01*
X131399280Y-153891603D01*
X131653280Y-153891603D01*
X131653280Y-154713317D01*
X131740286Y-155150724D01*
X131988057Y-155521540D01*
X132358873Y-155769311D01*
X132646179Y-155826460D01*
X132358873Y-155883609D01*
X131988057Y-156131380D01*
X131740286Y-156502196D01*
X131653280Y-156939603D01*
X131653280Y-157761317D01*
X131740286Y-158198724D01*
X131988057Y-158569540D01*
X132358873Y-158817311D01*
X132796280Y-158904317D01*
X133233687Y-158817311D01*
X133604503Y-158569540D01*
X133852274Y-158198724D01*
X133939280Y-157761317D01*
X133939280Y-156939603D01*
X133852274Y-156502196D01*
X133604503Y-156131380D01*
X133233687Y-155883609D01*
X132946381Y-155826460D01*
X133233687Y-155769311D01*
X133604503Y-155521540D01*
X133852274Y-155150724D01*
X133939280Y-154713317D01*
X133939280Y-153891603D01*
X134193280Y-153891603D01*
X134193280Y-154713317D01*
X134280286Y-155150724D01*
X134528057Y-155521540D01*
X134898873Y-155769311D01*
X135186179Y-155826460D01*
X134898873Y-155883609D01*
X134528057Y-156131380D01*
X134280286Y-156502196D01*
X134193280Y-156939603D01*
X134193280Y-157761317D01*
X134280286Y-158198724D01*
X134528057Y-158569540D01*
X134898873Y-158817311D01*
X135336280Y-158904317D01*
X135773687Y-158817311D01*
X136144503Y-158569540D01*
X136392274Y-158198724D01*
X136479280Y-157761317D01*
X136479280Y-156939603D01*
X136392274Y-156502196D01*
X136144503Y-156131380D01*
X135773687Y-155883609D01*
X135486381Y-155826460D01*
X135773687Y-155769311D01*
X136144503Y-155521540D01*
X136392274Y-155150724D01*
X136479280Y-154713317D01*
X136479280Y-153891603D01*
X139273280Y-153891603D01*
X139273280Y-154713317D01*
X139360286Y-155150724D01*
X139608057Y-155521540D01*
X139978873Y-155769311D01*
X140266179Y-155826460D01*
X139978873Y-155883609D01*
X139608057Y-156131380D01*
X139360286Y-156502196D01*
X139273280Y-156939603D01*
X139273280Y-157761317D01*
X139360286Y-158198724D01*
X139608057Y-158569540D01*
X139978873Y-158817311D01*
X140416280Y-158904317D01*
X140853687Y-158817311D01*
X141224503Y-158569540D01*
X141472274Y-158198724D01*
X141559280Y-157761317D01*
X141559280Y-156939603D01*
X141472274Y-156502196D01*
X141224503Y-156131380D01*
X140853687Y-155883609D01*
X140566381Y-155826460D01*
X140853687Y-155769311D01*
X141224503Y-155521540D01*
X141472274Y-155150724D01*
X141559280Y-154713317D01*
X141559280Y-153891603D01*
X141813280Y-153891603D01*
X141813280Y-154713317D01*
X141900286Y-155150724D01*
X142148057Y-155521540D01*
X142518873Y-155769311D01*
X142806179Y-155826460D01*
X142518873Y-155883609D01*
X142148057Y-156131380D01*
X141900286Y-156502196D01*
X141813280Y-156939603D01*
X141813280Y-157761317D01*
X141900286Y-158198724D01*
X142148057Y-158569540D01*
X142518873Y-158817311D01*
X142956280Y-158904317D01*
X143393687Y-158817311D01*
X143764503Y-158569540D01*
X144012274Y-158198724D01*
X144099280Y-157761317D01*
X144099280Y-156939603D01*
X144012274Y-156502196D01*
X143764503Y-156131380D01*
X143393687Y-155883609D01*
X143106381Y-155826460D01*
X143393687Y-155769311D01*
X143764503Y-155521540D01*
X144012274Y-155150724D01*
X144099280Y-154713317D01*
X144099280Y-153891603D01*
X144353280Y-153891603D01*
X144353280Y-154713317D01*
X144440286Y-155150724D01*
X144688057Y-155521540D01*
X145058873Y-155769311D01*
X145346179Y-155826460D01*
X145058873Y-155883609D01*
X144688057Y-156131380D01*
X144440286Y-156502196D01*
X144353280Y-156939603D01*
X144353280Y-157761317D01*
X144440286Y-158198724D01*
X144688057Y-158569540D01*
X145058873Y-158817311D01*
X145496280Y-158904317D01*
X145933687Y-158817311D01*
X146304503Y-158569540D01*
X146552274Y-158198724D01*
X146639280Y-157761317D01*
X146639280Y-156939603D01*
X146552274Y-156502196D01*
X146304503Y-156131380D01*
X145933687Y-155883609D01*
X145646381Y-155826460D01*
X145933687Y-155769311D01*
X146304503Y-155521540D01*
X146552274Y-155150724D01*
X146639280Y-154713317D01*
X146639280Y-153891603D01*
X149433280Y-153891603D01*
X149433280Y-154713317D01*
X149520286Y-155150724D01*
X149768057Y-155521540D01*
X150138873Y-155769311D01*
X150426179Y-155826460D01*
X150138873Y-155883609D01*
X149768057Y-156131380D01*
X149520286Y-156502196D01*
X149433280Y-156939603D01*
X149433280Y-157761317D01*
X149520286Y-158198724D01*
X149768057Y-158569540D01*
X150138873Y-158817311D01*
X150576280Y-158904317D01*
X151013687Y-158817311D01*
X151384503Y-158569540D01*
X151632274Y-158198724D01*
X151719280Y-157761317D01*
X151719280Y-156939603D01*
X151632274Y-156502196D01*
X151384503Y-156131380D01*
X151013687Y-155883609D01*
X150726381Y-155826460D01*
X151013687Y-155769311D01*
X151384503Y-155521540D01*
X151632274Y-155150724D01*
X151719280Y-154713317D01*
X151719280Y-153891603D01*
X151632274Y-153454196D01*
X151435338Y-153159460D01*
X151965816Y-153159460D01*
X151965816Y-155445460D01*
X151992383Y-155586650D01*
X152075826Y-155716325D01*
X152203146Y-155803319D01*
X152354280Y-155833924D01*
X152928655Y-155833924D01*
X152678873Y-155883609D01*
X152308057Y-156131380D01*
X152060286Y-156502196D01*
X151973280Y-156939603D01*
X151973280Y-157761317D01*
X152060286Y-158198724D01*
X152308057Y-158569540D01*
X152678873Y-158817311D01*
X153116280Y-158904317D01*
X153553687Y-158817311D01*
X153924503Y-158569540D01*
X154172274Y-158198724D01*
X154259280Y-157761317D01*
X154259280Y-156939603D01*
X154232213Y-156803525D01*
X160832481Y-156803525D01*
X161287785Y-157905446D01*
X162130119Y-158749252D01*
X163231244Y-159206479D01*
X164423525Y-159207519D01*
X165525446Y-158752215D01*
X166369252Y-157909881D01*
X166826479Y-156808756D01*
X166827519Y-155616475D01*
X166372215Y-154514554D01*
X165529881Y-153670748D01*
X164428756Y-153213521D01*
X163236475Y-153212481D01*
X162134554Y-153667785D01*
X161290748Y-154510119D01*
X160833521Y-155611244D01*
X160832481Y-156803525D01*
X154232213Y-156803525D01*
X154172274Y-156502196D01*
X153924503Y-156131380D01*
X153553687Y-155883609D01*
X153303905Y-155833924D01*
X153878280Y-155833924D01*
X154019470Y-155807357D01*
X154149145Y-155723914D01*
X154236139Y-155596594D01*
X154266744Y-155445460D01*
X154266744Y-153159460D01*
X154240177Y-153018270D01*
X154156734Y-152888595D01*
X154029414Y-152801601D01*
X153878280Y-152770996D01*
X152354280Y-152770996D01*
X152213090Y-152797563D01*
X152083415Y-152881006D01*
X151996421Y-153008326D01*
X151965816Y-153159460D01*
X151435338Y-153159460D01*
X151384503Y-153083380D01*
X151013687Y-152835609D01*
X150576280Y-152748603D01*
X150138873Y-152835609D01*
X149768057Y-153083380D01*
X149520286Y-153454196D01*
X149433280Y-153891603D01*
X146639280Y-153891603D01*
X146552274Y-153454196D01*
X146304503Y-153083380D01*
X145933687Y-152835609D01*
X145496280Y-152748603D01*
X145058873Y-152835609D01*
X144688057Y-153083380D01*
X144440286Y-153454196D01*
X144353280Y-153891603D01*
X144099280Y-153891603D01*
X144012274Y-153454196D01*
X143764503Y-153083380D01*
X143393687Y-152835609D01*
X142956280Y-152748603D01*
X142518873Y-152835609D01*
X142148057Y-153083380D01*
X141900286Y-153454196D01*
X141813280Y-153891603D01*
X141559280Y-153891603D01*
X141472274Y-153454196D01*
X141224503Y-153083380D01*
X140853687Y-152835609D01*
X140416280Y-152748603D01*
X139978873Y-152835609D01*
X139608057Y-153083380D01*
X139360286Y-153454196D01*
X139273280Y-153891603D01*
X136479280Y-153891603D01*
X136392274Y-153454196D01*
X136144503Y-153083380D01*
X135773687Y-152835609D01*
X135336280Y-152748603D01*
X134898873Y-152835609D01*
X134528057Y-153083380D01*
X134280286Y-153454196D01*
X134193280Y-153891603D01*
X133939280Y-153891603D01*
X133852274Y-153454196D01*
X133604503Y-153083380D01*
X133233687Y-152835609D01*
X132796280Y-152748603D01*
X132358873Y-152835609D01*
X131988057Y-153083380D01*
X131740286Y-153454196D01*
X131653280Y-153891603D01*
X131399280Y-153891603D01*
X131312274Y-153454196D01*
X131064503Y-153083380D01*
X130693687Y-152835609D01*
X130256280Y-152748603D01*
X129818873Y-152835609D01*
X129448057Y-153083380D01*
X129200286Y-153454196D01*
X129113280Y-153891603D01*
X128859280Y-153891603D01*
X128772274Y-153454196D01*
X128524503Y-153083380D01*
X128153687Y-152835609D01*
X127716280Y-152748603D01*
X127278873Y-152835609D01*
X126908057Y-153083380D01*
X126660286Y-153454196D01*
X126573280Y-153891603D01*
X126319280Y-153891603D01*
X126232274Y-153454196D01*
X125984503Y-153083380D01*
X125613687Y-152835609D01*
X125176280Y-152748603D01*
X124738873Y-152835609D01*
X124368057Y-153083380D01*
X124120286Y-153454196D01*
X124033280Y-153891603D01*
X123779280Y-153891603D01*
X123692274Y-153454196D01*
X123444503Y-153083380D01*
X123073687Y-152835609D01*
X122636280Y-152748603D01*
X122198873Y-152835609D01*
X121828057Y-153083380D01*
X121580286Y-153454196D01*
X121493280Y-153891603D01*
X118699280Y-153891603D01*
X118612274Y-153454196D01*
X118364503Y-153083380D01*
X117993687Y-152835609D01*
X117556280Y-152748603D01*
X117118873Y-152835609D01*
X116748057Y-153083380D01*
X116500286Y-153454196D01*
X116413280Y-153891603D01*
X116159280Y-153891603D01*
X116072274Y-153454196D01*
X115824503Y-153083380D01*
X115453687Y-152835609D01*
X115016280Y-152748603D01*
X114578873Y-152835609D01*
X114208057Y-153083380D01*
X113960286Y-153454196D01*
X113873280Y-153891603D01*
X113619280Y-153891603D01*
X113532274Y-153454196D01*
X113284503Y-153083380D01*
X112913687Y-152835609D01*
X112476280Y-152748603D01*
X112038873Y-152835609D01*
X111668057Y-153083380D01*
X111420286Y-153454196D01*
X111333280Y-153891603D01*
X108539280Y-153891603D01*
X108452274Y-153454196D01*
X108204503Y-153083380D01*
X107833687Y-152835609D01*
X107396280Y-152748603D01*
X106958873Y-152835609D01*
X106588057Y-153083380D01*
X106340286Y-153454196D01*
X106253280Y-153891603D01*
X105999280Y-153891603D01*
X105912274Y-153454196D01*
X105664503Y-153083380D01*
X105293687Y-152835609D01*
X104856280Y-152748603D01*
X104418873Y-152835609D01*
X104048057Y-153083380D01*
X103800286Y-153454196D01*
X103713280Y-153891603D01*
X97170351Y-153891603D01*
X96949881Y-153670748D01*
X95848756Y-153213521D01*
X94656475Y-153212481D01*
X93554554Y-153667785D01*
X92710748Y-154510119D01*
X92253521Y-155611244D01*
X92252481Y-156803525D01*
X91898540Y-156803525D01*
X91898540Y-146918151D01*
X115457676Y-146918151D01*
X115583922Y-147223689D01*
X115748608Y-147388663D01*
X115584743Y-147552242D01*
X115457965Y-147857559D01*
X115457676Y-148188151D01*
X115583922Y-148493689D01*
X115817482Y-148727657D01*
X116122799Y-148854435D01*
X116453391Y-148854724D01*
X116758929Y-148728478D01*
X116923903Y-148563792D01*
X117087482Y-148727657D01*
X117392799Y-148854435D01*
X117723391Y-148854724D01*
X118028929Y-148728478D01*
X118262897Y-148494918D01*
X118389675Y-148189601D01*
X118389964Y-147859009D01*
X118263718Y-147553471D01*
X118099032Y-147388497D01*
X118262897Y-147224918D01*
X118389675Y-146919601D01*
X118389676Y-146918151D01*
X119267676Y-146918151D01*
X119393922Y-147223689D01*
X119558608Y-147388663D01*
X119394743Y-147552242D01*
X119267965Y-147857559D01*
X119267676Y-148188151D01*
X119393922Y-148493689D01*
X119627482Y-148727657D01*
X119932799Y-148854435D01*
X120263391Y-148854724D01*
X120568929Y-148728478D01*
X120733903Y-148563792D01*
X120897482Y-148727657D01*
X121202799Y-148854435D01*
X121533391Y-148854724D01*
X121838929Y-148728478D01*
X122003903Y-148563792D01*
X122167482Y-148727657D01*
X122472799Y-148854435D01*
X122803391Y-148854724D01*
X123108929Y-148728478D01*
X123342897Y-148494918D01*
X123469675Y-148189601D01*
X123469964Y-147859009D01*
X123343718Y-147553471D01*
X123179032Y-147388497D01*
X123342897Y-147224918D01*
X123469675Y-146919601D01*
X123469676Y-146918151D01*
X124347676Y-146918151D01*
X124473922Y-147223689D01*
X124638608Y-147388663D01*
X124474743Y-147552242D01*
X124347965Y-147857559D01*
X124347676Y-148188151D01*
X124473922Y-148493689D01*
X124707482Y-148727657D01*
X125012799Y-148854435D01*
X125343391Y-148854724D01*
X125648929Y-148728478D01*
X125813903Y-148563792D01*
X125977482Y-148727657D01*
X126282799Y-148854435D01*
X126613391Y-148854724D01*
X126918929Y-148728478D01*
X127083903Y-148563792D01*
X127247482Y-148727657D01*
X127552799Y-148854435D01*
X127883391Y-148854724D01*
X128188929Y-148728478D01*
X128353903Y-148563792D01*
X128517482Y-148727657D01*
X128822799Y-148854435D01*
X129153391Y-148854724D01*
X129458929Y-148728478D01*
X129623903Y-148563792D01*
X129787482Y-148727657D01*
X130092799Y-148854435D01*
X130423391Y-148854724D01*
X130728929Y-148728478D01*
X130893903Y-148563792D01*
X131057482Y-148727657D01*
X131362799Y-148854435D01*
X131693391Y-148854724D01*
X131998929Y-148728478D01*
X132232897Y-148494918D01*
X132359675Y-148189601D01*
X132359964Y-147859009D01*
X132233718Y-147553471D01*
X132069032Y-147388497D01*
X132232897Y-147224918D01*
X132359675Y-146919601D01*
X132359676Y-146918151D01*
X133237676Y-146918151D01*
X133363922Y-147223689D01*
X133528608Y-147388663D01*
X133364743Y-147552242D01*
X133237965Y-147857559D01*
X133237676Y-148188151D01*
X133363922Y-148493689D01*
X133597482Y-148727657D01*
X133902799Y-148854435D01*
X134233391Y-148854724D01*
X134538929Y-148728478D01*
X134703903Y-148563792D01*
X134867482Y-148727657D01*
X135172799Y-148854435D01*
X135503391Y-148854724D01*
X135808929Y-148728478D01*
X135973903Y-148563792D01*
X136137482Y-148727657D01*
X136442799Y-148854435D01*
X136773391Y-148854724D01*
X137078929Y-148728478D01*
X137312897Y-148494918D01*
X137439675Y-148189601D01*
X137439964Y-147859009D01*
X137313718Y-147553471D01*
X137149032Y-147388497D01*
X137312897Y-147224918D01*
X137439675Y-146919601D01*
X137439676Y-146918151D01*
X138317676Y-146918151D01*
X138443922Y-147223689D01*
X138608608Y-147388663D01*
X138444743Y-147552242D01*
X138317965Y-147857559D01*
X138317676Y-148188151D01*
X138443922Y-148493689D01*
X138677482Y-148727657D01*
X138982799Y-148854435D01*
X139313391Y-148854724D01*
X139618929Y-148728478D01*
X139783903Y-148563792D01*
X139947482Y-148727657D01*
X140252799Y-148854435D01*
X140583391Y-148854724D01*
X140888929Y-148728478D01*
X141122897Y-148494918D01*
X141249675Y-148189601D01*
X141249964Y-147859009D01*
X141123718Y-147553471D01*
X140959032Y-147388497D01*
X141122897Y-147224918D01*
X141249675Y-146919601D01*
X141249964Y-146589009D01*
X141123718Y-146283471D01*
X140890158Y-146049503D01*
X140584841Y-145922725D01*
X140254249Y-145922436D01*
X139948711Y-146048682D01*
X139783737Y-146213368D01*
X139620158Y-146049503D01*
X139314841Y-145922725D01*
X138984249Y-145922436D01*
X138678711Y-146048682D01*
X138444743Y-146282242D01*
X138317965Y-146587559D01*
X138317676Y-146918151D01*
X137439676Y-146918151D01*
X137439964Y-146589009D01*
X137313718Y-146283471D01*
X137080158Y-146049503D01*
X136774841Y-145922725D01*
X136444249Y-145922436D01*
X136138711Y-146048682D01*
X135973737Y-146213368D01*
X135810158Y-146049503D01*
X135504841Y-145922725D01*
X135174249Y-145922436D01*
X134868711Y-146048682D01*
X134703737Y-146213368D01*
X134540158Y-146049503D01*
X134234841Y-145922725D01*
X133904249Y-145922436D01*
X133598711Y-146048682D01*
X133364743Y-146282242D01*
X133237965Y-146587559D01*
X133237676Y-146918151D01*
X132359676Y-146918151D01*
X132359964Y-146589009D01*
X132233718Y-146283471D01*
X132000158Y-146049503D01*
X131694841Y-145922725D01*
X131364249Y-145922436D01*
X131058711Y-146048682D01*
X130893737Y-146213368D01*
X130730158Y-146049503D01*
X130424841Y-145922725D01*
X130094249Y-145922436D01*
X129788711Y-146048682D01*
X129623737Y-146213368D01*
X129460158Y-146049503D01*
X129154841Y-145922725D01*
X128824249Y-145922436D01*
X128518711Y-146048682D01*
X128353737Y-146213368D01*
X128190158Y-146049503D01*
X127884841Y-145922725D01*
X127554249Y-145922436D01*
X127248711Y-146048682D01*
X127083737Y-146213368D01*
X126920158Y-146049503D01*
X126614841Y-145922725D01*
X126284249Y-145922436D01*
X125978711Y-146048682D01*
X125813737Y-146213368D01*
X125650158Y-146049503D01*
X125344841Y-145922725D01*
X125014249Y-145922436D01*
X124708711Y-146048682D01*
X124474743Y-146282242D01*
X124347965Y-146587559D01*
X124347676Y-146918151D01*
X123469676Y-146918151D01*
X123469964Y-146589009D01*
X123343718Y-146283471D01*
X123110158Y-146049503D01*
X122804841Y-145922725D01*
X122474249Y-145922436D01*
X122168711Y-146048682D01*
X122003737Y-146213368D01*
X121840158Y-146049503D01*
X121534841Y-145922725D01*
X121204249Y-145922436D01*
X120898711Y-146048682D01*
X120733737Y-146213368D01*
X120570158Y-146049503D01*
X120264841Y-145922725D01*
X119934249Y-145922436D01*
X119628711Y-146048682D01*
X119394743Y-146282242D01*
X119267965Y-146587559D01*
X119267676Y-146918151D01*
X118389676Y-146918151D01*
X118389964Y-146589009D01*
X118263718Y-146283471D01*
X118030158Y-146049503D01*
X117724841Y-145922725D01*
X117394249Y-145922436D01*
X117088711Y-146048682D01*
X116923737Y-146213368D01*
X116760158Y-146049503D01*
X116454841Y-145922725D01*
X116124249Y-145922436D01*
X115818711Y-146048682D01*
X115584743Y-146282242D01*
X115457965Y-146587559D01*
X115457676Y-146918151D01*
X91898540Y-146918151D01*
X91898540Y-142434335D01*
X121194610Y-142434335D01*
X121291080Y-142667808D01*
X121469552Y-142846593D01*
X121702857Y-142943469D01*
X121955475Y-142943690D01*
X122188948Y-142847220D01*
X122219617Y-142816605D01*
X122249552Y-142846593D01*
X122482857Y-142943469D01*
X122735475Y-142943690D01*
X122968948Y-142847220D01*
X123147733Y-142668748D01*
X123244609Y-142435443D01*
X123244830Y-142182825D01*
X123148360Y-141949352D01*
X122969888Y-141770567D01*
X122736583Y-141673691D01*
X122483965Y-141673470D01*
X122250492Y-141769940D01*
X122219823Y-141800555D01*
X122189888Y-141770567D01*
X121956583Y-141673691D01*
X121703965Y-141673470D01*
X121470492Y-141769940D01*
X121291707Y-141948412D01*
X121194831Y-142181717D01*
X121194610Y-142434335D01*
X91898540Y-142434335D01*
X91898540Y-139739146D01*
X111008028Y-139739146D01*
X111123792Y-140019314D01*
X111337958Y-140233855D01*
X111617924Y-140350107D01*
X111921066Y-140350372D01*
X112201234Y-140234608D01*
X112415775Y-140020442D01*
X112532027Y-139740476D01*
X112532030Y-139736606D01*
X126212468Y-139736606D01*
X126328232Y-140016774D01*
X126542398Y-140231315D01*
X126822364Y-140347567D01*
X127125506Y-140347832D01*
X127405674Y-140232068D01*
X127620215Y-140017902D01*
X127736467Y-139737936D01*
X127736732Y-139434794D01*
X127620968Y-139154626D01*
X127406802Y-138940085D01*
X127126836Y-138823833D01*
X126823694Y-138823568D01*
X126543526Y-138939332D01*
X126328985Y-139153498D01*
X126212733Y-139433464D01*
X126212468Y-139736606D01*
X112532030Y-139736606D01*
X112532292Y-139437334D01*
X112416528Y-139157166D01*
X112202362Y-138942625D01*
X111922396Y-138826373D01*
X111619254Y-138826108D01*
X111339086Y-138941872D01*
X111124545Y-139156038D01*
X111008293Y-139436004D01*
X111008028Y-139739146D01*
X91898540Y-139739146D01*
X91898540Y-137740415D01*
X114028110Y-137740415D01*
X114124580Y-137973888D01*
X114303052Y-138152673D01*
X114536357Y-138249549D01*
X114788975Y-138249770D01*
X115022448Y-138153300D01*
X115201233Y-137974828D01*
X115298109Y-137741523D01*
X115298330Y-137488905D01*
X115201860Y-137255432D01*
X115031822Y-137085095D01*
X123539030Y-137085095D01*
X123635500Y-137318568D01*
X123813972Y-137497353D01*
X124047277Y-137594229D01*
X124299895Y-137594450D01*
X124533368Y-137497980D01*
X124564037Y-137467365D01*
X124593972Y-137497353D01*
X124827277Y-137594229D01*
X125079895Y-137594450D01*
X125313368Y-137497980D01*
X125492153Y-137319508D01*
X125589029Y-137086203D01*
X125589250Y-136833585D01*
X125492780Y-136600112D01*
X125314308Y-136421327D01*
X125081003Y-136324451D01*
X124828385Y-136324230D01*
X124594912Y-136420700D01*
X124564243Y-136451315D01*
X124534308Y-136421327D01*
X124301003Y-136324451D01*
X124048385Y-136324230D01*
X123814912Y-136420700D01*
X123636127Y-136599172D01*
X123539251Y-136832477D01*
X123539030Y-137085095D01*
X115031822Y-137085095D01*
X115023388Y-137076647D01*
X114790083Y-136979771D01*
X114537465Y-136979550D01*
X114303992Y-137076020D01*
X114125207Y-137254492D01*
X114028331Y-137487797D01*
X114028110Y-137740415D01*
X91898540Y-137740415D01*
X91898540Y-134801635D01*
X118212930Y-134801635D01*
X118309400Y-135035108D01*
X118487872Y-135213893D01*
X118721177Y-135310769D01*
X118973795Y-135310990D01*
X119192288Y-135220710D01*
X119409177Y-135310769D01*
X119539706Y-135310883D01*
X119488307Y-135362192D01*
X119391431Y-135595497D01*
X119391210Y-135848115D01*
X119487680Y-136081588D01*
X119666152Y-136260373D01*
X119899457Y-136357249D01*
X120152075Y-136357470D01*
X120385548Y-136261000D01*
X120416217Y-136230385D01*
X120446152Y-136260373D01*
X120679457Y-136357249D01*
X120932075Y-136357470D01*
X121165548Y-136261000D01*
X121203819Y-136222796D01*
X121297112Y-136316253D01*
X121530417Y-136413129D01*
X121783035Y-136413350D01*
X122001528Y-136323070D01*
X122218417Y-136413129D01*
X122471035Y-136413350D01*
X122704508Y-136316880D01*
X122883293Y-136138408D01*
X122980169Y-135905103D01*
X122980390Y-135652485D01*
X122883920Y-135419012D01*
X122705448Y-135240227D01*
X122472143Y-135143351D01*
X122219525Y-135143130D01*
X122001032Y-135233410D01*
X121784143Y-135143351D01*
X121531525Y-135143130D01*
X121298052Y-135239600D01*
X121259781Y-135277804D01*
X121166488Y-135184347D01*
X120933183Y-135087471D01*
X120680565Y-135087250D01*
X120447092Y-135183720D01*
X120416423Y-135214335D01*
X120386488Y-135184347D01*
X120153183Y-135087471D01*
X120022654Y-135087357D01*
X120074053Y-135036048D01*
X120170929Y-134802743D01*
X120171030Y-134687086D01*
X130063108Y-134687086D01*
X130178872Y-134967254D01*
X130393038Y-135181795D01*
X130673004Y-135298047D01*
X130976146Y-135298312D01*
X131256314Y-135182548D01*
X131470855Y-134968382D01*
X131587107Y-134688416D01*
X131587108Y-134687086D01*
X139329028Y-134687086D01*
X139444792Y-134967254D01*
X139658958Y-135181795D01*
X139938924Y-135298047D01*
X140242066Y-135298312D01*
X140522234Y-135182548D01*
X140736775Y-134968382D01*
X140853027Y-134688416D01*
X140853292Y-134385274D01*
X140737528Y-134105106D01*
X140523362Y-133890565D01*
X140243396Y-133774313D01*
X139940254Y-133774048D01*
X139660086Y-133889812D01*
X139445545Y-134103978D01*
X139329293Y-134383944D01*
X139329028Y-134687086D01*
X131587108Y-134687086D01*
X131587372Y-134385274D01*
X131471608Y-134105106D01*
X131257442Y-133890565D01*
X130977476Y-133774313D01*
X130674334Y-133774048D01*
X130394166Y-133889812D01*
X130179625Y-134103978D01*
X130063373Y-134383944D01*
X130063108Y-134687086D01*
X120171030Y-134687086D01*
X120171150Y-134550125D01*
X120074680Y-134316652D01*
X119896208Y-134137867D01*
X119662903Y-134040991D01*
X119410285Y-134040770D01*
X119191792Y-134131050D01*
X118974903Y-134040991D01*
X118722285Y-134040770D01*
X118488812Y-134137240D01*
X118310027Y-134315712D01*
X118213151Y-134549017D01*
X118212930Y-134801635D01*
X91898540Y-134801635D01*
X91898540Y-133739666D01*
X111005488Y-133739666D01*
X111121252Y-134019834D01*
X111335418Y-134234375D01*
X111615384Y-134350627D01*
X111918526Y-134350892D01*
X112198694Y-134235128D01*
X112413235Y-134020962D01*
X112529487Y-133740996D01*
X112529510Y-133714515D01*
X126339490Y-133714515D01*
X126435960Y-133947988D01*
X126614432Y-134126773D01*
X126847737Y-134223649D01*
X127100355Y-134223870D01*
X127333828Y-134127400D01*
X127512613Y-133948928D01*
X127609489Y-133715623D01*
X127609710Y-133463005D01*
X127513240Y-133229532D01*
X127334768Y-133050747D01*
X127101463Y-132953871D01*
X126848845Y-132953650D01*
X126615372Y-133050120D01*
X126436587Y-133228592D01*
X126339711Y-133461897D01*
X126339490Y-133714515D01*
X112529510Y-133714515D01*
X112529752Y-133437854D01*
X112413988Y-133157686D01*
X112199822Y-132943145D01*
X111919856Y-132826893D01*
X111616714Y-132826628D01*
X111336546Y-132942392D01*
X111122005Y-133156558D01*
X111005753Y-133436524D01*
X111005488Y-133739666D01*
X91898540Y-133739666D01*
X91898540Y-132739155D01*
X125369210Y-132739155D01*
X125465680Y-132972628D01*
X125644152Y-133151413D01*
X125877457Y-133248289D01*
X126130075Y-133248510D01*
X126363548Y-133152040D01*
X126542333Y-132973568D01*
X126639209Y-132740263D01*
X126639430Y-132487645D01*
X126542960Y-132254172D01*
X126364488Y-132075387D01*
X126131183Y-131978511D01*
X125878565Y-131978290D01*
X125645092Y-132074760D01*
X125466307Y-132253232D01*
X125369431Y-132486537D01*
X125369210Y-132739155D01*
X91898540Y-132739155D01*
X91898540Y-130829075D01*
X131833510Y-130829075D01*
X131929980Y-131062548D01*
X132108452Y-131241333D01*
X132341757Y-131338209D01*
X132594375Y-131338430D01*
X132827848Y-131241960D01*
X133006633Y-131063488D01*
X133094476Y-130851935D01*
X137040510Y-130851935D01*
X137136980Y-131085408D01*
X137315452Y-131264193D01*
X137548757Y-131361069D01*
X137801375Y-131361290D01*
X138034848Y-131264820D01*
X138213633Y-131086348D01*
X138310509Y-130853043D01*
X138310730Y-130600425D01*
X138214260Y-130366952D01*
X138035788Y-130188167D01*
X137802483Y-130091291D01*
X137549865Y-130091070D01*
X137316392Y-130187540D01*
X137137607Y-130366012D01*
X137040731Y-130599317D01*
X137040510Y-130851935D01*
X133094476Y-130851935D01*
X133103509Y-130830183D01*
X133103730Y-130577565D01*
X133007260Y-130344092D01*
X132828788Y-130165307D01*
X132595483Y-130068431D01*
X132342865Y-130068210D01*
X132109392Y-130164680D01*
X131930607Y-130343152D01*
X131833731Y-130576457D01*
X131833510Y-130829075D01*
X91898540Y-130829075D01*
X91898540Y-128469415D01*
X135737490Y-128469415D01*
X135833960Y-128702888D01*
X136012432Y-128881673D01*
X136245737Y-128978549D01*
X136498355Y-128978770D01*
X136731828Y-128882300D01*
X136910613Y-128703828D01*
X137007489Y-128470523D01*
X137007710Y-128217905D01*
X136911240Y-127984432D01*
X136732768Y-127805647D01*
X136606305Y-127753135D01*
X141094350Y-127753135D01*
X141190820Y-127986608D01*
X141369292Y-128165393D01*
X141602597Y-128262269D01*
X141855215Y-128262490D01*
X142088688Y-128166020D01*
X142267473Y-127987548D01*
X142364349Y-127754243D01*
X142364432Y-127658906D01*
X156872808Y-127658906D01*
X156988572Y-127939074D01*
X157202738Y-128153615D01*
X157482704Y-128269867D01*
X157785846Y-128270132D01*
X157861773Y-128238759D01*
X157812873Y-128356524D01*
X157812608Y-128659666D01*
X157928372Y-128939834D01*
X158142538Y-129154375D01*
X158422504Y-129270627D01*
X158725646Y-129270892D01*
X159005814Y-129155128D01*
X159220355Y-128940962D01*
X159336607Y-128660996D01*
X159336872Y-128357854D01*
X159221108Y-128077686D01*
X159153258Y-128009717D01*
X159222895Y-127940202D01*
X159339147Y-127660236D01*
X159339412Y-127357094D01*
X159223648Y-127076926D01*
X159155756Y-127008915D01*
X160835230Y-127008915D01*
X160931700Y-127242388D01*
X161110172Y-127421173D01*
X161343477Y-127518049D01*
X161596095Y-127518270D01*
X161829568Y-127421800D01*
X162008353Y-127243328D01*
X162104634Y-127011455D01*
X164569030Y-127011455D01*
X164665500Y-127244928D01*
X164843972Y-127423713D01*
X165077277Y-127520589D01*
X165329895Y-127520810D01*
X165563368Y-127424340D01*
X165742153Y-127245868D01*
X165839029Y-127012563D01*
X165839250Y-126759945D01*
X165742780Y-126526472D01*
X165564308Y-126347687D01*
X165331003Y-126250811D01*
X165078385Y-126250590D01*
X164844912Y-126347060D01*
X164666127Y-126525532D01*
X164569251Y-126758837D01*
X164569030Y-127011455D01*
X162104634Y-127011455D01*
X162105229Y-127010023D01*
X162105450Y-126757405D01*
X162008980Y-126523932D01*
X161830508Y-126345147D01*
X161597203Y-126248271D01*
X161344585Y-126248050D01*
X161111112Y-126344520D01*
X160932327Y-126522992D01*
X160835451Y-126756297D01*
X160835230Y-127008915D01*
X159155756Y-127008915D01*
X159009482Y-126862385D01*
X158729516Y-126746133D01*
X158426374Y-126745868D01*
X158146206Y-126861632D01*
X158106228Y-126901540D01*
X158067142Y-126862385D01*
X157787176Y-126746133D01*
X157484034Y-126745868D01*
X157203866Y-126861632D01*
X156989325Y-127075798D01*
X156873073Y-127355764D01*
X156872808Y-127658906D01*
X142364432Y-127658906D01*
X142364570Y-127501625D01*
X142268100Y-127268152D01*
X142089628Y-127089367D01*
X141856323Y-126992491D01*
X141603705Y-126992270D01*
X141370232Y-127088740D01*
X141191447Y-127267212D01*
X141094571Y-127500517D01*
X141094350Y-127753135D01*
X136606305Y-127753135D01*
X136499463Y-127708771D01*
X136246845Y-127708550D01*
X136013372Y-127805020D01*
X135834587Y-127983492D01*
X135737711Y-128216797D01*
X135737490Y-128469415D01*
X91898540Y-128469415D01*
X91898540Y-126368835D01*
X102339030Y-126368835D01*
X102416230Y-126555671D01*
X102339251Y-126741057D01*
X102339030Y-126993675D01*
X102417282Y-127183057D01*
X102339251Y-127370977D01*
X102339030Y-127623595D01*
X102435500Y-127857068D01*
X102613972Y-128035853D01*
X102847277Y-128132729D01*
X103099895Y-128132950D01*
X103333368Y-128036480D01*
X103361384Y-128008513D01*
X103391212Y-128038393D01*
X103624517Y-128135269D01*
X103877135Y-128135490D01*
X104110608Y-128039020D01*
X104289393Y-127860548D01*
X104386269Y-127627243D01*
X104386490Y-127374625D01*
X104304030Y-127175058D01*
X104386269Y-126977003D01*
X104386490Y-126724385D01*
X104312973Y-126546461D01*
X104386269Y-126369943D01*
X104386269Y-126368835D01*
X134437010Y-126368835D01*
X134533480Y-126602308D01*
X134711952Y-126781093D01*
X134945257Y-126877969D01*
X135197875Y-126878190D01*
X135431348Y-126781720D01*
X135610133Y-126603248D01*
X135707009Y-126369943D01*
X135707230Y-126117325D01*
X135610760Y-125883852D01*
X135432288Y-125705067D01*
X135198983Y-125608191D01*
X134946365Y-125607970D01*
X134712892Y-125704440D01*
X134534107Y-125882912D01*
X134437231Y-126116217D01*
X134437010Y-126368835D01*
X104386269Y-126368835D01*
X104386490Y-126117325D01*
X104290020Y-125883852D01*
X104111548Y-125705067D01*
X103878243Y-125608191D01*
X103625625Y-125607970D01*
X103392152Y-125704440D01*
X103362866Y-125733675D01*
X103334308Y-125705067D01*
X103101003Y-125608191D01*
X102848385Y-125607970D01*
X102614912Y-125704440D01*
X102436127Y-125882912D01*
X102339251Y-126116217D01*
X102339030Y-126368835D01*
X91898540Y-126368835D01*
X91898540Y-124806735D01*
X108264850Y-124806735D01*
X108361320Y-125040208D01*
X108539792Y-125218993D01*
X108773097Y-125315869D01*
X109025715Y-125316090D01*
X109259188Y-125219620D01*
X109437973Y-125041148D01*
X109533199Y-124811815D01*
X115016170Y-124811815D01*
X115112640Y-125045288D01*
X115291112Y-125224073D01*
X115524417Y-125320949D01*
X115777035Y-125321170D01*
X116010508Y-125224700D01*
X116189293Y-125046228D01*
X116286169Y-124812923D01*
X116286390Y-124560305D01*
X116189920Y-124326832D01*
X116011448Y-124148047D01*
X115778143Y-124051171D01*
X115525525Y-124050950D01*
X115292052Y-124147420D01*
X115113267Y-124325892D01*
X115016391Y-124559197D01*
X115016170Y-124811815D01*
X109533199Y-124811815D01*
X109534849Y-124807843D01*
X109535070Y-124555225D01*
X109438600Y-124321752D01*
X109260128Y-124142967D01*
X109026823Y-124046091D01*
X108774205Y-124045870D01*
X108540732Y-124142340D01*
X108361947Y-124320812D01*
X108265071Y-124554117D01*
X108264850Y-124806735D01*
X91898540Y-124806735D01*
X91898540Y-123821215D01*
X145384410Y-123821215D01*
X145480880Y-124054688D01*
X145659352Y-124233473D01*
X145892657Y-124330349D01*
X146145275Y-124330570D01*
X146378748Y-124234100D01*
X146557533Y-124055628D01*
X146654409Y-123822323D01*
X146654630Y-123569705D01*
X146569640Y-123364015D01*
X157533230Y-123364015D01*
X157629700Y-123597488D01*
X157808172Y-123776273D01*
X158041477Y-123873149D01*
X158294095Y-123873370D01*
X158527568Y-123776900D01*
X158706353Y-123598428D01*
X158803229Y-123365123D01*
X158803450Y-123112505D01*
X158706980Y-122879032D01*
X158528508Y-122700247D01*
X158295203Y-122603371D01*
X158042585Y-122603150D01*
X157809112Y-122699620D01*
X157630327Y-122878092D01*
X157533451Y-123111397D01*
X157533230Y-123364015D01*
X146569640Y-123364015D01*
X146558160Y-123336232D01*
X146379688Y-123157447D01*
X146146383Y-123060571D01*
X145893765Y-123060350D01*
X145660292Y-123156820D01*
X145481507Y-123335292D01*
X145384631Y-123568597D01*
X145384410Y-123821215D01*
X91898540Y-123821215D01*
X91898540Y-123038895D01*
X135638430Y-123038895D01*
X135734900Y-123272368D01*
X135913372Y-123451153D01*
X136146677Y-123548029D01*
X136399295Y-123548250D01*
X136632768Y-123451780D01*
X136811553Y-123273308D01*
X136908429Y-123040003D01*
X136908649Y-122787435D01*
X144345550Y-122787435D01*
X144442020Y-123020908D01*
X144620492Y-123199693D01*
X144853797Y-123296569D01*
X145106415Y-123296790D01*
X145339888Y-123200320D01*
X145518673Y-123021848D01*
X145615549Y-122788543D01*
X145615554Y-122782355D01*
X149669390Y-122782355D01*
X149765860Y-123015828D01*
X149944332Y-123194613D01*
X150177637Y-123291489D01*
X150430255Y-123291710D01*
X150663728Y-123195240D01*
X150842513Y-123016768D01*
X150939389Y-122783463D01*
X150939610Y-122530845D01*
X150843140Y-122297372D01*
X150664668Y-122118587D01*
X150431363Y-122021711D01*
X150178745Y-122021490D01*
X149945272Y-122117960D01*
X149766487Y-122296432D01*
X149669611Y-122529737D01*
X149669390Y-122782355D01*
X145615554Y-122782355D01*
X145615770Y-122535925D01*
X145519300Y-122302452D01*
X145340828Y-122123667D01*
X145107523Y-122026791D01*
X144854905Y-122026570D01*
X144621432Y-122123040D01*
X144442647Y-122301512D01*
X144345771Y-122534817D01*
X144345550Y-122787435D01*
X136908649Y-122787435D01*
X136908650Y-122787385D01*
X136812180Y-122553912D01*
X136633708Y-122375127D01*
X136400403Y-122278251D01*
X136147785Y-122278030D01*
X135914312Y-122374500D01*
X135735527Y-122552972D01*
X135638651Y-122786277D01*
X135638430Y-123038895D01*
X91898540Y-123038895D01*
X91898540Y-122099095D01*
X106784030Y-122099095D01*
X106880500Y-122332568D01*
X107058972Y-122511353D01*
X107292277Y-122608229D01*
X107544895Y-122608450D01*
X107778368Y-122511980D01*
X107957153Y-122333508D01*
X108054029Y-122100203D01*
X108054032Y-122096555D01*
X120322230Y-122096555D01*
X120418700Y-122330028D01*
X120597172Y-122508813D01*
X120830477Y-122605689D01*
X121083095Y-122605910D01*
X121316568Y-122509440D01*
X121495353Y-122330968D01*
X121592229Y-122097663D01*
X121592254Y-122068615D01*
X140251070Y-122068615D01*
X140347540Y-122302088D01*
X140526012Y-122480873D01*
X140759317Y-122577749D01*
X141011935Y-122577970D01*
X141245408Y-122481500D01*
X141424193Y-122303028D01*
X141521069Y-122069723D01*
X141521290Y-121817105D01*
X141424820Y-121583632D01*
X141246348Y-121404847D01*
X141013043Y-121307971D01*
X140760425Y-121307750D01*
X140526952Y-121404220D01*
X140348167Y-121582692D01*
X140251291Y-121815997D01*
X140251070Y-122068615D01*
X121592254Y-122068615D01*
X121592450Y-121845045D01*
X121495980Y-121611572D01*
X121317508Y-121432787D01*
X121084203Y-121335911D01*
X120831585Y-121335690D01*
X120598112Y-121432160D01*
X120419327Y-121610632D01*
X120322451Y-121843937D01*
X120322230Y-122096555D01*
X108054032Y-122096555D01*
X108054250Y-121847585D01*
X107957780Y-121614112D01*
X107779308Y-121435327D01*
X107546003Y-121338451D01*
X107293385Y-121338230D01*
X107059912Y-121434700D01*
X106881127Y-121613172D01*
X106784251Y-121846477D01*
X106784030Y-122099095D01*
X91898540Y-122099095D01*
X91898540Y-120595415D01*
X159179150Y-120595415D01*
X159275620Y-120828888D01*
X159454092Y-121007673D01*
X159687397Y-121104549D01*
X159940015Y-121104770D01*
X160173488Y-121008300D01*
X160352273Y-120829828D01*
X160449149Y-120596523D01*
X160449370Y-120343905D01*
X160352900Y-120110432D01*
X160174428Y-119931647D01*
X159941123Y-119834771D01*
X159688505Y-119834550D01*
X159455032Y-119931020D01*
X159276247Y-120109492D01*
X159179371Y-120342797D01*
X159179150Y-120595415D01*
X91898540Y-120595415D01*
X91898540Y-119305095D01*
X113210230Y-119305095D01*
X113306700Y-119538568D01*
X113485172Y-119717353D01*
X113718477Y-119814229D01*
X113971095Y-119814450D01*
X114204568Y-119717980D01*
X114383353Y-119539508D01*
X114480229Y-119306203D01*
X114480236Y-119297475D01*
X163474290Y-119297475D01*
X163570760Y-119530948D01*
X163749232Y-119709733D01*
X163982537Y-119806609D01*
X164235155Y-119806830D01*
X164468628Y-119710360D01*
X164647413Y-119531888D01*
X164744289Y-119298583D01*
X164744510Y-119045965D01*
X164648040Y-118812492D01*
X164469568Y-118633707D01*
X164236263Y-118536831D01*
X163983645Y-118536610D01*
X163750172Y-118633080D01*
X163571387Y-118811552D01*
X163474511Y-119044857D01*
X163474290Y-119297475D01*
X114480236Y-119297475D01*
X114480450Y-119053585D01*
X114383980Y-118820112D01*
X114209230Y-118645055D01*
X154266790Y-118645055D01*
X154363260Y-118878528D01*
X154541732Y-119057313D01*
X154775037Y-119154189D01*
X155027655Y-119154410D01*
X155261128Y-119057940D01*
X155439913Y-118879468D01*
X155536789Y-118646163D01*
X155537010Y-118393545D01*
X155505397Y-118317035D01*
X162445590Y-118317035D01*
X162542060Y-118550508D01*
X162720532Y-118729293D01*
X162953837Y-118826169D01*
X163206455Y-118826390D01*
X163439928Y-118729920D01*
X163618713Y-118551448D01*
X163715589Y-118318143D01*
X163715810Y-118065525D01*
X163619340Y-117832052D01*
X163440868Y-117653267D01*
X163207563Y-117556391D01*
X162954945Y-117556170D01*
X162721472Y-117652640D01*
X162542687Y-117831112D01*
X162445811Y-118064417D01*
X162445590Y-118317035D01*
X155505397Y-118317035D01*
X155440540Y-118160072D01*
X155262068Y-117981287D01*
X155028763Y-117884411D01*
X154776145Y-117884190D01*
X154542672Y-117980660D01*
X154363887Y-118159132D01*
X154267011Y-118392437D01*
X154266790Y-118645055D01*
X114209230Y-118645055D01*
X114205508Y-118641327D01*
X113972203Y-118544451D01*
X113719585Y-118544230D01*
X113486112Y-118640700D01*
X113307327Y-118819172D01*
X113210451Y-119052477D01*
X113210230Y-119305095D01*
X91898540Y-119305095D01*
X91898540Y-116772715D01*
X155521550Y-116772715D01*
X155618020Y-117006188D01*
X155796492Y-117184973D01*
X156029797Y-117281849D01*
X156282415Y-117282070D01*
X156515888Y-117185600D01*
X156694673Y-117007128D01*
X156791549Y-116773823D01*
X156791770Y-116521205D01*
X156695300Y-116287732D01*
X156516828Y-116108947D01*
X156283523Y-116012071D01*
X156030905Y-116011850D01*
X155797432Y-116108320D01*
X155618647Y-116286792D01*
X155521771Y-116520097D01*
X155521550Y-116772715D01*
X91898540Y-116772715D01*
X91898540Y-114443535D01*
X156601050Y-114443535D01*
X156697520Y-114677008D01*
X156875992Y-114855793D01*
X157109297Y-114952669D01*
X157361915Y-114952890D01*
X157595388Y-114856420D01*
X157774173Y-114677948D01*
X157871049Y-114444643D01*
X157871270Y-114192025D01*
X157774800Y-113958552D01*
X157596328Y-113779767D01*
X157363023Y-113682891D01*
X157110405Y-113682670D01*
X156876932Y-113779140D01*
X156698147Y-113957612D01*
X156601271Y-114190917D01*
X156601050Y-114443535D01*
X91898540Y-114443535D01*
X91898540Y-112646705D01*
X94370762Y-112646705D01*
X94474219Y-112897092D01*
X94665621Y-113088827D01*
X94915826Y-113192722D01*
X95186745Y-113192958D01*
X95437132Y-113089501D01*
X95628867Y-112898099D01*
X95732762Y-112647894D01*
X95732765Y-112644165D01*
X96915842Y-112644165D01*
X97019299Y-112894552D01*
X97210701Y-113086287D01*
X97460906Y-113190182D01*
X97731825Y-113190418D01*
X97982212Y-113086961D01*
X98173947Y-112895559D01*
X98277281Y-112646705D01*
X99445682Y-112646705D01*
X99549139Y-112897092D01*
X99740541Y-113088827D01*
X99990746Y-113192722D01*
X100261665Y-113192958D01*
X100512052Y-113089501D01*
X100703787Y-112898099D01*
X100807121Y-112649245D01*
X101985682Y-112649245D01*
X102089139Y-112899632D01*
X102280541Y-113091367D01*
X102530746Y-113195262D01*
X102801665Y-113195498D01*
X103052052Y-113092041D01*
X103243787Y-112900639D01*
X103347682Y-112650434D01*
X103347918Y-112379515D01*
X103244461Y-112129128D01*
X103053059Y-111937393D01*
X102802854Y-111833498D01*
X102531935Y-111833262D01*
X102281548Y-111936719D01*
X102089813Y-112128121D01*
X101985918Y-112378326D01*
X101985682Y-112649245D01*
X100807121Y-112649245D01*
X100807682Y-112647894D01*
X100807918Y-112376975D01*
X100704461Y-112126588D01*
X100513059Y-111934853D01*
X100262854Y-111830958D01*
X99991935Y-111830722D01*
X99741548Y-111934179D01*
X99549813Y-112125581D01*
X99445918Y-112375786D01*
X99445682Y-112646705D01*
X98277281Y-112646705D01*
X98277842Y-112645354D01*
X98278078Y-112374435D01*
X98174621Y-112124048D01*
X97983219Y-111932313D01*
X97733014Y-111828418D01*
X97462095Y-111828182D01*
X97211708Y-111931639D01*
X97019973Y-112123041D01*
X96916078Y-112373246D01*
X96915842Y-112644165D01*
X95732765Y-112644165D01*
X95732998Y-112376975D01*
X95629541Y-112126588D01*
X95438139Y-111934853D01*
X95187934Y-111830958D01*
X94917015Y-111830722D01*
X94666628Y-111934179D01*
X94474893Y-112125581D01*
X94370998Y-112375786D01*
X94370762Y-112646705D01*
X91898540Y-112646705D01*
X91898540Y-98965371D01*
X122898176Y-98965371D01*
X122994646Y-99198844D01*
X123173118Y-99377629D01*
X123391453Y-99468289D01*
X123481134Y-99685332D01*
X123659606Y-99864117D01*
X123892911Y-99960993D01*
X124145529Y-99961214D01*
X124379002Y-99864744D01*
X124557787Y-99686272D01*
X124654663Y-99452967D01*
X124654884Y-99200349D01*
X124558414Y-98966876D01*
X124379942Y-98788091D01*
X124161607Y-98697431D01*
X124071926Y-98480388D01*
X123893454Y-98301603D01*
X123660149Y-98204727D01*
X123407531Y-98204506D01*
X123174058Y-98300976D01*
X122995273Y-98479448D01*
X122898397Y-98712753D01*
X122898176Y-98965371D01*
X91898540Y-98965371D01*
X91898540Y-97382511D01*
X119621646Y-97382511D01*
X119718116Y-97615984D01*
X119896588Y-97794769D01*
X120114923Y-97885429D01*
X120204604Y-98102472D01*
X120383076Y-98281257D01*
X120616381Y-98378133D01*
X120868999Y-98378354D01*
X121102472Y-98281884D01*
X121281257Y-98103412D01*
X121378133Y-97870107D01*
X121378354Y-97617489D01*
X121281884Y-97384016D01*
X121103412Y-97205231D01*
X120885077Y-97114571D01*
X120795396Y-96897528D01*
X120616924Y-96718743D01*
X120383619Y-96621867D01*
X120131001Y-96621646D01*
X119897528Y-96718116D01*
X119718743Y-96896588D01*
X119621867Y-97129893D01*
X119621646Y-97382511D01*
X91898540Y-97382511D01*
X91898540Y-95447471D01*
X124640826Y-95447471D01*
X124737296Y-95680944D01*
X124915768Y-95859729D01*
X125134103Y-95950389D01*
X125223784Y-96167432D01*
X125402256Y-96346217D01*
X125635561Y-96443093D01*
X125888179Y-96443314D01*
X126121652Y-96346844D01*
X126300437Y-96168372D01*
X126397313Y-95935067D01*
X126397534Y-95682449D01*
X126301064Y-95448976D01*
X126122592Y-95270191D01*
X125904257Y-95179531D01*
X125814576Y-94962488D01*
X125636104Y-94783703D01*
X125402799Y-94686827D01*
X125150181Y-94686606D01*
X124916708Y-94783076D01*
X124737923Y-94961548D01*
X124641047Y-95194853D01*
X124640826Y-95447471D01*
X91898540Y-95447471D01*
X91898540Y-85515475D01*
X127779629Y-85515475D01*
X127876099Y-85748948D01*
X128054571Y-85927733D01*
X128287876Y-86024609D01*
X128540494Y-86024830D01*
X128758987Y-85934550D01*
X128975876Y-86024609D01*
X129228494Y-86024830D01*
X129461967Y-85928360D01*
X129640752Y-85749888D01*
X129737628Y-85516583D01*
X129737849Y-85263965D01*
X129641379Y-85030492D01*
X129462907Y-84851707D01*
X129229602Y-84754831D01*
X128976984Y-84754610D01*
X128758491Y-84844890D01*
X128541602Y-84754831D01*
X128288984Y-84754610D01*
X128055511Y-84851080D01*
X127876726Y-85029552D01*
X127779850Y-85262857D01*
X127779629Y-85515475D01*
X91898540Y-85515475D01*
X91898540Y-83292975D01*
X116583350Y-83292975D01*
X116679820Y-83526448D01*
X116858292Y-83705233D01*
X117091597Y-83802109D01*
X117344215Y-83802330D01*
X117577688Y-83705860D01*
X117756473Y-83527388D01*
X117853349Y-83294083D01*
X117853570Y-83041465D01*
X117757100Y-82807992D01*
X117578628Y-82629207D01*
X117378760Y-82546215D01*
X121061370Y-82546215D01*
X121157840Y-82779688D01*
X121336312Y-82958473D01*
X121569617Y-83055349D01*
X121822235Y-83055570D01*
X122055708Y-82959100D01*
X122234493Y-82780628D01*
X122331369Y-82547323D01*
X122331383Y-82530975D01*
X123535330Y-82530975D01*
X123631800Y-82764448D01*
X123810272Y-82943233D01*
X124043577Y-83040109D01*
X124296195Y-83040330D01*
X124529668Y-82943860D01*
X124708453Y-82765388D01*
X124805329Y-82532083D01*
X124805550Y-82279465D01*
X124709080Y-82045992D01*
X124530608Y-81867207D01*
X124297303Y-81770331D01*
X124044685Y-81770110D01*
X123811212Y-81866580D01*
X123632427Y-82045052D01*
X123535551Y-82278357D01*
X123535330Y-82530975D01*
X122331383Y-82530975D01*
X122331590Y-82294705D01*
X122235120Y-82061232D01*
X122056648Y-81882447D01*
X121823343Y-81785571D01*
X121570725Y-81785350D01*
X121337252Y-81881820D01*
X121158467Y-82060292D01*
X121061591Y-82293597D01*
X121061370Y-82546215D01*
X117378760Y-82546215D01*
X117345323Y-82532331D01*
X117092705Y-82532110D01*
X116859232Y-82628580D01*
X116680447Y-82807052D01*
X116583571Y-83040357D01*
X116583350Y-83292975D01*
X91898540Y-83292975D01*
X91898540Y-60452000D01*
X120269000Y-60452000D01*
X120269000Y-81280000D01*
X120279006Y-81329410D01*
X120307447Y-81371035D01*
X120349841Y-81398315D01*
X120396000Y-81407000D01*
X128140875Y-81407000D01*
X128121548Y-81426293D01*
X127909975Y-81426108D01*
X127691482Y-81516388D01*
X127474593Y-81426329D01*
X127221975Y-81426108D01*
X126988502Y-81522578D01*
X126809717Y-81701050D01*
X126712841Y-81934355D01*
X126712620Y-82186973D01*
X126739791Y-82252730D01*
X126716765Y-82252710D01*
X126483292Y-82349180D01*
X126304507Y-82527652D01*
X126207631Y-82760957D01*
X126207410Y-83013575D01*
X126303880Y-83247048D01*
X126482352Y-83425833D01*
X126715657Y-83522709D01*
X126968275Y-83522930D01*
X127201748Y-83426460D01*
X127380533Y-83247988D01*
X127477409Y-83014683D01*
X127477630Y-82762065D01*
X127450459Y-82696308D01*
X127473485Y-82696328D01*
X127691978Y-82606048D01*
X127908867Y-82696107D01*
X128161485Y-82696328D01*
X128282967Y-82646132D01*
X128326604Y-82751741D01*
X128505076Y-82930526D01*
X128738381Y-83027402D01*
X128990999Y-83027623D01*
X129224472Y-82931153D01*
X129403257Y-82752681D01*
X129500133Y-82519376D01*
X129500307Y-82320353D01*
X129691075Y-82241529D01*
X129699910Y-82250379D01*
X129692511Y-82268197D01*
X129692290Y-82520815D01*
X129788760Y-82754288D01*
X129967232Y-82933073D01*
X130200537Y-83029949D01*
X130453155Y-83030170D01*
X130686628Y-82933700D01*
X130865413Y-82755228D01*
X130962289Y-82521923D01*
X130962330Y-82474781D01*
X131184818Y-82567165D01*
X131437436Y-82567386D01*
X131655929Y-82477106D01*
X131872818Y-82567165D01*
X132125436Y-82567386D01*
X132169563Y-82549153D01*
X132262720Y-82774608D01*
X132441192Y-82953393D01*
X132674497Y-83050269D01*
X132927115Y-83050490D01*
X133104805Y-82977069D01*
X133268857Y-83045189D01*
X133521475Y-83045410D01*
X133733826Y-82957668D01*
X133914017Y-83032489D01*
X134166635Y-83032710D01*
X134400108Y-82936240D01*
X134578893Y-82757768D01*
X134592517Y-82724958D01*
X134692902Y-82725046D01*
X134859308Y-82656288D01*
X135049795Y-82735384D01*
X135133627Y-82735457D01*
X135153895Y-82784508D01*
X135332367Y-82963293D01*
X135565672Y-83060169D01*
X135818290Y-83060390D01*
X136051763Y-82963920D01*
X136230548Y-82785448D01*
X136241416Y-82759274D01*
X136348384Y-82759368D01*
X136363696Y-82753041D01*
X136367360Y-82761908D01*
X136545832Y-82940693D01*
X136779137Y-83037569D01*
X137031755Y-83037790D01*
X137265228Y-82941320D01*
X137444013Y-82762848D01*
X137460137Y-82724015D01*
X137901570Y-82724015D01*
X137998040Y-82957488D01*
X138176512Y-83136273D01*
X138409817Y-83233149D01*
X138662435Y-83233370D01*
X138895908Y-83136900D01*
X139074693Y-82958428D01*
X139171569Y-82725123D01*
X139171790Y-82472505D01*
X139075320Y-82239032D01*
X138896848Y-82060247D01*
X138663543Y-81963371D01*
X138410925Y-81963150D01*
X138177452Y-82059620D01*
X137998667Y-82238092D01*
X137901791Y-82471397D01*
X137901570Y-82724015D01*
X137460137Y-82724015D01*
X137540889Y-82529543D01*
X137541110Y-82276925D01*
X137444640Y-82043452D01*
X137266168Y-81864667D01*
X137032863Y-81767791D01*
X136780245Y-81767570D01*
X136764933Y-81773897D01*
X136761269Y-81765030D01*
X136582797Y-81586245D01*
X136349492Y-81489369D01*
X136096874Y-81489148D01*
X135863401Y-81585618D01*
X135711395Y-81737358D01*
X135536826Y-81562482D01*
X135303521Y-81465606D01*
X135050903Y-81465385D01*
X134884497Y-81534143D01*
X134694010Y-81455047D01*
X134441392Y-81454826D01*
X134207919Y-81551296D01*
X134029134Y-81729768D01*
X134015510Y-81762578D01*
X133915125Y-81762490D01*
X133702774Y-81850232D01*
X133522583Y-81775411D01*
X133269965Y-81775190D01*
X133092275Y-81848611D01*
X132928223Y-81780491D01*
X132675605Y-81780270D01*
X132631478Y-81798503D01*
X132538321Y-81573048D01*
X132372564Y-81407000D01*
X138684000Y-81407000D01*
X138733410Y-81396994D01*
X138775035Y-81368553D01*
X138802315Y-81326159D01*
X138811000Y-81280000D01*
X138811000Y-60452000D01*
X138800994Y-60402590D01*
X138772553Y-60360965D01*
X138730159Y-60333685D01*
X138684000Y-60325000D01*
X120396000Y-60325000D01*
X120346590Y-60335006D01*
X120304965Y-60363447D01*
X120277685Y-60405841D01*
X120269000Y-60452000D01*
X91898540Y-60452000D01*
X91898540Y-37423525D01*
X92252481Y-37423525D01*
X92707785Y-38525446D01*
X93550119Y-39369252D01*
X94651244Y-39826479D01*
X95843525Y-39827519D01*
X96945446Y-39372215D01*
X97789252Y-38529881D01*
X98246479Y-37428756D01*
X98246483Y-37423525D01*
X160832481Y-37423525D01*
X161287785Y-38525446D01*
X162130119Y-39369252D01*
X163231244Y-39826479D01*
X164423525Y-39827519D01*
X165525446Y-39372215D01*
X166369252Y-38529881D01*
X166826479Y-37428756D01*
X166827519Y-36236475D01*
X166372215Y-35134554D01*
X165529881Y-34290748D01*
X164428756Y-33833521D01*
X163236475Y-33832481D01*
X162134554Y-34287785D01*
X161290748Y-35130119D01*
X160833521Y-36231244D01*
X160832481Y-37423525D01*
X98246483Y-37423525D01*
X98247519Y-36236475D01*
X97792215Y-35134554D01*
X96949881Y-34290748D01*
X95848756Y-33833521D01*
X94656475Y-33832481D01*
X93554554Y-34287785D01*
X92710748Y-35130119D01*
X92253521Y-36231244D01*
X92252481Y-37423525D01*
X91898540Y-37423525D01*
X91898540Y-33448060D01*
X167186540Y-33448060D01*
X167186540Y-159536060D01*
M02*
