G04 #@! TF.FileFunction,Copper,L1,Top,Signal*
%FSLAX46Y46*%
G04 Gerber Fmt 4.6, Leading zero omitted, Abs format (unit mm)*
G04 Created by KiCad (PCBNEW 4.0.4-stable) date 2016 October 17, Monday 14:47:50*
%MOMM*%
%LPD*%
G01*
G04 APERTURE LIST*
%ADD10C,0.100000*%
%ADD11C,0.150000*%
%ADD12C,0.300000*%
%ADD13C,0.400000*%
%ADD14C,0.900000*%
%ADD15R,1.060000X0.650000*%
%ADD16R,0.285000X1.000000*%
%ADD17R,2.999740X1.501140*%
%ADD18R,0.800000X0.750000*%
%ADD19R,0.750000X0.800000*%
%ADD20R,0.500000X0.900000*%
%ADD21R,0.900000X0.500000*%
%ADD22R,0.450000X1.450000*%
%ADD23R,1.100000X0.250000*%
%ADD24R,2.032000X3.657600*%
%ADD25R,2.032000X1.016000*%
%ADD26R,1.550000X0.600000*%
%ADD27R,1.450000X0.450000*%
%ADD28R,1.016000X0.762000*%
%ADD29R,0.350000X0.300000*%
%ADD30R,2.600000X2.000000*%
%ADD31O,2.600000X2.000000*%
%ADD32R,0.127000X0.508000*%
%ADD33R,1.524000X0.127000*%
%ADD34R,0.254000X0.127000*%
%ADD35R,0.381000X0.127000*%
%ADD36R,0.508000X0.127000*%
%ADD37R,1.092200X0.127000*%
%ADD38R,0.370840X0.127000*%
%ADD39R,0.375920X0.127000*%
%ADD40R,0.431800X0.127000*%
%ADD41R,0.457200X0.127000*%
%ADD42R,0.711200X0.127000*%
%ADD43R,0.762000X0.127000*%
%ADD44R,20.320000X0.254000*%
%ADD45R,1.524000X2.286000*%
%ADD46O,1.524000X2.286000*%
%ADD47C,0.508000*%
%ADD48C,0.635000*%
%ADD49C,0.600000*%
%ADD50C,0.889000*%
%ADD51C,0.762000*%
%ADD52C,0.254000*%
%ADD53C,0.127000*%
%ADD54C,0.250000*%
%ADD55C,0.381000*%
%ADD56C,0.635000*%
%ADD57C,0.125000*%
%ADD58C,0.762000*%
%ADD59C,0.508000*%
%ADD60C,0.889000*%
%ADD61C,0.152400*%
G04 APERTURE END LIST*
D10*
D11*
X159400000Y-171900000D02*
X159400000Y-203900000D01*
X267400000Y-203900000D01*
X267400000Y-171900000D01*
X159400000Y-171900000D01*
D10*
D11*
X10000000Y-10000000D02*
X10000000Y-205900000D01*
X269400000Y-205900000D01*
X269400000Y-10000000D01*
X10000000Y-10000000D01*
D10*
D11*
X12000000Y-12000000D02*
X12000000Y-203900000D01*
X267400000Y-203900000D01*
X267400000Y-12000000D01*
X12000000Y-12000000D01*
D10*
D11*
X60000000Y-12000000D02*
X60000000Y-10000000D01*
D10*
D11*
X110000000Y-12000000D02*
X110000000Y-10000000D01*
D10*
D11*
X160000000Y-12000000D02*
X160000000Y-10000000D01*
D10*
D11*
X210000000Y-12000000D02*
X210000000Y-10000000D01*
D10*
D11*
X260000000Y-12000000D02*
X260000000Y-10000000D01*
D10*
D11*
X35990476Y-11588095D02*
X35247619Y-11588095D01*
X35619048Y-11588095D02*
X35619048Y-10288095D01*
X35495238Y-10473810D01*
X35371429Y-10597619D01*
X35247619Y-10659524D01*
D10*
D11*
X85247619Y-10411905D02*
X85309524Y-10350000D01*
X85433333Y-10288095D01*
X85742857Y-10288095D01*
X85866667Y-10350000D01*
X85928571Y-10411905D01*
X85990476Y-10535714D01*
X85990476Y-10659524D01*
X85928571Y-10845238D01*
X85185714Y-11588095D01*
X85990476Y-11588095D01*
D10*
D11*
X135185714Y-10288095D02*
X135990476Y-10288095D01*
X135557143Y-10783333D01*
X135742857Y-10783333D01*
X135866667Y-10845238D01*
X135928571Y-10907143D01*
X135990476Y-11030952D01*
X135990476Y-11340476D01*
X135928571Y-11464286D01*
X135866667Y-11526190D01*
X135742857Y-11588095D01*
X135371429Y-11588095D01*
X135247619Y-11526190D01*
X135185714Y-11464286D01*
D10*
D11*
X185866667Y-10721429D02*
X185866667Y-11588095D01*
X185557143Y-10226190D02*
X185247619Y-11154762D01*
X186052381Y-11154762D01*
D10*
D11*
X235928571Y-10288095D02*
X235309524Y-10288095D01*
X235247619Y-10907143D01*
X235309524Y-10845238D01*
X235433333Y-10783333D01*
X235742857Y-10783333D01*
X235866667Y-10845238D01*
X235928571Y-10907143D01*
X235990476Y-11030952D01*
X235990476Y-11340476D01*
X235928571Y-11464286D01*
X235866667Y-11526190D01*
X235742857Y-11588095D01*
X235433333Y-11588095D01*
X235309524Y-11526190D01*
X235247619Y-11464286D01*
D10*
D11*
X60000000Y-203900000D02*
X60000000Y-205900000D01*
D10*
D11*
X110000000Y-203900000D02*
X110000000Y-205900000D01*
D10*
D11*
X160000000Y-203900000D02*
X160000000Y-205900000D01*
D10*
D11*
X210000000Y-203900000D02*
X210000000Y-205900000D01*
D10*
D11*
X260000000Y-203900000D02*
X260000000Y-205900000D01*
D10*
D11*
X35990476Y-205488095D02*
X35247619Y-205488095D01*
X35619048Y-205488095D02*
X35619048Y-204188095D01*
X35495238Y-204373810D01*
X35371429Y-204497619D01*
X35247619Y-204559524D01*
D10*
D11*
X85247619Y-204311905D02*
X85309524Y-204250000D01*
X85433333Y-204188095D01*
X85742857Y-204188095D01*
X85866667Y-204250000D01*
X85928571Y-204311905D01*
X85990476Y-204435714D01*
X85990476Y-204559524D01*
X85928571Y-204745238D01*
X85185714Y-205488095D01*
X85990476Y-205488095D01*
D10*
D11*
X135185714Y-204188095D02*
X135990476Y-204188095D01*
X135557143Y-204683333D01*
X135742857Y-204683333D01*
X135866667Y-204745238D01*
X135928571Y-204807143D01*
X135990476Y-204930952D01*
X135990476Y-205240476D01*
X135928571Y-205364286D01*
X135866667Y-205426190D01*
X135742857Y-205488095D01*
X135371429Y-205488095D01*
X135247619Y-205426190D01*
X135185714Y-205364286D01*
D10*
D11*
X185866667Y-204621429D02*
X185866667Y-205488095D01*
X185557143Y-204126190D02*
X185247619Y-205054762D01*
X186052381Y-205054762D01*
D10*
D11*
X235928571Y-204188095D02*
X235309524Y-204188095D01*
X235247619Y-204807143D01*
X235309524Y-204745238D01*
X235433333Y-204683333D01*
X235742857Y-204683333D01*
X235866667Y-204745238D01*
X235928571Y-204807143D01*
X235990476Y-204930952D01*
X235990476Y-205240476D01*
X235928571Y-205364286D01*
X235866667Y-205426190D01*
X235742857Y-205488095D01*
X235433333Y-205488095D01*
X235309524Y-205426190D01*
X235247619Y-205364286D01*
D10*
D11*
X10000000Y-60000000D02*
X12000000Y-60000000D01*
D10*
D11*
X10000000Y-110000000D02*
X12000000Y-110000000D01*
D10*
D11*
X10000000Y-160000000D02*
X12000000Y-160000000D01*
D10*
D11*
X10690476Y-35216667D02*
X11309524Y-35216667D01*
X10566667Y-35588095D02*
X11000000Y-34288095D01*
X11433333Y-35588095D01*
D10*
D11*
X11092857Y-84907143D02*
X11278571Y-84969048D01*
X11340476Y-85030952D01*
X11402381Y-85154762D01*
X11402381Y-85340476D01*
X11340476Y-85464286D01*
X11278571Y-85526190D01*
X11154762Y-85588095D01*
X10659524Y-85588095D01*
X10659524Y-84288095D01*
X11092857Y-84288095D01*
X11216667Y-84350000D01*
X11278571Y-84411905D01*
X11340476Y-84535714D01*
X11340476Y-84659524D01*
X11278571Y-84783333D01*
X11216667Y-84845238D01*
X11092857Y-84907143D01*
X10659524Y-84907143D01*
D10*
D11*
X11402381Y-135464286D02*
X11340476Y-135526190D01*
X11154762Y-135588095D01*
X11030952Y-135588095D01*
X10845238Y-135526190D01*
X10721429Y-135402381D01*
X10659524Y-135278571D01*
X10597619Y-135030952D01*
X10597619Y-134845238D01*
X10659524Y-134597619D01*
X10721429Y-134473810D01*
X10845238Y-134350000D01*
X11030952Y-134288095D01*
X11154762Y-134288095D01*
X11340476Y-134350000D01*
X11402381Y-134411905D01*
D10*
D11*
X10659524Y-185588095D02*
X10659524Y-184288095D01*
X10969048Y-184288095D01*
X11154762Y-184350000D01*
X11278571Y-184473810D01*
X11340476Y-184597619D01*
X11402381Y-184845238D01*
X11402381Y-185030952D01*
X11340476Y-185278571D01*
X11278571Y-185402381D01*
X11154762Y-185526190D01*
X10969048Y-185588095D01*
X10659524Y-185588095D01*
D10*
D11*
X269400000Y-60000000D02*
X267400000Y-60000000D01*
D10*
D11*
X269400000Y-110000000D02*
X267400000Y-110000000D01*
D10*
D11*
X269400000Y-160000000D02*
X267400000Y-160000000D01*
D10*
D11*
X268090476Y-35216667D02*
X268709524Y-35216667D01*
X267966667Y-35588095D02*
X268400000Y-34288095D01*
X268833333Y-35588095D01*
D10*
D11*
X268492857Y-84907143D02*
X268678571Y-84969048D01*
X268740476Y-85030952D01*
X268802381Y-85154762D01*
X268802381Y-85340476D01*
X268740476Y-85464286D01*
X268678571Y-85526190D01*
X268554762Y-85588095D01*
X268059524Y-85588095D01*
X268059524Y-84288095D01*
X268492857Y-84288095D01*
X268616667Y-84350000D01*
X268678571Y-84411905D01*
X268740476Y-84535714D01*
X268740476Y-84659524D01*
X268678571Y-84783333D01*
X268616667Y-84845238D01*
X268492857Y-84907143D01*
X268059524Y-84907143D01*
D10*
D11*
X268802381Y-135464286D02*
X268740476Y-135526190D01*
X268554762Y-135588095D01*
X268430952Y-135588095D01*
X268245238Y-135526190D01*
X268121429Y-135402381D01*
X268059524Y-135278571D01*
X267997619Y-135030952D01*
X267997619Y-134845238D01*
X268059524Y-134597619D01*
X268121429Y-134473810D01*
X268245238Y-134350000D01*
X268430952Y-134288095D01*
X268554762Y-134288095D01*
X268740476Y-134350000D01*
X268802381Y-134411905D01*
D10*
D11*
X268059524Y-185588095D02*
X268059524Y-184288095D01*
X268369048Y-184288095D01*
X268554762Y-184350000D01*
X268678571Y-184473810D01*
X268740476Y-184597619D01*
X268802381Y-184845238D01*
X268802381Y-185030952D01*
X268740476Y-185278571D01*
X268678571Y-185402381D01*
X268554762Y-185526190D01*
X268369048Y-185588095D01*
X268059524Y-185588095D01*
D10*
D11*
X182757143Y-199678571D02*
X182757143Y-198178571D01*
X183114286Y-198178571D01*
X183328571Y-198250000D01*
X183471429Y-198392857D01*
X183542857Y-198535714D01*
X183614286Y-198821429D01*
X183614286Y-199035714D01*
X183542857Y-199321429D01*
X183471429Y-199464286D01*
X183328571Y-199607143D01*
X183114286Y-199678571D01*
X182757143Y-199678571D01*
X184900000Y-199678571D02*
X184900000Y-198892857D01*
X184828571Y-198750000D01*
X184685714Y-198678571D01*
X184400000Y-198678571D01*
X184257143Y-198750000D01*
X184900000Y-199607143D02*
X184757143Y-199678571D01*
X184400000Y-199678571D01*
X184257143Y-199607143D01*
X184185714Y-199464286D01*
X184185714Y-199321429D01*
X184257143Y-199178571D01*
X184400000Y-199107143D01*
X184757143Y-199107143D01*
X184900000Y-199035714D01*
X185400000Y-198678571D02*
X185971429Y-198678571D01*
X185614286Y-198178571D02*
X185614286Y-199464286D01*
X185685714Y-199607143D01*
X185828572Y-199678571D01*
X185971429Y-199678571D01*
X187042857Y-199607143D02*
X186900000Y-199678571D01*
X186614286Y-199678571D01*
X186471429Y-199607143D01*
X186400000Y-199464286D01*
X186400000Y-198892857D01*
X186471429Y-198750000D01*
X186614286Y-198678571D01*
X186900000Y-198678571D01*
X187042857Y-198750000D01*
X187114286Y-198892857D01*
X187114286Y-199035714D01*
X186400000Y-199178571D01*
X187757143Y-199535714D02*
X187828571Y-199607143D01*
X187757143Y-199678571D01*
X187685714Y-199607143D01*
X187757143Y-199535714D01*
X187757143Y-199678571D01*
X187757143Y-198750000D02*
X187828571Y-198821429D01*
X187757143Y-198892857D01*
X187685714Y-198821429D01*
X187757143Y-198750000D01*
X187757143Y-198892857D01*
X189542857Y-198321429D02*
X189614286Y-198250000D01*
X189757143Y-198178571D01*
X190114286Y-198178571D01*
X190257143Y-198250000D01*
X190328572Y-198321429D01*
X190400000Y-198464286D01*
X190400000Y-198607143D01*
X190328572Y-198821429D01*
X189471429Y-199678571D01*
X190400000Y-199678571D01*
X191328571Y-198178571D02*
X191471428Y-198178571D01*
X191614285Y-198250000D01*
X191685714Y-198321429D01*
X191757143Y-198464286D01*
X191828571Y-198750000D01*
X191828571Y-199107143D01*
X191757143Y-199392857D01*
X191685714Y-199535714D01*
X191614285Y-199607143D01*
X191471428Y-199678571D01*
X191328571Y-199678571D01*
X191185714Y-199607143D01*
X191114285Y-199535714D01*
X191042857Y-199392857D01*
X190971428Y-199107143D01*
X190971428Y-198750000D01*
X191042857Y-198464286D01*
X191114285Y-198321429D01*
X191185714Y-198250000D01*
X191328571Y-198178571D01*
X193257142Y-199678571D02*
X192399999Y-199678571D01*
X192828571Y-199678571D02*
X192828571Y-198178571D01*
X192685714Y-198392857D01*
X192542856Y-198535714D01*
X192399999Y-198607143D01*
X194542856Y-198178571D02*
X194257142Y-198178571D01*
X194114285Y-198250000D01*
X194042856Y-198321429D01*
X193899999Y-198535714D01*
X193828570Y-198821429D01*
X193828570Y-199392857D01*
X193899999Y-199535714D01*
X193971427Y-199607143D01*
X194114285Y-199678571D01*
X194399999Y-199678571D01*
X194542856Y-199607143D01*
X194614285Y-199535714D01*
X194685713Y-199392857D01*
X194685713Y-199035714D01*
X194614285Y-198892857D01*
X194542856Y-198821429D01*
X194399999Y-198750000D01*
X194114285Y-198750000D01*
X193971427Y-198821429D01*
X193899999Y-198892857D01*
X193828570Y-199035714D01*
X195328570Y-199107143D02*
X196471427Y-199107143D01*
X197971427Y-199678571D02*
X197114284Y-199678571D01*
X197542856Y-199678571D02*
X197542856Y-198178571D01*
X197399999Y-198392857D01*
X197257141Y-198535714D01*
X197114284Y-198607143D01*
X198899998Y-198178571D02*
X199042855Y-198178571D01*
X199185712Y-198250000D01*
X199257141Y-198321429D01*
X199328570Y-198464286D01*
X199399998Y-198750000D01*
X199399998Y-199107143D01*
X199328570Y-199392857D01*
X199257141Y-199535714D01*
X199185712Y-199607143D01*
X199042855Y-199678571D01*
X198899998Y-199678571D01*
X198757141Y-199607143D01*
X198685712Y-199535714D01*
X198614284Y-199392857D01*
X198542855Y-199107143D01*
X198542855Y-198750000D01*
X198614284Y-198464286D01*
X198685712Y-198321429D01*
X198757141Y-198250000D01*
X198899998Y-198178571D01*
X200042855Y-199107143D02*
X201185712Y-199107143D01*
X202685712Y-199678571D02*
X201828569Y-199678571D01*
X202257141Y-199678571D02*
X202257141Y-198178571D01*
X202114284Y-198392857D01*
X201971426Y-198535714D01*
X201828569Y-198607143D01*
X204114283Y-199678571D02*
X203257140Y-199678571D01*
X203685712Y-199678571D02*
X203685712Y-198178571D01*
X203542855Y-198392857D01*
X203399997Y-198535714D01*
X203257140Y-198607143D01*
D10*
D11*
X159400000Y-200400000D02*
X267400000Y-200400000D01*
D10*
D11*
X160757143Y-202478571D02*
X160757143Y-200978571D01*
X161614286Y-202478571D02*
X160971429Y-201621429D01*
X161614286Y-200978571D02*
X160757143Y-201835714D01*
X162257143Y-202478571D02*
X162257143Y-201478571D01*
X162257143Y-200978571D02*
X162185714Y-201050000D01*
X162257143Y-201121429D01*
X162328571Y-201050000D01*
X162257143Y-200978571D01*
X162257143Y-201121429D01*
X163828572Y-202335714D02*
X163757143Y-202407143D01*
X163542857Y-202478571D01*
X163400000Y-202478571D01*
X163185715Y-202407143D01*
X163042857Y-202264286D01*
X162971429Y-202121429D01*
X162900000Y-201835714D01*
X162900000Y-201621429D01*
X162971429Y-201335714D01*
X163042857Y-201192857D01*
X163185715Y-201050000D01*
X163400000Y-200978571D01*
X163542857Y-200978571D01*
X163757143Y-201050000D01*
X163828572Y-201121429D01*
X165114286Y-202478571D02*
X165114286Y-201692857D01*
X165042857Y-201550000D01*
X164900000Y-201478571D01*
X164614286Y-201478571D01*
X164471429Y-201550000D01*
X165114286Y-202407143D02*
X164971429Y-202478571D01*
X164614286Y-202478571D01*
X164471429Y-202407143D01*
X164400000Y-202264286D01*
X164400000Y-202121429D01*
X164471429Y-201978571D01*
X164614286Y-201907143D01*
X164971429Y-201907143D01*
X165114286Y-201835714D01*
X166471429Y-202478571D02*
X166471429Y-200978571D01*
X166471429Y-202407143D02*
X166328572Y-202478571D01*
X166042858Y-202478571D01*
X165900000Y-202407143D01*
X165828572Y-202335714D01*
X165757143Y-202192857D01*
X165757143Y-201764286D01*
X165828572Y-201621429D01*
X165900000Y-201550000D01*
X166042858Y-201478571D01*
X166328572Y-201478571D01*
X166471429Y-201550000D01*
X168328572Y-201692857D02*
X168828572Y-201692857D01*
X169042858Y-202478571D02*
X168328572Y-202478571D01*
X168328572Y-200978571D01*
X169042858Y-200978571D01*
X169685715Y-202335714D02*
X169757143Y-202407143D01*
X169685715Y-202478571D01*
X169614286Y-202407143D01*
X169685715Y-202335714D01*
X169685715Y-202478571D01*
X170400001Y-202478571D02*
X170400001Y-200978571D01*
X170757144Y-200978571D01*
X170971429Y-201050000D01*
X171114287Y-201192857D01*
X171185715Y-201335714D01*
X171257144Y-201621429D01*
X171257144Y-201835714D01*
X171185715Y-202121429D01*
X171114287Y-202264286D01*
X170971429Y-202407143D01*
X170757144Y-202478571D01*
X170400001Y-202478571D01*
X171900001Y-202335714D02*
X171971429Y-202407143D01*
X171900001Y-202478571D01*
X171828572Y-202407143D01*
X171900001Y-202335714D01*
X171900001Y-202478571D01*
X172542858Y-202050000D02*
X173257144Y-202050000D01*
X172400001Y-202478571D02*
X172900001Y-200978571D01*
X173400001Y-202478571D01*
X173900001Y-202335714D02*
X173971429Y-202407143D01*
X173900001Y-202478571D01*
X173828572Y-202407143D01*
X173900001Y-202335714D01*
X173900001Y-202478571D01*
X176900001Y-202478571D02*
X176900001Y-200978571D01*
X177042858Y-201907143D02*
X177471429Y-202478571D01*
X177471429Y-201478571D02*
X176900001Y-202050000D01*
X178114287Y-202478571D02*
X178114287Y-201478571D01*
X178114287Y-200978571D02*
X178042858Y-201050000D01*
X178114287Y-201121429D01*
X178185715Y-201050000D01*
X178114287Y-200978571D01*
X178114287Y-201121429D01*
X179471430Y-202407143D02*
X179328573Y-202478571D01*
X179042859Y-202478571D01*
X178900001Y-202407143D01*
X178828573Y-202335714D01*
X178757144Y-202192857D01*
X178757144Y-201764286D01*
X178828573Y-201621429D01*
X178900001Y-201550000D01*
X179042859Y-201478571D01*
X179328573Y-201478571D01*
X179471430Y-201550000D01*
X180757144Y-202478571D02*
X180757144Y-201692857D01*
X180685715Y-201550000D01*
X180542858Y-201478571D01*
X180257144Y-201478571D01*
X180114287Y-201550000D01*
X180757144Y-202407143D02*
X180614287Y-202478571D01*
X180257144Y-202478571D01*
X180114287Y-202407143D01*
X180042858Y-202264286D01*
X180042858Y-202121429D01*
X180114287Y-201978571D01*
X180257144Y-201907143D01*
X180614287Y-201907143D01*
X180757144Y-201835714D01*
X182114287Y-202478571D02*
X182114287Y-200978571D01*
X182114287Y-202407143D02*
X181971430Y-202478571D01*
X181685716Y-202478571D01*
X181542858Y-202407143D01*
X181471430Y-202335714D01*
X181400001Y-202192857D01*
X181400001Y-201764286D01*
X181471430Y-201621429D01*
X181542858Y-201550000D01*
X181685716Y-201478571D01*
X181971430Y-201478571D01*
X182114287Y-201550000D01*
X184614287Y-201478571D02*
X184614287Y-202478571D01*
X184257144Y-200907143D02*
X183900001Y-201978571D01*
X184828573Y-201978571D01*
X185400001Y-202335714D02*
X185471429Y-202407143D01*
X185400001Y-202478571D01*
X185328572Y-202407143D01*
X185400001Y-202335714D01*
X185400001Y-202478571D01*
X186400001Y-200978571D02*
X186542858Y-200978571D01*
X186685715Y-201050000D01*
X186757144Y-201121429D01*
X186828573Y-201264286D01*
X186900001Y-201550000D01*
X186900001Y-201907143D01*
X186828573Y-202192857D01*
X186757144Y-202335714D01*
X186685715Y-202407143D01*
X186542858Y-202478571D01*
X186400001Y-202478571D01*
X186257144Y-202407143D01*
X186185715Y-202335714D01*
X186114287Y-202192857D01*
X186042858Y-201907143D01*
X186042858Y-201550000D01*
X186114287Y-201264286D01*
X186185715Y-201121429D01*
X186257144Y-201050000D01*
X186400001Y-200978571D01*
X187542858Y-202335714D02*
X187614286Y-202407143D01*
X187542858Y-202478571D01*
X187471429Y-202407143D01*
X187542858Y-202335714D01*
X187542858Y-202478571D01*
X188900001Y-201478571D02*
X188900001Y-202478571D01*
X188542858Y-200907143D02*
X188185715Y-201978571D01*
X189114287Y-201978571D01*
X189685715Y-201907143D02*
X190828572Y-201907143D01*
X191471429Y-202407143D02*
X191614286Y-202478571D01*
X191900001Y-202478571D01*
X192042858Y-202407143D01*
X192114286Y-202264286D01*
X192114286Y-202192857D01*
X192042858Y-202050000D01*
X191900001Y-201978571D01*
X191685715Y-201978571D01*
X191542858Y-201907143D01*
X191471429Y-201764286D01*
X191471429Y-201692857D01*
X191542858Y-201550000D01*
X191685715Y-201478571D01*
X191900001Y-201478571D01*
X192042858Y-201550000D01*
X192542858Y-201478571D02*
X193114287Y-201478571D01*
X192757144Y-200978571D02*
X192757144Y-202264286D01*
X192828572Y-202407143D01*
X192971430Y-202478571D01*
X193114287Y-202478571D01*
X194257144Y-202478571D02*
X194257144Y-201692857D01*
X194185715Y-201550000D01*
X194042858Y-201478571D01*
X193757144Y-201478571D01*
X193614287Y-201550000D01*
X194257144Y-202407143D02*
X194114287Y-202478571D01*
X193757144Y-202478571D01*
X193614287Y-202407143D01*
X193542858Y-202264286D01*
X193542858Y-202121429D01*
X193614287Y-201978571D01*
X193757144Y-201907143D01*
X194114287Y-201907143D01*
X194257144Y-201835714D01*
X194971430Y-202478571D02*
X194971430Y-200978571D01*
X194971430Y-201550000D02*
X195114287Y-201478571D01*
X195400001Y-201478571D01*
X195542858Y-201550000D01*
X195614287Y-201621429D01*
X195685716Y-201764286D01*
X195685716Y-202192857D01*
X195614287Y-202335714D01*
X195542858Y-202407143D01*
X195400001Y-202478571D01*
X195114287Y-202478571D01*
X194971430Y-202407143D01*
X196542859Y-202478571D02*
X196400001Y-202407143D01*
X196328573Y-202264286D01*
X196328573Y-200978571D01*
X197685715Y-202407143D02*
X197542858Y-202478571D01*
X197257144Y-202478571D01*
X197114287Y-202407143D01*
X197042858Y-202264286D01*
X197042858Y-201692857D01*
X197114287Y-201550000D01*
X197257144Y-201478571D01*
X197542858Y-201478571D01*
X197685715Y-201550000D01*
X197757144Y-201692857D01*
X197757144Y-201835714D01*
X197042858Y-201978571D01*
D10*
D11*
X159400000Y-197400000D02*
X267400000Y-197400000D01*
D10*
D12*
X246614286Y-199678571D02*
X246114286Y-198964286D01*
X245757143Y-199678571D02*
X245757143Y-198178571D01*
X246328571Y-198178571D01*
X246471429Y-198250000D01*
X246542857Y-198321429D01*
X246614286Y-198464286D01*
X246614286Y-198678571D01*
X246542857Y-198821429D01*
X246471429Y-198892857D01*
X246328571Y-198964286D01*
X245757143Y-198964286D01*
X247828571Y-199607143D02*
X247685714Y-199678571D01*
X247400000Y-199678571D01*
X247257143Y-199607143D01*
X247185714Y-199464286D01*
X247185714Y-198892857D01*
X247257143Y-198750000D01*
X247400000Y-198678571D01*
X247685714Y-198678571D01*
X247828571Y-198750000D01*
X247900000Y-198892857D01*
X247900000Y-199035714D01*
X247185714Y-199178571D01*
X248400000Y-198678571D02*
X248757143Y-199678571D01*
X249114285Y-198678571D01*
X249685714Y-199535714D02*
X249757142Y-199607143D01*
X249685714Y-199678571D01*
X249614285Y-199607143D01*
X249685714Y-199535714D01*
X249685714Y-199678571D01*
X249685714Y-198750000D02*
X249757142Y-198821429D01*
X249685714Y-198892857D01*
X249614285Y-198821429D01*
X249685714Y-198750000D01*
X249685714Y-198892857D01*
X251328571Y-198178571D02*
X251828571Y-199678571D01*
X252328571Y-198178571D01*
X253614285Y-199678571D02*
X252757142Y-199678571D01*
X253185714Y-199678571D02*
X253185714Y-198178571D01*
X253042857Y-198392857D01*
X252899999Y-198535714D01*
X252757142Y-198607143D01*
D10*
D11*
X160685714Y-199607143D02*
X160900000Y-199678571D01*
X161257143Y-199678571D01*
X161400000Y-199607143D01*
X161471429Y-199535714D01*
X161542857Y-199392857D01*
X161542857Y-199250000D01*
X161471429Y-199107143D01*
X161400000Y-199035714D01*
X161257143Y-198964286D01*
X160971429Y-198892857D01*
X160828571Y-198821429D01*
X160757143Y-198750000D01*
X160685714Y-198607143D01*
X160685714Y-198464286D01*
X160757143Y-198321429D01*
X160828571Y-198250000D01*
X160971429Y-198178571D01*
X161328571Y-198178571D01*
X161542857Y-198250000D01*
X162185714Y-199678571D02*
X162185714Y-198678571D01*
X162185714Y-198178571D02*
X162114285Y-198250000D01*
X162185714Y-198321429D01*
X162257142Y-198250000D01*
X162185714Y-198178571D01*
X162185714Y-198321429D01*
X162757143Y-198678571D02*
X163542857Y-198678571D01*
X162757143Y-199678571D01*
X163542857Y-199678571D01*
X164685714Y-199607143D02*
X164542857Y-199678571D01*
X164257143Y-199678571D01*
X164114286Y-199607143D01*
X164042857Y-199464286D01*
X164042857Y-198892857D01*
X164114286Y-198750000D01*
X164257143Y-198678571D01*
X164542857Y-198678571D01*
X164685714Y-198750000D01*
X164757143Y-198892857D01*
X164757143Y-199035714D01*
X164042857Y-199178571D01*
X165400000Y-199535714D02*
X165471428Y-199607143D01*
X165400000Y-199678571D01*
X165328571Y-199607143D01*
X165400000Y-199535714D01*
X165400000Y-199678571D01*
X165400000Y-198750000D02*
X165471428Y-198821429D01*
X165400000Y-198892857D01*
X165328571Y-198821429D01*
X165400000Y-198750000D01*
X165400000Y-198892857D01*
X167257143Y-198178571D02*
X167257143Y-199392857D01*
X167328571Y-199535714D01*
X167400000Y-199607143D01*
X167542857Y-199678571D01*
X167828571Y-199678571D01*
X167971429Y-199607143D01*
X168042857Y-199535714D01*
X168114286Y-199392857D01*
X168114286Y-198178571D01*
X168757143Y-199607143D02*
X168971429Y-199678571D01*
X169328572Y-199678571D01*
X169471429Y-199607143D01*
X169542858Y-199535714D01*
X169614286Y-199392857D01*
X169614286Y-199250000D01*
X169542858Y-199107143D01*
X169471429Y-199035714D01*
X169328572Y-198964286D01*
X169042858Y-198892857D01*
X168900000Y-198821429D01*
X168828572Y-198750000D01*
X168757143Y-198607143D01*
X168757143Y-198464286D01*
X168828572Y-198321429D01*
X168900000Y-198250000D01*
X169042858Y-198178571D01*
X169400000Y-198178571D01*
X169614286Y-198250000D01*
X170971429Y-199678571D02*
X170257143Y-199678571D01*
X170257143Y-198178571D01*
X172042857Y-199607143D02*
X171900000Y-199678571D01*
X171614286Y-199678571D01*
X171471429Y-199607143D01*
X171400000Y-199464286D01*
X171400000Y-198892857D01*
X171471429Y-198750000D01*
X171614286Y-198678571D01*
X171900000Y-198678571D01*
X172042857Y-198750000D01*
X172114286Y-198892857D01*
X172114286Y-199035714D01*
X171400000Y-199178571D01*
X172542857Y-198678571D02*
X173114286Y-198678571D01*
X172757143Y-198178571D02*
X172757143Y-199464286D01*
X172828571Y-199607143D01*
X172971429Y-199678571D01*
X173114286Y-199678571D01*
X173400000Y-198678571D02*
X173971429Y-198678571D01*
X173614286Y-198178571D02*
X173614286Y-199464286D01*
X173685714Y-199607143D01*
X173828572Y-199678571D01*
X173971429Y-199678571D01*
X175042857Y-199607143D02*
X174900000Y-199678571D01*
X174614286Y-199678571D01*
X174471429Y-199607143D01*
X174400000Y-199464286D01*
X174400000Y-198892857D01*
X174471429Y-198750000D01*
X174614286Y-198678571D01*
X174900000Y-198678571D01*
X175042857Y-198750000D01*
X175114286Y-198892857D01*
X175114286Y-199035714D01*
X174400000Y-199178571D01*
X175757143Y-199678571D02*
X175757143Y-198678571D01*
X175757143Y-198964286D02*
X175828571Y-198821429D01*
X175900000Y-198750000D01*
X176042857Y-198678571D01*
X176185714Y-198678571D01*
D10*
D11*
X245757143Y-202478571D02*
X245757143Y-200978571D01*
X247114286Y-202478571D02*
X247114286Y-200978571D01*
X247114286Y-202407143D02*
X246971429Y-202478571D01*
X246685715Y-202478571D01*
X246542857Y-202407143D01*
X246471429Y-202335714D01*
X246400000Y-202192857D01*
X246400000Y-201764286D01*
X246471429Y-201621429D01*
X246542857Y-201550000D01*
X246685715Y-201478571D01*
X246971429Y-201478571D01*
X247114286Y-201550000D01*
X247828572Y-202335714D02*
X247900000Y-202407143D01*
X247828572Y-202478571D01*
X247757143Y-202407143D01*
X247828572Y-202335714D01*
X247828572Y-202478571D01*
X247828572Y-201550000D02*
X247900000Y-201621429D01*
X247828572Y-201692857D01*
X247757143Y-201621429D01*
X247828572Y-201550000D01*
X247828572Y-201692857D01*
X250471429Y-202478571D02*
X249614286Y-202478571D01*
X250042858Y-202478571D02*
X250042858Y-200978571D01*
X249900001Y-201192857D01*
X249757143Y-201335714D01*
X249614286Y-201407143D01*
X252185714Y-200907143D02*
X250900000Y-202835714D01*
X253471429Y-202478571D02*
X252614286Y-202478571D01*
X253042858Y-202478571D02*
X253042858Y-200978571D01*
X252900001Y-201192857D01*
X252757143Y-201335714D01*
X252614286Y-201407143D01*
D10*
D11*
X159400000Y-193400000D02*
X267400000Y-193400000D01*
D10*
D13*
X160852381Y-194104762D02*
X161995238Y-194104762D01*
X161173810Y-196104762D02*
X161423810Y-194104762D01*
X162411905Y-196104762D02*
X162578571Y-194771429D01*
X162661905Y-194104762D02*
X162554762Y-194200000D01*
X162638095Y-194295238D01*
X162745239Y-194200000D01*
X162661905Y-194104762D01*
X162638095Y-194295238D01*
X163245238Y-194771429D02*
X164007143Y-194771429D01*
X163614286Y-194104762D02*
X163400000Y-195819048D01*
X163471430Y-196009524D01*
X163650001Y-196104762D01*
X163840477Y-196104762D01*
X164792858Y-196104762D02*
X164614287Y-196009524D01*
X164542857Y-195819048D01*
X164757143Y-194104762D01*
X166328572Y-196009524D02*
X166126191Y-196104762D01*
X165745239Y-196104762D01*
X165566667Y-196009524D01*
X165495238Y-195819048D01*
X165590476Y-195057143D01*
X165709524Y-194866667D01*
X165911905Y-194771429D01*
X166292857Y-194771429D01*
X166471429Y-194866667D01*
X166542857Y-195057143D01*
X166519048Y-195247619D01*
X165542857Y-195438095D01*
X167292857Y-195914286D02*
X167376192Y-196009524D01*
X167269048Y-196104762D01*
X167185715Y-196009524D01*
X167292857Y-195914286D01*
X167269048Y-196104762D01*
X167423810Y-194866667D02*
X167507144Y-194961905D01*
X167400000Y-195057143D01*
X167316667Y-194961905D01*
X167423810Y-194866667D01*
X167400000Y-195057143D01*
X169745239Y-196104762D02*
X169995239Y-194104762D01*
X170483334Y-195533333D01*
X171328573Y-194104762D01*
X171078573Y-196104762D01*
X172030953Y-196104762D02*
X172280953Y-194104762D01*
X173614287Y-194104762D02*
X173995239Y-194104762D01*
X174173810Y-194200000D01*
X174340478Y-194390476D01*
X174388096Y-194771429D01*
X174304763Y-195438095D01*
X174161906Y-195819048D01*
X173947620Y-196009524D01*
X173745239Y-196104762D01*
X173364287Y-196104762D01*
X173185716Y-196009524D01*
X173019048Y-195819048D01*
X172971429Y-195438095D01*
X173054762Y-194771429D01*
X173197620Y-194390476D01*
X173411906Y-194200000D01*
X173614287Y-194104762D01*
X175078572Y-196104762D02*
X175328572Y-194104762D01*
X175816667Y-195533333D01*
X176661906Y-194104762D01*
X176411906Y-196104762D01*
X177280953Y-196009524D02*
X177554763Y-196104762D01*
X178030953Y-196104762D01*
X178233334Y-196009524D01*
X178340476Y-195914286D01*
X178459525Y-195723810D01*
X178483334Y-195533333D01*
X178411905Y-195342857D01*
X178328572Y-195247619D01*
X178150000Y-195152381D01*
X177780953Y-195057143D01*
X177602382Y-194961905D01*
X177519048Y-194866667D01*
X177447619Y-194676190D01*
X177471429Y-194485714D01*
X177590476Y-194295238D01*
X177697620Y-194200000D01*
X177900001Y-194104762D01*
X178376191Y-194104762D01*
X178650001Y-194200000D01*
X179245238Y-195533333D02*
X180197619Y-195533333D01*
X178983334Y-196104762D02*
X179900001Y-194104762D01*
X180316668Y-196104762D01*
X182507144Y-196104762D02*
X182757144Y-194104762D01*
X182661906Y-194866667D02*
X182864287Y-194771429D01*
X183245239Y-194771429D01*
X183423811Y-194866667D01*
X183507144Y-194961905D01*
X183578572Y-195152381D01*
X183507144Y-195723810D01*
X183388096Y-195914286D01*
X183280954Y-196009524D01*
X183078573Y-196104762D01*
X182697621Y-196104762D01*
X182519049Y-196009524D01*
X184602383Y-196104762D02*
X184423812Y-196009524D01*
X184340477Y-195914286D01*
X184269049Y-195723810D01*
X184340477Y-195152381D01*
X184459525Y-194961905D01*
X184566669Y-194866667D01*
X184769049Y-194771429D01*
X185054763Y-194771429D01*
X185233335Y-194866667D01*
X185316668Y-194961905D01*
X185388096Y-195152381D01*
X185316668Y-195723810D01*
X185197620Y-195914286D01*
X185090478Y-196009524D01*
X184888097Y-196104762D01*
X184602383Y-196104762D01*
X186292858Y-194771429D02*
X186126192Y-196104762D01*
X186269049Y-194961905D02*
X186376193Y-194866667D01*
X186578573Y-194771429D01*
X186864287Y-194771429D01*
X187042859Y-194866667D01*
X187114287Y-195057143D01*
X186983335Y-196104762D01*
X188792859Y-196104762D02*
X189042859Y-194104762D01*
X188804764Y-196009524D02*
X188602383Y-196104762D01*
X188221431Y-196104762D01*
X188042860Y-196009524D01*
X187959525Y-195914286D01*
X187888097Y-195723810D01*
X187959525Y-195152381D01*
X188078573Y-194961905D01*
X188185717Y-194866667D01*
X188388097Y-194771429D01*
X188769049Y-194771429D01*
X188947621Y-194866667D01*
X189745240Y-196104762D02*
X189911906Y-194771429D01*
X189995240Y-194104762D02*
X189888097Y-194200000D01*
X189971430Y-194295238D01*
X190078574Y-194200000D01*
X189995240Y-194104762D01*
X189971430Y-194295238D01*
X190864287Y-194771429D02*
X190697621Y-196104762D01*
X190840478Y-194961905D02*
X190947622Y-194866667D01*
X191150002Y-194771429D01*
X191435716Y-194771429D01*
X191614288Y-194866667D01*
X191685716Y-195057143D01*
X191554764Y-196104762D01*
X193530954Y-194771429D02*
X193328573Y-196390476D01*
X193209526Y-196580952D01*
X193102383Y-196676190D01*
X192900002Y-196771429D01*
X192614288Y-196771429D01*
X192435716Y-196676190D01*
X193376193Y-196009524D02*
X193173812Y-196104762D01*
X192792860Y-196104762D01*
X192614289Y-196009524D01*
X192530954Y-195914286D01*
X192459526Y-195723810D01*
X192530954Y-195152381D01*
X192650002Y-194961905D01*
X192757146Y-194866667D01*
X192959526Y-194771429D01*
X193340478Y-194771429D01*
X193519050Y-194866667D01*
X195840479Y-196104762D02*
X196090479Y-194104762D01*
X195995241Y-194866667D02*
X196197622Y-194771429D01*
X196578574Y-194771429D01*
X196757146Y-194866667D01*
X196840479Y-194961905D01*
X196911907Y-195152381D01*
X196840479Y-195723810D01*
X196721431Y-195914286D01*
X196614289Y-196009524D01*
X196411908Y-196104762D01*
X196030956Y-196104762D01*
X195852384Y-196009524D01*
X197935718Y-196104762D02*
X197757147Y-196009524D01*
X197673812Y-195914286D01*
X197602384Y-195723810D01*
X197673812Y-195152381D01*
X197792860Y-194961905D01*
X197900004Y-194866667D01*
X198102384Y-194771429D01*
X198388098Y-194771429D01*
X198566670Y-194866667D01*
X198650003Y-194961905D01*
X198721431Y-195152381D01*
X198650003Y-195723810D01*
X198530955Y-195914286D01*
X198423813Y-196009524D01*
X198221432Y-196104762D01*
X197935718Y-196104762D01*
X200316670Y-196104762D02*
X200447622Y-195057143D01*
X200376194Y-194866667D01*
X200197622Y-194771429D01*
X199816670Y-194771429D01*
X199614289Y-194866667D01*
X200328575Y-196009524D02*
X200126194Y-196104762D01*
X199650004Y-196104762D01*
X199471432Y-196009524D01*
X199400003Y-195819048D01*
X199423813Y-195628571D01*
X199542860Y-195438095D01*
X199745242Y-195342857D01*
X200221432Y-195342857D01*
X200423813Y-195247619D01*
X201269051Y-196104762D02*
X201435717Y-194771429D01*
X201388098Y-195152381D02*
X201507147Y-194961905D01*
X201614290Y-194866667D01*
X201816670Y-194771429D01*
X202007146Y-194771429D01*
X203364289Y-196104762D02*
X203614289Y-194104762D01*
X203376194Y-196009524D02*
X203173813Y-196104762D01*
X202792861Y-196104762D01*
X202614290Y-196009524D01*
X202530955Y-195914286D01*
X202459527Y-195723810D01*
X202530955Y-195152381D01*
X202650003Y-194961905D01*
X202757147Y-194866667D01*
X202959527Y-194771429D01*
X203340479Y-194771429D01*
X203519051Y-194866667D01*
D10*
D11*
X161257143Y-191492857D02*
X160757143Y-191492857D01*
X160757143Y-192278571D02*
X160757143Y-190778571D01*
X161471429Y-190778571D01*
X162042857Y-192278571D02*
X162042857Y-191278571D01*
X162042857Y-190778571D02*
X161971428Y-190850000D01*
X162042857Y-190921429D01*
X162114285Y-190850000D01*
X162042857Y-190778571D01*
X162042857Y-190921429D01*
X162971429Y-192278571D02*
X162828571Y-192207143D01*
X162757143Y-192064286D01*
X162757143Y-190778571D01*
X164114285Y-192207143D02*
X163971428Y-192278571D01*
X163685714Y-192278571D01*
X163542857Y-192207143D01*
X163471428Y-192064286D01*
X163471428Y-191492857D01*
X163542857Y-191350000D01*
X163685714Y-191278571D01*
X163971428Y-191278571D01*
X164114285Y-191350000D01*
X164185714Y-191492857D01*
X164185714Y-191635714D01*
X163471428Y-191778571D01*
X164828571Y-192135714D02*
X164899999Y-192207143D01*
X164828571Y-192278571D01*
X164757142Y-192207143D01*
X164828571Y-192135714D01*
X164828571Y-192278571D01*
X164828571Y-191350000D02*
X164899999Y-191421429D01*
X164828571Y-191492857D01*
X164757142Y-191421429D01*
X164828571Y-191350000D01*
X164828571Y-191492857D01*
X166542857Y-191278571D02*
X166900000Y-192278571D01*
X167257142Y-191278571D01*
X168471428Y-192207143D02*
X168328571Y-192278571D01*
X168042857Y-192278571D01*
X167899999Y-192207143D01*
X167828571Y-192135714D01*
X167757142Y-191992857D01*
X167757142Y-191564286D01*
X167828571Y-191421429D01*
X167899999Y-191350000D01*
X168042857Y-191278571D01*
X168328571Y-191278571D01*
X168471428Y-191350000D01*
X168757142Y-192421429D02*
X169899999Y-192421429D01*
X170257142Y-192278571D02*
X170257142Y-190778571D01*
X170257142Y-191350000D02*
X170399999Y-191278571D01*
X170685713Y-191278571D01*
X170828570Y-191350000D01*
X170899999Y-191421429D01*
X170971428Y-191564286D01*
X170971428Y-191992857D01*
X170899999Y-192135714D01*
X170828570Y-192207143D01*
X170685713Y-192278571D01*
X170399999Y-192278571D01*
X170257142Y-192207143D01*
X171828571Y-192278571D02*
X171685713Y-192207143D01*
X171614285Y-192135714D01*
X171542856Y-191992857D01*
X171542856Y-191564286D01*
X171614285Y-191421429D01*
X171685713Y-191350000D01*
X171828571Y-191278571D01*
X172042856Y-191278571D01*
X172185713Y-191350000D01*
X172257142Y-191421429D01*
X172328571Y-191564286D01*
X172328571Y-191992857D01*
X172257142Y-192135714D01*
X172185713Y-192207143D01*
X172042856Y-192278571D01*
X171828571Y-192278571D01*
X173614285Y-192278571D02*
X173614285Y-191492857D01*
X173542856Y-191350000D01*
X173399999Y-191278571D01*
X173114285Y-191278571D01*
X172971428Y-191350000D01*
X173614285Y-192207143D02*
X173471428Y-192278571D01*
X173114285Y-192278571D01*
X172971428Y-192207143D01*
X172899999Y-192064286D01*
X172899999Y-191921429D01*
X172971428Y-191778571D01*
X173114285Y-191707143D01*
X173471428Y-191707143D01*
X173614285Y-191635714D01*
X174328571Y-192278571D02*
X174328571Y-191278571D01*
X174328571Y-191564286D02*
X174399999Y-191421429D01*
X174471428Y-191350000D01*
X174614285Y-191278571D01*
X174757142Y-191278571D01*
X175899999Y-192278571D02*
X175899999Y-190778571D01*
X175899999Y-192207143D02*
X175757142Y-192278571D01*
X175471428Y-192278571D01*
X175328570Y-192207143D01*
X175257142Y-192135714D01*
X175185713Y-191992857D01*
X175185713Y-191564286D01*
X175257142Y-191421429D01*
X175328570Y-191350000D01*
X175471428Y-191278571D01*
X175757142Y-191278571D01*
X175899999Y-191350000D01*
X176614285Y-192135714D02*
X176685713Y-192207143D01*
X176614285Y-192278571D01*
X176542856Y-192207143D01*
X176614285Y-192135714D01*
X176614285Y-192278571D01*
X177328571Y-192278571D02*
X177328571Y-190778571D01*
X177471428Y-191707143D02*
X177899999Y-192278571D01*
X177899999Y-191278571D02*
X177328571Y-191850000D01*
X178542857Y-192278571D02*
X178542857Y-191278571D01*
X178542857Y-190778571D02*
X178471428Y-190850000D01*
X178542857Y-190921429D01*
X178614285Y-190850000D01*
X178542857Y-190778571D01*
X178542857Y-190921429D01*
X179900000Y-192207143D02*
X179757143Y-192278571D01*
X179471429Y-192278571D01*
X179328571Y-192207143D01*
X179257143Y-192135714D01*
X179185714Y-191992857D01*
X179185714Y-191564286D01*
X179257143Y-191421429D01*
X179328571Y-191350000D01*
X179471429Y-191278571D01*
X179757143Y-191278571D01*
X179900000Y-191350000D01*
X181185714Y-192278571D02*
X181185714Y-191492857D01*
X181114285Y-191350000D01*
X180971428Y-191278571D01*
X180685714Y-191278571D01*
X180542857Y-191350000D01*
X181185714Y-192207143D02*
X181042857Y-192278571D01*
X180685714Y-192278571D01*
X180542857Y-192207143D01*
X180471428Y-192064286D01*
X180471428Y-191921429D01*
X180542857Y-191778571D01*
X180685714Y-191707143D01*
X181042857Y-191707143D01*
X181185714Y-191635714D01*
X182542857Y-192278571D02*
X182542857Y-190778571D01*
X182542857Y-192207143D02*
X182400000Y-192278571D01*
X182114286Y-192278571D01*
X181971428Y-192207143D01*
X181900000Y-192135714D01*
X181828571Y-191992857D01*
X181828571Y-191564286D01*
X181900000Y-191421429D01*
X181971428Y-191350000D01*
X182114286Y-191278571D01*
X182400000Y-191278571D01*
X182542857Y-191350000D01*
X182900000Y-192421429D02*
X184042857Y-192421429D01*
X184400000Y-191278571D02*
X184400000Y-192778571D01*
X184400000Y-191350000D02*
X184542857Y-191278571D01*
X184828571Y-191278571D01*
X184971428Y-191350000D01*
X185042857Y-191421429D01*
X185114286Y-191564286D01*
X185114286Y-191992857D01*
X185042857Y-192135714D01*
X184971428Y-192207143D01*
X184828571Y-192278571D01*
X184542857Y-192278571D01*
X184400000Y-192207143D01*
X186400000Y-192207143D02*
X186257143Y-192278571D01*
X185971429Y-192278571D01*
X185828571Y-192207143D01*
X185757143Y-192135714D01*
X185685714Y-191992857D01*
X185685714Y-191564286D01*
X185757143Y-191421429D01*
X185828571Y-191350000D01*
X185971429Y-191278571D01*
X186257143Y-191278571D01*
X186400000Y-191350000D01*
X187042857Y-192278571D02*
X187042857Y-190778571D01*
X187042857Y-191350000D02*
X187185714Y-191278571D01*
X187471428Y-191278571D01*
X187614285Y-191350000D01*
X187685714Y-191421429D01*
X187757143Y-191564286D01*
X187757143Y-191992857D01*
X187685714Y-192135714D01*
X187614285Y-192207143D01*
X187471428Y-192278571D01*
X187185714Y-192278571D01*
X187042857Y-192207143D01*
D10*
D11*
X159400000Y-187400000D02*
X267400000Y-187400000D01*
D10*
D11*
X160685714Y-189507143D02*
X160900000Y-189578571D01*
X161257143Y-189578571D01*
X161400000Y-189507143D01*
X161471429Y-189435714D01*
X161542857Y-189292857D01*
X161542857Y-189150000D01*
X161471429Y-189007143D01*
X161400000Y-188935714D01*
X161257143Y-188864286D01*
X160971429Y-188792857D01*
X160828571Y-188721429D01*
X160757143Y-188650000D01*
X160685714Y-188507143D01*
X160685714Y-188364286D01*
X160757143Y-188221429D01*
X160828571Y-188150000D01*
X160971429Y-188078571D01*
X161328571Y-188078571D01*
X161542857Y-188150000D01*
X162185714Y-189578571D02*
X162185714Y-188078571D01*
X162828571Y-189578571D02*
X162828571Y-188792857D01*
X162757142Y-188650000D01*
X162614285Y-188578571D01*
X162400000Y-188578571D01*
X162257142Y-188650000D01*
X162185714Y-188721429D01*
X164114285Y-189507143D02*
X163971428Y-189578571D01*
X163685714Y-189578571D01*
X163542857Y-189507143D01*
X163471428Y-189364286D01*
X163471428Y-188792857D01*
X163542857Y-188650000D01*
X163685714Y-188578571D01*
X163971428Y-188578571D01*
X164114285Y-188650000D01*
X164185714Y-188792857D01*
X164185714Y-188935714D01*
X163471428Y-189078571D01*
X165399999Y-189507143D02*
X165257142Y-189578571D01*
X164971428Y-189578571D01*
X164828571Y-189507143D01*
X164757142Y-189364286D01*
X164757142Y-188792857D01*
X164828571Y-188650000D01*
X164971428Y-188578571D01*
X165257142Y-188578571D01*
X165399999Y-188650000D01*
X165471428Y-188792857D01*
X165471428Y-188935714D01*
X164757142Y-189078571D01*
X165899999Y-188578571D02*
X166471428Y-188578571D01*
X166114285Y-188078571D02*
X166114285Y-189364286D01*
X166185713Y-189507143D01*
X166328571Y-189578571D01*
X166471428Y-189578571D01*
X166971428Y-189435714D02*
X167042856Y-189507143D01*
X166971428Y-189578571D01*
X166899999Y-189507143D01*
X166971428Y-189435714D01*
X166971428Y-189578571D01*
X166971428Y-188650000D02*
X167042856Y-188721429D01*
X166971428Y-188792857D01*
X166899999Y-188721429D01*
X166971428Y-188650000D01*
X166971428Y-188792857D01*
D10*
D12*
X161471429Y-186578571D02*
X160757143Y-186578571D01*
X160757143Y-185078571D01*
X162471429Y-185792857D02*
X162685715Y-185864286D01*
X162757143Y-185935714D01*
X162828572Y-186078571D01*
X162828572Y-186292857D01*
X162757143Y-186435714D01*
X162685715Y-186507143D01*
X162542857Y-186578571D01*
X161971429Y-186578571D01*
X161971429Y-185078571D01*
X162471429Y-185078571D01*
X162614286Y-185150000D01*
X162685715Y-185221429D01*
X162757143Y-185364286D01*
X162757143Y-185507143D01*
X162685715Y-185650000D01*
X162614286Y-185721429D01*
X162471429Y-185792857D01*
X161971429Y-185792857D01*
X163471429Y-186578571D02*
X163471429Y-185078571D01*
X164328572Y-186578571D01*
X164328572Y-185078571D01*
X165757144Y-186578571D02*
X165042858Y-186578571D01*
X165042858Y-185078571D01*
D10*
D11*
X179400000Y-197400000D02*
X179400000Y-200400000D01*
D10*
D11*
X243400000Y-197400000D02*
X243400000Y-203900000D01*
D14*
X140418820Y-148023580D03*
X139148820Y-148023580D03*
X137878820Y-148023580D03*
X136608820Y-148023580D03*
X135338820Y-148023580D03*
X134068820Y-148023580D03*
X132798820Y-148023580D03*
X131528820Y-148023580D03*
X130258820Y-148023580D03*
X128988820Y-148023580D03*
X127718820Y-148023580D03*
X126448820Y-148023580D03*
X125178820Y-148023580D03*
X123908820Y-148023580D03*
X122638820Y-148023580D03*
X121368820Y-148023580D03*
X120098820Y-148023580D03*
X118828820Y-148023580D03*
X117558820Y-148023580D03*
X116288820Y-148023580D03*
X140418820Y-146753580D03*
X139148820Y-146753580D03*
X137878820Y-146753580D03*
X136608820Y-146753580D03*
X135338820Y-146753580D03*
X134068820Y-146753580D03*
X132798820Y-146753580D03*
X131528820Y-146753580D03*
X130258820Y-146753580D03*
X128988820Y-146753580D03*
X127718820Y-146753580D03*
X126448820Y-146753580D03*
X125178820Y-146753580D03*
X123908820Y-146753580D03*
X122638820Y-146753580D03*
X121368820Y-146753580D03*
X120098820Y-146753580D03*
X118828820Y-146753580D03*
X117558820Y-146753580D03*
X116288820Y-146753580D03*
D15*
X113845520Y-121973380D03*
X113845520Y-121023380D03*
X113845520Y-120073380D03*
X111645520Y-120073380D03*
X111645520Y-121973380D03*
D16*
X125165880Y-131107800D03*
X124665880Y-131107800D03*
X124165880Y-131107800D03*
X123665880Y-131107800D03*
X123165880Y-131107800D03*
X122665880Y-131107800D03*
X122165880Y-131107800D03*
X121665880Y-131107800D03*
X121165880Y-131107800D03*
X120665880Y-131107800D03*
X120165880Y-131107800D03*
X119665880Y-131107800D03*
X119165880Y-131107800D03*
X118665880Y-131107800D03*
X118165880Y-131107800D03*
X117665880Y-131107800D03*
X117165880Y-131107800D03*
X116665880Y-131107800D03*
X116165880Y-131107800D03*
X115665880Y-131107800D03*
X115165880Y-131107800D03*
X114665880Y-131107800D03*
X114165880Y-131107800D03*
X113665880Y-131107800D03*
X113665880Y-138607800D03*
X114165880Y-138607800D03*
X114665880Y-138607800D03*
X115165880Y-138607800D03*
X115665880Y-138607800D03*
X116165880Y-138607800D03*
X116665880Y-138607800D03*
X117165880Y-138607800D03*
X117665880Y-138607800D03*
X118165880Y-138607800D03*
X118665880Y-138607800D03*
X119165880Y-138607800D03*
X119665880Y-138607800D03*
X120165880Y-138607800D03*
X120665880Y-138607800D03*
X121165880Y-138607800D03*
X121665880Y-138607800D03*
X122165880Y-138607800D03*
X122665880Y-138607800D03*
X123165880Y-138607800D03*
X123665880Y-138607800D03*
X124165880Y-138607800D03*
X124665880Y-138607800D03*
X125165880Y-138607800D03*
D17*
X157195520Y-142529560D03*
X153197560Y-142529560D03*
X102961440Y-142529560D03*
X98963480Y-142529560D03*
D18*
X153199400Y-140299440D03*
X154699400Y-140299440D03*
X98970400Y-140299440D03*
X100470400Y-140299440D03*
X157198760Y-128508760D03*
X155698760Y-128508760D03*
X102974840Y-128435100D03*
X101474840Y-128435100D03*
D17*
X153202640Y-130680460D03*
X157200600Y-130680460D03*
X98963480Y-130614420D03*
X102961440Y-130614420D03*
D19*
X96520000Y-112510000D03*
X96520000Y-111010000D03*
X111770160Y-132605780D03*
X111770160Y-131105780D03*
X93980000Y-112510000D03*
X93980000Y-111010000D03*
X111770160Y-138605960D03*
X111770160Y-137105960D03*
X108442760Y-121974040D03*
X108442760Y-120474040D03*
X164175440Y-126882460D03*
X164175440Y-128382460D03*
X162499040Y-126882460D03*
X162499040Y-128382460D03*
X101600000Y-112510000D03*
X101600000Y-111010000D03*
X126977140Y-132611560D03*
X126977140Y-131111560D03*
X99060000Y-112510000D03*
X99060000Y-111010000D03*
X163080700Y-119171020D03*
X163080700Y-120671020D03*
X110075980Y-121974040D03*
X110075980Y-120474040D03*
X114622580Y-124682820D03*
X114622580Y-126182820D03*
D18*
X150308880Y-121625360D03*
X151808880Y-121625360D03*
X144981800Y-121632980D03*
X146481800Y-121632980D03*
D19*
X126977140Y-138605960D03*
X126977140Y-137105960D03*
X140093700Y-133556440D03*
X140093700Y-132056440D03*
X130822700Y-133556440D03*
X130822700Y-132056440D03*
D18*
X158169040Y-122207020D03*
X156669040Y-122207020D03*
D20*
X141728760Y-126547880D03*
X143228760Y-126547880D03*
X143225679Y-124774743D03*
X144725679Y-124774743D03*
D21*
X156156660Y-114317080D03*
X156156660Y-115817080D03*
X154604720Y-114317080D03*
X154604720Y-115817080D03*
D20*
X124093540Y-126705360D03*
X125593540Y-126705360D03*
X123693620Y-124241560D03*
X122193620Y-124241560D03*
X120197180Y-126705360D03*
X121697180Y-126705360D03*
X119489920Y-124241560D03*
X117989920Y-124241560D03*
X144728500Y-126547880D03*
X146228500Y-126547880D03*
X146019679Y-124774743D03*
X147519679Y-124774743D03*
X147519960Y-126552743D03*
X149019960Y-126552743D03*
X149021100Y-124769880D03*
X150521100Y-124769880D03*
D22*
X132473320Y-137952480D03*
X133123320Y-137952480D03*
X133773320Y-137952480D03*
X134423320Y-137952480D03*
X135073320Y-137952480D03*
X135723320Y-137952480D03*
X136373320Y-137952480D03*
X137023320Y-137952480D03*
X137673320Y-137952480D03*
X138323320Y-137952480D03*
X138323320Y-132052480D03*
X137673320Y-132052480D03*
X137023320Y-132052480D03*
X136373320Y-132052480D03*
X135723320Y-132052480D03*
X135073320Y-132052480D03*
X134423320Y-132052480D03*
X133773320Y-132052480D03*
X133123320Y-132052480D03*
X132473320Y-132052480D03*
D23*
X150305660Y-119988840D03*
X150305660Y-119488840D03*
X150305660Y-118988840D03*
X150305660Y-118488840D03*
X150305660Y-117988840D03*
X146005660Y-117988840D03*
X146005660Y-118488840D03*
X146005660Y-118988840D03*
X146005660Y-119488840D03*
X146005660Y-119988840D03*
D24*
X105580180Y-135724900D03*
D25*
X98976180Y-135724900D03*
X98976180Y-138010900D03*
X98976180Y-133438900D03*
D24*
X159809180Y-135724900D03*
D25*
X153205180Y-135724900D03*
X153205180Y-138010900D03*
X153205180Y-133438900D03*
D26*
X107345500Y-124680980D03*
X107345500Y-125950980D03*
X107345500Y-127220980D03*
X107345500Y-128490980D03*
X112745500Y-128490980D03*
X112745500Y-127220980D03*
X112745500Y-125950980D03*
X112745500Y-124680980D03*
D27*
X156666840Y-118519300D03*
X156666840Y-119169300D03*
X156666840Y-119819300D03*
X156666840Y-120469300D03*
X161066840Y-120469300D03*
X161066840Y-119819300D03*
X161066840Y-119169300D03*
X161066840Y-118519300D03*
D28*
X96619060Y-137002520D03*
X96619060Y-138018520D03*
X150832820Y-137005060D03*
X150832820Y-138021060D03*
D29*
X139446000Y-83374140D03*
X139446000Y-83924140D03*
D30*
X163545520Y-147914360D03*
D31*
X163545520Y-145374360D03*
D32*
X120906540Y-83167220D03*
X121696480Y-83167220D03*
D33*
X122102880Y-83357720D03*
D34*
X123296680Y-83357720D03*
D32*
X123804680Y-83167220D03*
D35*
X123804680Y-83357720D03*
D32*
X124526040Y-83167220D03*
D36*
X124526040Y-83357720D03*
D32*
X127386080Y-83167220D03*
D37*
X126839980Y-83357720D03*
D32*
X127713740Y-83167220D03*
X128036320Y-83167220D03*
X128336040Y-83167220D03*
X128666240Y-83167220D03*
X128965960Y-83167220D03*
X129578100Y-83167220D03*
D38*
X129402840Y-83357720D03*
D32*
X129887980Y-83167220D03*
X130187700Y-83167220D03*
X130487420Y-83167220D03*
X130787140Y-83167220D03*
X131086860Y-83167220D03*
X131566920Y-83167220D03*
D39*
X131566920Y-83357720D03*
D32*
X132148580Y-83167220D03*
D40*
X132148580Y-83357720D03*
D32*
X132798820Y-83167220D03*
D41*
X132798820Y-83357720D03*
D32*
X133388100Y-83167220D03*
D42*
X133606540Y-83357720D03*
D32*
X134266940Y-83167220D03*
X134576820Y-83167220D03*
X134896860Y-83167220D03*
X135216900Y-83167220D03*
X135526780Y-83167220D03*
X135836660Y-83167220D03*
X136578340Y-83167220D03*
D36*
X136324340Y-83357720D03*
D32*
X137238740Y-83167220D03*
X138539220Y-83167220D03*
D43*
X138539220Y-83357720D03*
D34*
X137924540Y-83357720D03*
D43*
X137238740Y-83357720D03*
D44*
X129542540Y-83929220D03*
D29*
X125122940Y-83933120D03*
X125122940Y-83383120D03*
X125816360Y-83379900D03*
X125816360Y-83929900D03*
D45*
X153116280Y-154302460D03*
D46*
X150576280Y-154302460D03*
X148036280Y-154302460D03*
X145496280Y-154302460D03*
X142956280Y-154302460D03*
X140416280Y-154302460D03*
X137876280Y-154302460D03*
X135336280Y-154302460D03*
X132796280Y-154302460D03*
X130256280Y-154302460D03*
X127716280Y-154302460D03*
X125176280Y-154302460D03*
X122636280Y-154302460D03*
X120096280Y-154302460D03*
X117556280Y-154302460D03*
X115016280Y-154302460D03*
X112476280Y-154302460D03*
X109936280Y-154302460D03*
X107396280Y-154302460D03*
X104856280Y-154302460D03*
X153116280Y-157350460D03*
X150576280Y-157350460D03*
X148036280Y-157350460D03*
X145496280Y-157350460D03*
X142956280Y-157350460D03*
X140416280Y-157350460D03*
X137876280Y-157350460D03*
X135336280Y-157350460D03*
X132796280Y-157350460D03*
X130256280Y-157350460D03*
X127716280Y-157350460D03*
X125176280Y-157350460D03*
X122636280Y-157350460D03*
X120096280Y-157350460D03*
X117556280Y-157350460D03*
X115016280Y-157350460D03*
X112476280Y-157350460D03*
X109936280Y-157350460D03*
X107396280Y-157350460D03*
X104856280Y-157350460D03*
D47*
X154901900Y-118519300D03*
X156156660Y-116646960D03*
X117218460Y-83167220D03*
X108899960Y-124680980D03*
X113845340Y-119179340D03*
X134040880Y-82397600D03*
X137675620Y-130726180D03*
X136273540Y-122913140D03*
X136222629Y-82124258D03*
X135692535Y-82425280D03*
X135072120Y-126243080D03*
X136372600Y-128343660D03*
X134567147Y-82089936D03*
X135176658Y-82100495D03*
X132468620Y-130703320D03*
X159814260Y-120469660D03*
X140886180Y-121942860D03*
X120957340Y-121970800D03*
D48*
X118767860Y-83934300D03*
X140296900Y-83929220D03*
D47*
X129542540Y-84373720D03*
D49*
X102671880Y-111010700D03*
X100134420Y-111015780D03*
X97594420Y-111008160D03*
X95054420Y-111013240D03*
D47*
X114841020Y-121023380D03*
X114625120Y-127157480D03*
X161467800Y-128381760D03*
X165199060Y-128386840D03*
X107414060Y-120474740D03*
X108440220Y-119494300D03*
X163984940Y-120670320D03*
X163080700Y-121648220D03*
X135732520Y-130093720D03*
X133129020Y-130098800D03*
X110075980Y-119496840D03*
X112737900Y-129329180D03*
X106017060Y-127220980D03*
X155689300Y-122209560D03*
X149263100Y-117993160D03*
X151808180Y-122654060D03*
X146484340Y-122664220D03*
X146232880Y-127627380D03*
X150517860Y-125849380D03*
X125991620Y-137106660D03*
X119164100Y-137627360D03*
X125968760Y-131109720D03*
X112666780Y-131104640D03*
X114160300Y-132006340D03*
X112643920Y-137104120D03*
X140098780Y-131074160D03*
X130822700Y-131094480D03*
D50*
X154528520Y-128508760D03*
X151061420Y-130677920D03*
X155869640Y-140294360D03*
X159331660Y-142527020D03*
X101475540Y-127213360D03*
X96771460Y-130616960D03*
X100683060Y-133431280D03*
X101589840Y-140296900D03*
X105130600Y-142529560D03*
D47*
X115651280Y-124686060D03*
X165204140Y-126885700D03*
X161470340Y-126883160D03*
X107419140Y-121973340D03*
X163080700Y-118191280D03*
X164109400Y-119171720D03*
X126974600Y-133588760D03*
X126004320Y-132613400D03*
D51*
X157634940Y-127508000D03*
X158577280Y-127508000D03*
D47*
X114663220Y-137614660D03*
X158168340Y-123238260D03*
X157236160Y-114317780D03*
D51*
X158574740Y-128508760D03*
D47*
X150304500Y-122656600D03*
X144980660Y-122661680D03*
X146019520Y-123695460D03*
X141729460Y-127627380D03*
D51*
X126974600Y-139585700D03*
X111770160Y-139588240D03*
X111767620Y-133588760D03*
X140091160Y-134536180D03*
X130825240Y-134536180D03*
D47*
X129372006Y-81686295D03*
X133395720Y-82410300D03*
X132801360Y-82415380D03*
X136906000Y-82402680D03*
X138536680Y-82598260D03*
X126842520Y-82887820D03*
X124170440Y-82405220D03*
X121696480Y-82420460D03*
D49*
X95051880Y-112511840D03*
X97596960Y-112509300D03*
X100126800Y-112511840D03*
X102666800Y-112514380D03*
D47*
X103751380Y-127500380D03*
X103751380Y-126850140D03*
X103751380Y-126243080D03*
X102974140Y-126243080D03*
X102974140Y-126867920D03*
X102974140Y-127497840D03*
X127347730Y-82061218D03*
X121657280Y-135778240D03*
X128035730Y-82061218D03*
X122345280Y-135778240D03*
X122609720Y-142308580D03*
X124174140Y-136959340D03*
X120806320Y-135722360D03*
X121829720Y-142308580D03*
X124954140Y-136959340D03*
X120026320Y-135722360D03*
X130327400Y-82395060D03*
X125275936Y-95321716D03*
X130157232Y-81809691D03*
X125762424Y-95808204D03*
X131999681Y-81932276D03*
X124019774Y-99326104D03*
X131311681Y-81932276D03*
X123533286Y-98839616D03*
X128865244Y-82392513D03*
X128414739Y-85389720D03*
X120256756Y-97256756D03*
X118848040Y-134675880D03*
X128604377Y-81841548D03*
X129102739Y-85389720D03*
X120743244Y-97743244D03*
X119536040Y-134675880D03*
D52*
X153766160Y-118519300D02*
X154901900Y-118519300D01*
X154901900Y-118519300D02*
X156666840Y-118519300D01*
X156156660Y-115817080D02*
X156156660Y-116646960D01*
X152796620Y-119488840D02*
X153766160Y-118519300D01*
X150305660Y-119488840D02*
X152796620Y-119488840D01*
X153492200Y-117800120D02*
X154607260Y-117800120D01*
X154607260Y-117800120D02*
X157695900Y-117800120D01*
X154604720Y-115817080D02*
X154604720Y-116321080D01*
X154604720Y-116321080D02*
X154607260Y-116323620D01*
X154607260Y-116323620D02*
X154607260Y-117800120D01*
X158015940Y-118917720D02*
X157764360Y-119169300D01*
X157764360Y-119169300D02*
X156666840Y-119169300D01*
X158015940Y-118120160D02*
X158015940Y-118917720D01*
X157695900Y-117800120D02*
X158015940Y-118120160D01*
X152803480Y-118488840D02*
X153492200Y-117800120D01*
X150305660Y-118488840D02*
X152803480Y-118488840D01*
D53*
X120906540Y-83167220D02*
X117218460Y-83167220D01*
X107345500Y-124680980D02*
X108247500Y-124680980D01*
X108247500Y-124680980D02*
X108899960Y-124680980D01*
X113845340Y-119179340D02*
X113845340Y-120073200D01*
X113845340Y-120073200D02*
X113845520Y-120073380D01*
X134266940Y-83167220D02*
X134266940Y-82623660D01*
X134266940Y-82623660D02*
X134040880Y-82397600D01*
X137673320Y-132052480D02*
X137673320Y-130728480D01*
X137673320Y-130728480D02*
X137675620Y-130726180D01*
X136273540Y-122913140D02*
X136019541Y-123167139D01*
X136019541Y-123167139D02*
X136019541Y-123169679D01*
X136019541Y-123169679D02*
X133773320Y-125415900D01*
X133773320Y-125415900D02*
X133773320Y-131200480D01*
X133773320Y-131200480D02*
X133773320Y-132052480D01*
X136217660Y-82520425D02*
X136217660Y-82129227D01*
X136217660Y-82129227D02*
X136222629Y-82124258D01*
X135836660Y-83167220D02*
X135836660Y-82901425D01*
X135836660Y-82901425D02*
X136217660Y-82520425D01*
X135216900Y-83167220D02*
X135216900Y-82900915D01*
X135216900Y-82900915D02*
X135692535Y-82425280D01*
X135072120Y-126243080D02*
X135072120Y-132051280D01*
X135072120Y-132051280D02*
X135073320Y-132052480D01*
X136372600Y-128343660D02*
X136372600Y-130731260D01*
X134576820Y-83167220D02*
X134576820Y-82099609D01*
X134576820Y-82099609D02*
X134567147Y-82089936D01*
X136372600Y-130731260D02*
X136372600Y-132051760D01*
X136372600Y-132051760D02*
X136373320Y-132052480D01*
X134896860Y-83167220D02*
X134896860Y-82380293D01*
X134896860Y-82380293D02*
X135176658Y-82100495D01*
X132468620Y-130703320D02*
X132468620Y-132047780D01*
X132468620Y-132047780D02*
X132473320Y-132052480D01*
D52*
X159814260Y-120469660D02*
X161066480Y-120469660D01*
X161066480Y-120469660D02*
X161066840Y-120469300D01*
X113845520Y-121973380D02*
X120954760Y-121973380D01*
X120954760Y-121973380D02*
X120957340Y-121970800D01*
X113061520Y-121973380D02*
X113845520Y-121973380D01*
X112722660Y-121634520D02*
X113061520Y-121973380D01*
X112722660Y-121147840D02*
X112722660Y-121634520D01*
X112722660Y-120366520D02*
X112722660Y-121147840D01*
X112429520Y-120073380D02*
X112722660Y-120366520D01*
X112722660Y-121147840D02*
X112722660Y-121147840D01*
X111645520Y-120073380D02*
X112429520Y-120073380D01*
D54*
X129542540Y-83929220D02*
X118772940Y-83929220D01*
X118772940Y-83929220D02*
X118767860Y-83934300D01*
X129542540Y-83929220D02*
X140296900Y-83929220D01*
D52*
X129542540Y-83929220D02*
X129542540Y-84373720D01*
D55*
X101600000Y-111010000D02*
X102671180Y-111010000D01*
X102671180Y-111010000D02*
X102671880Y-111010700D01*
X99060000Y-111010000D02*
X100128640Y-111010000D01*
X100128640Y-111010000D02*
X100134420Y-111015780D01*
X96520000Y-111010000D02*
X97592580Y-111010000D01*
X97592580Y-111010000D02*
X97594420Y-111008160D01*
X93980000Y-111010000D02*
X95051180Y-111010000D01*
X95051180Y-111010000D02*
X95054420Y-111013240D01*
D52*
X113845520Y-121023380D02*
X114841020Y-121023380D01*
D55*
X114622580Y-126182820D02*
X114622580Y-127154940D01*
X114622580Y-127154940D02*
X114625120Y-127157480D01*
D52*
X162499040Y-128382460D02*
X161468500Y-128382460D01*
X161468500Y-128382460D02*
X161467800Y-128381760D01*
X164175440Y-128382460D02*
X165194680Y-128382460D01*
X165194680Y-128382460D02*
X165199060Y-128386840D01*
X162499040Y-128382460D02*
X164175440Y-128382460D01*
X108442760Y-120474040D02*
X107414760Y-120474040D01*
X107414760Y-120474040D02*
X107414060Y-120474740D01*
X108442760Y-120474040D02*
X108442760Y-119496840D01*
X108442760Y-119496840D02*
X108440220Y-119494300D01*
X108442760Y-120474040D02*
X110075980Y-120474040D01*
X163080700Y-120671020D02*
X163984240Y-120671020D01*
X163984240Y-120671020D02*
X163984940Y-120670320D01*
X163080700Y-120671020D02*
X163080700Y-121648220D01*
X125968760Y-131109720D02*
X126975300Y-131109720D01*
X126975300Y-131109720D02*
X126977140Y-131111560D01*
D55*
X135723320Y-132052480D02*
X135723320Y-130102920D01*
X135723320Y-130102920D02*
X135732520Y-130093720D01*
X133123320Y-132052480D02*
X133123320Y-130104500D01*
X133123320Y-130104500D02*
X133129020Y-130098800D01*
D52*
X110075980Y-120474040D02*
X110075980Y-119496840D01*
X112745500Y-128490980D02*
X112745500Y-129321580D01*
X112745500Y-129321580D02*
X112737900Y-129329180D01*
X112745500Y-127220980D02*
X112745500Y-128490980D01*
X107345500Y-127220980D02*
X106017060Y-127220980D01*
X156669040Y-122207020D02*
X155691840Y-122207020D01*
X155691840Y-122207020D02*
X155689300Y-122209560D01*
X156666840Y-120469300D02*
X156666840Y-122204820D01*
X156666840Y-122204820D02*
X156669040Y-122207020D01*
X150305660Y-117988840D02*
X149267420Y-117988840D01*
X149267420Y-117988840D02*
X149263100Y-117993160D01*
X151808880Y-121625360D02*
X151808880Y-122653360D01*
X151808880Y-122653360D02*
X151808180Y-122654060D01*
X146481800Y-121632980D02*
X146481800Y-122661680D01*
X146481800Y-122661680D02*
X146484340Y-122664220D01*
X146228500Y-126547880D02*
X146228500Y-127623000D01*
X146228500Y-127623000D02*
X146232880Y-127627380D01*
X150521100Y-124769880D02*
X150521100Y-125846140D01*
X150521100Y-125846140D02*
X150517860Y-125849380D01*
X126977140Y-137105960D02*
X125992320Y-137105960D01*
X125992320Y-137105960D02*
X125991620Y-137106660D01*
X119165880Y-138607800D02*
X119665880Y-138607800D01*
X119165880Y-138607800D02*
X119165880Y-137629140D01*
X119165880Y-137629140D02*
X119164100Y-137627360D01*
X125165880Y-131107800D02*
X125966840Y-131107800D01*
X125966840Y-131107800D02*
X125968760Y-131109720D01*
X124665880Y-131107800D02*
X125165880Y-131107800D01*
X124165880Y-131107800D02*
X124665880Y-131107800D01*
X111770160Y-131105780D02*
X112665640Y-131105780D01*
X112665640Y-131105780D02*
X112666780Y-131104640D01*
X114665880Y-131107800D02*
X114165880Y-131107800D01*
X114165880Y-131107800D02*
X114165880Y-132000760D01*
X114165880Y-132000760D02*
X114160300Y-132006340D01*
X111770160Y-137105960D02*
X112642080Y-137105960D01*
X112642080Y-137105960D02*
X112643920Y-137104120D01*
X140093700Y-132056440D02*
X140093700Y-131079240D01*
X140093700Y-131079240D02*
X140098780Y-131074160D01*
X130822700Y-132056440D02*
X130822700Y-131094480D01*
X138323320Y-132052480D02*
X140089740Y-132052480D01*
X140089740Y-132052480D02*
X140093700Y-132056440D01*
D56*
X155698760Y-128508760D02*
X154528520Y-128508760D01*
X153202640Y-130680460D02*
X151063960Y-130680460D01*
X151063960Y-130680460D02*
X151061420Y-130677920D01*
X153207020Y-130676080D02*
X153202640Y-130680460D01*
X153205180Y-133438900D02*
X153205180Y-130683000D01*
X153205180Y-130683000D02*
X153202640Y-130680460D01*
X154699400Y-140299440D02*
X155864560Y-140299440D01*
X155864560Y-140299440D02*
X155869640Y-140294360D01*
X157195520Y-142529560D02*
X159329120Y-142529560D01*
X159329120Y-142529560D02*
X159331660Y-142527020D01*
X101474840Y-128435100D02*
X101474840Y-127214060D01*
X98963480Y-130614420D02*
X96774000Y-130614420D01*
X96774000Y-130614420D02*
X96771460Y-130616960D01*
X98963480Y-130614420D02*
X98963480Y-129228850D01*
X98963480Y-129228850D02*
X99757230Y-128435100D01*
X99757230Y-128435100D02*
X101474840Y-128435100D01*
X98976180Y-133438900D02*
X98976180Y-130627120D01*
X98976180Y-130627120D02*
X98963480Y-130614420D01*
X98976180Y-133438900D02*
X100675440Y-133438900D01*
X100675440Y-133438900D02*
X100683060Y-133431280D01*
X98996500Y-133418580D02*
X98976180Y-133438900D01*
X100470400Y-140299440D02*
X101587300Y-140299440D01*
X101587300Y-140299440D02*
X101589840Y-140296900D01*
X102961440Y-142529560D02*
X105130600Y-142529560D01*
D57*
X132493820Y-147718580D02*
X132798820Y-148023580D01*
X132798820Y-146753580D02*
X133103820Y-147058580D01*
X132798820Y-146448580D02*
X132798820Y-146753580D01*
D58*
X150832820Y-138021060D02*
X153195020Y-138021060D01*
X153195020Y-138021060D02*
X153205180Y-138010900D01*
D59*
X140418820Y-148023580D02*
X140418820Y-146753580D01*
X139148820Y-148023580D02*
X140418820Y-148023580D01*
X139148820Y-146753580D02*
X139148820Y-148023580D01*
X139148820Y-146753580D02*
X140418820Y-146753580D01*
D56*
X153194320Y-138021760D02*
X153205180Y-138010900D01*
X153199400Y-140299440D02*
X153199400Y-138016680D01*
X153199400Y-138016680D02*
X153205180Y-138010900D01*
X153197560Y-142529560D02*
X153197560Y-140301280D01*
X153197560Y-140301280D02*
X153199400Y-140299440D01*
D58*
X96619060Y-138018520D02*
X98968560Y-138018520D01*
X98968560Y-138018520D02*
X98976180Y-138010900D01*
D59*
X117558820Y-146753580D02*
X117558820Y-148023580D01*
X116288820Y-148023580D02*
X117558820Y-148023580D01*
X116288820Y-146753580D02*
X117558820Y-146753580D01*
D56*
X98963480Y-142529560D02*
X98963480Y-140306360D01*
X98963480Y-140306360D02*
X98970400Y-140299440D01*
X98970400Y-140299440D02*
X98970400Y-138016680D01*
X98970400Y-138016680D02*
X98976180Y-138010900D01*
X116288820Y-146753580D02*
X116280781Y-146745541D01*
X116288820Y-148023580D02*
X116288820Y-146753580D01*
D55*
X114622580Y-124682820D02*
X115648040Y-124682820D01*
X115648040Y-124682820D02*
X115651280Y-124686060D01*
X112745500Y-124680980D02*
X114620740Y-124680980D01*
X114620740Y-124680980D02*
X114622580Y-124682820D01*
D58*
X157200600Y-130680460D02*
X157200600Y-135719820D01*
X157200600Y-135719820D02*
X157205680Y-135724900D01*
X153205180Y-135724900D02*
X157205680Y-135724900D01*
X157205680Y-135724900D02*
X159809180Y-135724900D01*
X150832820Y-137005060D02*
X150832820Y-136319260D01*
X150832820Y-136319260D02*
X151427180Y-135724900D01*
X151427180Y-135724900D02*
X153205180Y-135724900D01*
D52*
X164175440Y-126882460D02*
X165200900Y-126882460D01*
X165200900Y-126882460D02*
X165204140Y-126885700D01*
X162499040Y-126882460D02*
X161471040Y-126882460D01*
X161471040Y-126882460D02*
X161470340Y-126883160D01*
X162499040Y-126882460D02*
X164175440Y-126882460D01*
X108442760Y-121974040D02*
X107419840Y-121974040D01*
X107419840Y-121974040D02*
X107419140Y-121973340D01*
X108442760Y-121974040D02*
X110075980Y-121974040D01*
X163080700Y-119171020D02*
X163080700Y-118191280D01*
X163080700Y-119171020D02*
X164108700Y-119171020D01*
X164108700Y-119171020D02*
X164109400Y-119171720D01*
X163080700Y-119171020D02*
X161068560Y-119171020D01*
X161068560Y-119171020D02*
X161066840Y-119169300D01*
X126977140Y-132611560D02*
X126977140Y-133586220D01*
X126977140Y-133586220D02*
X126974600Y-133588760D01*
X126977140Y-132611560D02*
X126006160Y-132611560D01*
X126006160Y-132611560D02*
X126004320Y-132613400D01*
D55*
X158577280Y-127508000D02*
X157634940Y-127508000D01*
X158574740Y-128508760D02*
X158574740Y-127510540D01*
X158574740Y-127510540D02*
X158577280Y-127508000D01*
D52*
X114665880Y-138607800D02*
X114665880Y-137617320D01*
X114665880Y-137617320D02*
X114663220Y-137614660D01*
X110075980Y-121974040D02*
X111644860Y-121974040D01*
X111644860Y-121974040D02*
X111645520Y-121973380D01*
X112745500Y-125950980D02*
X112745500Y-124680980D01*
X158169040Y-122207020D02*
X158169040Y-123237560D01*
X158169040Y-123237560D02*
X158168340Y-123238260D01*
X158169040Y-119839040D02*
X158838780Y-119169300D01*
X158838780Y-119169300D02*
X161066840Y-119169300D01*
X158169040Y-122207020D02*
X158169040Y-119839040D01*
X156156660Y-114317080D02*
X157235460Y-114317080D01*
X157235460Y-114317080D02*
X157236160Y-114317780D01*
X154604720Y-114317080D02*
X156156660Y-114317080D01*
X149275800Y-119865140D02*
X149399500Y-119988840D01*
X149399500Y-119988840D02*
X150305660Y-119988840D01*
X149275800Y-119214700D02*
X149275800Y-119865140D01*
X150305660Y-118988840D02*
X149501660Y-118988840D01*
X149501660Y-118988840D02*
X149275800Y-119214700D01*
D55*
X157198760Y-128508760D02*
X158574740Y-128508760D01*
D52*
X150308880Y-121625360D02*
X150308880Y-122652220D01*
X150308880Y-122652220D02*
X150304500Y-122656600D01*
X144981800Y-121632980D02*
X144981800Y-122660540D01*
X144981800Y-122660540D02*
X144980660Y-122661680D01*
X144981800Y-121632980D02*
X144981800Y-120208700D01*
X144981800Y-120208700D02*
X145201660Y-119988840D01*
X145201660Y-119988840D02*
X146005660Y-119988840D01*
X150305660Y-119988840D02*
X150305660Y-121622140D01*
X150305660Y-121622140D02*
X150308880Y-121625360D01*
X146019679Y-124774743D02*
X146019679Y-123695619D01*
X146019679Y-123695619D02*
X146019520Y-123695460D01*
X141728760Y-126547880D02*
X141728760Y-127626680D01*
X141728760Y-127626680D02*
X141729460Y-127627380D01*
D55*
X126977140Y-138605960D02*
X126977140Y-139583160D01*
X126977140Y-139583160D02*
X126974600Y-139585700D01*
X111770160Y-138605960D02*
X111770160Y-139588240D01*
X111770160Y-132605780D02*
X111770160Y-133586220D01*
X111770160Y-133586220D02*
X111767620Y-133588760D01*
X140093700Y-133556440D02*
X140093700Y-134533640D01*
X140093700Y-134533640D02*
X140091160Y-134536180D01*
X130822700Y-133556440D02*
X130822700Y-134533640D01*
X130822700Y-134533640D02*
X130825240Y-134536180D01*
D52*
X125165880Y-138607800D02*
X126975300Y-138607800D01*
X126975300Y-138607800D02*
X126977140Y-138605960D01*
X124665880Y-138607800D02*
X125165880Y-138607800D01*
X124165880Y-138607800D02*
X124665880Y-138607800D01*
X119165880Y-131107800D02*
X119665880Y-131107800D01*
X118803420Y-132605780D02*
X119165880Y-132243320D01*
X119165880Y-132243320D02*
X119165880Y-131107800D01*
X111770160Y-132605780D02*
X118803420Y-132605780D01*
X113665880Y-138607800D02*
X111772000Y-138607800D01*
X111772000Y-138607800D02*
X111770160Y-138605960D01*
X114165880Y-138607800D02*
X113665880Y-138607800D01*
X140093700Y-133556440D02*
X137025380Y-133556440D01*
X137025380Y-133556440D02*
X134426960Y-133556440D01*
X137023320Y-132052480D02*
X137023320Y-133031480D01*
X137023320Y-133031480D02*
X137025380Y-133033540D01*
X137025380Y-133033540D02*
X137025380Y-133556440D01*
X134423320Y-132052480D02*
X134423320Y-133552800D01*
X134423320Y-133552800D02*
X134426960Y-133556440D01*
X134426960Y-133556440D02*
X130822700Y-133556440D01*
D56*
X157198760Y-128508760D02*
X157198760Y-130678620D01*
X157198760Y-130678620D02*
X157200600Y-130680460D01*
D53*
X129578100Y-82913220D02*
X129578100Y-81892389D01*
X129578100Y-81892389D02*
X129372006Y-81686295D01*
X133388100Y-82913220D02*
X133388100Y-82417920D01*
X133388100Y-82417920D02*
X133395720Y-82410300D01*
X132798820Y-82913220D02*
X132798820Y-82417920D01*
X132798820Y-82417920D02*
X132801360Y-82415380D01*
X132148580Y-82913220D02*
X132798820Y-82913220D01*
X131566920Y-82913220D02*
X132148580Y-82913220D01*
X131086860Y-82913220D02*
X131566920Y-82913220D01*
X136499599Y-83586321D02*
X136578340Y-83507580D01*
X136578340Y-83507580D02*
X136578340Y-82913220D01*
X135526780Y-83532980D02*
X135580121Y-83586321D01*
X135580121Y-83586321D02*
X136499599Y-83586321D01*
X135526780Y-83421220D02*
X135526780Y-83532980D01*
X136578340Y-83357720D02*
X136578340Y-82913220D01*
X137238740Y-82913220D02*
X137238740Y-82735420D01*
X137238740Y-82735420D02*
X136906000Y-82402680D01*
X136578340Y-82913220D02*
X136578340Y-82730340D01*
X136578340Y-82730340D02*
X136906000Y-82402680D01*
X138539220Y-82913220D02*
X138539220Y-82600800D01*
X138539220Y-82600800D02*
X138536680Y-82598260D01*
X139382500Y-82913220D02*
X139446000Y-82976720D01*
X139446000Y-82976720D02*
X139446000Y-83374140D01*
X138539220Y-82913220D02*
X139382500Y-82913220D01*
X126088820Y-83379900D02*
X126111000Y-83357720D01*
X126111000Y-83357720D02*
X126839980Y-83357720D01*
X125816360Y-83379900D02*
X126088820Y-83379900D01*
X128272540Y-83611720D02*
X126903480Y-83611720D01*
X126903480Y-83611720D02*
X126839980Y-83548220D01*
X126839980Y-83548220D02*
X126839980Y-83357720D01*
X128336040Y-83167220D02*
X128336040Y-83548220D01*
X128336040Y-83548220D02*
X128272540Y-83611720D01*
X126839980Y-83357720D02*
X126839980Y-82890360D01*
X126839980Y-82890360D02*
X126842520Y-82887820D01*
X124526040Y-82913220D02*
X124526040Y-82760820D01*
X124526040Y-82760820D02*
X124170440Y-82405220D01*
X123804680Y-82913220D02*
X123804680Y-82770980D01*
X123804680Y-82770980D02*
X124170440Y-82405220D01*
X121696480Y-82913220D02*
X121696480Y-82420460D01*
D55*
X93980000Y-112510000D02*
X95050040Y-112510000D01*
X95050040Y-112510000D02*
X95051880Y-112511840D01*
X96520000Y-112510000D02*
X97596260Y-112510000D01*
X97596260Y-112510000D02*
X97596960Y-112509300D01*
X99060000Y-112510000D02*
X100124960Y-112510000D01*
X100124960Y-112510000D02*
X100126800Y-112511840D01*
X101600000Y-112510000D02*
X102662420Y-112510000D01*
X102662420Y-112510000D02*
X102666800Y-112514380D01*
D60*
X98976180Y-135724900D02*
X102956360Y-135724900D01*
X102956360Y-135724900D02*
X105580180Y-135724900D01*
X102961440Y-130614420D02*
X102961440Y-132253990D01*
X102961440Y-132253990D02*
X102956360Y-132259070D01*
X102956360Y-132259070D02*
X102956360Y-135724900D01*
D56*
X96619060Y-136271000D02*
X97165160Y-135724900D01*
X97165160Y-135724900D02*
X98976180Y-135724900D01*
X96619060Y-137002520D02*
X96619060Y-136271000D01*
D59*
X103751380Y-126850140D02*
X103751380Y-127500380D01*
X103751380Y-126243080D02*
X103751380Y-126850140D01*
X102974140Y-126243080D02*
X103751380Y-126243080D01*
X102974140Y-126867920D02*
X102974140Y-126243080D01*
X102974140Y-127497840D02*
X102974140Y-126867920D01*
X102974840Y-128435100D02*
X102974840Y-127498540D01*
X102974840Y-127498540D02*
X102974140Y-127497840D01*
D56*
X102961440Y-130614420D02*
X102961440Y-128448500D01*
X102961440Y-128448500D02*
X102974840Y-128435100D01*
D61*
X126448820Y-148023580D02*
X126448820Y-151071954D01*
X126448820Y-151071954D02*
X125176280Y-152344494D01*
X125176280Y-154251660D02*
X125176280Y-154556460D01*
X125176280Y-152344494D02*
X125176280Y-154251660D01*
D57*
X129180822Y-140191492D02*
X126143820Y-143228494D01*
X126143820Y-143228494D02*
X126143820Y-146149710D01*
X126143820Y-146149710D02*
X125834719Y-146458811D01*
X125834719Y-146458811D02*
X125834719Y-147048349D01*
X125834719Y-147048349D02*
X126143820Y-147357450D01*
X126143820Y-147357450D02*
X126143820Y-147718580D01*
X126143820Y-147718580D02*
X126448820Y-148023580D01*
X132131615Y-140191492D02*
X129180822Y-140191492D01*
X132645820Y-139677287D02*
X132131615Y-140191492D01*
X132473320Y-137952480D02*
X132473320Y-139039980D01*
X132473320Y-139039980D02*
X132645820Y-139212480D01*
X132645820Y-139212480D02*
X132645820Y-139677287D01*
D61*
X133952354Y-150446740D02*
X135336280Y-151830666D01*
X135336280Y-151830666D02*
X135336280Y-154251660D01*
X135336280Y-154251660D02*
X135336280Y-154556460D01*
X132104324Y-150446740D02*
X133952354Y-150446740D01*
X131528820Y-149871236D02*
X132104324Y-150446740D01*
X131528820Y-148023580D02*
X131528820Y-149871236D01*
D57*
X133175297Y-142232057D02*
X131223820Y-144183534D01*
X131223820Y-144183534D02*
X131223820Y-146149710D01*
X131223820Y-146149710D02*
X130914719Y-146458811D01*
X130914719Y-146458811D02*
X130914719Y-147048349D01*
X130914719Y-147048349D02*
X131223820Y-147357450D01*
X131223820Y-147357450D02*
X131223820Y-147718580D01*
X131223820Y-147718580D02*
X131528820Y-148023580D01*
X136040207Y-142232057D02*
X133175297Y-142232057D01*
X136545820Y-141726444D02*
X136040207Y-142232057D01*
X136373320Y-137952480D02*
X136373320Y-139039980D01*
X136373320Y-139039980D02*
X136545820Y-139212480D01*
X136545820Y-139212480D02*
X136545820Y-141726444D01*
D53*
X129953820Y-147357450D02*
X129953820Y-147718580D01*
D61*
X132075294Y-151119840D02*
X132796280Y-151840826D01*
X132796280Y-151840826D02*
X132796280Y-154251660D01*
X132796280Y-154251660D02*
X132796280Y-154556460D01*
X131163434Y-151119840D02*
X132075294Y-151119840D01*
X130258820Y-150215226D02*
X131163434Y-151119840D01*
X130258820Y-148023580D02*
X130258820Y-150215226D01*
D57*
X132555791Y-141576483D02*
X129953820Y-144178454D01*
X129644719Y-147048349D02*
X129953820Y-147357450D01*
X129953820Y-144178454D02*
X129953820Y-146149710D01*
X129953820Y-146149710D02*
X129644719Y-146458811D01*
X129644719Y-146458811D02*
X129644719Y-147048349D01*
X129953820Y-147718580D02*
X130258820Y-148023580D01*
X134572118Y-141576483D02*
X132555791Y-141576483D01*
X135245820Y-140902781D02*
X134572118Y-141576483D01*
X135073320Y-137952480D02*
X135073320Y-139039980D01*
X135073320Y-139039980D02*
X135245820Y-139212480D01*
X135245820Y-139212480D02*
X135245820Y-140902781D01*
D61*
X128988820Y-150400646D02*
X130256280Y-151668106D01*
X130256280Y-151668106D02*
X130256280Y-154251660D01*
X130256280Y-154251660D02*
X130256280Y-154556460D01*
X128988820Y-148023580D02*
X128988820Y-150400646D01*
D57*
X131461051Y-140867823D02*
X128683820Y-143645054D01*
X128374719Y-146458811D02*
X128374719Y-147048349D01*
X128683820Y-143645054D02*
X128683820Y-146149710D01*
X128683820Y-146149710D02*
X128374719Y-146458811D01*
X128374719Y-147048349D02*
X128683820Y-147357450D01*
X128683820Y-147357450D02*
X128683820Y-147718580D01*
X128683820Y-147718580D02*
X128988820Y-148023580D01*
X133439024Y-140867823D02*
X131461051Y-140867823D01*
X133945820Y-140361027D02*
X133439024Y-140867823D01*
X133773320Y-137952480D02*
X133773320Y-139039980D01*
X133773320Y-139039980D02*
X133945820Y-139212480D01*
X133945820Y-139212480D02*
X133945820Y-140361027D01*
D61*
X139776574Y-151305260D02*
X140416280Y-151944966D01*
X140416280Y-151944966D02*
X140416280Y-154251660D01*
X140416280Y-154251660D02*
X140416280Y-154556460D01*
X136022454Y-151305260D02*
X139776574Y-151305260D01*
X134068820Y-149351626D02*
X136022454Y-151305260D01*
X134068820Y-148023580D02*
X134068820Y-149351626D01*
X135008994Y-143121380D02*
X133764020Y-144366354D01*
X133764020Y-144366354D02*
X133764020Y-146129234D01*
X133764020Y-146129234D02*
X133441019Y-146452235D01*
X133441019Y-146452235D02*
X133441019Y-147054925D01*
X133441019Y-147054925D02*
X133764020Y-147377926D01*
X133764020Y-147377926D02*
X133764020Y-147718780D01*
X133764020Y-147718780D02*
X134068820Y-148023580D01*
X136360274Y-143121380D02*
X135008994Y-143121380D01*
X137845920Y-141635734D02*
X136360274Y-143121380D01*
X137673320Y-137952480D02*
X137673320Y-139039980D01*
X137673320Y-139039980D02*
X137845920Y-139212580D01*
X137845920Y-139212580D02*
X137845920Y-141635734D01*
X126753620Y-151198206D02*
X125481080Y-152470746D01*
X126753620Y-147058380D02*
X126753620Y-147399234D01*
X126448820Y-146753580D02*
X126753620Y-147058380D01*
X125481080Y-152470746D02*
X125481080Y-152897168D01*
X125481080Y-152897168D02*
X126116090Y-153532178D01*
X126753620Y-147399234D02*
X127076621Y-147722235D01*
X127076621Y-147722235D02*
X127076621Y-148324925D01*
X127076621Y-148324925D02*
X126753620Y-148647926D01*
X126753620Y-148647926D02*
X126753620Y-151198206D01*
X126116090Y-155072742D02*
X125481080Y-155707752D01*
X126116090Y-153532178D02*
X126116090Y-155072742D01*
X125481080Y-155707752D02*
X125481080Y-156791660D01*
X125481080Y-156791660D02*
X125176280Y-157096460D01*
D57*
X126448820Y-143354826D02*
X126448820Y-146448580D01*
X129307154Y-140496492D02*
X126448820Y-143354826D01*
X126448820Y-146448580D02*
X126448820Y-146753580D01*
X132257947Y-140496492D02*
X129307154Y-140496492D01*
X132950820Y-139803619D02*
X132257947Y-140496492D01*
X133123320Y-139039980D02*
X132950820Y-139212480D01*
X133123320Y-137952480D02*
X133123320Y-139039980D01*
X132950820Y-139212480D02*
X132950820Y-139803619D01*
D61*
X135641080Y-155707752D02*
X135641080Y-156791660D01*
X135641080Y-152897168D02*
X136276090Y-153532178D01*
X135641080Y-156791660D02*
X135336280Y-157096460D01*
X134078606Y-150141940D02*
X135641080Y-151704414D01*
X135641080Y-151704414D02*
X135641080Y-152897168D01*
X136276090Y-153532178D02*
X136276090Y-155072742D01*
X136276090Y-155072742D02*
X135641080Y-155707752D01*
X132230576Y-150141940D02*
X134078606Y-150141940D01*
X131833620Y-149744984D02*
X132230576Y-150141940D01*
X131833620Y-148647926D02*
X131833620Y-149744984D01*
X131528820Y-146753580D02*
X131833620Y-147058380D01*
X131833620Y-147058380D02*
X131833620Y-147399234D01*
X131833620Y-147399234D02*
X132156621Y-147722235D01*
X132156621Y-147722235D02*
X132156621Y-148324925D01*
X132156621Y-148324925D02*
X131833620Y-148647926D01*
D57*
X131528820Y-146448580D02*
X131528820Y-146753580D01*
X131528820Y-144309866D02*
X131528820Y-146448580D01*
X133301629Y-142537057D02*
X131528820Y-144309866D01*
X136166539Y-142537057D02*
X133301629Y-142537057D01*
X136850820Y-141852776D02*
X136166539Y-142537057D01*
X137023320Y-137952480D02*
X137023320Y-139039980D01*
X136850820Y-139212480D02*
X136850820Y-141852776D01*
X137023320Y-139039980D02*
X136850820Y-139212480D01*
D61*
X132201546Y-150815040D02*
X133101080Y-151714574D01*
X133101080Y-151714574D02*
X133101080Y-152897168D01*
X133736090Y-155072742D02*
X133101080Y-155707752D01*
X133101080Y-152897168D02*
X133736090Y-153532178D01*
X133736090Y-153532178D02*
X133736090Y-155072742D01*
X133101080Y-155707752D02*
X133101080Y-156791660D01*
X133101080Y-156791660D02*
X132796280Y-157096460D01*
X131289686Y-150815040D02*
X132201546Y-150815040D01*
X130563620Y-150088974D02*
X131289686Y-150815040D01*
X130258820Y-146753580D02*
X130563620Y-147058380D01*
X130563620Y-147058380D02*
X130563620Y-147399234D01*
X130563620Y-147399234D02*
X130886621Y-147722235D01*
X130886621Y-147722235D02*
X130886621Y-148324925D01*
X130886621Y-148324925D02*
X130563620Y-148647926D01*
X130563620Y-148647926D02*
X130563620Y-150088974D01*
D57*
X130563820Y-147058580D02*
X130563820Y-147419710D01*
X130258820Y-146753580D02*
X130563820Y-147058580D01*
X130563820Y-147419710D02*
X130872921Y-147728811D01*
X132682123Y-141881483D02*
X130258820Y-144304786D01*
X130258820Y-144304786D02*
X130258820Y-146448580D01*
X130258820Y-146448580D02*
X130258820Y-146753580D01*
X134698450Y-141881483D02*
X132682123Y-141881483D01*
X135550820Y-141029113D02*
X134698450Y-141881483D01*
X135723320Y-137952480D02*
X135723320Y-139039980D01*
X135723320Y-139039980D02*
X135550820Y-139212480D01*
X135550820Y-139212480D02*
X135550820Y-141029113D01*
D61*
X129293620Y-150274394D02*
X130561080Y-151541854D01*
X130561080Y-151541854D02*
X130561080Y-152897168D01*
X130561080Y-152897168D02*
X131196090Y-153532178D01*
X131196090Y-153532178D02*
X131196090Y-155072742D01*
X131196090Y-155072742D02*
X130561080Y-155707752D01*
X130561080Y-155707752D02*
X130561080Y-156791660D01*
X130561080Y-156791660D02*
X130256280Y-157096460D01*
X128988820Y-146753580D02*
X129293620Y-147058380D01*
X129293620Y-148647926D02*
X129293620Y-150274394D01*
X129293620Y-147058380D02*
X129293620Y-147399234D01*
X129293620Y-147399234D02*
X129616621Y-147722235D01*
X129616621Y-147722235D02*
X129616621Y-148324925D01*
X129616621Y-148324925D02*
X129293620Y-148647926D01*
D57*
X128988820Y-146753580D02*
X129293820Y-147058580D01*
X131587383Y-141172823D02*
X128988820Y-143771386D01*
X128988820Y-143771386D02*
X128988820Y-146448580D01*
X128988820Y-146448580D02*
X128988820Y-146753580D01*
X133565356Y-141172823D02*
X131587383Y-141172823D01*
X134250820Y-140487359D02*
X133565356Y-141172823D01*
X134423320Y-137952480D02*
X134423320Y-139039980D01*
X134423320Y-139039980D02*
X134250820Y-139212480D01*
X134250820Y-139212480D02*
X134250820Y-140487359D01*
D61*
X140721080Y-156791660D02*
X140416280Y-157096460D01*
X140721080Y-152897168D02*
X141356090Y-153532178D01*
X141356090Y-155072742D02*
X140721080Y-155707752D01*
X139902826Y-151000460D02*
X140721080Y-151818714D01*
X140721080Y-151818714D02*
X140721080Y-152897168D01*
X141356090Y-153532178D02*
X141356090Y-155072742D01*
X140721080Y-155707752D02*
X140721080Y-156791660D01*
X136148706Y-151000460D02*
X139902826Y-151000460D01*
X134373620Y-149225374D02*
X136148706Y-151000460D01*
X134696621Y-147722235D02*
X134696621Y-148324925D01*
X134068820Y-146753580D02*
X134373620Y-147058380D01*
X134373620Y-147058380D02*
X134373620Y-147399234D01*
X134373620Y-147399234D02*
X134696621Y-147722235D01*
X134696621Y-148324925D02*
X134373620Y-148647926D01*
X134373620Y-148647926D02*
X134373620Y-149225374D01*
X134068820Y-144492606D02*
X134068820Y-146448780D01*
X134068820Y-146448780D02*
X134068820Y-146753580D01*
X135135246Y-143426180D02*
X134068820Y-144492606D01*
X136486526Y-143426180D02*
X135135246Y-143426180D01*
X138150720Y-141761986D02*
X136486526Y-143426180D01*
X138323320Y-139039980D02*
X138150720Y-139212580D01*
X138323320Y-137952480D02*
X138323320Y-139039980D01*
X138150720Y-139212580D02*
X138150720Y-141761986D01*
D53*
X127347730Y-82061218D02*
X127713740Y-82427228D01*
X127713740Y-82427228D02*
X127713740Y-83167220D01*
D57*
X121263380Y-137225034D02*
X121848781Y-136639633D01*
X121848781Y-136639633D02*
X121848781Y-135969741D01*
X121848781Y-135969741D02*
X121657280Y-135778240D01*
X121165880Y-138607800D02*
X121165880Y-137857800D01*
X121165880Y-137857800D02*
X121263380Y-137760300D01*
X121263380Y-137760300D02*
X121263380Y-137225034D01*
D53*
X128035730Y-82061218D02*
X128035730Y-83166630D01*
X128035730Y-83166630D02*
X128036320Y-83167220D01*
D57*
X121568380Y-137351366D02*
X122153779Y-136765967D01*
X122153779Y-136765967D02*
X122153779Y-135969741D01*
X122153779Y-135969741D02*
X122345280Y-135778240D01*
X121665880Y-137857800D02*
X121568380Y-137760300D01*
X121665880Y-138607800D02*
X121665880Y-137857800D01*
X121568380Y-137760300D02*
X121568380Y-137351366D01*
D61*
X144038694Y-149849840D02*
X145496280Y-151307426D01*
X145496280Y-151307426D02*
X145496280Y-154251660D01*
X145496280Y-154251660D02*
X145496280Y-154556460D01*
X137274674Y-149849840D02*
X144038694Y-149849840D01*
X136608820Y-149183986D02*
X137274674Y-149849840D01*
X136608820Y-148023580D02*
X136608820Y-149183986D01*
D57*
X137495614Y-144419220D02*
X136303820Y-145611014D01*
X136303820Y-147718580D02*
X136608820Y-148023580D01*
X136303820Y-145611014D02*
X136303820Y-146149710D01*
X136303820Y-146149710D02*
X135994719Y-146458811D01*
X135994719Y-146458811D02*
X135994719Y-147048349D01*
X135994719Y-147048349D02*
X136303820Y-147357450D01*
X136303820Y-147357450D02*
X136303820Y-147718580D01*
X144726994Y-144419220D02*
X137495614Y-144419220D01*
X148117460Y-141028754D02*
X144726994Y-144419220D01*
X147519960Y-126552743D02*
X147519960Y-127227743D01*
X147519960Y-127227743D02*
X148117460Y-127825243D01*
X148117460Y-127825243D02*
X148117460Y-141028754D01*
D61*
X147519679Y-124774743D02*
X148145822Y-124148600D01*
X148145822Y-124148600D02*
X148145822Y-118785226D01*
X148145822Y-118785226D02*
X147726436Y-118365840D01*
X146005660Y-118488840D02*
X146830660Y-118488840D01*
X146830660Y-118488840D02*
X146953660Y-118365840D01*
X146953660Y-118365840D02*
X147726436Y-118365840D01*
D52*
X147519679Y-124774743D02*
X147519679Y-126552462D01*
X147519679Y-126552462D02*
X147519960Y-126552743D01*
D61*
X141394554Y-150578820D02*
X142956280Y-152140546D01*
X142956280Y-152140546D02*
X142956280Y-154251660D01*
X142956280Y-154251660D02*
X142956280Y-154556460D01*
X136513764Y-150578820D02*
X141394554Y-150578820D01*
X135338820Y-149403876D02*
X136513764Y-150578820D01*
X135338820Y-148023580D02*
X135338820Y-149403876D01*
D57*
X136573594Y-143723260D02*
X135033820Y-145263034D01*
X135033820Y-145263034D02*
X135033820Y-146149710D01*
X135033820Y-146149710D02*
X134724719Y-146458811D01*
X134724719Y-146458811D02*
X134724719Y-147048349D01*
X134724719Y-147048349D02*
X135033820Y-147357450D01*
X135033820Y-147357450D02*
X135033820Y-147718580D01*
X135033820Y-147718580D02*
X135338820Y-148023580D01*
X140988114Y-143723260D02*
X136573594Y-143723260D01*
X143826130Y-140885244D02*
X140988114Y-143723260D01*
X143228760Y-126547880D02*
X143228760Y-127222880D01*
X143228760Y-127222880D02*
X143826130Y-127820250D01*
X143826130Y-127820250D02*
X143826130Y-140885244D01*
D61*
X143848679Y-119547517D02*
X144284356Y-119111840D01*
X144284356Y-119111840D02*
X145057660Y-119111840D01*
X145057660Y-119111840D02*
X145180660Y-118988840D01*
X145180660Y-118988840D02*
X146005660Y-118988840D01*
X143225679Y-124774743D02*
X143225679Y-124099743D01*
X143225679Y-124099743D02*
X143848679Y-123476743D01*
X143848679Y-123476743D02*
X143848679Y-119547517D01*
D52*
X143225679Y-124774743D02*
X143225679Y-126544799D01*
X143225679Y-126544799D02*
X143228760Y-126547880D01*
D61*
X118209434Y-151038560D02*
X117556280Y-151691714D01*
X117556280Y-151691714D02*
X117556280Y-154251660D01*
X117556280Y-154251660D02*
X117556280Y-154556460D01*
X120960254Y-151038560D02*
X118209434Y-151038560D01*
X122638820Y-149359994D02*
X120960254Y-151038560D01*
X122638820Y-148023580D02*
X122638820Y-149359994D01*
D57*
X123263380Y-143767054D02*
X122333820Y-144696614D01*
X122333820Y-144696614D02*
X122333820Y-146149710D01*
X122333820Y-146149710D02*
X122024719Y-146458811D01*
X122333820Y-147357450D02*
X122333820Y-147718580D01*
X122024719Y-146458811D02*
X122024719Y-147048349D01*
X122024719Y-147048349D02*
X122333820Y-147357450D01*
X122333820Y-147718580D02*
X122638820Y-148023580D01*
X123165880Y-138607800D02*
X123165880Y-139357800D01*
X123165880Y-139357800D02*
X123263380Y-139455300D01*
X123263380Y-139455300D02*
X123263380Y-143767054D01*
D61*
X116254336Y-150491010D02*
X115016280Y-151729066D01*
X115016280Y-151729066D02*
X115016280Y-154251660D01*
X115016280Y-154251660D02*
X115016280Y-154556460D01*
X120404696Y-150491010D02*
X116254336Y-150491010D01*
X121368820Y-148023580D02*
X121368820Y-149526886D01*
X121368820Y-149526886D02*
X120404696Y-150491010D01*
D57*
X122568380Y-140395046D02*
X122372219Y-140591207D01*
X122372219Y-140591207D02*
X122372219Y-142071079D01*
X122372219Y-142071079D02*
X122609720Y-142308580D01*
X122665880Y-138607800D02*
X122665880Y-139357800D01*
X122665880Y-139357800D02*
X122568380Y-139455300D01*
X122568380Y-139455300D02*
X122568380Y-140395046D01*
D61*
X122636280Y-151991434D02*
X122636280Y-154251660D01*
X125178820Y-149448894D02*
X122636280Y-151991434D01*
X125178820Y-148023580D02*
X125178820Y-149448894D01*
X122636280Y-154251660D02*
X122636280Y-154556460D01*
D57*
X121263380Y-133358626D02*
X124411641Y-136506887D01*
X124411641Y-136506887D02*
X124411641Y-136721839D01*
X124411641Y-136721839D02*
X124174140Y-136959340D01*
X121165880Y-131107800D02*
X121165880Y-131857800D01*
X121165880Y-131857800D02*
X121263380Y-131955300D01*
X121263380Y-131955300D02*
X121263380Y-133358626D01*
X121263380Y-129205726D02*
X120794680Y-128737026D01*
X120794680Y-128737026D02*
X120794680Y-127977860D01*
X120794680Y-127977860D02*
X120197180Y-127380360D01*
X120197180Y-127380360D02*
X120197180Y-126705360D01*
X121165880Y-131107800D02*
X121165880Y-130357800D01*
X121165880Y-130357800D02*
X121263380Y-130260300D01*
X121263380Y-130260300D02*
X121263380Y-129205726D01*
D61*
X113514766Y-149682200D02*
X112476280Y-150720686D01*
X112476280Y-150720686D02*
X112476280Y-154251660D01*
X112476280Y-154251660D02*
X112476280Y-154556460D01*
X120098820Y-148023580D02*
X120098820Y-149279712D01*
X120098820Y-149279712D02*
X119696332Y-149682200D01*
X119696332Y-149682200D02*
X113514766Y-149682200D01*
D57*
X120568380Y-133730894D02*
X120568819Y-133731333D01*
X120568819Y-133731333D02*
X120568819Y-135484859D01*
X120568819Y-135484859D02*
X120806320Y-135722360D01*
X120665880Y-131107800D02*
X120665880Y-131857800D01*
X120665880Y-131857800D02*
X120568380Y-131955300D01*
X120568380Y-131955300D02*
X120568380Y-133730894D01*
X120568380Y-129377334D02*
X118892420Y-127701374D01*
X118892420Y-127701374D02*
X118892420Y-125514060D01*
X118892420Y-125514060D02*
X119489920Y-124916560D01*
X119489920Y-124916560D02*
X119489920Y-124241560D01*
X120665880Y-131107800D02*
X120665880Y-130357800D01*
X120665880Y-130357800D02*
X120568380Y-130260300D01*
X120568380Y-130260300D02*
X120568380Y-129377334D01*
D61*
X146436090Y-155072742D02*
X145801080Y-155707752D01*
X144164946Y-149545040D02*
X145801080Y-151181174D01*
X145801080Y-151181174D02*
X145801080Y-152897168D01*
X145801080Y-155707752D02*
X145801080Y-156791660D01*
X145801080Y-152897168D02*
X146436090Y-153532178D01*
X146436090Y-153532178D02*
X146436090Y-155072742D01*
X145801080Y-156791660D02*
X145496280Y-157096460D01*
X137400926Y-149545040D02*
X144164946Y-149545040D01*
X136913620Y-149057734D02*
X137400926Y-149545040D01*
X136608820Y-146753580D02*
X136913620Y-147058380D01*
X136913620Y-147058380D02*
X136913620Y-147399234D01*
X137236621Y-147722235D02*
X137236621Y-148324925D01*
X136913620Y-147399234D02*
X137236621Y-147722235D01*
X137236621Y-148324925D02*
X136913620Y-148647926D01*
X136913620Y-148647926D02*
X136913620Y-149057734D01*
D57*
X137621946Y-144724220D02*
X136608820Y-145737346D01*
X136608820Y-145737346D02*
X136608820Y-146448580D01*
X136608820Y-146448580D02*
X136608820Y-146753580D01*
X144853326Y-144724220D02*
X137621946Y-144724220D01*
X148422460Y-141155086D02*
X144853326Y-144724220D01*
X149019960Y-127227743D02*
X148422460Y-127825243D01*
X149019960Y-126552743D02*
X149019960Y-127227743D01*
X148422460Y-127825243D02*
X148422460Y-141155086D01*
D61*
X148399820Y-118680016D02*
X147831644Y-118111840D01*
X149021100Y-124769880D02*
X148399820Y-124148600D01*
X148399820Y-124148600D02*
X148399820Y-118680016D01*
X146005660Y-117988840D02*
X146830660Y-117988840D01*
X146830660Y-117988840D02*
X146953660Y-118111840D01*
X146953660Y-118111840D02*
X147831644Y-118111840D01*
D52*
X149021100Y-124769880D02*
X149021100Y-126551603D01*
X149021100Y-126551603D02*
X149019960Y-126552743D01*
D61*
X143261080Y-152897168D02*
X143896090Y-153532178D01*
X141520806Y-150274020D02*
X143261080Y-152014294D01*
X143896090Y-155072742D02*
X143261080Y-155707752D01*
X143261080Y-152014294D02*
X143261080Y-152897168D01*
X143896090Y-153532178D02*
X143896090Y-155072742D01*
X143261080Y-155707752D02*
X143261080Y-156791660D01*
X143261080Y-156791660D02*
X142956280Y-157096460D01*
X136640016Y-150274020D02*
X141520806Y-150274020D01*
X135643620Y-149277624D02*
X136640016Y-150274020D01*
X135338820Y-146753580D02*
X135643620Y-147058380D01*
X135643620Y-147058380D02*
X135643620Y-147399234D01*
X135966621Y-147722235D02*
X135966621Y-148324925D01*
X135643620Y-147399234D02*
X135966621Y-147722235D01*
X135966621Y-148324925D02*
X135643620Y-148647926D01*
X135643620Y-148647926D02*
X135643620Y-149277624D01*
D57*
X135338820Y-146753580D02*
X135643820Y-147058580D01*
X136699926Y-144028260D02*
X135338820Y-145389366D01*
X135338820Y-145389366D02*
X135338820Y-146448580D01*
X135338820Y-146448580D02*
X135338820Y-146753580D01*
X141114446Y-144028260D02*
X136699926Y-144028260D01*
X144131130Y-141011576D02*
X141114446Y-144028260D01*
X144728500Y-126547880D02*
X144728500Y-127222880D01*
X144728500Y-127222880D02*
X144131130Y-127820250D01*
X144131130Y-127820250D02*
X144131130Y-141011576D01*
D61*
X144102679Y-119652725D02*
X144389564Y-119365840D01*
X144389564Y-119365840D02*
X145057660Y-119365840D01*
X145057660Y-119365840D02*
X145180660Y-119488840D01*
X145180660Y-119488840D02*
X146005660Y-119488840D01*
X144725679Y-124099743D02*
X144102679Y-123476743D01*
X144725679Y-124774743D02*
X144725679Y-124099743D01*
X144102679Y-123476743D02*
X144102679Y-119652725D01*
D52*
X144725679Y-124774743D02*
X144725679Y-126545059D01*
X144725679Y-126545059D02*
X144728500Y-126547880D01*
D61*
X118335686Y-151343360D02*
X117861080Y-151817966D01*
X117861080Y-156791660D02*
X117556280Y-157096460D01*
X117861080Y-151817966D02*
X117861080Y-152897168D01*
X117861080Y-152897168D02*
X118496090Y-153532178D01*
X118496090Y-153532178D02*
X118496090Y-155072742D01*
X118496090Y-155072742D02*
X117861080Y-155707752D01*
X117861080Y-155707752D02*
X117861080Y-156791660D01*
X121086506Y-151343360D02*
X118335686Y-151343360D01*
X122943620Y-149486246D02*
X121086506Y-151343360D01*
X122638820Y-146753580D02*
X122943620Y-147058380D01*
X122943620Y-147058380D02*
X122943620Y-147399234D01*
X122943620Y-147399234D02*
X123266621Y-147722235D01*
X123266621Y-147722235D02*
X123266621Y-148324925D01*
X123266621Y-148324925D02*
X122943620Y-148647926D01*
X122943620Y-148647926D02*
X122943620Y-149486246D01*
D57*
X123568380Y-143893386D02*
X122638820Y-144822946D01*
X122638820Y-144822946D02*
X122638820Y-146448580D01*
X122638820Y-146448580D02*
X122638820Y-146753580D01*
X123665880Y-139357800D02*
X123568380Y-139455300D01*
X123665880Y-138607800D02*
X123665880Y-139357800D01*
X123568380Y-139455300D02*
X123568380Y-143893386D01*
D61*
X114076470Y-155072742D02*
X114711480Y-155707752D01*
X114711480Y-151602814D02*
X114711480Y-152897168D01*
X114711480Y-155707752D02*
X114711480Y-156791660D01*
X114711480Y-156791660D02*
X115016280Y-157096460D01*
X116128084Y-150186210D02*
X114711480Y-151602814D01*
X114711480Y-152897168D02*
X114076470Y-153532178D01*
X114076470Y-153532178D02*
X114076470Y-155072742D01*
X120278444Y-150186210D02*
X116128084Y-150186210D01*
X121064020Y-147058380D02*
X121064020Y-147399234D01*
X120741019Y-148324925D02*
X121064020Y-148647926D01*
X121368820Y-146753580D02*
X121064020Y-147058380D01*
X121064020Y-147399234D02*
X120741019Y-147722235D01*
X120741019Y-147722235D02*
X120741019Y-148324925D01*
X121064020Y-148647926D02*
X121064020Y-149400634D01*
X121064020Y-149400634D02*
X120278444Y-150186210D01*
D57*
X122067221Y-140464873D02*
X122067221Y-142071079D01*
X122263380Y-140268714D02*
X122067221Y-140464873D01*
X122067221Y-142071079D02*
X121829720Y-142308580D01*
X122165880Y-139357800D02*
X122263380Y-139455300D01*
X122263380Y-139455300D02*
X122263380Y-140268714D01*
X122165880Y-138607800D02*
X122165880Y-139357800D01*
D61*
X125483620Y-148647926D02*
X125483620Y-149575146D01*
X125483620Y-147058380D02*
X125483620Y-147399234D01*
X125806621Y-148324925D02*
X125483620Y-148647926D01*
X125178820Y-146753580D02*
X125483620Y-147058380D01*
X125483620Y-147399234D02*
X125806621Y-147722235D01*
X125806621Y-147722235D02*
X125806621Y-148324925D01*
X125483620Y-149575146D02*
X122941080Y-152117686D01*
X122941080Y-152117686D02*
X122941080Y-152897168D01*
X122941080Y-152897168D02*
X123576090Y-153532178D01*
X123576090Y-153532178D02*
X123576090Y-155072742D01*
X122941080Y-156791660D02*
X122636280Y-157096460D01*
X123576090Y-155072742D02*
X122941080Y-155707752D01*
X122941080Y-155707752D02*
X122941080Y-156791660D01*
D57*
X121568380Y-133232294D02*
X124716639Y-136380553D01*
X124716639Y-136380553D02*
X124716639Y-136721839D01*
X124716639Y-136721839D02*
X124954140Y-136959340D01*
X121568380Y-131955300D02*
X121568380Y-133232294D01*
X121665880Y-131107800D02*
X121665880Y-131857800D01*
X121665880Y-131857800D02*
X121568380Y-131955300D01*
X121099680Y-127977860D02*
X121697180Y-127380360D01*
X121568380Y-129079394D02*
X121099680Y-128610694D01*
X121099680Y-128610694D02*
X121099680Y-127977860D01*
X121697180Y-127380360D02*
X121697180Y-126705360D01*
X121665880Y-130357800D02*
X121568380Y-130260300D01*
X121665880Y-131107800D02*
X121665880Y-130357800D01*
X121568380Y-130260300D02*
X121568380Y-129079394D01*
D61*
X111536470Y-155072742D02*
X112171480Y-155707752D01*
X113388514Y-149377400D02*
X112171480Y-150594434D01*
X112171480Y-150594434D02*
X112171480Y-152897168D01*
X112171480Y-152897168D02*
X111536470Y-153532178D01*
X111536470Y-153532178D02*
X111536470Y-155072742D01*
X112171480Y-155707752D02*
X112171480Y-156791660D01*
X112171480Y-156791660D02*
X112476280Y-157096460D01*
X119534566Y-149377400D02*
X113388514Y-149377400D01*
X119794020Y-149117946D02*
X119534566Y-149377400D01*
X120098820Y-146753580D02*
X119794020Y-147058380D01*
X119794020Y-147058380D02*
X119794020Y-147399234D01*
X119794020Y-147399234D02*
X119471019Y-147722235D01*
X119471019Y-147722235D02*
X119471019Y-148324925D01*
X119471019Y-148324925D02*
X119794020Y-148647926D01*
X119794020Y-148647926D02*
X119794020Y-149117946D01*
D57*
X120263380Y-133857226D02*
X120263821Y-133857667D01*
X120263821Y-133857667D02*
X120263821Y-135484859D01*
X120263821Y-135484859D02*
X120026320Y-135722360D01*
X120263380Y-131955300D02*
X120263380Y-133857226D01*
X120165880Y-131107800D02*
X120165880Y-131857800D01*
X120165880Y-131857800D02*
X120263380Y-131955300D01*
X120263380Y-129503666D02*
X118587420Y-127827706D01*
X118587420Y-127827706D02*
X118587420Y-125514060D01*
X117989920Y-124916560D02*
X117989920Y-124241560D01*
X118587420Y-125514060D02*
X117989920Y-124916560D01*
X120165880Y-131107800D02*
X120165880Y-130357800D01*
X120165880Y-130357800D02*
X120263380Y-130260300D01*
X120263380Y-130260300D02*
X120263380Y-129503666D01*
D53*
X130327400Y-82395060D02*
X130187700Y-82534760D01*
X130187700Y-82534760D02*
X130187700Y-83167220D01*
D57*
X124691040Y-96177433D02*
X125275936Y-95592537D01*
X124093540Y-126705360D02*
X124093540Y-126030360D01*
X124093540Y-126030360D02*
X124691040Y-125432860D01*
X124691040Y-125432860D02*
X124691040Y-96177433D01*
X125275936Y-95592537D02*
X125275936Y-95321716D01*
X123263380Y-129647194D02*
X124691040Y-128219534D01*
X124691040Y-128219534D02*
X124691040Y-127977860D01*
X124691040Y-127977860D02*
X124093540Y-127380360D01*
X124093540Y-127380360D02*
X124093540Y-126705360D01*
X123165880Y-131107800D02*
X123165880Y-130357800D01*
X123165880Y-130357800D02*
X123263380Y-130260300D01*
X123263380Y-130260300D02*
X123263380Y-129647194D01*
D53*
X130157232Y-81809691D02*
X130157232Y-81877501D01*
X130157232Y-81877501D02*
X129887980Y-82146753D01*
X129887980Y-83167220D02*
X129887980Y-82146753D01*
D57*
X125593540Y-126705360D02*
X125593540Y-126030360D01*
X125593540Y-126030360D02*
X124996040Y-125432860D01*
X124996040Y-125432860D02*
X124996040Y-96303767D01*
X124996040Y-96303767D02*
X125491603Y-95808204D01*
X125491603Y-95808204D02*
X125762424Y-95808204D01*
X124996040Y-127977860D02*
X125593540Y-127380360D01*
X123568380Y-129773526D02*
X124996040Y-128345866D01*
X124996040Y-128345866D02*
X124996040Y-127977860D01*
X125593540Y-127380360D02*
X125593540Y-126705360D01*
X123665880Y-131107800D02*
X123665880Y-130357800D01*
X123665880Y-130357800D02*
X123568380Y-130260300D01*
X123568380Y-130260300D02*
X123568380Y-129773526D01*
D53*
X130787140Y-82878892D02*
X131314655Y-82351377D01*
X131314655Y-82351377D02*
X131580580Y-82351377D01*
X131580580Y-82351377D02*
X131745682Y-82186275D01*
X131745682Y-82186275D02*
X131999681Y-81932276D01*
X130787140Y-83167220D02*
X130787140Y-82878892D01*
D57*
X123096120Y-122969060D02*
X123096120Y-99978937D01*
X123096120Y-99978937D02*
X123748953Y-99326104D01*
X123748953Y-99326104D02*
X124019774Y-99326104D01*
X123693620Y-124241560D02*
X123693620Y-123566560D01*
X123693620Y-123566560D02*
X123096120Y-122969060D01*
X122568380Y-128782166D02*
X123096120Y-128254426D01*
X123096120Y-128254426D02*
X123096120Y-125514060D01*
X123096120Y-125514060D02*
X123693620Y-124916560D01*
X123693620Y-124916560D02*
X123693620Y-124241560D01*
X122665880Y-131107800D02*
X122665880Y-130357800D01*
X122665880Y-130357800D02*
X122568380Y-130260300D01*
X122568380Y-130260300D02*
X122568380Y-128782166D01*
D53*
X130487420Y-83167220D02*
X130487420Y-82855310D01*
X130487420Y-82855310D02*
X131057682Y-82285048D01*
X131057682Y-82285048D02*
X131057682Y-82186275D01*
X131057682Y-82186275D02*
X131311681Y-81932276D01*
D57*
X122791120Y-122969060D02*
X122791120Y-99852603D01*
X122791120Y-99852603D02*
X123533286Y-99110437D01*
X123533286Y-99110437D02*
X123533286Y-98839616D01*
X122193620Y-123566560D02*
X122791120Y-122969060D01*
X122193620Y-124241560D02*
X122193620Y-123566560D01*
X122791120Y-125514060D02*
X122193620Y-124916560D01*
X122263380Y-128655834D02*
X122791120Y-128128094D01*
X122791120Y-128128094D02*
X122791120Y-125514060D01*
X122193620Y-124916560D02*
X122193620Y-124241560D01*
X122165880Y-131107800D02*
X122165880Y-130357800D01*
X122165880Y-130357800D02*
X122263380Y-130260300D01*
X122263380Y-130260300D02*
X122263380Y-128655834D01*
D53*
X128865244Y-82392513D02*
X128965960Y-82493229D01*
X128965960Y-82493229D02*
X128965960Y-83167220D01*
D57*
X128606240Y-85581221D02*
X128414739Y-85389720D01*
X120527577Y-97256756D02*
X128606240Y-89178093D01*
X128606240Y-89178093D02*
X128606240Y-85581221D01*
X120256756Y-97256756D02*
X120527577Y-97256756D01*
X120165880Y-138607800D02*
X120165880Y-137857800D01*
X120165880Y-137857800D02*
X120263380Y-137760300D01*
X120263380Y-137362426D02*
X119039541Y-136138587D01*
X120263380Y-137760300D02*
X120263380Y-137362426D01*
X119039541Y-136138587D02*
X119039541Y-134867381D01*
X119039541Y-134867381D02*
X118848040Y-134675880D01*
D53*
X128604377Y-81841548D02*
X128454831Y-81991094D01*
X128454831Y-81991094D02*
X128454831Y-82182656D01*
X128454831Y-82182656D02*
X128446143Y-82191344D01*
X128666240Y-82786220D02*
X128666240Y-83167220D01*
X128446143Y-82191344D02*
X128446143Y-82566123D01*
X128446143Y-82566123D02*
X128666240Y-82786220D01*
D57*
X120743244Y-97472423D02*
X128911238Y-89304429D01*
X128911238Y-89304429D02*
X128911238Y-85581221D01*
X128911238Y-85581221D02*
X129102739Y-85389720D01*
X120743244Y-97743244D02*
X120743244Y-97472423D01*
X120568380Y-137760300D02*
X120568380Y-137236094D01*
X120665880Y-137857800D02*
X120568380Y-137760300D01*
X120665880Y-138607800D02*
X120665880Y-137857800D01*
X120568380Y-137236094D02*
X119344539Y-136012253D01*
X119344539Y-136012253D02*
X119344539Y-134867381D01*
X119344539Y-134867381D02*
X119536040Y-134675880D01*
D53*
X124470159Y-81986119D02*
X125122940Y-82638900D01*
X125122940Y-82638900D02*
X125122940Y-83383120D01*
X123296680Y-83357720D02*
X123296680Y-82658710D01*
X123296680Y-82658710D02*
X123969271Y-81986119D01*
X123969271Y-81986119D02*
X124470159Y-81986119D01*
D52*
G36*
X104543599Y-131866640D02*
X101414580Y-131866640D01*
X101414580Y-129636520D01*
X102260400Y-129636520D01*
X102309810Y-129626514D01*
X102351435Y-129598073D01*
X102378715Y-129555679D01*
X102387400Y-129509347D01*
X102386960Y-129185384D01*
X102471271Y-129061990D01*
X102522280Y-128810100D01*
X102522280Y-128060100D01*
X102478002Y-127824783D01*
X102427340Y-127746052D01*
X102427340Y-127736112D01*
X102554853Y-127429028D01*
X102555227Y-126999576D01*
X102391229Y-126602671D01*
X102383440Y-126594868D01*
X102382541Y-125933200D01*
X104531420Y-125933200D01*
X104543599Y-131866640D01*
X104543599Y-131866640D01*
G37*
X104543599Y-131866640D02*
X101414580Y-131866640D01*
X101414580Y-129636520D01*
X102260400Y-129636520D01*
X102309810Y-129626514D01*
X102351435Y-129598073D01*
X102378715Y-129555679D01*
X102387400Y-129509347D01*
X102386960Y-129185384D01*
X102471271Y-129061990D01*
X102522280Y-128810100D01*
X102522280Y-128060100D01*
X102478002Y-127824783D01*
X102427340Y-127746052D01*
X102427340Y-127736112D01*
X102554853Y-127429028D01*
X102555227Y-126999576D01*
X102391229Y-126602671D01*
X102383440Y-126594868D01*
X102382541Y-125933200D01*
X104531420Y-125933200D01*
X104543599Y-131866640D01*
G36*
X159164020Y-127081491D02*
X159171429Y-131538980D01*
X155625800Y-131538980D01*
X155625800Y-129859392D01*
X156492590Y-129854958D01*
X156541948Y-129844700D01*
X156583426Y-129816047D01*
X156610489Y-129773513D01*
X156618940Y-129728194D01*
X156619829Y-129245946D01*
X156695191Y-129135650D01*
X156746200Y-128883760D01*
X156746200Y-128133760D01*
X156701922Y-127898443D01*
X156622540Y-127775081D01*
X156624002Y-126982220D01*
X159164020Y-126982220D01*
X159164020Y-127081491D01*
X159164020Y-127081491D01*
G37*
X159164020Y-127081491D02*
X159171429Y-131538980D01*
X155625800Y-131538980D01*
X155625800Y-129859392D01*
X156492590Y-129854958D01*
X156541948Y-129844700D01*
X156583426Y-129816047D01*
X156610489Y-129773513D01*
X156618940Y-129728194D01*
X156619829Y-129245946D01*
X156695191Y-129135650D01*
X156746200Y-128883760D01*
X156746200Y-128133760D01*
X156701922Y-127898443D01*
X156622540Y-127775081D01*
X156624002Y-126982220D01*
X159164020Y-126982220D01*
X159164020Y-127081491D01*
G36*
X154782520Y-139100560D02*
X153766520Y-139100560D01*
X153717110Y-139110566D01*
X153675485Y-139139007D01*
X153648205Y-139181401D01*
X153639520Y-139227560D01*
X153639520Y-141259560D01*
X153649526Y-141308970D01*
X153677967Y-141350595D01*
X153720361Y-141377875D01*
X153753883Y-141385930D01*
X154909520Y-141501494D01*
X154909520Y-144180560D01*
X154432000Y-144180560D01*
X154382590Y-144190566D01*
X154340965Y-144219007D01*
X154313685Y-144261401D01*
X154305000Y-144307560D01*
X154305000Y-158877000D01*
X149606000Y-158877000D01*
X149606000Y-148752560D01*
X149595994Y-148703150D01*
X149567553Y-148661525D01*
X149525159Y-148634245D01*
X149479000Y-148625560D01*
X138803677Y-148625560D01*
X138963631Y-148240347D01*
X138964008Y-147808707D01*
X138799174Y-147409780D01*
X138780520Y-147391094D01*
X138780520Y-147386536D01*
X138798102Y-147368985D01*
X138963631Y-146970347D01*
X138964008Y-146538707D01*
X138799174Y-146139780D01*
X138780520Y-146121093D01*
X138780520Y-145958560D01*
X149956520Y-145958560D01*
X150005930Y-145948554D01*
X150042337Y-145925179D01*
X151566337Y-144528179D01*
X151595999Y-144487415D01*
X151607520Y-144434560D01*
X151607520Y-140624560D01*
X151988520Y-140624560D01*
X152037930Y-140614554D01*
X152079555Y-140586113D01*
X152106835Y-140543719D01*
X152115520Y-140497560D01*
X152115520Y-137449560D01*
X154782520Y-137449560D01*
X154782520Y-139100560D01*
X154782520Y-139100560D01*
G37*
X154782520Y-139100560D02*
X153766520Y-139100560D01*
X153717110Y-139110566D01*
X153675485Y-139139007D01*
X153648205Y-139181401D01*
X153639520Y-139227560D01*
X153639520Y-141259560D01*
X153649526Y-141308970D01*
X153677967Y-141350595D01*
X153720361Y-141377875D01*
X153753883Y-141385930D01*
X154909520Y-141501494D01*
X154909520Y-144180560D01*
X154432000Y-144180560D01*
X154382590Y-144190566D01*
X154340965Y-144219007D01*
X154313685Y-144261401D01*
X154305000Y-144307560D01*
X154305000Y-158877000D01*
X149606000Y-158877000D01*
X149606000Y-148752560D01*
X149595994Y-148703150D01*
X149567553Y-148661525D01*
X149525159Y-148634245D01*
X149479000Y-148625560D01*
X138803677Y-148625560D01*
X138963631Y-148240347D01*
X138964008Y-147808707D01*
X138799174Y-147409780D01*
X138780520Y-147391094D01*
X138780520Y-147386536D01*
X138798102Y-147368985D01*
X138963631Y-146970347D01*
X138964008Y-146538707D01*
X138799174Y-146139780D01*
X138780520Y-146121093D01*
X138780520Y-145958560D01*
X149956520Y-145958560D01*
X150005930Y-145948554D01*
X150042337Y-145925179D01*
X151566337Y-144528179D01*
X151595999Y-144487415D01*
X151607520Y-144434560D01*
X151607520Y-140624560D01*
X151988520Y-140624560D01*
X152037930Y-140614554D01*
X152079555Y-140586113D01*
X152106835Y-140543719D01*
X152115520Y-140497560D01*
X152115520Y-137449560D01*
X154782520Y-137449560D01*
X154782520Y-139100560D01*
G36*
X100330000Y-138811000D02*
X99695000Y-138811000D01*
X99645590Y-138821006D01*
X99603965Y-138849447D01*
X99576685Y-138891841D01*
X99568000Y-138938000D01*
X99568000Y-141351000D01*
X99578006Y-141400410D01*
X99606447Y-141442035D01*
X99648841Y-141469315D01*
X99695000Y-141478000D01*
X100711000Y-141478000D01*
X100711000Y-143510000D01*
X100720083Y-143557167D01*
X101736083Y-146097167D01*
X101763724Y-146139327D01*
X101805590Y-146167411D01*
X101854000Y-146177000D01*
X118110000Y-146177000D01*
X118110000Y-146225181D01*
X118081703Y-146253429D01*
X117947174Y-146577410D01*
X117946868Y-146928211D01*
X118080831Y-147252427D01*
X118110000Y-147281647D01*
X118110000Y-147495181D01*
X118081703Y-147523429D01*
X117947174Y-147847410D01*
X117946868Y-148198211D01*
X118080831Y-148522427D01*
X118110000Y-148551647D01*
X118110000Y-148717000D01*
X108458000Y-148717000D01*
X108408590Y-148727006D01*
X108366965Y-148755447D01*
X108339685Y-148797841D01*
X108331000Y-148844000D01*
X108331000Y-158877000D01*
X103886000Y-158877000D01*
X103886000Y-149860000D01*
X103875994Y-149810590D01*
X103847553Y-149768965D01*
X103805159Y-149741685D01*
X103759000Y-149733000D01*
X99778378Y-149733000D01*
X98161250Y-146001166D01*
X97155000Y-143485541D01*
X97155000Y-141605000D01*
X97663000Y-141605000D01*
X97712410Y-141594994D01*
X97754035Y-141566553D01*
X97781315Y-141524159D01*
X97790000Y-141478000D01*
X97790000Y-137160000D01*
X100330000Y-137160000D01*
X100330000Y-138811000D01*
X100330000Y-138811000D01*
G37*
X100330000Y-138811000D02*
X99695000Y-138811000D01*
X99645590Y-138821006D01*
X99603965Y-138849447D01*
X99576685Y-138891841D01*
X99568000Y-138938000D01*
X99568000Y-141351000D01*
X99578006Y-141400410D01*
X99606447Y-141442035D01*
X99648841Y-141469315D01*
X99695000Y-141478000D01*
X100711000Y-141478000D01*
X100711000Y-143510000D01*
X100720083Y-143557167D01*
X101736083Y-146097167D01*
X101763724Y-146139327D01*
X101805590Y-146167411D01*
X101854000Y-146177000D01*
X118110000Y-146177000D01*
X118110000Y-146225181D01*
X118081703Y-146253429D01*
X117947174Y-146577410D01*
X117946868Y-146928211D01*
X118080831Y-147252427D01*
X118110000Y-147281647D01*
X118110000Y-147495181D01*
X118081703Y-147523429D01*
X117947174Y-147847410D01*
X117946868Y-148198211D01*
X118080831Y-148522427D01*
X118110000Y-148551647D01*
X118110000Y-148717000D01*
X108458000Y-148717000D01*
X108408590Y-148727006D01*
X108366965Y-148755447D01*
X108339685Y-148797841D01*
X108331000Y-148844000D01*
X108331000Y-158877000D01*
X103886000Y-158877000D01*
X103886000Y-149860000D01*
X103875994Y-149810590D01*
X103847553Y-149768965D01*
X103805159Y-149741685D01*
X103759000Y-149733000D01*
X99778378Y-149733000D01*
X98161250Y-146001166D01*
X97155000Y-143485541D01*
X97155000Y-141605000D01*
X97663000Y-141605000D01*
X97712410Y-141594994D01*
X97754035Y-141566553D01*
X97781315Y-141524159D01*
X97790000Y-141478000D01*
X97790000Y-137160000D01*
X100330000Y-137160000D01*
X100330000Y-138811000D01*
M02*
